<?xml version="1.0" encoding="iso-8859-1"?>
<!-- Generator: Adobe Illustrator 16.0.0, SVG Export Plug-In . SVG Version: 6.00 Build 0)  -->
<!DOCTYPE svg PUBLIC "-//W3C//DTD SVG 1.1//EN" "http://www.w3.org/Graphics/SVG/1.1/DTD/svg11.dtd">
<svg version="1.1" xmlns="http://www.w3.org/2000/svg" xmlns:xlink="http://www.w3.org/1999/xlink" x="0px" y="0px" width="32px"
	 height="32px" viewBox="0 0 32 32" style="enable-background:new 0 0 32 32;" xml:space="preserve">
<g id="adjust">
	<path id="path5177" inkscape:connector-curvature="0" d="M4.841,4.841V4.792C7.935,1.73,11.655,0.2,16,0.2l0.987,0.049
		c3.917,0.198,7.308,1.729,10.171,4.592C30.253,7.935,31.8,11.655,31.8,16c0,4.378-1.547,8.114-4.642,11.208
		c-2.863,2.831-6.254,4.362-10.171,4.592H16c-4.345,0-8.065-1.53-11.159-4.592C1.747,24.114,0.2,20.378,0.2,16
		c0-4.345,1.53-8.065,4.592-11.159H4.841 M16.987,6.174L16,6.125v19.799l0.987-0.049c2.305-0.197,4.313-1.151,6.023-2.864h0.05
		c1.913-1.909,2.863-4.246,2.863-7.011c0-2.732-0.953-5.069-2.863-7.011C21.315,7.31,19.292,6.372,16.987,6.174"/>
</g>
<g id="Ebene_1">
</g>
</svg>
