<?xml version="1.0" encoding="iso-8859-1"?>
<!-- Generator: Adobe Illustrator 16.0.0, SVG Export Plug-In . SVG Version: 6.00 Build 0)  -->
<!DOCTYPE svg PUBLIC "-//W3C//DTD SVG 1.1//EN" "http://www.w3.org/Graphics/SVG/1.1/DTD/svg11.dtd">
<svg version="1.1" xmlns="http://www.w3.org/2000/svg" xmlns:xlink="http://www.w3.org/1999/xlink" x="0px" y="0px" width="32px"
	 height="32px" viewBox="0 0 32 32" style="enable-background:new 0 0 32 32;" xml:space="preserve">
<g id="arrow-bottom-left">
	<path id="path5243" inkscape:connector-curvature="0" d="M31.8,9.06c0,0.601-0.244,1.128-0.733,1.58L19.724,22.037l4.797,4.854
		c0.452,0.45,0.695,0.999,0.734,1.635c-0.039,0.64-0.282,1.204-0.734,1.693l-1.579,1.58H0.2V9.06l1.58-1.637
		c0.452-0.452,1.016-0.696,1.693-0.733c0.64,0.037,1.186,0.282,1.637,0.733l4.909,4.909L21.36,0.934
		c0.452-0.452,0.979-0.696,1.581-0.733c0.636,0.037,1.185,0.282,1.636,0.733l6.43,6.433C31.462,7.855,31.725,8.419,31.8,9.06"/>
</g>
<g id="Ebene_1">
</g>
</svg>
