<?xml version="1.0" encoding="iso-8859-1"?>
<!-- Generator: Adobe Illustrator 16.0.0, SVG Export Plug-In . SVG Version: 6.00 Build 0)  -->
<!DOCTYPE svg PUBLIC "-//W3C//DTD SVG 1.1//EN" "http://www.w3.org/Graphics/SVG/1.1/DTD/svg11.dtd">
<svg version="1.1" xmlns="http://www.w3.org/2000/svg" xmlns:xlink="http://www.w3.org/1999/xlink" x="0px" y="0px" width="32px"
	 height="32px" viewBox="0 0 32 32" style="enable-background:new 0 0 32 32;" xml:space="preserve">
<g id="arrow-bottom-right">
	<path id="path5201" inkscape:connector-curvature="0" d="M7.367,0.934C7.818,0.482,8.363,0.237,9.002,0.2
		c0.641,0,1.186,0.226,1.637,0.677l11.342,11.398l4.853-4.853c0.452-0.452,0.998-0.696,1.637-0.733
		c0.678,0.037,1.242,0.282,1.692,0.733L31.8,9.06V31.8H9.002l-1.58-1.637c-0.452-0.45-0.696-0.997-0.733-1.637
		c0.037-0.636,0.282-1.2,0.733-1.692l4.853-4.853L0.934,10.583C0.482,10.131,0.237,9.624,0.2,9.06
		c0.037-0.677,0.282-1.242,0.733-1.693L7.367,0.934"/>
</g>
<g id="Ebene_1">
</g>
</svg>
