<?xml version="1.0" encoding="iso-8859-1"?>
<!-- Generator: Adobe Illustrator 16.0.0, SVG Export Plug-In . SVG Version: 6.00 Build 0)  -->
<!DOCTYPE svg PUBLIC "-//W3C//DTD SVG 1.1//EN" "http://www.w3.org/Graphics/SVG/1.1/DTD/svg11.dtd">
<svg version="1.1" xmlns="http://www.w3.org/2000/svg" xmlns:xlink="http://www.w3.org/1999/xlink" x="0px" y="0px" width="32px"
	 height="32px" viewBox="0 0 32 32" style="enable-background:new 0 0 32 32;" xml:space="preserve">
<g id="arrow-top">
	<path id="path5203" inkscape:connector-curvature="0" d="M29.012,13.212v1.859c0,0.526-0.186,0.976-0.558,1.348
		c-0.372,0.34-0.82,0.511-1.348,0.511h-5.53v13.012c0,0.526-0.186,0.976-0.557,1.348c-0.372,0.34-0.821,0.511-1.349,0.511h-7.389
		c-0.527,0-0.976-0.171-1.348-0.511c-0.341-0.372-0.511-0.821-0.511-1.348V16.93H4.847c-0.527,0-0.976-0.171-1.348-0.511
		c-0.341-0.372-0.511-0.822-0.511-1.348v-1.859L16,0.2L29.012,13.212"/>
</g>
<g id="Ebene_1">
</g>
</svg>
