<?xml version="1.0" encoding="iso-8859-1"?>
<!-- Generator: Adobe Illustrator 16.0.0, SVG Export Plug-In . SVG Version: 6.00 Build 0)  -->
<!DOCTYPE svg PUBLIC "-//W3C//DTD SVG 1.1//EN" "http://www.w3.org/Graphics/SVG/1.1/DTD/svg11.dtd">
<svg version="1.1" xmlns="http://www.w3.org/2000/svg" xmlns:xlink="http://www.w3.org/1999/xlink" x="0px" y="0px" width="32px"
	 height="32px" viewBox="0 0 32 32" style="enable-background:new 0 0 32 32;" xml:space="preserve">
<g id="arrow-right">
	<path id="arrow-right_1_" inkscape:connector-curvature="0" inkscape:label="#path5197" d="M15.071,4.894
		c0-0.526,0.17-0.976,0.511-1.348c0.372-0.372,0.821-0.558,1.348-0.558h1.858L31.8,16L18.788,29.012H16.93
		c-0.527,0-0.976-0.171-1.348-0.511c-0.341-0.372-0.511-0.821-0.511-1.348v-5.577H2.059c-0.527,0-0.976-0.17-1.348-0.511
		C0.37,20.693,0.2,20.244,0.2,19.718v-7.389c0-0.527,0.17-0.976,0.511-1.347c0.372-0.372,0.821-0.558,1.348-0.558h13.012V4.894"/>
</g>
<g id="Ebene_1">
</g>
</svg>
