<?xml version="1.0" encoding="iso-8859-1"?>
<!-- Generator: Adobe Illustrator 16.0.0, SVG Export Plug-In . SVG Version: 6.00 Build 0)  -->
<!DOCTYPE svg PUBLIC "-//W3C//DTD SVG 1.1//EN" "http://www.w3.org/Graphics/SVG/1.1/DTD/svg11.dtd">
<svg version="1.1" xmlns="http://www.w3.org/2000/svg" xmlns:xlink="http://www.w3.org/1999/xlink" x="0px" y="0px" width="32px"
	 height="32px" viewBox="0 0 32 32" style="enable-background:new 0 0 32 32;" xml:space="preserve">
<g id="arrow-top-right">
	<path id="path5199" inkscape:connector-curvature="0" d="M28.471,25.311c-0.639-0.037-1.185-0.302-1.637-0.79l-4.908-4.854
		L10.583,31.011c-0.452,0.489-0.979,0.753-1.58,0.789c-0.639-0.036-1.185-0.302-1.636-0.789l-6.433-6.435
		C0.482,24.129,0.238,23.58,0.2,22.941c0-0.599,0.226-1.149,0.677-1.634L12.219,9.963L7.423,5.11
		C6.971,4.659,6.727,4.113,6.689,3.474C6.727,2.795,6.971,2.231,7.423,1.78l1.58-1.58H31.8v22.741l-1.637,1.577
		C29.713,25.009,29.148,25.273,28.471,25.311"/>
</g>
<g id="Ebene_1">
</g>
</svg>
