<?xml version="1.0" encoding="iso-8859-1"?>
<!-- Generator: Adobe Illustrator 16.0.0, SVG Export Plug-In . SVG Version: 6.00 Build 0)  -->
<!DOCTYPE svg PUBLIC "-//W3C//DTD SVG 1.1//EN" "http://www.w3.org/Graphics/SVG/1.1/DTD/svg11.dtd">
<svg version="1.1" xmlns="http://www.w3.org/2000/svg" xmlns:xlink="http://www.w3.org/1999/xlink" x="0px" y="0px" width="32px"
	 height="32px" viewBox="0 0 32 32" style="enable-background:new 0 0 32 32;" xml:space="preserve">
<g id="arrow-top-left">
	<path id="path5195" inkscape:connector-curvature="0" d="M19.668,9.963l11.398,11.399c0.451,0.452,0.696,0.996,0.733,1.637
		c0,0.601-0.226,1.129-0.677,1.58l-6.489,6.489c-0.451,0.449-0.998,0.693-1.637,0.731c-0.64-0.038-1.185-0.282-1.637-0.731
		L9.962,19.666L5.109,24.52c-0.451,0.451-0.997,0.719-1.637,0.79c-0.639,0-1.185-0.226-1.636-0.68L0.2,22.999V0.2h22.797
		l1.637,1.637c0.447,0.451,0.677,0.996,0.677,1.636c-0.037,0.604-0.282,1.129-0.733,1.58L19.668,9.963"/>
</g>
<g id="Ebene_1">
</g>
</svg>
