<?xml version="1.0" encoding="iso-8859-1"?>
<!-- Generator: Adobe Illustrator 16.0.0, SVG Export Plug-In . SVG Version: 6.00 Build 0)  -->
<!DOCTYPE svg PUBLIC "-//W3C//DTD SVG 1.1//EN" "http://www.w3.org/Graphics/SVG/1.1/DTD/svg11.dtd">
<svg version="1.1" xmlns="http://www.w3.org/2000/svg" xmlns:xlink="http://www.w3.org/1999/xlink" x="0px" y="0px" width="32px"
	 height="32px" viewBox="0 0 32 32" style="enable-background:new 0 0 32 32;" xml:space="preserve">
<g id="arrow-left">
	<path id="path5205" inkscape:connector-curvature="0" d="M29.941,10.423c0.526,0,0.976,0.186,1.348,0.558
		c0.34,0.372,0.511,0.82,0.511,1.347v7.389c0,0.526-0.171,0.976-0.511,1.348c-0.372,0.341-0.821,0.511-1.348,0.511H16.93v5.577
		c0,0.526-0.171,0.976-0.511,1.348c-0.372,0.34-0.821,0.511-1.348,0.511h-1.859L0.2,16L13.212,2.988h1.859
		c0.527,0,0.976,0.186,1.348,0.558c0.34,0.372,0.511,0.821,0.511,1.348v5.53H29.941"/>
</g>
<g id="Ebene_1">
</g>
</svg>
