<?xml version="1.0" encoding="iso-8859-1"?>
<!-- Generator: Adobe Illustrator 16.0.0, SVG Export Plug-In . SVG Version: 6.00 Build 0)  -->
<!DOCTYPE svg PUBLIC "-//W3C//DTD SVG 1.1//EN" "http://www.w3.org/Graphics/SVG/1.1/DTD/svg11.dtd">
<svg version="1.1" xmlns="http://www.w3.org/2000/svg" xmlns:xlink="http://www.w3.org/1999/xlink" x="0px" y="0px" width="32px"
	 height="32px" viewBox="0 0 32 32" style="enable-background:new 0 0 32 32;" xml:space="preserve">
<g id="arrow-bottom">
	<path id="path5245" inkscape:connector-curvature="0" d="M28.454,15.582c0.372,0.372,0.558,0.822,0.558,1.348v1.858L16,31.8
		L2.988,18.788V16.93c0-0.526,0.17-0.976,0.511-1.348c0.373-0.34,0.821-0.511,1.348-0.511h5.576V2.059
		c0-0.526,0.17-0.976,0.511-1.348c0.372-0.34,0.821-0.511,1.348-0.511h7.389c0.527,0,0.977,0.171,1.349,0.511
		c0.371,0.372,0.557,0.822,0.557,1.348v13.012h5.53C27.634,15.071,28.082,15.242,28.454,15.582"/>
</g>
<g id="Ebene_1">
</g>
</svg>
