<?xml version="1.0" encoding="iso-8859-1"?>
<!-- Generator: Adobe Illustrator 16.0.0, SVG Export Plug-In . SVG Version: 6.00 Build 0)  -->
<!DOCTYPE svg PUBLIC "-//W3C//DTD SVG 1.1//EN" "http://www.w3.org/Graphics/SVG/1.1/DTD/svg11.dtd">
<svg version="1.1" xmlns="http://www.w3.org/2000/svg" xmlns:xlink="http://www.w3.org/1999/xlink" x="0px" y="0px" width="32px"
	 height="32px" viewBox="0 0 32 32" style="enable-background:new 0 0 32 32;" xml:space="preserve">
<g id="backward">
	<path id="path5111" inkscape:connector-curvature="0" d="M31.343,3.193C31.647,3.526,31.8,3.928,31.8,4.399v23.243
		c0,0.471-0.152,0.872-0.457,1.205c-0.333,0.305-0.735,0.458-1.206,0.458h-1.663L16.832,17.663v9.979
		c0,0.471-0.153,0.872-0.458,1.205c-0.333,0.305-0.735,0.458-1.206,0.458h-1.663L0.2,16L13.505,2.694h1.663
		c0.471,0,0.873,0.167,1.206,0.499c0.304,0.333,0.458,0.734,0.458,1.206v9.938L28.474,2.694h1.663
		C30.607,2.694,31.01,2.861,31.343,3.193"/>
</g>
<g id="Ebene_1">
</g>
</svg>
