<?xml version="1.0" encoding="iso-8859-1"?>
<!-- Generator: Adobe Illustrator 16.0.0, SVG Export Plug-In . SVG Version: 6.00 Build 0)  -->
<!DOCTYPE svg PUBLIC "-//W3C//DTD SVG 1.1//EN" "http://www.w3.org/Graphics/SVG/1.1/DTD/svg11.dtd">
<svg version="1.1" xmlns="http://www.w3.org/2000/svg" xmlns:xlink="http://www.w3.org/1999/xlink" x="0px" y="0px" width="32px"
	 height="32px" viewBox="0 0 32 32" style="enable-background:new 0 0 32 32;" xml:space="preserve">
<g id="bottom">
	<path id="path6614" inkscape:connector-curvature="0" d="M3.151,31.343c-0.305-0.333-0.457-0.735-0.457-1.206v-3.285
		c0-0.472,0.152-0.873,0.457-1.206c0.333-0.332,0.735-0.498,1.206-0.498h23.285c0.443,0,0.831,0.166,1.164,0.498
		c0.332,0.333,0.499,0.722,0.499,1.165v3.326c0,0.471-0.167,0.873-0.499,1.206c-0.333,0.305-0.721,0.457-1.164,0.457H4.357
		C3.887,31.8,3.484,31.647,3.151,31.343 M27.144,8.973c0.332,0.333,0.499,0.735,0.499,1.206v1.664L16,23.484L4.357,11.842v-1.664
		c0-0.47,0.152-0.873,0.457-1.206C5.147,8.669,5.55,8.516,6.021,8.516h4.99V1.863c0-0.471,0.151-0.873,0.457-1.206
		C11.801,0.353,12.202,0.2,12.674,0.2h6.611c0.472,0,0.873,0.153,1.206,0.457c0.332,0.333,0.498,0.735,0.498,1.206v6.652h4.948
		C26.409,8.516,26.811,8.669,27.144,8.973"/>
</g>
<g id="Ebene_1">
</g>
</svg>
