<?xml version="1.0" encoding="iso-8859-1"?>
<!-- Generator: Adobe Illustrator 16.0.0, SVG Export Plug-In . SVG Version: 6.00 Build 0)  -->
<!DOCTYPE svg PUBLIC "-//W3C//DTD SVG 1.1//EN" "http://www.w3.org/Graphics/SVG/1.1/DTD/svg11.dtd">
<svg version="1.1" xmlns="http://www.w3.org/2000/svg" xmlns:xlink="http://www.w3.org/1999/xlink" x="0px" y="0px" width="32px"
	 height="32px" viewBox="0 0 32 32" style="enable-background:new 0 0 32 32;" xml:space="preserve">
<g id="buton-y">
	<path d="M21.925,10.075h-3.11L16,14.815l-2.815-4.74h-3.11l4.493,7.751v5.086h2.864v-5.086L21.925,10.075 M16,0.2
		c4.377,0,8.098,1.53,11.158,4.592C30.252,7.886,31.8,11.622,31.8,16s-1.548,8.098-4.642,11.158C24.098,30.253,20.377,31.8,16,31.8
		c-4.378,0-8.114-1.547-11.208-4.642C1.73,24.098,0.2,20.378,0.2,16S1.73,7.886,4.792,4.792C7.886,1.73,11.622,0.2,16,0.2"/>
</g>
<g id="Ebene_1">
</g>
</svg>
