<?xml version="1.0" encoding="iso-8859-1"?>
<!-- Generator: Adobe Illustrator 16.0.0, SVG Export Plug-In . SVG Version: 6.00 Build 0)  -->
<!DOCTYPE svg PUBLIC "-//W3C//DTD SVG 1.1//EN" "http://www.w3.org/Graphics/SVG/1.1/DTD/svg11.dtd">
<svg version="1.1" xmlns="http://www.w3.org/2000/svg" xmlns:xlink="http://www.w3.org/1999/xlink" x="0px" y="0px" width="32px"
	 height="32px" viewBox="0 0 32 32" style="enable-background:new 0 0 32 32;" xml:space="preserve">
<g id="button-r1">
	<path d="M0.2,6.021h27.442c2.771,0,4.157,1.386,4.157,4.157v15.8H0.2V6.021 M14.794,14.669c0,0.443-0.097,0.776-0.292,0.998
		l-1.205,0.292h-1.29v-2.453h1.29c0.582,0,0.983,0.082,1.205,0.249C14.697,13.921,14.794,14.226,14.794,14.669 M13.214,11.884H10.22
		v8.315h1.788v-2.62h1.206l1.705,2.62h2.204l-1.996-2.952c0.998-0.388,1.498-1.247,1.498-2.578c0-0.97-0.264-1.663-0.791-2.079
		C15.307,12.119,14.434,11.884,13.214,11.884 M21.031,11.884h-3.202v1.622h1.497v6.693h1.705V11.884"/>
</g>
<g id="Ebene_1">
</g>
</svg>
