<?xml version="1.0" encoding="iso-8859-1"?>
<!-- Generator: Adobe Illustrator 16.0.0, SVG Export Plug-In . SVG Version: 6.00 Build 0)  -->
<!DOCTYPE svg PUBLIC "-//W3C//DTD SVG 1.1//EN" "http://www.w3.org/Graphics/SVG/1.1/DTD/svg11.dtd">
<svg version="1.1" xmlns="http://www.w3.org/2000/svg" xmlns:xlink="http://www.w3.org/1999/xlink" x="0px" y="0px" width="32px"
	 height="32px" viewBox="0 0 32 32" style="enable-background:new 0 0 32 32;" xml:space="preserve">
<g id="button-b">
	<path id="button-b_1_" d="M18.765,9.877l-2.419-0.296h-5.283v12.838h5.975c1.876,0,3.192-0.411,3.949-1.234
		c0.625-0.658,0.938-1.448,0.938-2.37c0-0.79-0.247-1.465-0.74-2.024c-0.526-0.527-1.202-0.873-2.024-1.037l0.494-0.197l0.493-0.346
		c0.69-0.494,1.037-1.234,1.037-2.222c0-0.823-0.313-1.581-0.938-2.271C19.917,10.354,19.424,10.075,18.765,9.877 M14.074,17.037
		h1.827l2.172,0.296c0.494,0.165,0.741,0.544,0.741,1.136s-0.23,1.004-0.692,1.234l-1.924,0.296h-2.124V17.037 M14.074,12.001h1.481
		l1.926,0.247c0.361,0.198,0.543,0.592,0.543,1.186c0,0.526-0.198,0.888-0.593,1.085l-1.876,0.247h-1.481V12.001 M16,0.2
		c4.377,0,8.098,1.53,11.158,4.592C30.252,7.886,31.8,11.622,31.8,16s-1.548,8.098-4.642,11.158C24.098,30.253,20.377,31.8,16,31.8
		c-4.378,0-8.114-1.547-11.208-4.642C1.73,24.098,0.2,20.378,0.2,16S1.73,7.886,4.792,4.792C7.886,1.73,11.622,0.2,16,0.2"/>
</g>
<g id="Ebene_1">
</g>
</svg>
