<?xml version="1.0" encoding="iso-8859-1"?>
<!-- Generator: Adobe Illustrator 16.0.0, SVG Export Plug-In . SVG Version: 6.00 Build 0)  -->
<!DOCTYPE svg PUBLIC "-//W3C//DTD SVG 1.1//EN" "http://www.w3.org/Graphics/SVG/1.1/DTD/svg11.dtd">
<svg version="1.1" xmlns="http://www.w3.org/2000/svg" xmlns:xlink="http://www.w3.org/1999/xlink" x="0px" y="0px" width="32px"
	 height="32px" viewBox="0 0 32 32" style="enable-background:new 0 0 32 32;" xml:space="preserve">
<g id="button-rt">
	<path d="M24.415,0.642C24.12,0.347,23.765,0.2,23.349,0.2H8.651c-0.392,0-0.734,0.146-1.029,0.441
		c-0.293,0.293-0.44,0.637-0.44,1.028v28.66c0,0.417,0.147,0.772,0.44,1.066c0.295,0.27,0.649,0.403,1.066,0.403h14.66
		c0.416,0,0.771-0.134,1.066-0.403c0.269-0.294,0.403-0.649,0.403-1.066V1.67C24.818,1.278,24.684,0.935,24.415,0.642z
		 M14.692,18.967l-1.283-1.898h-0.871v1.898h-1.282v-6h2.153c0.889,0,1.522,0.17,1.897,0.513c0.377,0.308,0.565,0.803,0.565,1.487
		c0,0.958-0.36,1.589-1.078,1.899l1.437,2.102H14.692z M20.744,14.212h-1.59v4.821h-1.283v-4.821H16.23v-1.179h4.514V14.212z
		 M14.333,14.352l0.256,0.615l-0.256,0.77l-0.873,0.205h-0.923v-1.795h0.923L14.333,14.352z"/>
</g>
<g id="Ebene_1">
</g>
</svg>
