<?xml version="1.0" encoding="iso-8859-1"?>
<!-- Generator: Adobe Illustrator 16.0.0, SVG Export Plug-In . SVG Version: 6.00 Build 0)  -->
<!DOCTYPE svg PUBLIC "-//W3C//DTD SVG 1.1//EN" "http://www.w3.org/Graphics/SVG/1.1/DTD/svg11.dtd">
<svg version="1.1" xmlns="http://www.w3.org/2000/svg" xmlns:xlink="http://www.w3.org/1999/xlink" x="0px" y="0px" width="32px"
	 height="32px" viewBox="0 0 32 32" style="enable-background:new 0 0 32 32;" xml:space="preserve">
<g id="button-triangle">
	<path d="M16,7.997l7.529,14.006H8.471L16,7.997z M31.8,16c0,4.389-1.527,8.128-4.582,11.219C24.128,30.272,20.389,31.8,16,31.8
		s-8.111-1.527-11.166-4.581C1.745,24.128,0.2,20.389,0.2,16c0-4.388,1.545-8.111,4.634-11.165C7.889,1.745,11.611,0.2,16,0.2
		s8.128,1.545,11.218,4.635C30.272,7.889,31.8,11.612,31.8,16z M26.078,22.772c0.021-0.427-0.06-0.833-0.243-1.221L17.443,6.478
		c-0.186-0.387-0.45-0.652-0.795-0.794h-0.03c-0.407-0.183-0.805-0.183-1.19,0l-0.029,0.002c-0.346,0.143-0.621,0.397-0.824,0.763
		v0.03L6.184,21.555H6.153c-0.203,0.406-0.275,0.824-0.214,1.25c0.062,0.428,0.234,0.794,0.52,1.1
		c0.305,0.364,0.691,0.549,1.159,0.549h16.784c0.445,0,0.832-0.175,1.158-0.52h-0.03c0.305-0.285,0.486-0.662,0.548-1.13V22.772z"/>
</g>
<g id="Ebene_1">
</g>
</svg>
