<?xml version="1.0" encoding="iso-8859-1"?>
<!-- Generator: Adobe Illustrator 16.0.0, SVG Export Plug-In . SVG Version: 6.00 Build 0)  -->
<!DOCTYPE svg PUBLIC "-//W3C//DTD SVG 1.1//EN" "http://www.w3.org/Graphics/SVG/1.1/DTD/svg11.dtd">
<svg version="1.1" xmlns="http://www.w3.org/2000/svg" xmlns:xlink="http://www.w3.org/1999/xlink" x="0px" y="0px" width="32px"
	 height="32px" viewBox="0 0 32 32" style="enable-background:new 0 0 32 32;" xml:space="preserve">
<g id="button-a">
	<path d="M27.16,4.792C30.253,7.886,31.8,11.622,31.8,16s-1.547,8.098-4.64,11.159C24.099,30.253,20.378,31.8,16,31.8
		c-4.378,0-8.114-1.547-11.209-4.641C1.73,24.098,0.2,20.378,0.2,16S1.73,7.886,4.792,4.792C7.886,1.73,11.622,0.2,16,0.2
		C20.378,0.2,24.099,1.73,27.16,4.792 M17.383,9.582h-2.766l-5.53,12.837h3.061l1.186-2.764h5.333l1.234,2.764h3.012L17.383,9.582
		 M16.05,13.384l1.58,3.752h-3.26L16.05,13.384"/>
</g>
<g id="Ebene_1">
</g>
</svg>
