<?xml version="1.0" encoding="iso-8859-1"?>
<!-- Generator: Adobe Illustrator 16.0.0, SVG Export Plug-In . SVG Version: 6.00 Build 0)  -->
<!DOCTYPE svg PUBLIC "-//W3C//DTD SVG 1.1//EN" "http://www.w3.org/Graphics/SVG/1.1/DTD/svg11.dtd">
<svg version="1.1" xmlns="http://www.w3.org/2000/svg" xmlns:xlink="http://www.w3.org/1999/xlink" x="0px" y="0px" width="32px"
	 height="32px" viewBox="0 0 32 32" style="enable-background:new 0 0 32 32;" xml:space="preserve">
<g id="button-lb">
	<path d="M0.2,25.979V10.18c0-2.772,1.385-4.158,4.157-4.158H31.8v19.957H0.2 M9.61,11.884v8.315h5.196v-1.663h-3.409v-6.652H9.61
		 M20.502,12.076l-1.567-0.192h-3.422v8.315h3.87c1.215,0,2.067-0.267,2.558-0.8c0.405-0.427,0.608-0.938,0.608-1.534
		c0-0.513-0.16-0.949-0.479-1.313c-0.341-0.341-0.779-0.565-1.312-0.671l0.32-0.128l0.319-0.224c0.447-0.32,0.672-0.8,0.672-1.439
		c0-0.533-0.203-1.024-0.608-1.471C21.248,12.385,20.929,12.204,20.502,12.076 M17.464,16.713h1.183l1.407,0.191
		c0.32,0.107,0.48,0.354,0.48,0.736s-0.149,0.65-0.448,0.8l-1.247,0.19h-1.375V16.713 M17.464,13.451h0.959l1.248,0.16
		c0.233,0.128,0.352,0.384,0.352,0.768c0,0.341-0.129,0.575-0.384,0.703l-1.216,0.16h-0.959V13.451"/>
</g>
<g id="Ebene_1">
</g>
</svg>
