<?xml version="1.0" encoding="iso-8859-1"?>
<!-- Generator: Adobe Illustrator 16.0.0, SVG Export Plug-In . SVG Version: 6.00 Build 0)  -->
<!DOCTYPE svg PUBLIC "-//W3C//DTD SVG 1.1//EN" "http://www.w3.org/Graphics/SVG/1.1/DTD/svg11.dtd">
<svg version="1.1" xmlns="http://www.w3.org/2000/svg" xmlns:xlink="http://www.w3.org/1999/xlink" x="0px" y="0px" width="32px"
	 height="32px" viewBox="0 0 32 32" style="enable-background:new 0 0 32 32;" xml:space="preserve">
<g id="button-r2">
	<path d="M11.759,13.629l1.289,0.25c0.222,0.166,0.333,0.457,0.333,0.873c0,0.444-0.111,0.776-0.333,0.998l-1.289,0.291h-1.33
		v-2.412H11.759 M11.676,12.049H8.558v8.149h1.871v-2.577h1.247l1.83,2.577h2.287l-2.079-2.91c1.054-0.389,1.58-1.233,1.58-2.536
		c0-0.943-0.291-1.622-0.873-2.037C13.893,12.271,12.979,12.049,11.676,12.049 M19.784,11.883c-0.748,0-1.345,0.153-1.788,0.458
		c-0.443,0.304-0.874,0.749-1.289,1.331l1.497,0.873c0.443-0.749,0.942-1.124,1.496-1.124c0.277,0,0.5,0.098,0.666,0.292
		c0.193,0.167,0.29,0.387,0.29,0.665l-0.333,0.873l-1.039,1.165l-2.452,2.411v1.372h5.863v-1.621h-3.286l1.498-1.538l1.247-1.455
		l0.291-1.206c0-0.776-0.278-1.386-0.832-1.83C21.087,12.104,20.477,11.883,19.784,11.883 M0.2,6.021h27.442
		c2.772,0,4.157,1.386,4.157,4.158v15.801H0.2V6.021"/>
</g>
<g id="Ebene_1">
</g>
</svg>
