<?xml version="1.0" encoding="iso-8859-1"?>
<!-- Generator: Adobe Illustrator 16.0.0, SVG Export Plug-In . SVG Version: 6.00 Build 0)  -->
<!DOCTYPE svg PUBLIC "-//W3C//DTD SVG 1.1//EN" "http://www.w3.org/Graphics/SVG/1.1/DTD/svg11.dtd">
<svg version="1.1" xmlns="http://www.w3.org/2000/svg" xmlns:xlink="http://www.w3.org/1999/xlink" x="0px" y="0px" width="32px"
	 height="32px" viewBox="0 0 32 32" style="enable-background:new 0 0 32 32;" xml:space="preserve">
<g id="button-square">
	<path d="M25.5,7.766c0-0.338-0.126-0.633-0.382-0.887C24.866,6.627,24.57,6.5,24.233,6.5H7.766c-0.36,0-0.665,0.127-0.918,0.379
		C6.615,7.133,6.5,7.44,6.5,7.798v16.436c0,0.359,0.115,0.664,0.348,0.918C7.101,25.385,7.406,25.5,7.766,25.5h16.467
		c0.337,0,0.633-0.115,0.885-0.349c0.256-0.254,0.382-0.559,0.382-0.918V7.766z M8.605,8.604h14.789v14.791H8.605V8.604z M31.8,16
		c0,4.389-1.527,8.128-4.582,11.219C24.128,30.272,20.389,31.8,16,31.8s-8.111-1.527-11.166-4.581C1.745,24.128,0.2,20.389,0.2,16
		c0-4.388,1.545-8.111,4.634-11.165C7.889,1.745,11.611,0.2,16,0.2s8.128,1.545,11.218,4.635C30.272,7.889,31.8,11.612,31.8,16z"/>
</g>
<g id="Ebene_1">
</g>
</svg>
