<?xml version="1.0" encoding="iso-8859-1"?>
<!-- Generator: Adobe Illustrator 16.0.0, SVG Export Plug-In . SVG Version: 6.00 Build 0)  -->
<!DOCTYPE svg PUBLIC "-//W3C//DTD SVG 1.1//EN" "http://www.w3.org/Graphics/SVG/1.1/DTD/svg11.dtd">
<svg version="1.1" xmlns="http://www.w3.org/2000/svg" xmlns:xlink="http://www.w3.org/1999/xlink" x="0px" y="0px" width="32px"
	 height="32px" viewBox="0 0 32 32" style="enable-background:new 0 0 32 32;" xml:space="preserve">
<g id="button-rb">
	<path d="M0.2,6.021h27.442c2.771,0,4.157,1.386,4.157,4.157v15.8H0.2V6.021 M21.977,12.076l-1.567-0.192h-3.422v8.315h3.87
		c1.215,0,2.067-0.267,2.558-0.8c0.405-0.427,0.608-0.938,0.608-1.534c0-0.513-0.16-0.949-0.479-1.313
		c-0.341-0.341-0.779-0.565-1.312-0.671l0.32-0.128l0.319-0.224c0.447-0.32,0.672-0.8,0.672-1.439c0-0.533-0.203-1.024-0.608-1.471
		C22.723,12.385,22.403,12.204,21.977,12.076 M18.938,16.713h1.183l1.407,0.191c0.32,0.107,0.48,0.354,0.48,0.736
		s-0.149,0.65-0.448,0.8l-1.247,0.19h-1.375V16.713 M18.938,13.451h0.959l1.248,0.16c0.233,0.128,0.352,0.384,0.352,0.768
		c0,0.341-0.129,0.575-0.384,0.703l-1.216,0.16h-0.959V13.451 M13.952,14.669c0,0.443-0.097,0.776-0.292,0.998l-1.205,0.292h-1.289
		v-2.453h1.289c0.582,0,0.984,0.082,1.205,0.249C13.855,13.921,13.952,14.226,13.952,14.669 M12.372,11.884H9.379v8.315h1.787v-2.62
		h1.206l1.704,2.62h2.204l-1.996-2.952c0.998-0.388,1.498-1.247,1.498-2.578c0-0.97-0.265-1.663-0.79-2.079
		C14.465,12.119,13.592,11.884,12.372,11.884"/>
</g>
<g id="Ebene_1">
</g>
</svg>
