<?xml version="1.0" encoding="iso-8859-1"?>
<!-- Generator: Adobe Illustrator 16.0.0, SVG Export Plug-In . SVG Version: 6.00 Build 0)  -->
<!DOCTYPE svg PUBLIC "-//W3C//DTD SVG 1.1//EN" "http://www.w3.org/Graphics/SVG/1.1/DTD/svg11.dtd">
<svg version="1.1" xmlns="http://www.w3.org/2000/svg" xmlns:xlink="http://www.w3.org/1999/xlink" x="0px" y="0px" width="32px"
	 height="32px" viewBox="0 0 32 32" style="enable-background:new 0 0 32 32;" xml:space="preserve">
<g id="button-lt">
	<path d="M7.182,30.33V1.67c0-0.392,0.147-0.735,0.44-1.028C7.917,0.347,8.26,0.2,8.651,0.2h14.697c0.416,0,0.771,0.146,1.066,0.441
		c0.269,0.293,0.403,0.637,0.403,1.028v28.66c0,0.417-0.135,0.772-0.403,1.066c-0.295,0.27-0.65,0.403-1.066,0.403H8.688
		c-0.417,0-0.771-0.134-1.066-0.403C7.329,31.103,7.182,30.747,7.182,30.33 M13.178,17.82V13h-1.281v6h3.641v-1.18H13.178
		 M17.178,14.179V19h1.283v-4.821h1.643V13h-4.566v1.179H17.178"/>
</g>
<g id="Ebene_1">
</g>
</svg>
