<?xml version="1.0" encoding="iso-8859-1"?>
<!-- Generator: Adobe Illustrator 16.0.0, SVG Export Plug-In . SVG Version: 6.00 Build 0)  -->
<!DOCTYPE svg PUBLIC "-//W3C//DTD SVG 1.1//EN" "http://www.w3.org/Graphics/SVG/1.1/DTD/svg11.dtd">
<svg version="1.1" xmlns="http://www.w3.org/2000/svg" xmlns:xlink="http://www.w3.org/1999/xlink" x="0px" y="0px" width="32px"
	 height="32px" viewBox="0 0 32 32" style="enable-background:new 0 0 32 32;" xml:space="preserve">
<g id="button-l2">
	<path d="M31.8,6.021v19.957H0.2V10.18c0-2.772,1.385-4.158,4.157-4.158H31.8 M11.966,12.051h-1.745v8.148h5.113v-1.622h-3.368
		V12.051 M19.076,11.884c-0.693,0-1.262,0.152-1.705,0.457c-0.416,0.305-0.817,0.749-1.206,1.331l1.414,0.873
		c0.443-0.749,0.916-1.123,1.414-1.123c0.276,0,0.499,0.098,0.664,0.292l0.25,0.665l-0.29,0.873l-0.999,1.164l-2.328,2.411v1.372
		h5.571v-1.622h-3.118l1.415-1.538l1.162-1.455l0.293-1.205c0-0.776-0.25-1.386-0.749-1.83
		C20.337,12.105,19.742,11.884,19.076,11.884"/>
</g>
<g id="Ebene_1">
</g>
</svg>
