<?xml version="1.0" encoding="iso-8859-1"?>
<!-- Generator: Adobe Illustrator 16.0.0, SVG Export Plug-In . SVG Version: 6.00 Build 0)  -->
<!DOCTYPE svg PUBLIC "-//W3C//DTD SVG 1.1//EN" "http://www.w3.org/Graphics/SVG/1.1/DTD/svg11.dtd">
<svg version="1.1" xmlns="http://www.w3.org/2000/svg" xmlns:xlink="http://www.w3.org/1999/xlink" x="0px" y="0px" width="32px"
	 height="32px" viewBox="0 0 32 32" style="enable-background:new 0 0 32 32;" xml:space="preserve">
<g id="button-circle">
	<path d="M26.5,16c0,2.217-0.584,4.173-1.75,5.862l-1.313,1.574C21.396,25.48,18.918,26.5,16,26.5c-2.917,0-5.397-1.02-7.438-3.063
		C6.521,21.396,5.5,18.918,5.5,16c0-2.917,1.021-5.397,3.062-7.438C10.603,6.521,13.083,5.5,16,5.5c2.918,0,5.396,1.021,7.437,3.062
		l1.313,1.576C25.916,11.831,26.5,13.782,26.5,16z M31.8,16c0,4.389-1.527,8.128-4.582,11.219C24.128,30.272,20.389,31.8,16,31.8
		s-8.111-1.527-11.166-4.581C1.745,24.128,0.2,20.389,0.2,16S1.745,7.889,4.834,4.835C7.889,1.745,11.611,0.2,16,0.2
		s8.128,1.545,11.218,4.635C30.272,7.889,31.8,11.611,31.8,16z M28.5,16c0-2.64-0.694-4.964-2.083-6.979l-1.563-1.875
		C22.423,4.715,19.473,3.5,16,3.5S9.575,4.715,7.146,7.146C4.715,9.575,3.5,12.527,3.5,16s1.215,6.423,3.646,8.854
		C9.575,27.286,12.527,28.5,16,28.5s6.423-1.214,8.854-3.646l1.563-1.874C27.806,20.967,28.5,18.639,28.5,16z"/>
</g>
<g id="Ebene_1">
</g>
</svg>
