<?xml version="1.0" encoding="iso-8859-1"?>
<!-- Generator: Adobe Illustrator 16.0.0, SVG Export Plug-In . SVG Version: 6.00 Build 0)  -->
<!DOCTYPE svg PUBLIC "-//W3C//DTD SVG 1.1//EN" "http://www.w3.org/Graphics/SVG/1.1/DTD/svg11.dtd">
<svg version="1.1" xmlns="http://www.w3.org/2000/svg" xmlns:xlink="http://www.w3.org/1999/xlink" x="0px" y="0px" width="32px"
	 height="32px" viewBox="0 0 32 32" style="enable-background:new 0 0 32 32;" xml:space="preserve">
<g id="button-three">
	<path d="M20.295,12.05v-1.975h-8.442v2.419h4.344l-2.666,2.863v2.124l1.827-0.396c0.822,0,1.464,0.165,1.925,0.494
		c0.428,0.297,0.642,0.707,0.642,1.234c0,0.526-0.181,0.938-0.543,1.234c-0.428,0.264-0.955,0.395-1.58,0.395
		c-0.987,0-2.14-0.41-3.456-1.234l-1.284,2.223c1.58,0.987,3.126,1.48,4.641,1.48c1.514,0,2.766-0.378,3.753-1.136
		c0.987-0.756,1.481-1.794,1.481-3.11c0-0.889-0.313-1.679-0.938-2.37c-0.561-0.691-1.399-1.12-2.518-1.283L20.295,12.05
		 M27.158,4.792C30.252,7.886,31.8,11.622,31.8,16s-1.548,8.098-4.642,11.158C24.097,30.253,20.377,31.8,16,31.8
		c-4.378,0-8.114-1.547-11.208-4.642C1.73,24.098,0.2,20.378,0.2,16S1.73,7.886,4.792,4.792C7.886,1.73,11.622,0.2,16,0.2
		C20.377,0.2,24.097,1.73,27.158,4.792"/>
</g>
<g id="Ebene_1">
</g>
</svg>
