<?xml version="1.0" encoding="iso-8859-1"?>
<!-- Generator: Adobe Illustrator 16.0.0, SVG Export Plug-In . SVG Version: 6.00 Build 0)  -->
<!DOCTYPE svg PUBLIC "-//W3C//DTD SVG 1.1//EN" "http://www.w3.org/Graphics/SVG/1.1/DTD/svg11.dtd">
<svg version="1.1" xmlns="http://www.w3.org/2000/svg" xmlns:xlink="http://www.w3.org/1999/xlink" x="0px" y="0px" width="32px"
	 height="32px" viewBox="0 0 32 32" style="enable-background:new 0 0 32 32;" xml:space="preserve">
<g id="button-start">
	<path d="M31.8,8.651v14.697c0,0.416-0.146,0.771-0.441,1.066c-0.293,0.269-0.637,0.403-1.028,0.403H1.67
		c-0.417,0-0.772-0.135-1.066-0.403C0.334,24.12,0.2,23.765,0.2,23.349V8.688c0-0.417,0.134-0.771,0.404-1.066
		c0.293-0.293,0.649-0.44,1.066-0.44h28.66c0.392,0,0.735,0.147,1.028,0.44C31.653,7.917,31.8,8.26,31.8,8.651 M15.779,13.869
		h-0.881l-1.8,4.299h0.992l0.368-0.919h1.727l0.367,0.919h0.992L15.779,13.869 M15.338,15.155l0.515,1.249h-1.029L15.338,15.155
		 M19.601,14.714l0.625,0.147l0.184,0.44l-0.184,0.552L19.601,16h-0.661v-1.286H19.601 M21.328,15.302
		c0-0.49-0.135-0.845-0.405-1.065c-0.269-0.245-0.723-0.367-1.359-0.367h-1.543v4.299h0.919v-1.36h0.624l0.919,1.36h1.103
		l-1.029-1.506C21.07,16.44,21.328,15.988,21.328,15.302 M23.091,14.714v3.454h0.919v-3.454h1.177v-0.845h-3.271v0.845H23.091
		 M8.504,13.906l-0.809-0.11c-0.441,0-0.784,0.11-1.028,0.33c-0.27,0.221-0.404,0.539-0.404,0.956c0,0.392,0.11,0.686,0.33,0.882
		c0.221,0.195,0.551,0.342,0.993,0.44c0.293,0.074,0.501,0.159,0.625,0.258l0.147,0.293L8.21,17.249l-0.404,0.11
		c-0.367,0-0.759-0.195-1.175-0.588l-0.551,0.735c0.514,0.465,1.089,0.698,1.727,0.698c0.441,0,0.796-0.111,1.066-0.331
		c0.293-0.221,0.44-0.526,0.44-0.919c0-0.392-0.11-0.685-0.331-0.882c-0.221-0.195-0.527-0.354-0.919-0.477l-0.735-0.258
		l-0.184-0.294l0.147-0.331l0.368-0.073c0.367,0,0.735,0.146,1.102,0.441l0.478-0.735L8.504,13.906 M12.986,14.714v-0.845h-3.27
		v0.845h1.176v3.454h0.918v-3.454H12.986"/>
</g>
<g id="Ebene_1">
</g>
</svg>
