<?xml version="1.0" encoding="iso-8859-1"?>
<!-- Generator: Adobe Illustrator 16.0.0, SVG Export Plug-In . SVG Version: 6.00 Build 0)  -->
<!DOCTYPE svg PUBLIC "-//W3C//DTD SVG 1.1//EN" "http://www.w3.org/Graphics/SVG/1.1/DTD/svg11.dtd">
<svg version="1.1" xmlns="http://www.w3.org/2000/svg" xmlns:xlink="http://www.w3.org/1999/xlink" x="0px" y="0px" width="32px"
	 height="32px" viewBox="0 0 32 32" style="enable-background:new 0 0 32 32;" xml:space="preserve">
<g id="button-two">
	<path d="M31.8,16c0,4.378-1.548,8.098-4.642,11.158C24.098,30.253,20.377,31.8,16,31.8c-4.378,0-8.114-1.547-11.208-4.642
		C1.73,24.098,0.2,20.378,0.2,16S1.73,7.886,4.792,4.792C7.886,1.73,11.622,0.2,16,0.2c4.377,0,8.098,1.53,11.158,4.592
		C30.252,7.886,31.8,11.622,31.8,16 M16.098,9.087c-1.185,0-2.172,0.247-2.962,0.741c-0.757,0.526-1.465,1.284-2.123,2.271
		l2.469,1.432c0.757-1.251,1.563-1.876,2.419-1.876c0.494,0,0.889,0.165,1.185,0.494c0.329,0.297,0.494,0.659,0.494,1.087
		c0,0.494-0.182,0.971-0.543,1.432l-1.729,1.924L11.31,20.69v2.222h9.579v-2.715h-5.382l2.468-2.519l2.024-2.419
		c0.329-0.658,0.494-1.333,0.494-2.024c0-1.284-0.444-2.289-1.333-3.012C18.271,9.465,17.251,9.087,16.098,9.087"/>
</g>
<g id="Ebene_1">
</g>
</svg>
