<?xml version="1.0" encoding="iso-8859-1"?>
<!-- Generator: Adobe Illustrator 16.0.0, SVG Export Plug-In . SVG Version: 6.00 Build 0)  -->
<!DOCTYPE svg PUBLIC "-//W3C//DTD SVG 1.1//EN" "http://www.w3.org/Graphics/SVG/1.1/DTD/svg11.dtd">
<svg version="1.1" xmlns="http://www.w3.org/2000/svg" xmlns:xlink="http://www.w3.org/1999/xlink" x="0px" y="0px" width="32px"
	 height="32px" viewBox="0 0 32 32" style="enable-background:new 0 0 32 32;" xml:space="preserve">
<g id="button-r">
	<path d="M31.8,10.179v15.8H0.2V6.021h27.442C30.414,6.021,31.8,7.407,31.8,10.179 M14.669,12.841h1.414
		c0.609,0,1.039,0.097,1.289,0.29c0.222,0.167,0.332,0.499,0.332,0.998s-0.11,0.859-0.332,1.081s-0.666,0.333-1.331,0.333h-1.373
		V12.841 M15.958,11.052h-3.243v9.147h1.954v-2.91h1.289l1.871,2.91h2.37l-2.162-3.243c1.109-0.443,1.663-1.386,1.663-2.827
		c0-1.081-0.291-1.857-0.873-2.328C18.244,11.302,17.289,11.052,15.958,11.052"/>
</g>
<g id="Ebene_1">
</g>
</svg>
