<?xml version="1.0" encoding="iso-8859-1"?>
<!-- Generator: Adobe Illustrator 16.0.0, SVG Export Plug-In . SVG Version: 6.00 Build 0)  -->
<!DOCTYPE svg PUBLIC "-//W3C//DTD SVG 1.1//EN" "http://www.w3.org/Graphics/SVG/1.1/DTD/svg11.dtd">
<svg version="1.1" xmlns="http://www.w3.org/2000/svg" xmlns:xlink="http://www.w3.org/1999/xlink" x="0px" y="0px" width="32px"
	 height="32px" viewBox="0 0 32 32" style="enable-background:new 0 0 32 32;" xml:space="preserve">
<g id="car">
	<path id="path6568" inkscape:connector-curvature="0" d="M20.822,20.698c0.755-0.781,1.66-1.174,2.714-1.174
		c1.079,0,2.011,0.393,2.795,1.174v-0.039c0.729,0.782,1.094,1.714,1.094,2.793l-0.041,0.934c-0.162,0.677-0.514,1.295-1.053,1.864
		c-0.784,0.729-1.716,1.094-2.795,1.094c-1.054,0-1.959-0.365-2.714-1.094c-0.568-0.597-0.933-1.258-1.096-1.985v-0.041
		l-0.083-0.771C19.646,22.399,20.037,21.483,20.822,20.698 M4.454,23.452c0-1.079,0.391-2.011,1.174-2.793v0.039
		c0.729-0.781,1.634-1.174,2.714-1.174c1.054,0,1.985,0.378,2.796,1.135v0.039c0.756,0.785,1.134,1.701,1.134,2.754l-0.041,0.689
		c-0.162,0.81-0.526,1.512-1.093,2.108c-0.784,0.729-1.716,1.094-2.796,1.094s-1.985-0.365-2.714-1.094
		c-0.648-0.649-1.027-1.379-1.135-2.188L4.454,23.452 M8.343,18.147c-1.458,0-2.714,0.512-3.768,1.535
		c-1.027,1.057-1.54,2.313-1.54,3.77l0.041,0.771L0.2,24.142v-9.844l6.887-0.729l3.728-8.912h9.642l3.565,8.426l7.778,1.216
		l-0.527,10.413l-2.511-0.042l0.081-1.217c0-1.456-0.514-2.713-1.537-3.768c-1.029-1.025-2.282-1.537-3.769-1.537
		c-1.458,0-2.7,0.514-3.727,1.537c-1.056,1.055-1.581,2.312-1.581,3.768l0.121,1.055l-4.741-0.121l0.042-0.934
		c0-1.456-0.514-2.713-1.54-3.768C11.058,18.659,9.801,18.147,8.343,18.147"/>
</g>
<g id="Ebene_1">
</g>
</svg>
