<?xml version="1.0" encoding="iso-8859-1"?>
<!-- Generator: Adobe Illustrator 16.0.0, SVG Export Plug-In . SVG Version: 6.00 Build 0)  -->
<!DOCTYPE svg PUBLIC "-//W3C//DTD SVG 1.1//EN" "http://www.w3.org/Graphics/SVG/1.1/DTD/svg11.dtd">
<svg version="1.1" xmlns="http://www.w3.org/2000/svg" xmlns:xlink="http://www.w3.org/1999/xlink" x="0px" y="0px" width="32px"
	 height="32px" viewBox="0 0 32 32" style="enable-background:new 0 0 32 32;" xml:space="preserve">
<g id="cells">
	<path id="path5585" inkscape:connector-curvature="0" d="M0.743,0.792C1.138,0.397,1.615,0.2,2.175,0.2h3.95
		c0.526,0,0.987,0.197,1.382,0.592S8.1,1.648,8.1,2.175v27.65c0,0.56-0.198,1.036-0.593,1.432C7.112,31.619,6.651,31.8,6.125,31.8
		h-3.95c-0.56,0-1.037-0.181-1.432-0.543C0.381,30.861,0.2,30.385,0.2,29.825V2.224C0.2,1.665,0.381,1.188,0.743,0.792
		 M12.593,0.792C12.988,0.397,13.465,0.2,14.025,0.2h3.95c0.527,0,0.988,0.197,1.383,0.592s0.593,0.856,0.593,1.382v27.65
		c0,0.56-0.198,1.036-0.593,1.432c-0.395,0.362-0.855,0.543-1.383,0.543h-3.95c-0.56,0-1.037-0.181-1.432-0.543
		c-0.362-0.396-0.543-0.872-0.543-1.432V2.224C12.05,1.665,12.231,1.188,12.593,0.792 M31.8,2.175v27.65
		c0,0.56-0.197,1.036-0.592,1.432c-0.396,0.362-0.856,0.543-1.383,0.543h-3.95c-0.56,0-1.037-0.181-1.432-0.543
		c-0.362-0.396-0.543-0.872-0.543-1.432V2.224c0-0.56,0.181-1.037,0.543-1.432C24.838,0.397,25.315,0.2,25.875,0.2h3.95
		c0.526,0,0.987,0.197,1.383,0.592C31.603,1.188,31.8,1.648,31.8,2.175"/>
</g>
<g id="Ebene_1">
</g>
</svg>
