<?xml version="1.0" encoding="iso-8859-1"?>
<!-- Generator: Adobe Illustrator 16.0.0, SVG Export Plug-In . SVG Version: 6.00 Build 0)  -->
<!DOCTYPE svg PUBLIC "-//W3C//DTD SVG 1.1//EN" "http://www.w3.org/Graphics/SVG/1.1/DTD/svg11.dtd">
<svg version="1.1" xmlns="http://www.w3.org/2000/svg" xmlns:xlink="http://www.w3.org/1999/xlink" x="0px" y="0px" width="32px"
	 height="32px" viewBox="0 0 32 32" style="enable-background:new 0 0 32 32;" xml:space="preserve">
<g id="checkbox-checked">
	<path d="M28.956,6.309l0.052,0.106l-3.949-3.371V2.992c-0.843-0.703-1.756-1.037-2.738-1.001l-0.369,0.053
		c-1.3,0.14-2.247,0.701-2.844,1.685l-1.475,1.739H5.467v21.066h7.584l1.053,0.368l0.105,0.054h0.105l1.001,0.104h0.106l0.473-0.104
		H16l1.211-0.422h9.322V15.684l2.949-3.529l0.211-0.263c0.491-0.771,0.737-1.597,0.737-2.475V9.048
		C30.255,7.819,29.764,6.907,28.956,6.309 M29.693,0.2c0.562,0,1.054,0.21,1.474,0.631C31.589,1.253,31.8,1.745,31.8,2.307v27.387
		c0,0.597-0.211,1.105-0.633,1.527c-0.42,0.386-0.912,0.579-1.474,0.579H2.307c-0.598,0-1.106-0.193-1.527-0.579
		C0.393,30.799,0.2,30.29,0.2,29.693V2.359c0-0.596,0.192-1.105,0.579-1.527C1.201,0.411,1.709,0.2,2.307,0.2H29.693 M23.004,5.414
		l0.054,0.053l3.896,3.318l0.316,0.631l-0.211,0.685L15.789,23.532l-0.422,0.315L15.158,23.9l-0.317-0.053
		c-0.21-0.036-0.386-0.141-0.527-0.315l-7.952-9.48l-0.264-0.738l0.37-0.632l3.896-3.37l0.316-0.158l0.369-0.105
		c0.281,0.035,0.509,0.157,0.685,0.368l3.317,3.95l6.636-7.848l0.054-0.052c0.14-0.175,0.333-0.281,0.579-0.316L23.004,5.414"/>
</g>
<g id="Ebene_1">
</g>
</svg>
