<?xml version="1.0" encoding="iso-8859-1"?>
<!-- Generator: Adobe Illustrator 16.0.0, SVG Export Plug-In . SVG Version: 6.00 Build 0)  -->
<!DOCTYPE svg PUBLIC "-//W3C//DTD SVG 1.1//EN" "http://www.w3.org/Graphics/SVG/1.1/DTD/svg11.dtd">
<svg version="1.1" xmlns="http://www.w3.org/2000/svg" xmlns:xlink="http://www.w3.org/1999/xlink" x="0px" y="0px" width="32px"
	 height="32px" viewBox="0 0 32 32" style="enable-background:new 0 0 32 32;" xml:space="preserve">
<g id="check">
	<path id="path5193" inkscape:connector-curvature="0" d="M7.573,7.871c0.396,0.033,0.742,0.198,1.038,0.494l4.943,5.932
		l9.887-11.716c0.228-0.296,0.543-0.477,0.938-0.543c0.395-0.034,0.742,0.082,1.039,0.346L31.3,7.427
		c0.298,0.23,0.462,0.543,0.494,0.938c0.031,0.396-0.064,0.759-0.298,1.088L14.689,29.522l-0.692,0.445h-0.791l-0.742-0.445
		L0.552,15.286c-0.264-0.329-0.378-0.676-0.346-1.038C0.24,13.82,0.404,13.49,0.7,13.259l5.833-5.042
		C6.864,7.953,7.21,7.839,7.573,7.871"/>
</g>
<g id="Ebene_1">
</g>
</svg>
