<?xml version="1.0" encoding="iso-8859-1"?>
<!-- Generator: Adobe Illustrator 16.0.0, SVG Export Plug-In . SVG Version: 6.00 Build 0)  -->
<!DOCTYPE svg PUBLIC "-//W3C//DTD SVG 1.1//EN" "http://www.w3.org/Graphics/SVG/1.1/DTD/svg11.dtd">
<svg version="1.1" xmlns="http://www.w3.org/2000/svg" xmlns:xlink="http://www.w3.org/1999/xlink" x="0px" y="0px" width="32px"
	 height="32px" viewBox="0 0 32 32" style="enable-background:new 0 0 32 32;" xml:space="preserve">
<g id="checkbox">
	<path d="M26.533,26.533V5.467H5.467v21.066H26.533 M31.167,0.832C31.589,1.253,31.8,1.745,31.8,2.307v27.387
		c0,0.597-0.211,1.105-0.633,1.527c-0.42,0.386-0.912,0.579-1.474,0.579H2.307c-0.598,0-1.106-0.193-1.527-0.579
		C0.393,30.799,0.2,30.29,0.2,29.693V2.359c0-0.596,0.192-1.105,0.579-1.527C1.201,0.411,1.709,0.2,2.307,0.2h27.387
		C30.255,0.2,30.747,0.411,31.167,0.832"/>
</g>
<g id="Ebene_1">
</g>
</svg>
