<?xml version="1.0" encoding="iso-8859-1"?>
<!-- Generator: Adobe Illustrator 16.0.0, SVG Export Plug-In . SVG Version: 6.00 Build 0)  -->
<!DOCTYPE svg PUBLIC "-//W3C//DTD SVG 1.1//EN" "http://www.w3.org/Graphics/SVG/1.1/DTD/svg11.dtd">
<svg version="1.1" xmlns="http://www.w3.org/2000/svg" xmlns:xlink="http://www.w3.org/1999/xlink" x="0px" y="0px" width="32px"
	 height="32px" viewBox="0 0 32 32" style="enable-background:new 0 0 32 32;" xml:space="preserve">
<g id="cloud-upload">
	<path id="path6642" inkscape:connector-curvature="0" d="M30.875,23.781c-3.391,0.9-6.68,1.518-9.865,1.852v-6.475h2.313
		l0.539-0.193l0.231-0.578v-0.77l-5.396-5.396l-5.395,5.396v0.77c0,0.232,0.077,0.426,0.231,0.578l0.54,0.193h2.312v6.783
		c-5.164,0.078-10.071-0.643-14.721-2.16l-0.347-0.076l-0.27-0.232C0.483,22.6,0.2,21.611,0.2,20.506
		c0-1.543,0.552-2.85,1.657-3.932c0.771-0.745,1.644-1.246,2.621-1.503c0.206-2.338,1.182-4.368,2.929-6.089
		c1.978-1.952,4.38-2.929,7.207-2.929c2.8,0,5.203,0.977,7.207,2.929c0.899,0.899,1.593,1.875,2.081,2.929
		c1.952,0.308,3.66,1.182,5.125,2.621c1.848,1.824,2.774,4.035,2.774,6.629l-0.23,2.08l-0.231,0.385L30.875,23.781"/>
</g>
<g id="Ebene_1">
</g>
</svg>
