<?xml version="1.0" encoding="iso-8859-1"?>
<!-- Generator: Adobe Illustrator 16.0.0, SVG Export Plug-In . SVG Version: 6.00 Build 0)  -->
<!DOCTYPE svg PUBLIC "-//W3C//DTD SVG 1.1//EN" "http://www.w3.org/Graphics/SVG/1.1/DTD/svg11.dtd">
<svg version="1.1" xmlns="http://www.w3.org/2000/svg" xmlns:xlink="http://www.w3.org/1999/xlink" x="0px" y="0px" width="32px"
	 height="32px" viewBox="0 0 32 32" style="enable-background:new 0 0 32 32;" xml:space="preserve">
<g id="cloud">
	<path id="path6646" inkscape:connector-curvature="0" d="M23.9,11.927c1.952,0.308,3.66,1.183,5.125,2.62
		c1.847,1.825,2.774,4.033,2.774,6.629l-0.231,2.08l-0.23,0.386l-0.466,0.153c-10.684,2.853-20.423,2.853-29.208,0l-0.347-0.078
		l-0.27-0.231C0.482,22.611,0.2,21.623,0.2,20.517c0-1.542,0.552-2.851,1.656-3.931c0.771-0.746,1.644-1.247,2.62-1.503
		c0.206-2.338,1.183-4.368,2.929-6.088c1.978-1.953,4.38-2.929,7.206-2.929c2.801,0,5.2,0.977,7.205,2.929
		C22.719,9.898,23.412,10.875,23.9,11.927"/>
</g>
<g id="Ebene_1">
</g>
</svg>
