<?xml version="1.0" encoding="iso-8859-1"?>
<!-- Generator: Adobe Illustrator 16.0.0, SVG Export Plug-In . SVG Version: 6.00 Build 0)  -->
<!DOCTYPE svg PUBLIC "-//W3C//DTD SVG 1.1//EN" "http://www.w3.org/Graphics/SVG/1.1/DTD/svg11.dtd">
<svg version="1.1" xmlns="http://www.w3.org/2000/svg" xmlns:xlink="http://www.w3.org/1999/xlink" x="0px" y="0px" width="32px"
	 height="32px" viewBox="0 0 32 32" style="enable-background:new 0 0 32 32;" xml:space="preserve">
<g id="cloud-download">
	<path d="M29.026,14.546c-1.465-1.438-3.173-2.312-5.125-2.62c-0.488-1.053-1.182-2.029-2.084-2.933
		c-2.005-1.952-4.405-2.928-7.206-2.928c-2.826,0-5.228,0.976-7.205,2.928c-1.747,1.722-2.723,3.75-2.929,6.088
		c-0.977,0.257-1.85,0.758-2.621,1.504C0.752,17.666,0.2,18.975,0.2,20.517c0,1.106,0.283,2.095,0.848,2.968l0.27,0.232l0.347,0.078
		c8.786,2.853,18.525,2.853,29.208,0l0.465-0.153l0.23-0.386l0.231-2.08C31.8,18.58,30.873,16.371,29.026,14.546z M23.974,19.975
		l-5.396,5.393l-5.395-5.393v-0.771c0-0.231,0.077-0.425,0.231-0.578l0.54-0.192h2.312l0-6.807h4.624l0.001,6.807h2.312l0.539,0.192
		l0.232,0.578V19.975z"/>
</g>
<g id="Ebene_1">
</g>
</svg>
