<?xml version="1.0" encoding="iso-8859-1"?>
<!-- Generator: Adobe Illustrator 16.0.0, SVG Export Plug-In . SVG Version: 6.00 Build 0)  -->
<!DOCTYPE svg PUBLIC "-//W3C//DTD SVG 1.1//EN" "http://www.w3.org/Graphics/SVG/1.1/DTD/svg11.dtd">
<svg version="1.1" xmlns="http://www.w3.org/2000/svg" xmlns:xlink="http://www.w3.org/1999/xlink" x="0px" y="0px" width="32px"
	 height="32px" viewBox="0 0 32 32" style="enable-background:new 0 0 32 32;" xml:space="preserve">
<g id="cog">
	<path id="path5567" inkscape:connector-curvature="0" d="M16,12.198c1.053,0,1.958,0.362,2.716,1.086
		c0.758,0.758,1.136,1.663,1.136,2.716s-0.38,1.958-1.136,2.716S17.053,19.852,16,19.852c-1.054,0-1.958-0.38-2.716-1.136
		c-0.724-0.758-1.086-1.663-1.086-2.716s0.362-1.958,1.086-2.716C14.042,12.561,14.946,12.198,16,12.198 M16,8.347
		c-2.106,0-3.917,0.741-5.431,2.222C9.087,12.083,8.347,13.894,8.347,16c0,2.106,0.741,3.917,2.222,5.432
		c1.514,1.48,3.325,2.222,5.431,2.222c2.106,0,3.917-0.741,5.432-2.222c1.48-1.515,2.222-3.325,2.222-5.432
		c0-2.106-0.741-3.917-2.222-5.431C19.917,9.087,18.106,8.347,16,8.347 M30.615,9.877C31.404,11.754,31.8,13.795,31.8,16
		c0,0.329-0.115,0.609-0.345,0.839c-0.231,0.231-0.512,0.347-0.84,0.347h-3.259l-0.396,2.023l3.064,1.284l0.639,0.642
		c0.133,0.297,0.133,0.593,0,0.889c-0.756,1.874-1.925,3.602-3.506,5.185l-0.789,0.297l-0.84-0.297l-2.32-2.32l-1.729,1.185
		l1.283,3.012c0.134,0.297,0.134,0.593,0,0.89l-0.641,0.642C20.246,31.404,18.204,31.8,16,31.8c-0.329,0-0.609-0.115-0.839-0.345
		c-0.23-0.231-0.346-0.515-0.346-0.843v-3.259l-2.024-0.349l-1.234,3.018l-0.642,0.642c-0.296,0.131-0.593,0.131-0.889,0
		c-1.91-0.759-3.638-1.912-5.185-3.456c-0.23-0.229-0.346-0.513-0.346-0.842c0-0.33,0.115-0.609,0.346-0.842l2.32-2.321
		l-1.185-1.729l-3.062,1.283c-0.296,0.134-0.592,0.134-0.889,0l-0.642-0.635C0.595,20.246,0.2,18.204,0.2,16
		c0-0.329,0.116-0.609,0.346-0.839s0.51-0.346,0.839-0.346h3.258l0.395-2.024l-3.061-1.234l-0.642-0.642
		c-0.131-0.296-0.131-0.593,0-0.889c0.758-1.91,1.926-3.638,3.506-5.185c0.23-0.23,0.494-0.346,0.79-0.346
		c0.329,0,0.609,0.115,0.839,0.346l2.321,2.32c0.559-0.46,1.135-0.855,1.728-1.185L9.235,2.916c-0.131-0.296-0.131-0.592,0-0.889
		C9.367,1.73,9.581,1.516,9.877,1.385C11.754,0.595,13.795,0.2,16,0.2c0.329,0,0.609,0.116,0.839,0.346
		c0.231,0.23,0.347,0.51,0.347,0.839v3.258l2.023,0.395l1.284-3.061c0.099-0.296,0.296-0.51,0.593-0.642
		c0.299-0.131,0.609-0.131,0.938,0c1.219,0.494,2.388,1.169,3.506,2.025l1.629,1.481c0.23,0.23,0.347,0.51,0.347,0.839l-0.347,0.79
		l-2.271,2.321l1.136,1.728l3.061-1.284c0.297-0.131,0.593-0.131,0.89,0L30.615,9.877"/>
</g>
<g id="Ebene_1">
</g>
</svg>
