<?xml version="1.0" encoding="iso-8859-1"?>
<!-- Generator: Adobe Illustrator 16.0.0, SVG Export Plug-In . SVG Version: 6.00 Build 0)  -->
<!DOCTYPE svg PUBLIC "-//W3C//DTD SVG 1.1//EN" "http://www.w3.org/Graphics/SVG/1.1/DTD/svg11.dtd">
<svg version="1.1" xmlns="http://www.w3.org/2000/svg" xmlns:xlink="http://www.w3.org/1999/xlink" x="0px" y="0px" width="32px"
	 height="32px" viewBox="0 0 32 32" style="enable-background:new 0 0 32 32;" xml:space="preserve">
<g id="coin">
	<path id="path6592" inkscape:connector-curvature="0" d="M24.394,24.394c2.305-2.305,3.457-5.102,3.457-8.393
		s-1.152-6.09-3.457-8.394C22.089,5.303,19.292,4.15,16,4.15c-3.291,0-6.09,1.152-8.394,3.456C5.303,9.911,4.149,12.709,4.149,16
		s1.153,6.088,3.457,8.393s5.103,3.457,8.394,3.457C19.292,27.851,22.089,26.698,24.394,24.394 M27.159,27.16
		C24.098,30.254,20.379,31.8,16,31.8c-4.377,0-8.113-1.546-11.208-4.64C1.73,24.099,0.2,20.379,0.2,16S1.73,7.887,4.792,4.792
		C7.887,1.73,11.623,0.2,16,0.2c4.379,0,8.098,1.53,11.159,4.592C30.254,7.887,31.8,11.622,31.8,16S30.254,24.099,27.159,27.16
		 M22.32,22.32c-1.745,1.711-3.852,2.567-6.32,2.567s-4.56-0.856-6.271-2.567C7.984,20.575,7.112,18.469,7.112,16
		c0-2.469,0.872-4.56,2.617-6.271C11.44,7.984,13.531,7.113,16,7.113s4.575,0.872,6.32,2.617c1.711,1.711,2.567,3.802,2.567,6.271
		C24.888,18.469,24.031,20.575,22.32,22.32 M17.976,20.938v-9.875h-3.95v9.875H17.976"/>
</g>
<g id="Ebene_1">
</g>
</svg>
