<?xml version="1.0" encoding="iso-8859-1"?>
<!-- Generator: Adobe Illustrator 16.0.0, SVG Export Plug-In . SVG Version: 6.00 Build 0)  -->
<!DOCTYPE svg PUBLIC "-//W3C//DTD SVG 1.1//EN" "http://www.w3.org/Graphics/SVG/1.1/DTD/svg11.dtd">
<svg version="1.1" xmlns="http://www.w3.org/2000/svg" xmlns:xlink="http://www.w3.org/1999/xlink" x="0px" y="0px" width="32px"
	 height="32px" viewBox="0 0 32 32" style="enable-background:new 0 0 32 32;" xml:space="preserve">
<g id="computer">
	<path id="path6530" inkscape:connector-curvature="0" d="M7.311,3.36V16h17.38V3.36H7.311 M20.74,25.48v3.159h3.16V25.48H20.74
		 M5.73,22.32H26.27c0.422,0,0.79,0.158,1.106,0.474c0.315,0.316,0.474,0.685,0.474,1.106v6.319c0,0.447-0.158,0.83-0.474,1.146
		c-0.316,0.29-0.685,0.435-1.106,0.435H5.73c-0.448,0-0.829-0.145-1.146-0.435C4.295,31.05,4.15,30.667,4.15,30.22v-6.28
		c0-0.448,0.145-0.829,0.435-1.146C4.901,22.479,5.282,22.32,5.73,22.32 M5.73,0.2H26.27c0.422,0,0.79,0.158,1.106,0.474
		C27.691,0.99,27.85,1.359,27.85,1.78v17.38l-0.158,0.751l-0.315,0.395c-0.316,0.289-0.685,0.435-1.106,0.435H5.73
		c-0.448,0-0.829-0.146-1.146-0.435l-0.276-0.395L4.15,19.16V1.819c0-0.448,0.145-0.829,0.435-1.145C4.901,0.358,5.282,0.2,5.73,0.2
		"/>
</g>
<g id="Ebene_1">
</g>
</svg>
