<?xml version="1.0" encoding="iso-8859-1"?>
<!-- Generator: Adobe Illustrator 16.0.0, SVG Export Plug-In . SVG Version: 6.00 Build 0)  -->
<!DOCTYPE svg PUBLIC "-//W3C//DTD SVG 1.1//EN" "http://www.w3.org/Graphics/SVG/1.1/DTD/svg11.dtd">
<svg version="1.1" xmlns="http://www.w3.org/2000/svg" xmlns:xlink="http://www.w3.org/1999/xlink" x="0px" y="0px" width="32px"
	 height="32px" viewBox="0 0 32 32" style="enable-background:new 0 0 32 32;" xml:space="preserve">
<g id="cub">
	<path id="_x3C_Zusammengesetzter_Pfad_x3E__5_" inkscape:connector-curvature="0" d="M6.125,10.075H4.15v7.9h1.975V10.075
		 M27.85,10.075h-1.976v7.9h1.976V10.075 M31.8,8.1v9.875c0,1.119-0.396,2.059-1.185,2.813c-0.758,0.759-1.68,1.137-2.766,1.137
		h-7.9v3.95h5.925c0.527,0,0.988,0.198,1.384,0.592c0.396,0.396,0.592,0.856,0.592,1.383v1.976H4.15v-1.926
		c0-0.559,0.181-1.037,0.543-1.433c0.395-0.394,0.872-0.592,1.432-0.592h5.925v-3.95H4.15c-1.119,0-2.058-0.378-2.814-1.137
		C0.578,19.999,0.2,19.061,0.2,17.975V8.148c0-0.559,0.181-1.036,0.543-1.431c0.396-0.395,0.872-0.592,1.432-0.592h3.95v-3.95
		h19.749v3.95h3.951c0.526,0,0.986,0.197,1.382,0.592S31.8,7.573,31.8,8.1"/>
</g>
<g id="Ebene_1">
</g>
</svg>
