<?xml version="1.0" encoding="iso-8859-1"?>
<!-- Generator: Adobe Illustrator 16.0.0, SVG Export Plug-In . SVG Version: 6.00 Build 0)  -->
<!DOCTYPE svg PUBLIC "-//W3C//DTD SVG 1.1//EN" "http://www.w3.org/Graphics/SVG/1.1/DTD/svg11.dtd">
<svg version="1.1" xmlns="http://www.w3.org/2000/svg" xmlns:xlink="http://www.w3.org/1999/xlink" x="0px" y="0px" width="32px"
	 height="32px" viewBox="0 0 32 32" style="enable-background:new 0 0 32 32;" xml:space="preserve">
<g id="device-tilt-right">
	<path id="path6460" inkscape:connector-curvature="0" d="M21.329,0.857l0.037-0.109C21.585,0.383,21.901,0.2,22.314,0.2h0.075
		c0.586,0.073,0.898,0.328,0.951,0.766l2.77,7.736v0.073c0.121,0.316,0.074,0.608-0.147,0.875l0.076-0.073l-0.767,0.583h-0.074
		l-7.736,0.985h-0.073c-0.365,0-0.683-0.146-0.948-0.438l-0.037-0.073c-0.243-0.438-0.221-0.852,0.073-1.241l0.803-1.131
		l-3.722-0.219h-0.036c-1.095,0.219-2.104,0.645-3.029,1.277c-0.292,0.219-0.584,0.292-0.875,0.219
		C9.325,9.444,9.106,9.274,8.96,9.031L6.697,5.272C6.479,4.957,6.393,4.677,6.442,4.433C6.467,4.141,6.661,3.911,7.026,3.74
		c1.605-1.144,3.381-1.885,5.327-2.226c2.919-0.56,5.68-0.255,8.284,0.912L21.329,0.857 M4.07,11.11
		c0.39-0.219,0.779-0.279,1.167-0.183l25.36,6.787c0.365,0.122,0.656,0.354,0.876,0.693c0.195,0.342,0.243,0.706,0.146,1.095
		l-3.028,11.312c-0.122,0.39-0.353,0.683-0.693,0.876L26.803,31.8L1.406,25.05c-0.389-0.099-0.693-0.329-0.912-0.693
		c-0.17-0.365-0.206-0.742-0.109-1.131l3.029-11.239C3.511,11.597,3.73,11.305,4.07,11.11 M5.858,14.139l-2.263,8.465l22.587,6.021
		l2.226-8.465L5.858,14.139"/>
</g>
<g id="Ebene_1">
</g>
</svg>
