<?xml version="1.0" encoding="iso-8859-1"?>
<!-- Generator: Adobe Illustrator 16.0.0, SVG Export Plug-In . SVG Version: 6.00 Build 0)  -->
<!DOCTYPE svg PUBLIC "-//W3C//DTD SVG 1.1//EN" "http://www.w3.org/Graphics/SVG/1.1/DTD/svg11.dtd">
<svg version="1.1" xmlns="http://www.w3.org/2000/svg" xmlns:xlink="http://www.w3.org/1999/xlink" x="0px" y="0px" width="32px"
	 height="32px" viewBox="0 0 32 32" style="enable-background:new 0 0 32 32;" xml:space="preserve">
<g id="device">
	<path id="path6428" inkscape:connector-curvature="0" d="M3.36,20.74h25.28v-9.48H3.36V20.74 M31.326,8.574
		C31.642,8.89,31.8,9.259,31.8,9.68V22.32c0,0.447-0.158,0.829-0.474,1.146C31.01,23.755,30.642,23.9,30.22,23.9H1.78
		c-0.448,0-0.829-0.146-1.146-0.435C0.345,23.149,0.2,22.768,0.2,22.32V9.719c0-0.447,0.145-0.829,0.434-1.145
		C0.951,8.258,1.332,8.1,1.78,8.1h28.44C30.642,8.1,31.01,8.258,31.326,8.574"/>
</g>
<g id="Ebene_1">
</g>
</svg>
