<?xml version="1.0" encoding="iso-8859-1"?>
<!-- Generator: Adobe Illustrator 16.0.0, SVG Export Plug-In . SVG Version: 6.00 Build 0)  -->
<!DOCTYPE svg PUBLIC "-//W3C//DTD SVG 1.1//EN" "http://www.w3.org/Graphics/SVG/1.1/DTD/svg11.dtd">
<svg version="1.1" xmlns="http://www.w3.org/2000/svg" xmlns:xlink="http://www.w3.org/1999/xlink" x="0px" y="0px" width="32px"
	 height="32px" viewBox="0 0 32 32" style="enable-background:new 0 0 32 32;" xml:space="preserve">
<g id="device-tilt-left">
	<path id="path6528" inkscape:connector-curvature="0" d="M28.379,22.553l-2.257-8.446l-22.499,6.08l2.257,8.409L28.379,22.553
		 M26.778,10.903c0.388-0.097,0.752-0.036,1.092,0.182c0.364,0.194,0.595,0.485,0.691,0.874l3.021,11.25
		c0.098,0.388,0.037,0.764-0.182,1.128c-0.196,0.339-0.485,0.559-0.873,0.655L5.226,31.8l-1.129-0.146
		c-0.339-0.219-0.558-0.521-0.655-0.91L0.42,19.531c-0.097-0.41-0.048-0.788,0.146-1.129c0.218-0.364,0.521-0.594,0.91-0.691
		L26.778,10.903 M25.467,4.423c0.049,0.242-0.035,0.521-0.255,0.837l-2.257,3.75L22.3,9.52c-0.291,0.073-0.583,0-0.873-0.219
		c-0.923-0.63-1.93-1.056-3.021-1.274h-0.037l-3.714,0.218l0.801,1.128c0.291,0.389,0.316,0.801,0.073,1.238l-0.036,0.073
		c-0.268,0.291-0.583,0.437-0.947,0.437h-0.073l-7.718-0.983H6.682c-0.364-0.073-0.619-0.267-0.765-0.583L5.99,9.629
		C5.771,9.362,5.722,9.071,5.844,8.755V8.683l2.767-7.718C8.66,0.528,8.975,0.273,9.557,0.2H9.63c0.413,0,0.728,0.182,0.947,0.546
		l0.036,0.109l0.692,1.565c2.596-1.165,5.352-1.469,8.264-0.91c1.941,0.339,3.713,1.08,5.316,2.221
		C25.249,3.901,25.442,4.132,25.467,4.423"/>
</g>
<g id="Ebene_1">
</g>
</svg>
