<?xml version="1.0" encoding="iso-8859-1"?>
<!-- Generator: Adobe Illustrator 16.0.0, SVG Export Plug-In . SVG Version: 6.00 Build 0)  -->
<!DOCTYPE svg PUBLIC "-//W3C//DTD SVG 1.1//EN" "http://www.w3.org/Graphics/SVG/1.1/DTD/svg11.dtd">
<svg version="1.1" xmlns="http://www.w3.org/2000/svg" xmlns:xlink="http://www.w3.org/1999/xlink" x="0px" y="0px" width="32px"
	 height="32px" viewBox="0 0 32 32" style="enable-background:new 0 0 32 32;" xml:space="preserve">
<g id="diamond">
	<path id="path6590" inkscape:connector-curvature="0" d="M31.174,9.131c0.383,0.319,0.59,0.749,0.622,1.292
		c0.031,0.479-0.112,0.926-0.431,1.34L17.484,28.277l-0.91,0.623h-1.101c-0.383-0.131-0.687-0.338-0.91-0.623L0.683,11.764
		c-0.352-0.416-0.511-0.862-0.479-1.34c0.032-0.479,0.223-0.893,0.574-1.244l5.553-5.505C6.714,3.292,7.161,3.1,7.671,3.1h16.227
		c0.51,0,0.939,0.176,1.291,0.527L31.174,9.131"/>
</g>
<g id="Ebene_1">
</g>
</svg>
