<?xml version="1.0" encoding="iso-8859-1"?>
<!-- Generator: Adobe Illustrator 16.0.0, SVG Export Plug-In . SVG Version: 6.00 Build 0)  -->
<!DOCTYPE svg PUBLIC "-//W3C//DTD SVG 1.1//EN" "http://www.w3.org/Graphics/SVG/1.1/DTD/svg11.dtd">
<svg version="1.1" xmlns="http://www.w3.org/2000/svg" xmlns:xlink="http://www.w3.org/1999/xlink" x="0px" y="0px" width="32px"
	 height="32px" viewBox="0 0 32 32" style="enable-background:new 0 0 32 32;" xml:space="preserve">
<g id="download">
	<path id="path5429" inkscape:connector-curvature="0" d="M8.1,17.975V23.9h15.8v-5.876c0-0.559,0.181-1.037,0.543-1.433
		C24.838,16.198,25.315,16,25.875,16h3.95c0.526,0,0.987,0.198,1.383,0.592c0.395,0.396,0.592,0.856,0.592,1.383v11.851
		c0,0.56-0.197,1.036-0.592,1.432c-0.396,0.362-0.856,0.543-1.383,0.543H2.175c-0.56,0-1.037-0.181-1.432-0.543
		C0.381,30.861,0.2,30.385,0.2,29.825V18.024c0-0.561,0.181-1.037,0.543-1.433C1.138,16.198,1.615,16,2.175,16h3.95
		c0.526,0,0.987,0.198,1.382,0.592C7.902,16.987,8.1,17.448,8.1,17.975 M23.9,8.1v3.95l-7.9,7.9l-7.9-7.9V8.1h3.95V0.2h7.9v7.9H23.9
		"/>
</g>
<g id="Ebene_1">
</g>
</svg>
