<?xml version="1.0" encoding="iso-8859-1"?>
<!-- Generator: Adobe Illustrator 16.0.0, SVG Export Plug-In . SVG Version: 6.00 Build 0)  -->
<!DOCTYPE svg PUBLIC "-//W3C//DTD SVG 1.1//EN" "http://www.w3.org/Graphics/SVG/1.1/DTD/svg11.dtd">
<svg version="1.1" xmlns="http://www.w3.org/2000/svg" xmlns:xlink="http://www.w3.org/1999/xlink" x="0px" y="0px" width="32px"
	 height="32px" viewBox="0 0 32 32" style="enable-background:new 0 0 32 32;" xml:space="preserve">
<g id="dpad">
	<path id="path6380" inkscape:connector-curvature="0" d="M31.8,10.733v10.533c0,0.468-0.176,0.878-0.526,1.229
		c-0.352,0.351-0.761,0.526-1.229,0.526h-7.022v7.022c0,0.497-0.176,0.921-0.526,1.272c-0.352,0.321-0.762,0.482-1.229,0.482H10.733
		c-0.498,0-0.921-0.161-1.273-0.482c-0.322-0.352-0.483-0.775-0.483-1.272v-7.022H1.956c-0.498,0-0.921-0.176-1.273-0.526
		C0.361,22.145,0.2,21.734,0.2,21.267V10.733c0-0.497,0.161-0.921,0.482-1.273c0.352-0.321,0.775-0.483,1.273-0.483h7.022V2
		c0-0.498,0.161-0.922,0.483-1.273C9.812,0.375,10.236,0.2,10.733,0.2h10.533c0.468,0,0.878,0.175,1.229,0.526
		c0.351,0.351,0.526,0.761,0.526,1.229v7.022h6.979c0.496,0,0.921,0.162,1.272,0.483C31.624,9.812,31.8,10.237,31.8,10.733"/>
</g>
<g id="Ebene_1">
</g>
</svg>
