<?xml version="1.0" encoding="iso-8859-1"?>
<!-- Generator: Adobe Illustrator 16.0.0, SVG Export Plug-In . SVG Version: 6.00 Build 0)  -->
<!DOCTYPE svg PUBLIC "-//W3C//DTD SVG 1.1//EN" "http://www.w3.org/Graphics/SVG/1.1/DTD/svg11.dtd">
<svg version="1.1" xmlns="http://www.w3.org/2000/svg" xmlns:xlink="http://www.w3.org/1999/xlink" x="0px" y="0px" width="32px"
	 height="32px" viewBox="0 0 32 32" style="enable-background:new 0 0 32 32;" xml:space="preserve">
<g id="dpad-top">
	<path id="path6382" inkscape:connector-curvature="0" d="M19.379,7.091l0.132-0.308V6.344L16,2.833l-3.511,3.511v0.439l0.132,0.308
		l0.307,0.131h6.145L19.379,7.091 M9.46,0.727C9.812,0.375,10.236,0.2,10.733,0.2h10.533c0.468,0,0.878,0.175,1.229,0.526
		c0.351,0.351,0.526,0.761,0.526,1.229v7.022h6.979c0.496,0,0.921,0.162,1.272,0.483c0.351,0.352,0.526,0.776,0.526,1.273v10.533
		c0,0.468-0.176,0.878-0.526,1.229c-0.352,0.351-0.761,0.526-1.229,0.526h-7.022v7.022c0,0.497-0.176,0.921-0.526,1.272
		c-0.352,0.321-0.762,0.482-1.229,0.482H10.733c-0.498,0-0.921-0.161-1.273-0.482c-0.322-0.352-0.483-0.775-0.483-1.272v-7.022
		H1.956c-0.498,0-0.921-0.176-1.273-0.526C0.361,22.145,0.2,21.734,0.2,21.267V10.733c0-0.497,0.161-0.921,0.482-1.273
		c0.352-0.321,0.775-0.483,1.273-0.483h7.022V2C8.978,1.501,9.139,1.078,9.46,0.727"/>
</g>
<g id="Ebene_1">
</g>
</svg>
