<?xml version="1.0" encoding="iso-8859-1"?>
<!-- Generator: Adobe Illustrator 16.0.0, SVG Export Plug-In . SVG Version: 6.00 Build 0)  -->
<!DOCTYPE svg PUBLIC "-//W3C//DTD SVG 1.1//EN" "http://www.w3.org/Graphics/SVG/1.1/DTD/svg11.dtd">
<svg version="1.1" xmlns="http://www.w3.org/2000/svg" xmlns:xlink="http://www.w3.org/1999/xlink" x="0px" y="0px" width="32px"
	 height="32px" viewBox="0 0 32 32" style="enable-background:new 0 0 32 32;" xml:space="preserve">
<g id="dpad-alt">
	<path id="path6410" inkscape:connector-curvature="0" d="M12.489,25.217v0.438L16,29.167l3.511-3.512v-0.438l-0.132-0.307
		l-0.307-0.133h-6.145c-0.117,0-0.219,0.044-0.307,0.133C12.533,24.997,12.489,25.1,12.489,25.217 M7.222,12.928l-0.131-0.307
		c-0.088-0.088-0.191-0.132-0.308-0.132H6.344L2.833,16l3.511,3.511h0.439l0.308-0.132l0.131-0.307V12.928 M12.621,7.091
		l0.307,0.131h6.145l0.307-0.131l0.132-0.308V6.344L16,2.833l-3.511,3.511v0.439L12.621,7.091 M31.273,9.46
		c0.351,0.352,0.526,0.776,0.526,1.273v10.533c0,0.468-0.176,0.878-0.526,1.229c-0.352,0.351-0.761,0.526-1.229,0.526h-7.022v7.022
		c0,0.497-0.176,0.921-0.526,1.272c-0.352,0.321-0.762,0.482-1.229,0.482H10.733c-0.498,0-0.921-0.161-1.273-0.482
		c-0.322-0.352-0.483-0.775-0.483-1.272v-7.022H1.956c-0.498,0-0.921-0.176-1.273-0.526C0.361,22.145,0.2,21.734,0.2,21.267V10.733
		c0-0.497,0.161-0.921,0.482-1.273c0.352-0.321,0.775-0.483,1.273-0.483h7.022V2c0-0.498,0.161-0.922,0.483-1.273
		C9.812,0.375,10.236,0.2,10.733,0.2h10.533c0.468,0,0.878,0.175,1.229,0.526c0.351,0.351,0.526,0.761,0.526,1.229v7.022h6.979
		C30.499,8.978,30.922,9.139,31.273,9.46 M24.777,12.928v6.145l0.133,0.307l0.307,0.132h0.438L29.167,16l-3.512-3.511h-0.438
		c-0.117,0-0.22,0.044-0.307,0.132L24.777,12.928"/>
</g>
<g id="Ebene_1">
</g>
</svg>
