<?xml version="1.0" encoding="iso-8859-1"?>
<!-- Generator: Adobe Illustrator 16.0.0, SVG Export Plug-In . SVG Version: 6.00 Build 0)  -->
<!DOCTYPE svg PUBLIC "-//W3C//DTD SVG 1.1//EN" "http://www.w3.org/Graphics/SVG/1.1/DTD/svg11.dtd">
<svg version="1.1" xmlns="http://www.w3.org/2000/svg" xmlns:xlink="http://www.w3.org/1999/xlink" x="0px" y="0px" width="32px"
	 height="32px" viewBox="0 0 32 32" style="enable-background:new 0 0 32 32;" xml:space="preserve">
<g id="dpad-bottom">
	<path id="path6424" inkscape:connector-curvature="0" d="M12.489,25.655L16,29.167l3.511-3.512v-0.438l-0.132-0.307l-0.307-0.133
		h-6.145c-0.117,0-0.219,0.044-0.307,0.133c-0.088,0.087-0.132,0.189-0.132,0.307V25.655 M30.045,8.978
		c0.497,0,0.921,0.176,1.272,0.527c0.321,0.351,0.482,0.761,0.482,1.229v10.533c0,0.497-0.161,0.922-0.482,1.273
		c-0.352,0.321-0.775,0.482-1.272,0.482h-7.022v6.979c0,0.496-0.161,0.921-0.482,1.272c-0.352,0.351-0.776,0.526-1.273,0.526H10.733
		c-0.468,0-0.878-0.176-1.229-0.526c-0.351-0.352-0.527-0.761-0.527-1.229v-7.022H2c-0.498,0-0.922-0.161-1.273-0.482
		C0.375,22.188,0.2,21.764,0.2,21.267V10.733c0-0.468,0.175-0.878,0.526-1.229s0.761-0.527,1.229-0.527h7.022V1.956
		c0-0.497,0.176-0.921,0.527-1.273C9.855,0.362,10.265,0.2,10.733,0.2h10.533c0.497,0,0.922,0.162,1.273,0.482
		c0.321,0.352,0.482,0.776,0.482,1.273v7.022H30.045"/>
</g>
<g id="Ebene_1">
</g>
</svg>
