<?xml version="1.0" encoding="iso-8859-1"?>
<!-- Generator: Adobe Illustrator 16.0.0, SVG Export Plug-In . SVG Version: 6.00 Build 0)  -->
<!DOCTYPE svg PUBLIC "-//W3C//DTD SVG 1.1//EN" "http://www.w3.org/Graphics/SVG/1.1/DTD/svg11.dtd">
<svg version="1.1" xmlns="http://www.w3.org/2000/svg" xmlns:xlink="http://www.w3.org/1999/xlink" x="0px" y="0px" width="32px"
	 height="32px" viewBox="0 0 32 32" style="enable-background:new 0 0 32 32;" xml:space="preserve">
<g id="dpad-left">
	<path id="path6430" inkscape:connector-curvature="0" d="M30.045,8.978c0.497,0,0.921,0.162,1.272,0.483
		c0.321,0.352,0.482,0.776,0.482,1.273v10.533c0,0.468-0.161,0.878-0.482,1.229c-0.352,0.351-0.775,0.526-1.272,0.526h-7.022v7.022
		c0,0.468-0.176,0.877-0.526,1.229c-0.352,0.351-0.762,0.526-1.229,0.526H10.733c-0.498,0-0.921-0.176-1.273-0.526
		c-0.322-0.352-0.483-0.774-0.483-1.272v-6.979H1.956c-0.468,0-0.878-0.176-1.229-0.526C0.375,22.145,0.2,21.734,0.2,21.267V10.733
		c0-0.497,0.175-0.921,0.526-1.273C1.078,9.139,1.501,8.978,2,8.978h6.978V1.956c0-0.497,0.161-0.921,0.483-1.273
		C9.812,0.362,10.236,0.2,10.733,0.2h10.533c0.468,0,0.878,0.162,1.229,0.482c0.351,0.352,0.526,0.776,0.526,1.273v7.022H30.045
		 M7.091,12.621l-0.308-0.132H6.344L2.833,16l3.511,3.511h0.439l0.308-0.132l0.131-0.307v-6.145L7.091,12.621"/>
</g>
<g id="Ebene_1">
</g>
</svg>
