<?xml version="1.0" encoding="iso-8859-1"?>
<!-- Generator: Adobe Illustrator 16.0.0, SVG Export Plug-In . SVG Version: 6.00 Build 0)  -->
<!DOCTYPE svg PUBLIC "-//W3C//DTD SVG 1.1//EN" "http://www.w3.org/Graphics/SVG/1.1/DTD/svg11.dtd">
<svg version="1.1" xmlns="http://www.w3.org/2000/svg" xmlns:xlink="http://www.w3.org/1999/xlink" x="0px" y="0px" width="32px"
	 height="32px" viewBox="0 0 32 32" style="enable-background:new 0 0 32 32;" xml:space="preserve">
<g id="dpad-right">
	<path id="path6372" inkscape:connector-curvature="0" d="M24.777,12.928v6.145l0.133,0.307l0.307,0.132h0.438L29.167,16
		l-3.512-3.511h-0.438l-0.307,0.132L24.777,12.928 M31.8,10.733v10.533c0,0.468-0.176,0.878-0.526,1.229
		c-0.352,0.351-0.761,0.526-1.229,0.526h-7.022v6.979c0,0.496-0.161,0.921-0.482,1.272c-0.352,0.351-0.776,0.526-1.273,0.526H10.733
		c-0.468,0-0.878-0.176-1.229-0.526c-0.351-0.352-0.527-0.761-0.527-1.229v-7.022H1.956c-0.498,0-0.921-0.176-1.273-0.526
		C0.361,22.145,0.2,21.734,0.2,21.267V10.733c0-0.497,0.161-0.921,0.482-1.273c0.352-0.321,0.775-0.483,1.273-0.483h7.022V1.956
		c0-0.497,0.176-0.921,0.527-1.273C9.855,0.362,10.265,0.2,10.733,0.2h10.533c0.497,0,0.922,0.162,1.273,0.482
		c0.321,0.352,0.482,0.776,0.482,1.273v7.022h6.979c0.496,0,0.921,0.162,1.272,0.483C31.624,9.812,31.8,10.237,31.8,10.733"/>
</g>
<g id="Ebene_1">
</g>
</svg>
