<?xml version="1.0" encoding="iso-8859-1"?>
<!-- Generator: Adobe Illustrator 16.0.0, SVG Export Plug-In . SVG Version: 6.00 Build 0)  -->
<!DOCTYPE svg PUBLIC "-//W3C//DTD SVG 1.1//EN" "http://www.w3.org/Graphics/SVG/1.1/DTD/svg11.dtd">
<svg version="1.1" xmlns="http://www.w3.org/2000/svg" xmlns:xlink="http://www.w3.org/1999/xlink" x="0px" y="0px" width="32px"
	 height="32px" viewBox="0 0 32 32" style="enable-background:new 0 0 32 32;" xml:space="preserve">
<g id="eraser">
	<path d="M27.875,7.017c-0.119-0.662-0.375-1.188-0.767-1.58l-4.47-4.424h0.045C22.143,0.471,21.511,0.2,20.788,0.2
		c-0.752,0-1.384,0.271-1.896,0.813L4.176,15.774c-0.331,0.301-0.542,0.662-0.631,1.083v-0.045
		c-0.151,0.392-0.211,0.781-0.181,1.173l0.767,7.043c0.06,0.632,0.316,1.158,0.768,1.58l4.378,4.424
		c0.511,0.512,1.128,0.768,1.851,0.768c0.752,0,1.399-0.241,1.941-0.723v-0.045l14.806-14.852l0.633-1.039v-0.045l0.136-1.083
		v-0.045L27.875,7.017z M11.444,28.64l-4.199-4.244L6.568,17.85l6.501-6.545l0.722,6.05l0.136,0.27l4.198,4.244L11.444,28.64z"/>
</g>
<g id="Ebene_1">
</g>
</svg>
