<?xml version="1.0" encoding="iso-8859-1"?>
<!-- Generator: Adobe Illustrator 16.0.0, SVG Export Plug-In . SVG Version: 6.00 Build 0)  -->
<!DOCTYPE svg PUBLIC "-//W3C//DTD SVG 1.1//EN" "http://www.w3.org/Graphics/SVG/1.1/DTD/svg11.dtd">
<svg version="1.1" xmlns="http://www.w3.org/2000/svg" xmlns:xlink="http://www.w3.org/1999/xlink" x="0px" y="0px" width="32px"
	 height="32px" viewBox="0 0 32 32" style="enable-background:new 0 0 32 32;" xml:space="preserve">
<g id="exclamation-circle">
	<path id="path6930-2-3" inkscape:connector-curvature="0" d="M16,0.2c-4.345,0-8.065,1.53-11.16,4.592v0.05H4.79
		C1.729,7.936,0.2,11.655,0.2,16c0,4.378,1.546,8.114,4.64,11.208C7.935,30.269,11.655,31.8,16,31.8
		c4.346,0,8.063-1.531,11.157-4.592C30.251,24.114,31.8,20.378,31.8,16c0-4.345-1.549-8.064-4.643-11.158
		C24.063,1.748,20.346,0.2,16,0.2z M14.733,6.503h2.533c0.337,0,0.634,0.126,0.887,0.38c0.251,0.254,0.38,0.548,0.38,0.885v9.5
		c0,0.358-0.127,0.665-0.38,0.918c-0.256,0.232-0.553,0.347-0.887,0.347h-2.533c-0.358,0-0.665-0.111-0.918-0.347
		c-0.232-0.253-0.35-0.56-0.35-0.918V7.801c0-0.359,0.116-0.665,0.35-0.919C14.067,6.629,14.375,6.503,14.733,6.503z M16,20.433
		c0.718,0,1.317,0.253,1.804,0.76h-0.031c0.507,0.507,0.76,1.099,0.76,1.774c0,0.72-0.253,1.33-0.76,1.836V24.77
		c-0.486,0.486-1.076,0.729-1.772,0.729c-0.718,0-1.319-0.243-1.805-0.729c-0.486-0.506-0.729-1.106-0.729-1.803
		s0.244-1.289,0.729-1.774C14.702,20.686,15.303,20.433,16,20.433z"/>
</g>
<g id="Ebene_1">
</g>
</svg>
