<?xml version="1.0" encoding="iso-8859-1"?>
<!-- Generator: Adobe Illustrator 16.0.0, SVG Export Plug-In . SVG Version: 6.00 Build 0)  -->
<!DOCTYPE svg PUBLIC "-//W3C//DTD SVG 1.1//EN" "http://www.w3.org/Graphics/SVG/1.1/DTD/svg11.dtd">
<svg version="1.1" xmlns="http://www.w3.org/2000/svg" xmlns:xlink="http://www.w3.org/1999/xlink" x="0px" y="0px" width="32px"
	 height="32px" viewBox="0 0 32 32" style="enable-background:new 0 0 32 32;" xml:space="preserve">
<g id="exclamation-triangle">
	<path id="path5445-7" inkscape:connector-curvature="0" d="M14.529,9.101l-0.382,0.287c-0.351,0.382-0.526,0.845-0.526,1.387v8.561
		c0,0.541,0.176,1.004,0.526,1.386l0.382,0.288l0.957,0.239h1.005c0.51,0,0.957-0.176,1.339-0.527
		c0.382-0.382,0.574-0.845,0.574-1.386v-8.609c0-0.509-0.192-0.957-0.574-1.339C17.447,9.005,17,8.813,16.49,8.813h-1.005
		C15.135,8.813,14.816,8.908,14.529,9.101 M16.012,23.16c-0.67,0-1.244,0.238-1.722,0.717c-0.446,0.447-0.669,1.005-0.669,1.674
		c0,0.64,0.223,1.196,0.669,1.674c0.479,0.479,1.052,0.718,1.722,0.718c0.669,0,1.228-0.239,1.674-0.718v0.049
		c0.479-0.479,0.718-1.052,0.718-1.723c0-0.637-0.239-1.195-0.718-1.674h0.047C17.286,23.398,16.713,23.16,16.012,23.16 M15.103,1.4
		c0.605-0.287,1.227-0.287,1.866,0h0.047c0.541,0.223,0.956,0.638,1.247,1.244l13.151,23.625c0.287,0.607,0.415,1.244,0.381,1.913
		v0.049c-0.097,0.733-0.381,1.323-0.858,1.771h0.047c-0.511,0.541-1.116,0.814-1.815,0.814H2.863c-0.733,0-1.339-0.289-1.817-0.86
		c-0.447-0.479-0.718-1.053-0.813-1.723c-0.096-0.668,0.017-1.322,0.335-1.96h0.048L13.768,2.646V2.599
		c0.318-0.574,0.749-0.973,1.292-1.196L15.103,1.4"/>
</g>
<g id="Ebene_1">
</g>
</svg>
