<?xml version="1.0" encoding="iso-8859-1"?>
<!-- Generator: Adobe Illustrator 16.0.0, SVG Export Plug-In . SVG Version: 6.00 Build 0)  -->
<!DOCTYPE svg PUBLIC "-//W3C//DTD SVG 1.1//EN" "http://www.w3.org/Graphics/SVG/1.1/DTD/svg11.dtd">
<svg version="1.1" xmlns="http://www.w3.org/2000/svg" xmlns:xlink="http://www.w3.org/1999/xlink" x="0px" y="0px" width="32px"
	 height="32px" viewBox="0 0 32 32" style="enable-background:new 0 0 32 32;" xml:space="preserve">
<g id="exit">
	<path id="path5433" inkscape:connector-curvature="0" d="M13.152,3.627c0.387-0.45,0.837-0.724,1.352-0.82L28.065,0.2v28.956
		l-13.562,2.607c-0.516,0.097-0.965,0-1.352-0.29c-0.354-0.321-0.53-0.756-0.53-1.304V5.123C12.622,4.577,12.798,4.077,13.152,3.627
		 M5.865,0.296h4.777v3.861H7.795v23.165h2.848v3.862H5.865c-0.548,0-1.014-0.179-1.4-0.53c-0.354-0.385-0.53-0.854-0.53-1.401
		V2.276c0-0.547,0.177-1.014,0.53-1.4C4.852,0.49,5.317,0.296,5.865,0.296 M18.799,17.142c0.383-0.385,0.579-0.854,0.579-1.4
		c0-0.515-0.193-0.965-0.579-1.351h0.049c-0.387-0.386-0.854-0.579-1.4-0.579c-0.514,0-0.965,0.193-1.351,0.579
		c-0.387,0.386-0.579,0.837-0.579,1.351c0,0.546,0.192,1.014,0.579,1.4c0.354,0.353,0.804,0.531,1.351,0.531
		S18.445,17.494,18.799,17.142"/>
</g>
<g id="Ebene_1">
</g>
</svg>
