<?xml version="1.0" encoding="iso-8859-1"?>
<!-- Generator: Adobe Illustrator 16.0.0, SVG Export Plug-In . SVG Version: 6.00 Build 0)  -->
<!DOCTYPE svg PUBLIC "-//W3C//DTD SVG 1.1//EN" "http://www.w3.org/Graphics/SVG/1.1/DTD/svg11.dtd">
<svg version="1.1" xmlns="http://www.w3.org/2000/svg" xmlns:xlink="http://www.w3.org/1999/xlink" x="0px" y="0px" width="32px"
	 height="32px" viewBox="0 0 32 32" style="enable-background:new 0 0 32 32;" xml:space="preserve">
<g id="exlamation">
	<path id="path5369" inkscape:connector-curvature="0" d="M11.787,27.587c0-1.158,0.403-2.142,1.211-2.949
		c0.843-0.843,1.844-1.265,3.002-1.265c1.193,0,2.195,0.422,3.002,1.265h-0.053c0.843,0.843,1.264,1.826,1.264,2.949
		c0,1.193-0.421,2.211-1.264,3.055v-0.054C18.142,31.396,17.158,31.8,16,31.8c-1.193,0-2.194-0.403-3.002-1.212
		C12.19,29.746,11.787,28.745,11.787,27.587 M19.582,0.832c0.421,0.421,0.631,0.913,0.631,1.475v15.8
		c0,0.597-0.21,1.106-0.631,1.527c-0.422,0.386-0.914,0.579-1.476,0.579h-4.213c-0.597,0-1.105-0.193-1.527-0.579
		c-0.387-0.421-0.579-0.931-0.579-1.527V2.359c0-0.596,0.192-1.105,0.579-1.527C12.788,0.411,13.297,0.2,13.894,0.2h4.213
		C18.668,0.2,19.16,0.411,19.582,0.832"/>
</g>
<g id="Ebene_1">
</g>
</svg>
