<?xml version="1.0" encoding="iso-8859-1"?>
<!-- Generator: Adobe Illustrator 16.0.0, SVG Export Plug-In . SVG Version: 6.00 Build 0)  -->
<!DOCTYPE svg PUBLIC "-//W3C//DTD SVG 1.1//EN" "http://www.w3.org/Graphics/SVG/1.1/DTD/svg11.dtd">
<svg version="1.1" xmlns="http://www.w3.org/2000/svg" xmlns:xlink="http://www.w3.org/1999/xlink" x="0px" y="0px" width="32px"
	 height="32px" viewBox="0 0 32 32" style="enable-background:new 0 0 32 32;" xml:space="preserve">
<g id="expand">
	<path id="path5249" inkscape:connector-curvature="0" d="M19.95,19.95h3.95l3.949,3.95v-3.95h3.95V31.8H19.95v-3.95h3.95
		L19.95,23.9V19.95 M0.2,19.95h3.95v3.95l3.95-3.95h3.95v3.95L8.1,27.85h3.95v3.95H0.2V19.95 M19.95,8.1l3.95-3.95h-3.95V0.2H31.8
		v11.85h-3.95V8.1L23.9,12.05h-3.95V8.1 M4.15,8.1v3.95H0.2V0.2h11.85v3.95H8.1l3.95,3.95v3.95H8.1L4.15,8.1"/>
</g>
<g id="Ebene_1">
</g>
</svg>
