<?xml version="1.0" encoding="iso-8859-1"?>
<!-- Generator: Adobe Illustrator 16.0.0, SVG Export Plug-In . SVG Version: 6.00 Build 0)  -->
<!DOCTYPE svg PUBLIC "-//W3C//DTD SVG 1.1//EN" "http://www.w3.org/Graphics/SVG/1.1/DTD/svg11.dtd">
<svg version="1.1" xmlns="http://www.w3.org/2000/svg" xmlns:xlink="http://www.w3.org/1999/xlink" x="0px" y="0px" width="32px"
	 height="32px" viewBox="0 0 32 32" style="enable-background:new 0 0 32 32;" xml:space="preserve">
<g id="external">
	<path id="path5107" inkscape:connector-curvature="0" d="M13.276,0.2H30.71c0.292,0,0.545,0.109,0.764,0.327L31.8,1.29v17.435
		l-0.326,0.763l-0.764,0.326l-0.763-0.326l-3.596-3.596l-7.954,7.955l-0.763,0.327l-0.764-0.327l-8.717-8.717
		c-0.218-0.218-0.327-0.473-0.327-0.763c0-0.29,0.109-0.545,0.327-0.763l7.955-7.954l-3.596-3.596
		c-0.217-0.218-0.327-0.473-0.327-0.763s0.109-0.545,0.327-0.763C12.731,0.309,12.985,0.2,13.276,0.2 M8.917,10.007H4.559v17.435
		h17.435v-4.358h4.358v6.538c0,0.617-0.2,1.144-0.599,1.58h-0.055C25.262,31.6,24.754,31.8,24.173,31.8H2.379
		c-0.618,0-1.144-0.2-1.58-0.599c-0.4-0.437-0.599-0.963-0.599-1.58V7.882c0-0.617,0.199-1.144,0.599-1.58
		c0.436-0.436,0.962-0.654,1.58-0.654h6.538V10.007"/>
</g>
<g id="Ebene_1">
</g>
</svg>
