<?xml version="1.0" encoding="iso-8859-1"?>
<!-- Generator: Adobe Illustrator 16.0.0, SVG Export Plug-In . SVG Version: 6.00 Build 0)  -->
<!DOCTYPE svg PUBLIC "-//W3C//DTD SVG 1.1//EN" "http://www.w3.org/Graphics/SVG/1.1/DTD/svg11.dtd">
<svg version="1.1" xmlns="http://www.w3.org/2000/svg" xmlns:xlink="http://www.w3.org/1999/xlink" x="0px" y="0px" width="32px"
	 height="32px" viewBox="0 0 32 32" style="enable-background:new 0 0 32 32;" xml:space="preserve">
<g id="facebook">
	<path id="_x3C_Zusammengesetzter_Pfad_x3E__1_" d="M20.073,7.574c-0.386,0.386-0.683,0.842-0.893,1.369l-0.421,1.58v2.107v2.053
		h-2.576v4.318h1.313l1.263,0.054v6.32V31.8H5.458L3.46,31.377c-0.631-0.279-1.192-0.666-1.682-1.157
		c-0.491-0.491-0.877-1.054-1.157-1.687c-0.28-0.665-0.42-1.334-0.42-2.001V5.045c0-1.37,0.526-2.527,1.578-3.476
		C2.793,0.657,4.021,0.2,5.458,0.2H26.96c1.403,0,2.56,0.457,3.472,1.37C31.344,2.482,31.8,3.642,31.8,5.045v21.487
		c0,1.406-0.456,2.634-1.368,3.688c-0.947,1.054-2.104,1.58-3.472,1.58h-2.995l0.053-6.425v-6.32l1.735-0.054l1.732-0.104
		l0.526-4.266h-3.994v-1.475v-1.474c0.069-0.281,0.229-0.51,0.472-0.685c0.246-0.21,0.51-0.298,0.79-0.262h2.732V6.31h-4.206
		C22.193,6.346,20.949,6.765,20.073,7.574"/>
</g>
<g id="Ebene_1">
</g>
</svg>
