<?xml version="1.0" encoding="iso-8859-1"?>
<!-- Generator: Adobe Illustrator 16.0.0, SVG Export Plug-In . SVG Version: 6.00 Build 0)  -->
<!DOCTYPE svg PUBLIC "-//W3C//DTD SVG 1.1//EN" "http://www.w3.org/Graphics/SVG/1.1/DTD/svg11.dtd">
<svg version="1.1" xmlns="http://www.w3.org/2000/svg" xmlns:xlink="http://www.w3.org/1999/xlink" x="0px" y="0px" width="32px"
	 height="32px" viewBox="0 0 32 32" style="enable-background:new 0 0 32 32;" xml:space="preserve">
<g id="figure">
	<path id="path6584" inkscape:connector-curvature="0" d="M19.299,11.166c0.837,0.836,1.597,2.014,2.277,3.532
		c1.517,3.407,2.292,7.511,2.323,12.313v0.097c0,1.266-0.775,2.369-2.323,3.299C20.059,31.336,18.199,31.8,16,31.8
		c-2.2,0-4.073-0.464-5.623-1.394c-1.518-0.93-2.277-2.033-2.277-3.299v-0.097c0.031-4.802,0.79-8.905,2.277-12.313
		c0.713-1.519,1.487-2.711,2.324-3.578l-0.93-0.744c-1.177-1.178-1.766-2.587-1.766-4.229s0.589-3.036,1.766-4.182
		C12.917,0.788,14.327,0.2,16,0.2c1.672,0,3.098,0.588,4.275,1.766c1.18,1.146,1.766,2.54,1.766,4.182
		c0,1.643-0.588,3.053-1.766,4.229L19.299,11.166"/>
</g>
<g id="Ebene_1">
</g>
</svg>
