<?xml version="1.0" encoding="iso-8859-1"?>
<!-- Generator: Adobe Illustrator 16.0.0, SVG Export Plug-In . SVG Version: 6.00 Build 0)  -->
<!DOCTYPE svg PUBLIC "-//W3C//DTD SVG 1.1//EN" "http://www.w3.org/Graphics/SVG/1.1/DTD/svg11.dtd">
<svg version="1.1" xmlns="http://www.w3.org/2000/svg" xmlns:xlink="http://www.w3.org/1999/xlink" x="0px" y="0px" width="32px"
	 height="32px" viewBox="0 0 32 32" style="enable-background:new 0 0 32 32;" xml:space="preserve">
<g id="fill">
	<path id="path6434" inkscape:connector-curvature="0" d="M3.603,31.8c-0.963,0-1.771-0.795-2.424-2.381
		C0.526,27.858,0.2,25.96,0.2,23.72c0-2.241,0.327-4.155,0.979-5.742c0.652-1.559,1.459-2.339,2.424-2.339
		c0.936,0,1.73,0.78,2.382,2.339c0.68,1.587,1.021,3.501,1.021,5.742c0,2.24-0.34,4.139-1.021,5.699
		C5.333,31.007,4.538,31.8,3.603,31.8 M15.638,0.71c0.34-0.34,0.751-0.51,1.233-0.51c0.479,0,0.893,0.157,1.232,0.468L31.33,13.895
		c0.338,0.34,0.495,0.751,0.467,1.233c0,0.453-0.169,0.851-0.51,1.19L20.486,27.122c-0.341,0.34-0.753,0.523-1.234,0.552
		c-0.426-0.028-0.808-0.212-1.148-0.552L4.876,13.938c-0.34-0.34-0.524-0.737-0.553-1.191c0-0.482,0.17-0.894,0.51-1.233
		L15.638,0.71"/>
</g>
<g id="Ebene_1">
</g>
</svg>
