<?xml version="1.0" encoding="iso-8859-1"?>
<!-- Generator: Adobe Illustrator 16.0.0, SVG Export Plug-In . SVG Version: 6.00 Build 0)  -->
<!DOCTYPE svg PUBLIC "-//W3C//DTD SVG 1.1//EN" "http://www.w3.org/Graphics/SVG/1.1/DTD/svg11.dtd">
<svg version="1.1" xmlns="http://www.w3.org/2000/svg" xmlns:xlink="http://www.w3.org/1999/xlink" x="0px" y="0px" width="32px"
	 height="32px" viewBox="0 0 32 32" style="enable-background:new 0 0 32 32;" xml:space="preserve">
<g id="fist-circle">
	<path id="path6877" inkscape:connector-curvature="0" d="M6.631,15.248l5.908,6.022l1.464-1.506l-5.903-6.021L6.631,15.248 M0.2,16
		c0-4.362,1.529-8.101,4.589-11.21C7.873,1.729,11.61,0.2,15.999,0.2c4.364,0,8.077,1.529,11.134,4.589
		C30.244,7.899,31.8,11.637,31.8,16c0,4.387-1.556,8.115-4.667,11.173c-3.057,3.084-6.77,4.627-11.134,4.627
		c-4.389,0-8.126-1.543-11.21-4.627C1.729,24.114,0.2,20.387,0.2,16 M8.702,13.104l5.905,6.058l1.505-1.506l-5.943-6.018
		L8.702,13.104 M21.114,9.492l-2.331,0.603l-4.439,4.513l1.467,1.544l2.934-3.049l1.692,1.731l-7.109,7.259l2.182,2.184l1.204-1.203
		h2.935l4.436-4.551l-1.464-1.472l1.504-1.504l-0.038-3.046L21.114,9.492 M14.344,7.385L12.84,8.89l2.971,3.01l1.469-1.505
		L14.344,7.385 M12.238,9.492l-1.467,1.504l2.97,3.009l1.469-1.465L12.238,9.492"/>
</g>
<g id="Ebene_1">
</g>
</svg>
