<?xml version="1.0" encoding="iso-8859-1"?>
<!-- Generator: Adobe Illustrator 16.0.0, SVG Export Plug-In . SVG Version: 6.00 Build 0)  -->
<!DOCTYPE svg PUBLIC "-//W3C//DTD SVG 1.1//EN" "http://www.w3.org/Graphics/SVG/1.1/DTD/svg11.dtd">
<svg version="1.1" xmlns="http://www.w3.org/2000/svg" xmlns:xlink="http://www.w3.org/1999/xlink" x="0px" y="0px" width="32px"
	 height="32px" viewBox="0 0 32 32" style="enable-background:new 0 0 32 32;" xml:space="preserve">
<g id="fist">
	<path id="path6352" inkscape:connector-curvature="0" d="M3.921,11.081L6.622,8.38l10.703,10.907l-2.701,2.701L3.921,11.081
		 M7.692,7.259l2.65-2.702l5.352,5.454l-2.65,2.701L7.692,7.259 M10.903,25.811L0.2,14.904l2.65-2.702l10.703,10.907L10.903,25.811
		 M26.398,4.506l5.351,5.454l0.051,5.504l-2.701,2.701l2.653,2.701L23.7,29.074h-5.299l-2.143,2.191l-3.926-3.977L25.174,14.19
		l-3.058-3.109l-5.352,5.454l-2.65-2.75l8.053-8.155L26.398,4.506 M19.466,6.188L16.765,8.89l-5.352-5.454l2.701-2.701L19.466,6.188
		"/>
</g>
<g id="Ebene_1">
</g>
</svg>
