<?xml version="1.0" encoding="iso-8859-1"?>
<!-- Generator: Adobe Illustrator 16.0.0, SVG Export Plug-In . SVG Version: 6.00 Build 0)  -->
<!DOCTYPE svg PUBLIC "-//W3C//DTD SVG 1.1//EN" "http://www.w3.org/Graphics/SVG/1.1/DTD/svg11.dtd">
<svg version="1.1" xmlns="http://www.w3.org/2000/svg" xmlns:xlink="http://www.w3.org/1999/xlink" x="0px" y="0px" width="32px"
	 height="32px" viewBox="0 0 32 32" style="enable-background:new 0 0 32 32;" xml:space="preserve">
<g id="flag">
	<path id="path6636" inkscape:connector-curvature="0" d="M5.467,0.2c0.247,0,0.463,0.092,0.647,0.277l0.277,0.646v29.751
		l-0.277,0.646L5.467,31.8H1.633l-0.646-0.278c-0.185-0.185-0.277-0.398-0.277-0.646V1.124c0-0.247,0.093-0.462,0.277-0.646
		C1.171,0.292,1.387,0.2,1.633,0.2H5.467 M9.671,1.493c6.685,4.466,13.613,7.038,20.791,7.715c0.244,0.032,0.441,0.139,0.597,0.324
		l0.232,0.601v0.554l-0.184,0.601C25.102,18.741,17.77,22.098,9.116,21.358c-0.247-0.03-0.446-0.123-0.601-0.276
		c-0.185-0.186-0.277-0.4-0.277-0.648v-18.2c0-0.216,0.077-0.416,0.231-0.601C8.624,1.447,8.823,1.339,9.07,1.309
		C9.286,1.277,9.487,1.339,9.671,1.493"/>
</g>
<g id="Ebene_1">
</g>
</svg>
