<?xml version="1.0" encoding="iso-8859-1"?>
<!-- Generator: Adobe Illustrator 16.0.0, SVG Export Plug-In . SVG Version: 6.00 Build 0)  -->
<!DOCTYPE svg PUBLIC "-//W3C//DTD SVG 1.1//EN" "http://www.w3.org/Graphics/SVG/1.1/DTD/svg11.dtd">
<svg version="1.1" xmlns="http://www.w3.org/2000/svg" xmlns:xlink="http://www.w3.org/1999/xlink" x="0px" y="0px" width="32px"
	 height="32px" viewBox="0 0 32 32" style="enable-background:new 0 0 32 32;" xml:space="preserve">
<g id="flap">
	<path id="path5323" inkscape:connector-curvature="0" d="M29.516,7.568l-19.485,5.245H30.42v17.178c0,0.513-0.182,0.95-0.543,1.312
		c-0.361,0.331-0.784,0.497-1.266,0.497H5.104c-0.513,0-0.95-0.166-1.312-0.497c-0.332-0.361-0.497-0.799-0.497-1.312v-15.37
		L1.667,8.563C1.516,8.052,1.562,7.584,1.803,7.162c0.271-0.452,0.648-0.753,1.13-0.904L25.628,0.2l1.356,0.181
		c0.452,0.241,0.754,0.604,0.904,1.085L29.516,7.568"/>
</g>
<g id="Ebene_1">
</g>
</svg>
