<?xml version="1.0" encoding="iso-8859-1"?>
<!-- Generator: Adobe Illustrator 16.0.0, SVG Export Plug-In . SVG Version: 6.00 Build 0)  -->
<!DOCTYPE svg PUBLIC "-//W3C//DTD SVG 1.1//EN" "http://www.w3.org/Graphics/SVG/1.1/DTD/svg11.dtd">
<svg version="1.1" xmlns="http://www.w3.org/2000/svg" xmlns:xlink="http://www.w3.org/1999/xlink" x="0px" y="0px" width="32px"
	 height="32px" viewBox="0 0 32 32" style="enable-background:new 0 0 32 32;" xml:space="preserve">
<g id="forward">
	<path id="path5175" inkscape:connector-curvature="0" d="M1.863,2.694h1.663l11.642,11.643V4.399c0-0.472,0.152-0.873,0.457-1.206
		c0.333-0.332,0.735-0.499,1.207-0.499h1.663L31.8,16L18.495,29.306h-1.663c-0.472,0-0.874-0.153-1.207-0.458
		c-0.305-0.333-0.457-0.734-0.457-1.205v-9.979L3.526,29.306H1.863c-0.472,0-0.873-0.153-1.206-0.458
		C0.352,28.515,0.2,28.113,0.2,27.643V4.399c0-0.472,0.152-0.873,0.457-1.206C0.99,2.861,1.392,2.694,1.863,2.694"/>
</g>
<g id="Ebene_1">
</g>
</svg>
