<?xml version="1.0" encoding="iso-8859-1"?>
<!-- Generator: Adobe Illustrator 16.0.0, SVG Export Plug-In . SVG Version: 6.00 Build 0)  -->
<!DOCTYPE svg PUBLIC "-//W3C//DTD SVG 1.1//EN" "http://www.w3.org/Graphics/SVG/1.1/DTD/svg11.dtd">
<svg version="1.1" xmlns="http://www.w3.org/2000/svg" xmlns:xlink="http://www.w3.org/1999/xlink" x="0px" y="0px" width="32px"
	 height="32px" viewBox="0 0 32 32" style="enable-background:new 0 0 32 32;" xml:space="preserve">
<g id="gamepad-tilt-left">
	<path id="path6450" inkscape:connector-curvature="0" d="M22.388,24.138c0.342-0.171,0.56-0.464,0.656-0.876
		c0.098-0.365,0.047-0.729-0.146-1.095c-0.195-0.342-0.486-0.572-0.876-0.693l-1.131,0.109c-0.341,0.242-0.547,0.548-0.62,0.912
		c-0.122,0.411-0.085,0.776,0.107,1.095c0.196,0.365,0.486,0.594,0.876,0.693L22.388,24.138 M27.825,23.444
		c-0.195-0.317-0.487-0.535-0.876-0.657l-1.131,0.146c-0.341,0.219-0.548,0.512-0.62,0.876c-0.123,0.413-0.086,0.778,0.106,1.095
		c0.197,0.365,0.487,0.608,0.876,0.73l1.131-0.183c0.365-0.194,0.584-0.487,0.654-0.876C28.093,24.21,28.044,23.832,27.825,23.444
		 M7.245,17.496l-2.81-0.803l-0.803,2.81l2.81,0.803l-0.693,2.812l2.773,0.73l0.767-2.812l2.773,0.768l0.766-2.812l-2.773-0.73
		l0.766-2.843l-2.846-0.729L7.245,17.496 M22.314,0.2h0.073c0.584,0.073,0.9,0.328,0.948,0.766l2.774,7.736v0.073
		c0.121,0.316,0.074,0.608-0.147,0.875l0.076-0.073l-0.767,0.583h-0.074l-7.736,0.985h-0.073c-0.365,0-0.683-0.146-0.948-0.438
		l-0.037-0.073c-0.243-0.438-0.221-0.852,0.073-1.241l0.803-1.131l-3.722-0.219h-0.036c-1.095,0.219-2.104,0.645-3.029,1.277
		c-0.292,0.219-0.584,0.292-0.875,0.219C9.325,9.444,9.106,9.274,8.96,9.031L6.697,5.272C6.479,4.957,6.393,4.677,6.442,4.433
		C6.467,4.141,6.661,3.911,7.026,3.74c1.605-1.144,3.381-1.885,5.327-2.226c2.919-0.56,5.68-0.255,8.284,0.912l0.692-1.569
		l0.037-0.109C21.585,0.383,21.901,0.2,22.314,0.2 M31.474,18.408c0.195,0.342,0.243,0.706,0.146,1.095l-3.028,11.312
		c-0.122,0.39-0.353,0.683-0.693,0.876L26.803,31.8L1.406,25.05c-0.389-0.099-0.693-0.329-0.912-0.693
		c-0.17-0.365-0.206-0.742-0.109-1.131l3.029-11.239c0.097-0.389,0.316-0.682,0.657-0.876c0.39-0.219,0.779-0.279,1.167-0.183
		l25.36,6.787C30.963,17.837,31.254,18.068,31.474,18.408"/>
</g>
<g id="Ebene_1">
</g>
</svg>
