<?xml version="1.0" encoding="iso-8859-1"?>
<!-- Generator: Adobe Illustrator 16.0.0, SVG Export Plug-In . SVG Version: 6.00 Build 0)  -->
<!DOCTYPE svg PUBLIC "-//W3C//DTD SVG 1.1//EN" "http://www.w3.org/Graphics/SVG/1.1/DTD/svg11.dtd">
<svg version="1.1" xmlns="http://www.w3.org/2000/svg" xmlns:xlink="http://www.w3.org/1999/xlink" x="0px" y="0px" width="32px"
	 height="32px" viewBox="0 0 32 32" style="enable-background:new 0 0 32 32;" xml:space="preserve">
<g id="gamepad-alt">
	<path id="path5135" inkscape:connector-curvature="0" d="M14.854,5.809l0.355-0.276V5.335H16c0.421,0,0.79,0.158,1.106,0.474
		c0.313,0.316,0.474,0.685,0.474,1.106v3.95h12.64c0.422,0,0.79,0.158,1.106,0.474c0.313,0.316,0.474,0.685,0.474,1.106v12.64
		c0,0.447-0.158,0.829-0.474,1.146c-0.316,0.289-0.685,0.435-1.106,0.435H1.78c-0.448,0-0.829-0.146-1.146-0.435
		C0.345,25.914,0.2,25.532,0.2,25.085V12.484c0-0.447,0.145-0.83,0.434-1.146c0.316-0.316,0.698-0.474,1.146-0.474h12.64V6.954
		C14.42,6.506,14.564,6.125,14.854,5.809 M8.89,14.025H5.73v3.121H2.57v3.16h3.16v3.16h3.16v-3.16h3.121v-3.16H8.89V14.025
		 M27.85,17.185c-0.447,0-0.829,0.158-1.146,0.474c-0.289,0.316-0.435,0.686-0.435,1.106c0,0.448,0.146,0.816,0.435,1.106
		c0.316,0.313,0.698,0.474,1.146,0.474c0.422,0,0.79-0.158,1.106-0.474c0.313-0.29,0.474-0.658,0.474-1.106
		c0-0.421-0.158-0.79-0.474-1.106C28.64,17.343,28.271,17.185,27.85,17.185 M21.175,17.658c-0.29,0.316-0.435,0.686-0.435,1.106
		c0,0.448,0.145,0.816,0.435,1.106c0.315,0.313,0.697,0.474,1.146,0.474c0.421,0,0.79-0.158,1.106-0.474
		c0.313-0.29,0.474-0.658,0.474-1.106c0-0.421-0.158-0.79-0.474-1.106c-0.316-0.315-0.686-0.474-1.106-0.474
		C21.872,17.185,21.49,17.343,21.175,17.658"/>
</g>
<g id="Ebene_1">
</g>
</svg>
