<?xml version="1.0" encoding="iso-8859-1"?>
<!-- Generator: Adobe Illustrator 16.0.0, SVG Export Plug-In . SVG Version: 6.00 Build 0)  -->
<!DOCTYPE svg PUBLIC "-//W3C//DTD SVG 1.1//EN" "http://www.w3.org/Graphics/SVG/1.1/DTD/svg11.dtd">
<svg version="1.1" xmlns="http://www.w3.org/2000/svg" xmlns:xlink="http://www.w3.org/1999/xlink" x="0px" y="0px" width="32px"
	 height="32px" viewBox="0 0 32 32" style="enable-background:new 0 0 32 32;" xml:space="preserve">
<g id="gamepad-tilt-right">
	<path id="path6544" inkscape:connector-curvature="0" d="M27.942,18.111c-0.097-0.363-0.327-0.655-0.69-0.873l-1.093-0.109
		c-0.388,0.097-0.692,0.316-0.91,0.655c-0.17,0.364-0.206,0.728-0.109,1.092c0.121,0.412,0.34,0.703,0.656,0.874l1.127,0.182
		c0.39-0.098,0.68-0.34,0.875-0.728C28.016,18.889,28.063,18.524,27.942,18.111 M22.883,20.551c0.218-0.315,0.266-0.68,0.146-1.093
		c-0.097-0.363-0.327-0.655-0.691-0.873l-1.092-0.146c-0.389,0.099-0.693,0.318-0.91,0.656c-0.171,0.363-0.206,0.728-0.109,1.092
		c0.12,0.412,0.34,0.704,0.655,0.874l1.128,0.182C22.397,21.146,22.688,20.915,22.883,20.551 M12.07,20.879l-2.767,0.728
		l-0.765-2.804l-2.804,0.766L6.5,22.371l-2.84,0.728l0.728,2.804l2.84-0.729l0.764,2.806l2.804-0.767l-0.765-2.804l2.767-0.728
		L12.07,20.879 M27.87,11.085c0.364,0.194,0.595,0.485,0.691,0.874l3.021,11.25c0.098,0.388,0.037,0.764-0.182,1.128
		c-0.196,0.339-0.485,0.559-0.873,0.655L5.226,31.8l-1.129-0.146c-0.339-0.219-0.558-0.521-0.655-0.91L0.42,19.531
		c-0.097-0.41-0.048-0.788,0.146-1.129c0.218-0.364,0.521-0.594,0.91-0.691l25.302-6.808C27.166,10.807,27.53,10.867,27.87,11.085
		 M25.467,4.423c0.049,0.242-0.035,0.521-0.255,0.837l-2.257,3.75L22.3,9.52c-0.291,0.073-0.583,0-0.873-0.219
		c-0.923-0.63-1.93-1.056-3.021-1.274h-0.037l-3.714,0.218l0.801,1.128c0.291,0.389,0.316,0.801,0.073,1.238l-0.036,0.073
		c-0.268,0.291-0.583,0.437-0.947,0.437h-0.073l-7.718-0.983H6.682c-0.364-0.073-0.619-0.267-0.765-0.583L5.99,9.629
		C5.771,9.362,5.722,9.071,5.844,8.755V8.683l2.767-7.718C8.66,0.528,8.975,0.273,9.557,0.2H9.63c0.413,0,0.728,0.182,0.947,0.546
		l0.036,0.109l0.692,1.565c2.596-1.165,5.352-1.469,8.264-0.91c1.941,0.339,3.713,1.08,5.316,2.221
		C25.249,3.901,25.442,4.132,25.467,4.423"/>
</g>
<g id="Ebene_1">
</g>
</svg>
