<?xml version="1.0" encoding="iso-8859-1"?>
<!-- Generator: Adobe Illustrator 16.0.0, SVG Export Plug-In . SVG Version: 6.00 Build 0)  -->
<!DOCTYPE svg PUBLIC "-//W3C//DTD SVG 1.1//EN" "http://www.w3.org/Graphics/SVG/1.1/DTD/svg11.dtd">
<svg version="1.1" xmlns="http://www.w3.org/2000/svg" xmlns:xlink="http://www.w3.org/1999/xlink" x="0px" y="0px" width="32px"
	 height="32px" viewBox="0 0 32 32" style="enable-background:new 0 0 32 32;" xml:space="preserve">
<g id="gamepad">
	<path id="path6456" inkscape:connector-curvature="0" d="M30.22,8.1c0.422,0,0.79,0.158,1.106,0.475
		C31.642,8.89,31.8,9.259,31.8,9.68V22.32c0,0.447-0.158,0.829-0.474,1.146C31.01,23.755,30.642,23.9,30.22,23.9H1.78
		c-0.448,0-0.829-0.146-1.146-0.435C0.345,23.149,0.2,22.768,0.2,22.32V9.719c0-0.447,0.145-0.829,0.434-1.145
		C0.951,8.258,1.332,8.1,1.78,8.1H30.22 M8.89,11.26H5.73v3.121H2.57v3.16h3.16V20.7h3.16v-3.159h3.121v-3.16H8.89V11.26
		 M28.956,17.106c0.315-0.29,0.474-0.659,0.474-1.106c0-0.422-0.158-0.79-0.474-1.106c-0.316-0.315-0.685-0.474-1.106-0.474
		c-0.447,0-0.829,0.158-1.146,0.474C26.415,15.21,26.27,15.578,26.27,16c0,0.447,0.146,0.816,0.435,1.106
		c0.316,0.315,0.698,0.474,1.146,0.474C28.271,17.58,28.64,17.422,28.956,17.106 M23.427,17.106C23.742,16.816,23.9,16.447,23.9,16
		c0-0.422-0.158-0.79-0.474-1.106c-0.316-0.315-0.686-0.474-1.106-0.474c-0.448,0-0.83,0.158-1.146,0.474
		C20.885,15.21,20.74,15.578,20.74,16c0,0.447,0.145,0.816,0.435,1.106c0.315,0.315,0.697,0.474,1.146,0.474
		C22.741,17.58,23.11,17.422,23.427,17.106"/>
</g>
<g id="Ebene_1">
</g>
</svg>
