<?xml version="1.0" encoding="iso-8859-1"?>
<!-- Generator: Adobe Illustrator 16.0.0, SVG Export Plug-In . SVG Version: 6.00 Build 0)  -->
<!DOCTYPE svg PUBLIC "-//W3C//DTD SVG 1.1//EN" "http://www.w3.org/Graphics/SVG/1.1/DTD/svg11.dtd">
<svg version="1.1" xmlns="http://www.w3.org/2000/svg" xmlns:xlink="http://www.w3.org/1999/xlink" x="0px" y="0px" width="32px"
	 height="32px" viewBox="0 0 32 32" style="enable-background:new 0 0 32 32;" xml:space="preserve">
<g id="github">
	<path id="_x3C_Zusammengesetzter_Pfad_x3E__4_" d="M28.113,10.892c-0.668-1.615-1.598-3.02-2.792-4.213
		c-1.193-1.194-2.615-2.125-4.266-2.792C19.44,3.185,17.755,2.833,16,2.833c-1.756,0-3.441,0.352-5.056,1.053
		C9.293,4.553,7.872,5.484,6.677,6.678c-1.193,1.193-2.124,2.599-2.791,4.213C3.184,12.542,2.833,14.245,2.833,16
		c0,1.896,0.386,3.687,1.158,5.372c0.772,1.721,1.861,3.213,3.266,4.477c1.404,1.229,3.002,2.125,4.792,2.687v-3.477l-1.422,0.158
		c-1.474,0-2.527-0.686-3.16-2.055c-0.175-0.49-0.42-0.931-0.736-1.316l-0.422-0.368L5.73,20.951l-0.263-0.316
		c0-0.176,0.192-0.263,0.579-0.263c0.703,0,1.316,0.351,1.843,1.053l0.158,0.21l0.21,0.264l0.159,0.211l0.21,0.263l0.211,0.211
		l0.264,0.211l0.263,0.211l1.158,0.264l1.685-0.264c0.246-0.809,0.667-1.423,1.264-1.843c-2.318-0.211-4.02-0.79-5.108-1.739
		c-1.053-0.948-1.58-2.475-1.58-4.581c0-1.65,0.492-3.002,1.474-4.056L7.994,9.048c0-0.809,0.176-1.563,0.526-2.265l2.054,0.368
		c0.597,0.247,1.299,0.685,2.107,1.317l3.476-0.421l3.16,0.369l2.16-1.265c0.597-0.245,1.246-0.368,1.948-0.368
		c0.386,0.702,0.579,1.457,0.579,2.265l-0.315,1.685c1.018,1.123,1.527,2.493,1.527,4.108c0,2.106-0.544,3.633-1.633,4.581
		c-1.053,0.983-2.739,1.58-5.057,1.791c0.948,0.632,1.423,1.528,1.423,2.687v4.635c1.791-0.562,3.388-1.458,4.792-2.687
		c1.404-1.264,2.493-2.756,3.266-4.477c0.772-1.686,1.159-3.477,1.159-5.372C29.167,14.245,28.814,12.542,28.113,10.892 M23.9,2.307
		c2.422,1.405,4.353,3.318,5.793,5.741C31.098,10.435,31.8,13.086,31.8,16c0,2.844-0.702,5.478-2.106,7.9
		c-1.405,2.458-3.318,4.388-5.741,5.793C21.495,31.099,18.844,31.8,16,31.8c-2.844,0-5.478-0.701-7.9-2.106
		c-2.458-1.405-4.389-3.335-5.793-5.793C0.901,21.548,0.2,18.914,0.2,16c0-2.844,0.701-5.478,2.106-7.9
		C3.711,5.678,5.642,3.747,8.1,2.307C10.453,0.901,13.086,0.2,16,0.2C18.844,0.2,21.478,0.901,23.9,2.307"/>
</g>
<g id="Ebene_1">
</g>
</svg>
