<?xml version="1.0" encoding="iso-8859-1"?>
<!-- Generator: Adobe Illustrator 16.0.0, SVG Export Plug-In . SVG Version: 6.00 Build 0)  -->
<!DOCTYPE svg PUBLIC "-//W3C//DTD SVG 1.1//EN" "http://www.w3.org/Graphics/SVG/1.1/DTD/svg11.dtd">
<svg version="1.1" xmlns="http://www.w3.org/2000/svg" xmlns:xlink="http://www.w3.org/1999/xlink" x="0px" y="0px" width="32px"
	 height="32px" viewBox="0 0 32 32" style="enable-background:new 0 0 32 32;" xml:space="preserve">
<g id="google-plus">
	<path d="M31.8,14.307v3.417h-3.414v3.416h-3.413v-3.416h-3.414v-3.417h3.414V10.89h3.413v3.417H31.8z M10.292,14.52v3.502
		l5.804,0.043c-0.398,2.107-1.75,3.487-4.054,4.144c-2.218,0.625-4.11,0.197-5.675-1.281c-1.565-1.225-2.332-2.948-2.304-5.168
		c0.056-2.192,0.91-3.873,2.56-5.039c1.081-0.883,2.389-1.267,3.926-1.153c1.422,0.057,2.731,0.512,3.926,1.366l2.561-2.647
		c-2.191-1.822-4.438-2.662-6.743-2.52C7.704,5.652,5.385,6.591,3.337,8.584c-2.02,1.936-3.058,4.228-3.115,6.875
		c-0.143,2.136,0.398,4.171,1.621,6.108c1.195,1.877,2.803,3.201,4.823,3.972c2.02,0.797,4.11,0.923,6.272,0.383
		c2.248-0.598,3.984-1.765,5.208-3.501c1.422-1.993,2.018-4.626,1.791-7.901H10.292z"/>
</g>
<g id="Ebene_1">
</g>
</svg>
