<?xml version="1.0" encoding="iso-8859-1"?>
<!-- Generator: Adobe Illustrator 16.0.0, SVG Export Plug-In . SVG Version: 6.00 Build 0)  -->
<!DOCTYPE svg PUBLIC "-//W3C//DTD SVG 1.1//EN" "http://www.w3.org/Graphics/SVG/1.1/DTD/svg11.dtd">
<svg version="1.1" xmlns="http://www.w3.org/2000/svg" xmlns:xlink="http://www.w3.org/1999/xlink" x="0px" y="0px" width="32px"
	 height="32px" viewBox="0 0 32 32" style="enable-background:new 0 0 32 32;" xml:space="preserve">
<g id="heart">
	<path id="_x3C_Zusammengesetzter_Pfad_x3E__9_" d="M15.995,29.851l13.959-13.527h-0.046c1.3-1.608,1.929-3.474,1.89-5.598
		c-0.046-2.44-0.971-4.483-2.777-6.128c-0.581-0.559-1.209-1.023-1.881-1.391c-1.345-0.735-2.873-1.086-4.583-1.055
		c-2.503,0.046-4.626,0.943-6.369,2.687l-0.186,0.195h-0.004l-0.186-0.195c-1.743-1.744-3.866-2.641-6.369-2.687
		C7.733,2.12,6.205,2.471,4.861,3.206c-0.673,0.368-1.3,0.832-1.882,1.391c-1.807,1.645-2.731,3.688-2.777,6.128
		c-0.039,2.124,0.59,3.989,1.89,5.598H2.046l13.96,13.527"/>
</g>
<g id="Ebene_1">
</g>
</svg>
