<?xml version="1.0" encoding="iso-8859-1"?>
<!-- Generator: Adobe Illustrator 16.0.0, SVG Export Plug-In . SVG Version: 6.00 Build 0)  -->
<!DOCTYPE svg PUBLIC "-//W3C//DTD SVG 1.1//EN" "http://www.w3.org/Graphics/SVG/1.1/DTD/svg11.dtd">
<svg version="1.1" xmlns="http://www.w3.org/2000/svg" xmlns:xlink="http://www.w3.org/1999/xlink" x="0px" y="0px" width="32px"
	 height="32px" viewBox="0 0 32 32" style="enable-background:new 0 0 32 32;" xml:space="preserve">
<g id="heart-half-o">
	<path d="M15.995,29.851L16,29.845l0.005,0.006H15.995z M29.955,16.323L16,29.845L2.045,16.323h0.046
		c-1.3-1.608-1.929-3.475-1.89-5.598c0.046-2.44,0.971-4.483,2.778-6.129C3.561,4.038,4.188,3.574,4.86,3.206
		C6.205,2.471,7.733,2.12,9.443,2.151c2.503,0.046,4.625,0.943,6.369,2.687l0.186,0.195h0.004l0.186-0.195
		c1.744-1.744,3.865-2.641,6.369-2.687c1.709-0.032,3.238,0.319,4.582,1.055c0.672,0.368,1.301,0.832,1.881,1.391
		c1.807,1.646,2.732,3.689,2.779,6.129c0.039,2.123-0.592,3.989-1.891,5.598H29.955z M26.41,11.388
		c-0.033-1.108-0.445-2.027-1.238-2.756c-0.822-0.824-1.82-1.236-2.992-1.236c-1.08,0-2.014,0.348-2.807,1.045L19.23,8.584
		l-0.047,0.047L16,11.388v12.265l9.508-9.555c0.602-0.761,0.902-1.632,0.902-2.615V11.388z"/>
</g>
<g id="Ebene_1">
</g>
</svg>
