<?xml version="1.0" encoding="iso-8859-1"?>
<!-- Generator: Adobe Illustrator 16.0.0, SVG Export Plug-In . SVG Version: 6.00 Build 0)  -->
<!DOCTYPE svg PUBLIC "-//W3C//DTD SVG 1.1//EN" "http://www.w3.org/Graphics/SVG/1.1/DTD/svg11.dtd">
<svg version="1.1" xmlns="http://www.w3.org/2000/svg" xmlns:xlink="http://www.w3.org/1999/xlink" x="0px" y="0px" width="32px"
	 height="32px" viewBox="0 0 32 32" style="enable-background:new 0 0 32 32;" xml:space="preserve">
<g id="heart-o">
	<path d="M31.798,10.729c-0.046-2.44-0.971-4.483-2.777-6.129c-0.581-0.559-1.209-1.023-1.881-1.391
		c-1.345-0.735-2.873-1.086-4.583-1.055c-2.503,0.046-4.626,0.943-6.369,2.687l-0.186,0.195h-0.004l-0.186-0.195
		c-1.743-1.744-3.866-2.641-6.369-2.687c-1.71-0.032-3.238,0.319-4.582,1.055C4.188,3.577,3.562,4.041,2.979,4.6
		c-1.807,1.646-2.731,3.689-2.777,6.129c-0.039,2.123,0.59,3.989,1.89,5.597H2.046L16,29.848l13.954-13.522h-0.046
		C31.208,14.718,31.837,12.852,31.798,10.729z M26.409,11.487c0,0.982-0.301,1.854-0.902,2.615L16,23.657l-9.513-9.556
		c-0.602-0.761-0.902-1.632-0.902-2.615v-0.096c0.031-1.108,0.444-2.028,1.236-2.756c0.823-0.824,1.822-1.236,2.994-1.236
		c1.078,0,2.013,0.348,2.806,1.045l0.143,0.143l0.047,0.047L16,11.391l3.185-2.756l0.047-0.047l0.143-0.143
		c0.793-0.697,1.727-1.045,2.806-1.045c1.172,0,2.171,0.412,2.993,1.236c0.793,0.729,1.205,1.648,1.236,2.756V11.487z"/>
</g>
<g id="Ebene_1">
</g>
</svg>
