<?xml version="1.0" encoding="iso-8859-1"?>
<!-- Generator: Adobe Illustrator 16.0.0, SVG Export Plug-In . SVG Version: 6.00 Build 0)  -->
<!DOCTYPE svg PUBLIC "-//W3C//DTD SVG 1.1//EN" "http://www.w3.org/Graphics/SVG/1.1/DTD/svg11.dtd">
<svg version="1.1" xmlns="http://www.w3.org/2000/svg" xmlns:xlink="http://www.w3.org/1999/xlink" x="0px" y="0px" width="32px"
	 height="32px" viewBox="0 0 32 32" style="enable-background:new 0 0 32 32;" xml:space="preserve">
<g id="info">
	<path id="path5559" inkscape:connector-curvature="0" d="M17.858,11.353c0.744,0,1.395,0.278,1.952,0.836
		c0.558,0.558,0.837,1.208,0.837,1.952v12.083h0.929c0.743,0,1.395,0.278,1.952,0.837c0.558,0.557,0.836,1.208,0.836,1.951v1.858
		l-0.278,0.651l-0.65,0.278H8.565c-0.249,0-0.465-0.093-0.651-0.278c-0.186-0.187-0.278-0.402-0.278-0.651v-1.813
		c0-0.773,0.263-1.424,0.79-1.951v-0.046c0.558-0.559,1.224-0.837,1.998-0.837h0.93V16.93H8.565c-0.249,0-0.465-0.093-0.651-0.279
		C7.729,16.465,7.636,16.248,7.636,16v-3.718c0-0.248,0.093-0.464,0.278-0.651c0.187-0.186,0.403-0.278,0.651-0.278H17.858
		 M12.701,8.146c-0.899-0.93-1.348-2.029-1.348-3.299c0-1.271,0.448-2.354,1.348-3.253C13.631,0.665,14.729,0.2,16,0.2
		c1.302,0,2.401,0.464,3.299,1.394h-0.046c0.93,0.929,1.395,2.014,1.395,3.253c0,1.333-0.465,2.447-1.395,3.346V8.146
		C18.354,9.045,17.271,9.494,16,9.494C14.699,9.494,13.6,9.045,12.701,8.146"/>
</g>
<g id="Ebene_1">
</g>
</svg>
