<?xml version="1.0" encoding="iso-8859-1"?>
<!-- Generator: Adobe Illustrator 16.0.0, SVG Export Plug-In . SVG Version: 6.00 Build 0)  -->
<!DOCTYPE svg PUBLIC "-//W3C//DTD SVG 1.1//EN" "http://www.w3.org/Graphics/SVG/1.1/DTD/svg11.dtd">
<svg version="1.1" xmlns="http://www.w3.org/2000/svg" xmlns:xlink="http://www.w3.org/1999/xlink" x="0px" y="0px" width="32px"
	 height="32px" viewBox="0 0 32 32" style="enable-background:new 0 0 32 32;" xml:space="preserve">
<g id="info-circle">
	<path id="path7561" inkscape:connector-curvature="0" d="M16,0.2c-4.345,0-8.065,1.53-11.16,4.592V4.84H4.792
		C1.73,7.935,0.2,11.655,0.2,16c0,4.378,1.546,8.114,4.64,11.208C7.935,30.269,11.655,31.8,16,31.8h0.987
		c3.917-0.229,7.308-1.761,10.172-4.592C30.253,24.114,31.8,20.378,31.8,16c0-4.345-1.547-8.065-4.641-11.16
		c-2.864-2.864-6.255-4.393-10.172-4.59L16,0.2z M16,5.236c0.886,0,1.636,0.316,2.247,0.949h-0.031
		c0.633,0.633,0.951,1.372,0.951,2.216c0,0.907-0.318,1.668-0.951,2.28v-0.031c-0.611,0.612-1.35,0.918-2.216,0.918
		c-0.887,0-1.635-0.306-2.247-0.918c-0.612-0.633-0.918-1.383-0.918-2.249s0.306-1.604,0.918-2.216
		C14.387,5.551,15.135,5.236,16,5.236z M10.935,12.833h6.333c0.507,0,0.948,0.19,1.328,0.571c0.38,0.38,0.571,0.823,0.571,1.329
		v8.232H19.8c0.507,0,0.948,0.19,1.329,0.57c0.383,0.38,0.57,0.823,0.57,1.329v1.268l-0.188,0.443l-0.446,0.188h-10.13
		c-0.168,0-0.317-0.063-0.443-0.188s-0.19-0.274-0.19-0.443v-1.234c0-0.526,0.18-0.973,0.538-1.331v-0.031
		c0.38-0.38,0.834-0.57,1.361-0.57h0.635v-6.332h-1.9c-0.168,0-0.317-0.062-0.443-0.187c-0.126-0.124-0.19-0.274-0.19-0.443v-2.532
		c0-0.169,0.064-0.317,0.19-0.443C10.619,12.899,10.767,12.833,10.935,12.833z"/>
</g>
<g id="Ebene_1">
</g>
</svg>
