<?xml version="1.0" encoding="iso-8859-1"?>
<!-- Generator: Adobe Illustrator 16.0.0, SVG Export Plug-In . SVG Version: 6.00 Build 0)  -->
<!DOCTYPE svg PUBLIC "-//W3C//DTD SVG 1.1//EN" "http://www.w3.org/Graphics/SVG/1.1/DTD/svg11.dtd">
<svg version="1.1" xmlns="http://www.w3.org/2000/svg" xmlns:xlink="http://www.w3.org/1999/xlink" x="0px" y="0px" width="32px"
	 height="32px" viewBox="0 0 32 32" style="enable-background:new 0 0 32 32;" xml:space="preserve">
<g id="joystick-alt">
	<path id="path5455" inkscape:connector-curvature="0" d="M27.85,23.9H23.9v3.949h3.949V23.9 M23.9,8.1
		c0,1.119-0.396,2.057-1.186,2.814c-0.757,0.757-1.679,1.135-2.765,1.135v7.9h9.875c0.526,0,0.987,0.197,1.383,0.592
		c0.395,0.396,0.592,0.856,0.592,1.383V31.8H0.2v-9.825c0-0.561,0.181-1.037,0.543-1.433c0.395-0.395,0.872-0.592,1.432-0.592h9.875
		v-7.9c-1.119,0-2.057-0.378-2.814-1.135C8.478,10.124,8.1,9.187,8.1,8.1V4.15c0-1.086,0.378-2.008,1.135-2.765
		C10.026,0.595,10.964,0.2,12.05,0.2h7.9c1.086,0,2.008,0.395,2.765,1.185c0.79,0.79,1.186,1.712,1.186,2.765V8.1"/>
</g>
<g id="Ebene_1">
</g>
</svg>
