<?xml version="1.0" encoding="iso-8859-1"?>
<!-- Generator: Adobe Illustrator 16.0.0, SVG Export Plug-In . SVG Version: 6.00 Build 0)  -->
<!DOCTYPE svg PUBLIC "-//W3C//DTD SVG 1.1//EN" "http://www.w3.org/Graphics/SVG/1.1/DTD/svg11.dtd">
<svg version="1.1" xmlns="http://www.w3.org/2000/svg" xmlns:xlink="http://www.w3.org/1999/xlink" x="0px" y="0px" width="32px"
	 height="32px" viewBox="0 0 32 32" style="enable-background:new 0 0 32 32;" xml:space="preserve">
<g id="joystick-right">
	<path id="path5355" inkscape:connector-curvature="0" d="M16.044,1.325c1.659-0.904,3.394-1.115,5.2-0.634
		c1.809,0.483,3.18,1.523,4.115,3.121c0.963,1.657,1.207,3.376,0.725,5.154c-0.48,1.808-1.553,3.181-3.211,4.115
		c-0.754,0.453-1.537,0.738-2.352,0.859l-2.125,8.049h8.455c0.725,0,1.355,0.271,1.898,0.813c0.547,0.544,0.814,1.176,0.814,1.901
		v6.192l-0.271,0.634c-0.18,0.181-0.395,0.271-0.633,0.271H3.339l-0.633-0.271c-0.181-0.18-0.271-0.392-0.271-0.634v-6.148
		c0-0.754,0.256-1.388,0.768-1.899v-0.046c0.543-0.545,1.19-0.813,1.944-0.813h7.596l2.533-9.45
		c-0.662-0.512-1.236-1.16-1.719-1.944c-0.873-1.628-1.069-3.345-0.587-5.154C13.453,3.662,14.479,2.29,16.044,1.325"/>
</g>
<g id="Ebene_1">
</g>
</svg>
