<?xml version="1.0" encoding="iso-8859-1"?>
<!-- Generator: Adobe Illustrator 16.0.0, SVG Export Plug-In . SVG Version: 6.00 Build 0)  -->
<!DOCTYPE svg PUBLIC "-//W3C//DTD SVG 1.1//EN" "http://www.w3.org/Graphics/SVG/1.1/DTD/svg11.dtd">
<svg version="1.1" xmlns="http://www.w3.org/2000/svg" xmlns:xlink="http://www.w3.org/1999/xlink" x="0px" y="0px" width="32px"
	 height="32px" viewBox="0 0 32 32" style="enable-background:new 0 0 32 32;" xml:space="preserve">
<g id="joystick">
	<path id="path5345" inkscape:connector-curvature="0" d="M2.438,30.896v-6.148c0-0.753,0.256-1.384,0.769-1.897v-0.045
		c0.542-0.546,1.19-0.813,1.944-0.813h8.092V13.22c-0.753-0.331-1.462-0.813-2.125-1.446C9.82,10.447,9.173,8.851,9.173,6.981
		c0-1.868,0.647-3.466,1.944-4.792C12.474,0.863,14.085,0.2,15.955,0.2c1.868,0,3.466,0.663,4.792,1.989
		c1.326,1.326,1.988,2.923,1.988,4.792c0,1.869-0.662,3.466-1.988,4.792c-0.634,0.633-1.326,1.114-2.079,1.446v8.771h8.183
		c0.723,0,1.355,0.27,1.897,0.813c0.546,0.541,0.814,1.176,0.814,1.898v6.192l-0.271,0.633L28.658,31.8H3.342l-0.633-0.271
		C2.528,31.348,2.438,31.139,2.438,30.896"/>
</g>
<g id="Ebene_1">
</g>
</svg>
