<?xml version="1.0" encoding="iso-8859-1"?>
<!-- Generator: Adobe Illustrator 16.0.0, SVG Export Plug-In . SVG Version: 6.00 Build 0)  -->
<!DOCTYPE svg PUBLIC "-//W3C//DTD SVG 1.1//EN" "http://www.w3.org/Graphics/SVG/1.1/DTD/svg11.dtd">
<svg version="1.1" xmlns="http://www.w3.org/2000/svg" xmlns:xlink="http://www.w3.org/1999/xlink" x="0px" y="0px" width="32px"
	 height="32px" viewBox="0 0 32 32" style="enable-background:new 0 0 32 32;" xml:space="preserve">
<g id="joystick-left">
	<path id="path5357" inkscape:connector-curvature="0" d="M18.261,10.594l-1.628,1.944l2.532,9.45h7.687
		c0.724,0,1.356,0.271,1.898,0.813c0.546,0.543,0.814,1.176,0.814,1.899v6.194l-0.271,0.633L28.66,31.8H3.34l-0.633-0.271
		c-0.181-0.181-0.271-0.392-0.271-0.633v-6.149c0-0.753,0.256-1.387,0.769-1.898v-0.046c0.543-0.545,1.19-0.813,1.944-0.813h8.41
		l-2.17-8.048c-0.814-0.12-1.628-0.407-2.441-0.859c-1.598-0.935-2.638-2.306-3.12-4.115C5.345,7.188,5.556,5.47,6.46,3.812
		c0.994-1.598,2.396-2.638,4.205-3.12c1.809-0.482,3.511-0.271,5.109,0.633c1.627,0.965,2.683,2.335,3.165,4.114
		C19.421,7.248,19.195,8.966,18.261,10.594"/>
</g>
<g id="Ebene_1">
</g>
</svg>
