<?xml version="1.0" encoding="iso-8859-1"?>
<!-- Generator: Adobe Illustrator 16.0.0, SVG Export Plug-In . SVG Version: 6.00 Build 0)  -->
<!DOCTYPE svg PUBLIC "-//W3C//DTD SVG 1.1//EN" "http://www.w3.org/Graphics/SVG/1.1/DTD/svg11.dtd">
<svg version="1.1" xmlns="http://www.w3.org/2000/svg" xmlns:xlink="http://www.w3.org/1999/xlink" x="0px" y="0px" width="32px"
	 height="32px" viewBox="0 0 32 32" style="enable-background:new 0 0 32 32;" xml:space="preserve">
<g id="key-small">
	<path id="path6512" inkscape:connector-curvature="0" d="M3.531,28.055V17.372c0,0.389,0.152,0.745,0.457,1.08
		c0.333,0.306,0.734,0.458,1.206,0.458h21.613c0.443,0,0.831-0.152,1.164-0.458c0.329-0.332,0.498-0.691,0.498-1.08v10.683
		c0,0.47-0.166,0.871-0.498,1.205c-0.333,0.304-0.721,0.456-1.164,0.456H5.194c-0.472,0-0.873-0.152-1.206-0.456
		C3.683,28.926,3.531,28.524,3.531,28.055 M27.971,2.783c0.332,0.332,0.498,0.721,0.498,1.164v10.848
		c0,0.444-0.166,0.831-0.498,1.164c-0.333,0.304-0.721,0.457-1.164,0.457H5.194c-0.472,0-0.873-0.153-1.206-0.457
		c-0.305-0.333-0.457-0.721-0.457-1.164V3.988c0-0.471,0.152-0.873,0.457-1.205C4.321,2.45,4.722,2.284,5.194,2.284h21.613
		C27.25,2.284,27.638,2.45,27.971,2.783"/>
</g>
<g id="Ebene_1">
</g>
</svg>
