<?xml version="1.0" encoding="iso-8859-1"?>
<!-- Generator: Adobe Illustrator 16.0.0, SVG Export Plug-In . SVG Version: 6.00 Build 0)  -->
<!DOCTYPE svg PUBLIC "-//W3C//DTD SVG 1.1//EN" "http://www.w3.org/Graphics/SVG/1.1/DTD/svg11.dtd">
<svg version="1.1" xmlns="http://www.w3.org/2000/svg" xmlns:xlink="http://www.w3.org/1999/xlink" x="0px" y="0px" width="32px"
	 height="32px" viewBox="0 0 32 32" style="enable-background:new 0 0 32 32;" xml:space="preserve">
<g id="key-large-3d">
	<path id="path6524" inkscape:connector-curvature="0" d="M28.59,4.682l1.715,11.662H1.766L3.48,4.682H28.59 M31.779,25.708
		c0.069,0.435-0.034,0.812-0.309,1.13c-0.275,0.274-0.629,0.437-1.063,0.48H1.594c-0.458-0.044-0.823-0.206-1.098-0.48
		c-0.252-0.32-0.343-0.697-0.274-1.13l1.372-8.507c-0.023,0.205,0.068,0.423,0.274,0.651c0.229,0.206,0.595,0.389,1.098,0.549
		h26.069l1.098-0.549l0.07-0.103c0.159-0.229,0.229-0.469,0.206-0.721L31.779,25.708"/>
</g>
<g id="Ebene_1">
</g>
</svg>
