<?xml version="1.0" encoding="iso-8859-1"?>
<!-- Generator: Adobe Illustrator 16.0.0, SVG Export Plug-In . SVG Version: 6.00 Build 0)  -->
<!DOCTYPE svg PUBLIC "-//W3C//DTD SVG 1.1//EN" "http://www.w3.org/Graphics/SVG/1.1/DTD/svg11.dtd">
<svg version="1.1" xmlns="http://www.w3.org/2000/svg" xmlns:xlink="http://www.w3.org/1999/xlink" x="0px" y="0px" width="32px"
	 height="32px" viewBox="0 0 32 32" style="enable-background:new 0 0 32 32;" xml:space="preserve">
<g id="key-small-3d">
	<path id="path6520" inkscape:connector-curvature="0" d="M24.461,4.695l1.712,11.649H5.891L7.604,4.695H24.461 M26.002,17.852
		l0.07-0.104c0.158-0.229,0.229-0.467,0.205-0.719l1.371,8.668c0.071,0.434-0.034,0.811-0.308,1.129
		c-0.273,0.273-0.627,0.436-1.063,0.479H5.722c-0.458-0.043-0.823-0.205-1.097-0.479c-0.251-0.32-0.342-0.697-0.274-1.129
		l1.371-8.496c-0.022,0.205,0.068,0.422,0.274,0.65c0.228,0.207,0.594,0.387,1.096,0.547h17.814L26.002,17.852"/>
</g>
<g id="Ebene_1">
</g>
</svg>
