<?xml version="1.0" encoding="iso-8859-1"?>
<!-- Generator: Adobe Illustrator 16.0.0, SVG Export Plug-In . SVG Version: 6.00 Build 0)  -->
<!DOCTYPE svg PUBLIC "-//W3C//DTD SVG 1.1//EN" "http://www.w3.org/Graphics/SVG/1.1/DTD/svg11.dtd">
<svg version="1.1" xmlns="http://www.w3.org/2000/svg" xmlns:xlink="http://www.w3.org/1999/xlink" x="0px" y="0px" width="32px"
	 height="32px" viewBox="0 0 32 32" style="enable-background:new 0 0 32 32;" xml:space="preserve">
<g id="key-large">
	<path id="path6576" inkscape:connector-curvature="0" d="M31.302,29.264c-0.333,0.305-0.722,0.457-1.165,0.457H1.863
		c-0.472,0-0.873-0.152-1.206-0.457C0.352,28.931,0.2,28.529,0.2,28.058V17.497c0,0.304,0.152,0.623,0.457,0.956
		c0.333,0.305,0.734,0.457,1.206,0.457h28.273c0.443,0,0.832-0.152,1.165-0.457c0.329-0.333,0.498-0.652,0.498-0.956v10.561
		C31.8,28.529,31.634,28.931,31.302,29.264 M31.8,3.942v10.852c0,0.444-0.166,0.832-0.498,1.165
		c-0.333,0.304-0.722,0.457-1.165,0.457H1.863c-0.472,0-0.873-0.153-1.206-0.457C0.352,15.626,0.2,15.237,0.2,14.794V3.983
		c0-0.471,0.152-0.873,0.457-1.205C0.99,2.445,1.392,2.279,1.863,2.279h28.273c0.443,0,0.832,0.166,1.165,0.499
		C31.634,3.11,31.8,3.499,31.8,3.942"/>
</g>
<g id="Ebene_1">
</g>
</svg>
