<?xml version="1.0" encoding="iso-8859-1"?>
<!-- Generator: Adobe Illustrator 16.0.0, SVG Export Plug-In . SVG Version: 6.00 Build 0)  -->
<!DOCTYPE svg PUBLIC "-//W3C//DTD SVG 1.1//EN" "http://www.w3.org/Graphics/SVG/1.1/DTD/svg11.dtd">
<svg version="1.1" xmlns="http://www.w3.org/2000/svg" xmlns:xlink="http://www.w3.org/1999/xlink" x="0px" y="0px" width="32px"
	 height="32px" viewBox="0 0 32 32" style="enable-background:new 0 0 32 32;" xml:space="preserve">
<g id="key">
	<path id="path6562" inkscape:connector-curvature="0" d="M10.83,19.018c-0.961-0.869-1.967-1.428-3.019-1.674
		c-0.681-0.123-1.254,0-1.719,0.369c-0.341,0.436-0.448,0.977-0.325,1.625c0.217,1.146,0.79,2.216,1.719,3.204l0.372,0.37
		c0.836,0.745,1.765,1.21,2.788,1.394l0.139,0.05c0.619,0.058,1.114-0.078,1.487-0.421c0.309-0.403,0.434-0.896,0.371-1.487v-0.184
		c-0.216-0.989-0.665-1.919-1.346-2.786l-0.325-0.372L10.83,19.018 M27.6,4.801c0.03,0.588-0.078,1.1-0.329,1.533l3.949,3.995
		c0.773,0.773,0.773,1.548,0,2.323l-0.88,0.882l-0.418,0.232l-0.371-0.186l-0.604-0.604l-2.092,2.181l0.605,0.559l0.14,0.372
		l-0.187,0.419l-0.836,0.882c-0.804,0.805-1.595,0.805-2.37,0l-3.947-3.996l-3.762,3.904c0.774,1.268,1.3,2.63,1.579,4.084
		l-0.096,0.048c0.495,2.662-0.104,4.784-1.811,6.362c-1.61,1.767-3.748,2.433-6.411,1.998c-2.105-0.372-4.025-1.361-5.76-2.972
		l-0.372-0.37c-1.828-1.799-2.926-3.823-3.299-6.086v-0.046c-0.155-0.869-0.169-1.657-0.046-2.371
		c0.094-1.67,0.728-3.064,1.905-4.18c1.146-1.176,2.524-1.842,4.135-1.997l2.276,0.093h0.14c1.362,0.248,2.647,0.759,3.855,1.533
		L23.184,2.664c0.403-0.465,0.989-0.651,1.764-0.558c0.68,0.093,1.269,0.402,1.763,0.929l0.42,0.372
		C27.443,3.811,27.6,4.275,27.6,4.801"/>
</g>
<g id="Ebene_1">
</g>
</svg>
