<?xml version="1.0" encoding="iso-8859-1"?>
<!-- Generator: Adobe Illustrator 16.0.0, SVG Export Plug-In . SVG Version: 6.00 Build 0)  -->
<!DOCTYPE svg PUBLIC "-//W3C//DTD SVG 1.1//EN" "http://www.w3.org/Graphics/SVG/1.1/DTD/svg11.dtd">
<svg version="1.1" xmlns="http://www.w3.org/2000/svg" xmlns:xlink="http://www.w3.org/1999/xlink" x="0px" y="0px" width="32px"
	 height="32px" viewBox="0 0 32 32" style="enable-background:new 0 0 32 32;" xml:space="preserve">
<g id="list">
	<path id="path5495" inkscape:connector-curvature="0" d="M8.1,17.975c0,0.56-0.198,1.037-0.593,1.433
		c-0.395,0.361-0.856,0.543-1.382,0.543h-3.95c-0.56,0-1.037-0.182-1.432-0.543C0.381,19.012,0.2,18.534,0.2,17.975v-3.9
		c0-0.56,0.181-1.037,0.543-1.432c0.395-0.395,0.872-0.593,1.432-0.593h3.95c0.526,0,0.987,0.198,1.382,0.593S8.1,13.499,8.1,14.025
		V17.975 M12.593,31.257c-0.362-0.396-0.543-0.872-0.543-1.432v-3.901c0-0.558,0.181-1.036,0.543-1.432
		c0.396-0.395,0.873-0.592,1.432-0.592h15.8c0.526,0,0.987,0.197,1.383,0.592c0.395,0.396,0.592,0.856,0.592,1.383v3.95
		c0,0.56-0.197,1.036-0.592,1.432c-0.396,0.362-0.856,0.543-1.383,0.543h-15.8C13.465,31.8,12.988,31.619,12.593,31.257 M8.1,29.825
		c0,0.56-0.198,1.036-0.593,1.432C7.112,31.619,6.651,31.8,6.125,31.8h-3.95c-0.56,0-1.037-0.181-1.432-0.543
		C0.381,30.861,0.2,30.385,0.2,29.825v-3.901c0-0.56,0.181-1.036,0.543-1.432C1.138,24.098,1.615,23.9,2.175,23.9h3.95
		c0.526,0,0.987,0.197,1.382,0.592C7.902,24.888,8.1,25.349,8.1,25.875V29.825 M8.1,6.125c0,0.56-0.198,1.037-0.593,1.432
		C7.112,7.919,6.651,8.1,6.125,8.1h-3.95c-0.56,0-1.037-0.181-1.432-0.543C0.381,7.162,0.2,6.685,0.2,6.125V2.224
		c0-0.56,0.181-1.037,0.543-1.432C1.138,0.397,1.615,0.2,2.175,0.2h3.95c0.526,0,0.987,0.197,1.382,0.592S8.1,1.648,8.1,2.175V6.125
		 M31.8,6.125c0,0.56-0.197,1.037-0.592,1.432C30.813,7.919,30.352,8.1,29.825,8.1h-15.8c-0.56,0-1.037-0.181-1.432-0.543
		c-0.362-0.396-0.543-0.873-0.543-1.432V2.224c0-0.56,0.181-1.037,0.543-1.432C12.988,0.397,13.465,0.2,14.025,0.2h15.8
		c0.526,0,0.987,0.197,1.383,0.592C31.603,1.188,31.8,1.648,31.8,2.175V6.125 M31.208,12.643c0.395,0.395,0.592,0.856,0.592,1.382
		v3.95c0,0.56-0.197,1.037-0.592,1.433c-0.396,0.361-0.856,0.543-1.383,0.543h-15.8c-0.56,0-1.037-0.182-1.432-0.543
		c-0.362-0.396-0.543-0.873-0.543-1.433v-3.9c0-0.559,0.181-1.037,0.543-1.432c0.396-0.395,0.873-0.593,1.432-0.593h15.8
		C30.352,12.05,30.813,12.248,31.208,12.643"/>
</g>
<g id="Ebene_1">
</g>
</svg>
