<?xml version="1.0" encoding="iso-8859-1"?>
<!-- Generator: Adobe Illustrator 16.0.0, SVG Export Plug-In . SVG Version: 6.00 Build 0)  -->
<!DOCTYPE svg PUBLIC "-//W3C//DTD SVG 1.1//EN" "http://www.w3.org/Graphics/SVG/1.1/DTD/svg11.dtd">
<svg version="1.1" xmlns="http://www.w3.org/2000/svg" xmlns:xlink="http://www.w3.org/1999/xlink" x="0px" y="0px" width="32px"
	 height="32px" viewBox="0 0 32 32" style="enable-background:new 0 0 32 32;" xml:space="preserve">
<g id="lock">
	<path id="path5215" inkscape:connector-curvature="0" d="M17.662,25.141h1.664v-3.327h-6.653v3.327h1.664v3.325h3.325V25.141
		 M29.306,15.161V30.13c0,0.471-0.167,0.872-0.499,1.206c-0.332,0.305-0.721,0.457-1.164,0.457H4.357
		c-0.471,0-0.873-0.152-1.206-0.457c-0.305-0.334-0.458-0.735-0.458-1.206V15.161h3.326V8.508c0-0.915,0.318-1.691,0.957-2.328
		c0.665-0.666,1.455-0.998,2.37-0.998h13.306c0.915,0,1.69,0.333,2.327,0.998c0.666,0.665,0.998,1.442,0.998,2.328v6.653H29.306
		 M22.653,8.508H9.347v6.653h13.306V8.508"/>
</g>
<g id="Ebene_1">
</g>
</svg>
