<?xml version="1.0" encoding="iso-8859-1"?>
<!-- Generator: Adobe Illustrator 16.0.0, SVG Export Plug-In . SVG Version: 6.00 Build 0)  -->
<!DOCTYPE svg PUBLIC "-//W3C//DTD SVG 1.1//EN" "http://www.w3.org/Graphics/SVG/1.1/DTD/svg11.dtd">
<svg version="1.1" xmlns="http://www.w3.org/2000/svg" xmlns:xlink="http://www.w3.org/1999/xlink" x="0px" y="0px" width="32px"
	 height="32px" viewBox="0 0 32 32" style="enable-background:new 0 0 32 32;" xml:space="preserve">
<g id="minus-circle">
	<path d="M30.813,10.37c-0.757-2.008-1.975-3.852-3.654-5.529c-2.864-2.864-6.254-4.394-10.171-4.593L16,0.2
		c-4.345,0-8.065,1.529-11.159,4.591v0.05h-0.05C3.146,6.519,1.944,8.362,1.188,10.37C0.529,12.115,0.2,13.99,0.2,16
		c0,4.376,1.546,8.112,4.641,11.208C7.935,30.269,11.655,31.8,16,31.8h0.987c3.917-0.231,7.307-1.763,10.171-4.592
		C30.252,24.112,31.8,20.376,31.8,16C31.8,13.99,31.47,12.115,30.813,10.37z M25.875,17.219c0,0.467-0.197,0.874-0.593,1.221
		c-0.395,0.35-0.855,0.523-1.382,0.523H8.1c-0.561,0-1.037-0.174-1.432-0.523c-0.329-0.317-0.51-0.725-0.543-1.221v-2.438
		c0.033-0.494,0.214-0.901,0.543-1.222c0.396-0.349,0.872-0.522,1.432-0.522h15.8c0.526,0,0.987,0.174,1.382,0.522
		c0.396,0.35,0.593,0.757,0.593,1.222V17.219z"/>
</g>
<g id="Ebene_1">
</g>
</svg>
