<?xml version="1.0" encoding="iso-8859-1"?>
<!-- Generator: Adobe Illustrator 16.0.0, SVG Export Plug-In . SVG Version: 6.00 Build 0)  -->
<!DOCTYPE svg PUBLIC "-//W3C//DTD SVG 1.1//EN" "http://www.w3.org/Graphics/SVG/1.1/DTD/svg11.dtd">
<svg version="1.1" xmlns="http://www.w3.org/2000/svg" xmlns:xlink="http://www.w3.org/1999/xlink" x="0px" y="0px" width="32px"
	 height="32px" viewBox="0 0 32 32" style="enable-background:new 0 0 32 32;" xml:space="preserve">
<g id="mouse-left-button">
	<path id="path6388" inkscape:connector-curvature="0" d="M14.002,6.466c-0.333,0.363-0.545,0.771-0.636,1.226L13.23,8.509v6.765
		c0,0.817,0.257,1.513,0.771,2.088c0.545,0.604,1.196,0.908,1.952,0.908c0.757,0,1.392-0.304,1.907-0.908
		c0.545-0.575,0.817-1.271,0.817-2.088V8.509l-0.091-0.817l-0.729-1.226c-0.513-0.575-1.15-0.863-1.907-0.863
		C15.198,5.603,14.547,5.891,14.002,6.466 M19.859,4.604c1.028,1.089,1.544,2.391,1.544,3.904v3.36h4.585V2.924h-9.807
		c1.483,0.03,2.739,0.635,3.768,1.816L19.859,4.604 M28.168,0.745c0.362,0.363,0.545,0.786,0.545,1.271v17.117h-0.046
		c0,3.511-1.24,6.492-3.724,8.944C22.493,30.559,19.512,31.8,16,31.8h-0.046c-3.511,0-6.508-1.241-8.989-3.726
		c-2.452-2.449-3.678-5.431-3.678-8.942V2.062c0-0.514,0.166-0.953,0.499-1.316C4.15,0.381,4.589,0.2,5.104,0.2h21.793
		C27.381,0.2,27.805,0.381,28.168,0.745"/>
</g>
<g id="Ebene_1">
</g>
</svg>
