<?xml version="1.0" encoding="iso-8859-1"?>
<!-- Generator: Adobe Illustrator 16.0.0, SVG Export Plug-In . SVG Version: 6.00 Build 0)  -->
<!DOCTYPE svg PUBLIC "-//W3C//DTD SVG 1.1//EN" "http://www.w3.org/Graphics/SVG/1.1/DTD/svg11.dtd">
<svg version="1.1" xmlns="http://www.w3.org/2000/svg" xmlns:xlink="http://www.w3.org/1999/xlink" x="0px" y="0px" width="32px"
	 height="32px" viewBox="0 0 32 32" style="enable-background:new 0 0 32 32;" xml:space="preserve">
<g id="mouse-right-button">
	<path id="path6404" inkscape:connector-curvature="0" d="M6.012,11.869h4.494v-3.36c0.03-1.483,0.53-2.754,1.499-3.814
		c1.028-1.15,2.27-1.741,3.723-1.771H6.012V11.869 M28.168,0.745c0.362,0.363,0.545,0.786,0.545,1.271v17.117h-0.046
		c0,3.511-1.24,6.492-3.724,8.944C22.493,30.559,19.512,31.8,16,31.8h-0.046c-3.511,0-6.508-1.241-8.989-3.726
		c-2.452-2.449-3.678-5.431-3.678-8.942V2.062c0-0.514,0.166-0.953,0.499-1.316C4.15,0.381,4.589,0.2,5.104,0.2h21.793
		C27.381,0.2,27.805,0.381,28.168,0.745 M13.366,7.691L13.23,8.509v6.765c0,0.817,0.257,1.513,0.771,2.088
		c0.545,0.604,1.196,0.908,1.952,0.908c0.757,0,1.392-0.304,1.907-0.908c0.545-0.575,0.817-1.271,0.817-2.088V8.509l-0.091-0.817
		l-0.729-1.226c-0.513-0.575-1.15-0.863-1.907-0.863c-0.756,0-1.407,0.288-1.952,0.863C13.669,6.829,13.457,7.237,13.366,7.691"/>
</g>
<g id="Ebene_1">
</g>
</svg>
