<?xml version="1.0" encoding="iso-8859-1"?>
<!-- Generator: Adobe Illustrator 16.0.0, SVG Export Plug-In . SVG Version: 6.00 Build 0)  -->
<!DOCTYPE svg PUBLIC "-//W3C//DTD SVG 1.1//EN" "http://www.w3.org/Graphics/SVG/1.1/DTD/svg11.dtd">
<svg version="1.1" xmlns="http://www.w3.org/2000/svg" xmlns:xlink="http://www.w3.org/1999/xlink" x="0px" y="0px" width="32px"
	 height="32px" viewBox="0 0 32 32" style="enable-background:new 0 0 32 32;" xml:space="preserve">
<g id="mouse">
	<path id="path6438" inkscape:connector-curvature="0" d="M17.861,6.466c-0.514-0.575-1.15-0.863-1.907-0.863
		c-0.756,0-1.407,0.288-1.952,0.863c-0.333,0.363-0.545,0.771-0.636,1.226L13.23,8.509v6.765c0,0.817,0.257,1.513,0.771,2.088
		c0.545,0.604,1.196,0.908,1.952,0.908c0.757,0,1.392-0.304,1.907-0.908c0.545-0.575,0.817-1.271,0.817-2.088V8.509l-0.091-0.817
		C18.437,7.237,18.193,6.829,17.861,6.466 M28.713,2.016v17.117h-0.046c0,3.511-1.24,6.492-3.724,8.944
		C22.493,30.559,19.512,31.8,16,31.8h-0.046c-3.511,0-6.508-1.241-8.989-3.726c-2.452-2.449-3.678-5.431-3.678-8.942V2.062
		c0-0.514,0.166-0.953,0.499-1.316C4.15,0.381,4.589,0.2,5.104,0.2h21.793c0.484,0,0.908,0.181,1.271,0.545
		C28.53,1.108,28.713,1.531,28.713,2.016 M10.506,11.869v-3.36c0.03-1.483,0.53-2.754,1.499-3.814
		c1.028-1.15,2.27-1.741,3.723-1.771H6.012v8.944H10.506 M25.988,2.924h-9.807c1.483,0.03,2.739,0.635,3.768,1.816l-0.093-0.136
		C20.885,5.694,21.4,6.995,21.4,8.509v3.36h4.588V2.924"/>
</g>
<g id="Ebene_1">
</g>
</svg>
