<?xml version="1.0" encoding="iso-8859-1"?>
<!-- Generator: Adobe Illustrator 16.0.0, SVG Export Plug-In . SVG Version: 6.00 Build 0)  -->
<!DOCTYPE svg PUBLIC "-//W3C//DTD SVG 1.1//EN" "http://www.w3.org/Graphics/SVG/1.1/DTD/svg11.dtd">
<svg version="1.1" xmlns="http://www.w3.org/2000/svg" xmlns:xlink="http://www.w3.org/1999/xlink" x="0px" y="0px" width="32px"
	 height="32px" viewBox="0 0 32 32" style="enable-background:new 0 0 32 32;" xml:space="preserve">
<g id="mouse-alt">
	<path id="path5281" inkscape:connector-curvature="0" d="M6.012,11.869h4.494v3.405c0.03,1.513,0.53,2.814,1.499,3.904
		c1.089,1.242,2.406,1.847,3.949,1.816c1.574,0.03,2.906-0.591,3.995-1.861l-0.091,0.136c1.028-1.117,1.544-2.451,1.544-3.993
		v-3.405h4.586V2.924H6.012V11.869 M3.786,0.745C4.15,0.381,4.589,0.2,5.104,0.2h21.793c0.484,0,0.908,0.181,1.271,0.545
		c0.362,0.363,0.545,0.786,0.545,1.271v17.117h-0.046c0,3.511-1.24,6.492-3.724,8.944C22.493,30.559,19.512,31.8,16,31.8h-0.046
		c-3.511,0-6.508-1.241-8.989-3.726c-2.452-2.449-3.678-5.431-3.678-8.942V2.062C3.287,1.547,3.453,1.108,3.786,0.745 M14.002,6.42
		c0.545-0.576,1.196-0.863,1.952-0.863c0.757,0,1.392,0.287,1.907,0.863c0.545,0.575,0.817,1.271,0.817,2.088v6.765
		c0,0.817-0.272,1.513-0.817,2.088c-0.514,0.604-1.15,0.908-1.907,0.908c-0.756,0-1.407-0.304-1.952-0.908
		c-0.514-0.575-0.771-1.271-0.771-2.088V8.509C13.23,7.691,13.487,6.995,14.002,6.42"/>
</g>
<g id="Ebene_1">
</g>
</svg>
