<?xml version="1.0" encoding="iso-8859-1"?>
<!-- Generator: Adobe Illustrator 16.0.0, SVG Export Plug-In . SVG Version: 6.00 Build 0)  -->
<!DOCTYPE svg PUBLIC "-//W3C//DTD SVG 1.1//EN" "http://www.w3.org/Graphics/SVG/1.1/DTD/svg11.dtd">
<svg version="1.1" xmlns="http://www.w3.org/2000/svg" xmlns:xlink="http://www.w3.org/1999/xlink" x="0px" y="0px" width="32px"
	 height="32px" viewBox="0 0 32 32" style="enable-background:new 0 0 32 32;" xml:space="preserve">
<g id="move-rl">
	<path id="path6474" inkscape:connector-curvature="0" d="M16.007,26.796c2.993,0,5.544-1.045,7.659-3.133
		c1.59-1.591,2.577-3.442,2.956-5.559l0.104-0.675h-2.277v-2.85h5.236l-0.035,1.425l-0.143,2.1
		c-0.404,2.897-1.675,5.427-3.812,7.587c-2.657,2.636-5.889,3.954-9.689,3.954c-3.799,0-7.018-1.318-9.653-3.954
		c-2.162-2.16-3.443-4.689-3.847-7.587l-0.143-2.1H0.227L3.79,11.73l3.562,4.274H5.214c0,0.734,0.059,1.437,0.178,2.1
		c0.403,2.116,1.401,3.966,2.992,5.559C10.474,25.751,13.015,26.796,16.007,26.796"/>
</g>
<g id="Ebene_1">
</g>
</svg>
