<?xml version="1.0" encoding="iso-8859-1"?>
<!-- Generator: Adobe Illustrator 16.0.0, SVG Export Plug-In . SVG Version: 6.00 Build 0)  -->
<!DOCTYPE svg PUBLIC "-//W3C//DTD SVG 1.1//EN" "http://www.w3.org/Graphics/SVG/1.1/DTD/svg11.dtd">
<svg version="1.1" xmlns="http://www.w3.org/2000/svg" xmlns:xlink="http://www.w3.org/1999/xlink" x="0px" y="0px" width="32px"
	 height="32px" viewBox="0 0 32 32" style="enable-background:new 0 0 32 32;" xml:space="preserve">
<g id="move-bt-alt">
	<path id="path6478" inkscape:connector-curvature="0" d="M16.007,2.324V0.187l4.275,3.562l-4.275,3.562V5.174
		c-2.992,0-5.534,1.057-7.623,3.17c-2.113,2.089-3.17,4.631-3.17,7.623c0,2.992,1.056,5.545,3.17,7.659
		c1.734,1.757,3.799,2.775,6.198,3.063v-2.28h2.849v5.236l-1.424-0.036c-3.799,0-7.018-1.317-9.653-3.953
		c-2.66-2.659-3.99-5.891-3.99-9.689c0-3.799,1.33-7.018,3.99-9.653C8.99,3.654,12.208,2.324,16.007,2.324"/>
</g>
<g id="Ebene_1">
</g>
</svg>
