<?xml version="1.0" encoding="iso-8859-1"?>
<!-- Generator: Adobe Illustrator 16.0.0, SVG Export Plug-In . SVG Version: 6.00 Build 0)  -->
<!DOCTYPE svg PUBLIC "-//W3C//DTD SVG 1.1//EN" "http://www.w3.org/Graphics/SVG/1.1/DTD/svg11.dtd">
<svg version="1.1" xmlns="http://www.w3.org/2000/svg" xmlns:xlink="http://www.w3.org/1999/xlink" x="0px" y="0px" width="32px"
	 height="32px" viewBox="0 0 32 32" style="enable-background:new 0 0 32 32;" xml:space="preserve">
<g id="move-lr-alt">
	<path id="path6624" inkscape:connector-curvature="0" d="M2.4,16.003l-0.036-1.425h5.237v2.85H5.356l0.107,0.677
		c0.356,2.114,1.341,3.964,2.957,5.557c2.09,2.09,4.631,3.135,7.623,3.135c2.993,0,5.545-1.047,7.659-3.135
		c1.591-1.591,2.576-3.442,2.957-5.557l0.178-2.102h-2.137l3.562-4.274l3.563,4.274h-2.138l-0.143,2.102
		c-0.403,2.896-1.674,5.424-3.811,7.585c-2.661,2.636-5.893,3.956-9.692,3.956s-7.017-1.32-9.653-3.956
		C4.227,23.528,2.944,21,2.541,18.104L2.4,16.003"/>
</g>
<g id="Ebene_1">
</g>
</svg>
