<?xml version="1.0" encoding="iso-8859-1"?>
<!-- Generator: Adobe Illustrator 16.0.0, SVG Export Plug-In . SVG Version: 6.00 Build 0)  -->
<!DOCTYPE svg PUBLIC "-//W3C//DTD SVG 1.1//EN" "http://www.w3.org/Graphics/SVG/1.1/DTD/svg11.dtd">
<svg version="1.1" xmlns="http://www.w3.org/2000/svg" xmlns:xlink="http://www.w3.org/1999/xlink" x="0px" y="0px" width="32px"
	 height="32px" viewBox="0 0 32 32" style="enable-background:new 0 0 32 32;" xml:space="preserve">
<g id="move-tb-alt">
	<path id="path6622" inkscape:connector-curvature="0" d="M16.007,2.289l1.424-0.036v5.236h-2.849V5.245
		c-2.399,0.261-4.465,1.282-6.198,3.063c-2.113,2.089-3.17,4.631-3.17,7.623s1.056,5.545,3.17,7.658
		c2.09,2.092,4.631,3.135,7.623,3.135v-2.138l4.275,3.563l-4.275,3.563v-2.138c-3.799,0-7.018-1.317-9.653-3.954
		c-2.66-2.659-3.99-5.889-3.99-9.688c0-3.799,1.33-7.018,3.99-9.653C8.99,3.618,12.208,2.289,16.007,2.289"/>
</g>
<g id="Ebene_1">
</g>
</svg>
