<?xml version="1.0" encoding="iso-8859-1"?>
<!-- Generator: Adobe Illustrator 16.0.0, SVG Export Plug-In . SVG Version: 6.00 Build 0)  -->
<!DOCTYPE svg PUBLIC "-//W3C//DTD SVG 1.1//EN" "http://www.w3.org/Graphics/SVG/1.1/DTD/svg11.dtd">
<svg version="1.1" xmlns="http://www.w3.org/2000/svg" xmlns:xlink="http://www.w3.org/1999/xlink" x="0px" y="0px" width="32px"
	 height="32px" viewBox="0 0 32 32" style="enable-background:new 0 0 32 32;" xml:space="preserve">
<g id="move-rl-alt">
	<path id="path6618" inkscape:connector-curvature="0" d="M29.686,17.371h-5.236v-2.85h2.279c-0.284-2.399-1.306-4.465-3.063-6.198
		c-2.114-2.114-4.666-3.17-7.659-3.17c-2.992,0-5.534,1.057-7.623,3.17c-2.113,2.09-3.17,4.631-3.17,7.623h2.137L3.79,20.221
		l-3.563-4.275h2.137c0-3.799,1.33-7.018,3.99-9.653c2.636-2.66,5.853-3.99,9.653-3.99s7.03,1.33,9.689,3.99
		c2.636,2.636,3.954,5.854,3.954,9.653L29.686,17.371"/>
</g>
<g id="Ebene_1">
</g>
</svg>
