<?xml version="1.0" encoding="iso-8859-1"?>
<!-- Generator: Adobe Illustrator 16.0.0, SVG Export Plug-In . SVG Version: 6.00 Build 0)  -->
<!DOCTYPE svg PUBLIC "-//W3C//DTD SVG 1.1//EN" "http://www.w3.org/Graphics/SVG/1.1/DTD/svg11.dtd">
<svg version="1.1" xmlns="http://www.w3.org/2000/svg" xmlns:xlink="http://www.w3.org/1999/xlink" x="0px" y="0px" width="32px"
	 height="32px" viewBox="0 0 32 32" style="enable-background:new 0 0 32 32;" xml:space="preserve">
<g id="move-bt">
	<path id="path6484" inkscape:connector-curvature="0" d="M25.554,6.136l0.179,0.178c2.635,2.636,3.953,5.853,3.953,9.653
		s-1.318,7.03-3.953,9.689c-2.661,2.636-5.893,3.953-9.692,3.953l-1.425,0.036v-5.236h2.85v2.28
		c2.397-0.285,4.477-1.307,6.233-3.063c2.091-2.113,3.135-4.667,3.135-7.659s-1.046-5.534-3.135-7.623l-0.178-0.178h0.037
		c-2.091-1.995-4.595-2.993-7.517-2.993v2.137l-4.274-3.562l4.274-3.562v2.137c3.681,0,6.841,1.259,9.476,3.776v0.036H25.554"/>
</g>
<g id="Ebene_1">
</g>
</svg>
