<?xml version="1.0" encoding="iso-8859-1"?>
<!-- Generator: Adobe Illustrator 16.0.0, SVG Export Plug-In . SVG Version: 6.00 Build 0)  -->
<!DOCTYPE svg PUBLIC "-//W3C//DTD SVG 1.1//EN" "http://www.w3.org/Graphics/SVG/1.1/DTD/svg11.dtd">
<svg version="1.1" xmlns="http://www.w3.org/2000/svg" xmlns:xlink="http://www.w3.org/1999/xlink" x="0px" y="0px" width="32px"
	 height="32px" viewBox="0 0 32 32" style="enable-background:new 0 0 32 32;" xml:space="preserve">
<g id="move-lr">
	<path id="path6476" inkscape:connector-curvature="0" d="M7.601,17.371H2.364L2.4,15.946c0-3.799,1.33-7.018,3.99-9.653
		c1.567-1.591,3.349-2.707,5.343-3.348c1.354-0.428,2.791-0.642,4.31-0.642c3.799,0,7.029,1.33,9.69,3.99
		c2.635,2.636,3.955,5.854,3.955,9.653h2.138l-3.563,4.275l-3.562-4.275h2.137c0-2.992-1.046-5.533-3.135-7.623
		c-2.112-2.114-4.666-3.17-7.658-3.17c-1.567,0-3.003,0.285-4.31,0.855C10.524,6.53,9.419,7.301,8.422,8.323
		c-1.781,1.734-2.803,3.799-3.063,6.198h2.244L7.601,17.371"/>
</g>
<g id="Ebene_1">
</g>
</svg>
