<?xml version="1.0" encoding="iso-8859-1"?>
<!-- Generator: Adobe Illustrator 16.0.0, SVG Export Plug-In . SVG Version: 6.00 Build 0)  -->
<!DOCTYPE svg PUBLIC "-//W3C//DTD SVG 1.1//EN" "http://www.w3.org/Graphics/SVG/1.1/DTD/svg11.dtd">
<svg version="1.1" xmlns="http://www.w3.org/2000/svg" xmlns:xlink="http://www.w3.org/1999/xlink" x="0px" y="0px" width="32px"
	 height="32px" viewBox="0 0 32 32" style="enable-background:new 0 0 32 32;" xml:space="preserve">
<g id="movie">
	<path id="path5289" inkscape:connector-curvature="0" d="M3.113,17.975h3.9v-4.937h-3.9V17.975 M3.113,23.9v4.938h3.9V23.9H3.113
		 M7.014,8.1V3.163h-3.9V8.1H7.014 M21.876,28.838V17.975h-11.85v10.863H21.876 M24.838,17.975h3.901v-4.937h-3.901V17.975
		 M24.838,28.838h3.901V23.9h-3.901V28.838 M10.026,3.163v11.85h11.85V3.163H10.026 M31.8,2.175v27.65
		c0,0.56-0.197,1.036-0.592,1.432c-0.396,0.362-0.856,0.543-1.383,0.543H2.175c-0.56,0-1.037-0.181-1.432-0.543
		C0.381,30.861,0.2,30.385,0.2,29.825V2.224c0-0.56,0.181-1.037,0.543-1.432C1.138,0.397,1.615,0.2,2.175,0.2h27.65
		c0.526,0,0.987,0.197,1.383,0.592C31.603,1.188,31.8,1.648,31.8,2.175 M28.739,3.163h-3.901V8.1h3.901V3.163"/>
</g>
<g id="Ebene_1">
</g>
</svg>
