<?xml version="1.0" encoding="iso-8859-1"?>
<!-- Generator: Adobe Illustrator 16.0.0, SVG Export Plug-In . SVG Version: 6.00 Build 0)  -->
<!DOCTYPE svg PUBLIC "-//W3C//DTD SVG 1.1//EN" "http://www.w3.org/Graphics/SVG/1.1/DTD/svg11.dtd">
<svg version="1.1" xmlns="http://www.w3.org/2000/svg" xmlns:xlink="http://www.w3.org/1999/xlink" x="0px" y="0px" width="32px"
	 height="32px" viewBox="0 0 32 32" style="enable-background:new 0 0 32 32;" xml:space="preserve">
<g id="music-on">
	<path id="path5221" inkscape:connector-curvature="0" d="M28.259,3.161V18.56v0.358c-0.205,1.868-0.885,3.398-2.04,4.589h-0.104
		c-1.223,1.358-2.667,2.107-4.334,2.243h-0.05c-1.734,0.169-3.179-0.356-4.334-1.581c-1.124-1.088-1.598-2.55-1.428-4.385
		c0.169-1.633,0.85-3.06,2.039-4.284c1.156-1.155,2.414-1.834,3.772-2.04h1.379V8.362H12.962v17.336
		c0.068,1.293-0.629,2.584-2.09,3.876l-0.051,0.153c-1.224,1.189-2.635,1.868-4.233,2.04H6.537c-1.768,0.169-3.213-0.323-4.334-1.48
		c-1.156-1.121-1.632-2.549-1.428-4.282c0.136-1.699,0.8-3.179,1.989-4.436l0.102-0.052c1.122-1.088,2.345-1.767,3.671-2.04h0.051
		l2.295,0.102V3.263c-0.068-2.107,0.765-3.127,2.499-3.06H25.2C27.239,0.203,28.259,1.189,28.259,3.161"/>
</g>
<g id="Ebene_1">
</g>
</svg>
