<?xml version="1.0" encoding="iso-8859-1"?>
<!-- Generator: Adobe Illustrator 16.0.0, SVG Export Plug-In . SVG Version: 6.00 Build 0)  -->
<!DOCTYPE svg PUBLIC "-//W3C//DTD SVG 1.1//EN" "http://www.w3.org/Graphics/SVG/1.1/DTD/svg11.dtd">
<svg version="1.1" xmlns="http://www.w3.org/2000/svg" xmlns:xlink="http://www.w3.org/1999/xlink" x="0px" y="0px" width="32px"
	 height="32px" viewBox="0 0 32 32" style="enable-background:new 0 0 32 32;" xml:space="preserve">
<g id="music-off">
	<path id="path5207" inkscape:connector-curvature="0" d="M15.973,20.243l5.557,5.558c-1.665,0.064-3.041-0.477-4.129-1.635
		C16.38,23.183,15.904,21.874,15.973,20.243 M2.764,21.568l0.103-0.051c1.122-1.088,2.345-1.769,3.671-2.04h0.051l2.295,0.102
		v-6.425l4.08,4.08v8.465c0.068,1.292-0.629,2.583-2.091,3.876l-0.051,0.152c-1.224,1.19-2.634,1.869-4.232,2.04H6.538
		c-1.768,0.17-3.213-0.324-4.334-1.479c-1.156-1.121-1.632-2.55-1.428-4.282C0.912,24.305,1.575,22.826,2.764,21.568 M4.294,2.803
		c0.408-0.408,0.9-0.612,1.479-0.612c0.577,0,1.053,0.204,1.428,0.612l23.458,23.458c0.407,0.37,0.612,0.849,0.612,1.425
		c0,0.575-0.205,1.071-0.612,1.479c-0.375,0.37-0.851,0.561-1.428,0.561c-0.575,0-1.072-0.19-1.479-0.561L4.294,5.708
		C3.919,5.299,3.733,4.807,3.733,4.229C3.734,3.652,3.92,3.176,4.294,2.803 M9.088,1.731c0.306-1.053,1.071-1.563,2.295-1.53h13.82
		c2.039,0,3.06,0.986,3.06,2.958v15.4v0.356L27.956,20.6l-6.938-6.935l0.765-0.204h1.381v-5.1h-7.445L9.088,1.731"/>
</g>
<g id="Ebene_1">
</g>
</svg>
