<?xml version="1.0" encoding="iso-8859-1"?>
<!-- Generator: Adobe Illustrator 16.0.0, SVG Export Plug-In . SVG Version: 6.00 Build 0)  -->
<!DOCTYPE svg PUBLIC "-//W3C//DTD SVG 1.1//EN" "http://www.w3.org/Graphics/SVG/1.1/DTD/svg11.dtd">
<svg version="1.1" xmlns="http://www.w3.org/2000/svg" xmlns:xlink="http://www.w3.org/1999/xlink" x="0px" y="0px" width="32px"
	 height="32px" viewBox="0 0 32 32" style="enable-background:new 0 0 32 32;" xml:space="preserve">
<g id="network">
	<path id="path5347" inkscape:connector-curvature="0" d="M24.654,0.2c1.729,0,3.209,0.601,4.439,1.802
		c1.23,1.23,1.848,2.738,1.848,4.526c0,1.728-0.615,3.207-1.848,4.438c-1.229,1.23-2.711,1.846-4.439,1.846
		c-1.758,0-3.25-0.615-4.48-1.846l-0.484-0.527l-6.151,4.263l0.132,1.274l-0.22,1.67l6.196,3.955l0.527-0.616
		c1.23-1.229,2.723-1.845,4.48-1.845c1.729,0,3.209,0.615,4.439,1.845c1.23,1.231,1.848,2.726,1.848,4.483s-0.615,3.251-1.848,4.484
		c-1.229,1.228-2.711,1.848-4.439,1.848c-1.758,0-3.25-0.614-4.48-1.848c-1.201-1.229-1.803-2.727-1.803-4.484l0.088-0.924
		l-6.591-4.175L11.78,20.46c-1.23,1.228-2.709,1.846-4.438,1.846c-1.758,0-3.251-0.613-4.482-1.846
		c-1.201-1.23-1.801-2.728-1.801-4.481c0-1.758,0.6-3.252,1.801-4.482C4.09,10.266,5.584,9.65,7.342,9.65
		c1.729,0,3.208,0.615,4.438,1.846l0.352,0.352l6.327-4.307L18.371,6.53c0-1.787,0.602-3.296,1.803-4.525
		C21.404,0.801,22.896,0.2,24.654,0.2"/>
</g>
<g id="Ebene_1">
</g>
</svg>
