<?xml version="1.0" encoding="iso-8859-1"?>
<!-- Generator: Adobe Illustrator 16.0.0, SVG Export Plug-In . SVG Version: 6.00 Build 0)  -->
<!DOCTYPE svg PUBLIC "-//W3C//DTD SVG 1.1//EN" "http://www.w3.org/Graphics/SVG/1.1/DTD/svg11.dtd">
<svg version="1.1" xmlns="http://www.w3.org/2000/svg" xmlns:xlink="http://www.w3.org/1999/xlink" x="0px" y="0px" width="32px"
	 height="32px" viewBox="0 0 32 32" style="enable-background:new 0 0 32 32;" xml:space="preserve">
<g id="off">
	<path id="path5351" inkscape:connector-curvature="0" d="M18.522,0.482l0.285,0.658v15.989l-0.285,0.658l-0.666,0.281h-3.808
		l-0.666-0.281c-0.19-0.188-0.285-0.41-0.285-0.658V1.14c0-0.25,0.095-0.47,0.285-0.658c0.19-0.188,0.412-0.282,0.666-0.282h3.808
		C18.11,0.2,18.332,0.293,18.522,0.482 M26.375,4.385l0.809,0.706v0.047c3.077,3.041,4.616,6.724,4.616,11.05
		c0,4.326-1.537,7.995-4.616,11.004l-0.047,0.046C24.091,30.28,20.378,31.8,16,31.8s-8.106-1.52-11.184-4.562
		C1.739,24.197,0.2,20.514,0.2,16.188c0-4.232,1.476-7.853,4.426-10.863l0.19-0.235l0.762-0.658c0.19-0.157,0.428-0.219,0.714-0.188
		c0.254,0,0.46,0.11,0.618,0.329l2.428,2.868L9.575,8.1L9.242,8.758L8.861,9.087L8.719,9.229c-1.872,1.944-2.808,4.264-2.808,6.959
		c0,2.758,0.983,5.11,2.95,7.054c1.968,1.942,4.347,2.915,7.139,2.915c2.729,0,5.061-0.925,6.995-2.774l0.144-0.141l0.144-0.143
		c1.871-1.91,2.807-4.216,2.807-6.912c0-2.759-0.983-5.111-2.953-7.054h-0.049l-0.424-0.423L22.33,8.053
		c0-0.251,0.078-0.47,0.238-0.658l2.474-2.869c0.158-0.219,0.381-0.329,0.667-0.329L26.375,4.385"/>
</g>
<g id="Ebene_1">
</g>
</svg>
