<?xml version="1.0" encoding="iso-8859-1"?>
<!-- Generator: Adobe Illustrator 16.0.0, SVG Export Plug-In . SVG Version: 6.00 Build 0)  -->
<!DOCTYPE svg PUBLIC "-//W3C//DTD SVG 1.1//EN" "http://www.w3.org/Graphics/SVG/1.1/DTD/svg11.dtd">
<svg version="1.1" xmlns="http://www.w3.org/2000/svg" xmlns:xlink="http://www.w3.org/1999/xlink" x="0px" y="0px" width="32px"
	 height="32px" viewBox="0 0 32 32" style="enable-background:new 0 0 32 32;" xml:space="preserve">
<g id="paint-brush">
	<path id="path6272" inkscape:connector-curvature="0" d="M3.263,23.784L3.349,23.7c0.597-0.598,1.322-0.896,2.176-0.896
		c0.853-0.028,1.592,0.256,2.217,0.853c0.598,0.595,0.896,1.323,0.896,2.176c0,0.854-0.299,1.579-0.896,2.176l-0.085,0.086
		c-1.279,1.251-2.602,2.132-3.967,2.644l-2.986-0.085c-0.625-0.598-0.669-1.578-0.128-2.943C1.088,26.345,1.983,25.036,3.263,23.784
		 M28.688,1.263l3.112,2.9C21.617,20.827,13.7,27.95,8.038,25.533l-1.451-1.449C4.6,17.97,11.965,10.363,28.688,1.263"/>
</g>
<g id="Ebene_1">
</g>
</svg>
