<?xml version="1.0" encoding="iso-8859-1"?>
<!-- Generator: Adobe Illustrator 16.0.0, SVG Export Plug-In . SVG Version: 6.00 Build 0)  -->
<!DOCTYPE svg PUBLIC "-//W3C//DTD SVG 1.1//EN" "http://www.w3.org/Graphics/SVG/1.1/DTD/svg11.dtd">
<svg version="1.1" xmlns="http://www.w3.org/2000/svg" xmlns:xlink="http://www.w3.org/1999/xlink" x="0px" y="0px" width="32px"
	 height="32px" viewBox="0 0 32 32" style="enable-background:new 0 0 32 32;" xml:space="preserve">
<g id="pause">
	<path id="path5591" inkscape:connector-curvature="0" d="M13.433,0.792c0.395,0.395,0.592,0.856,0.592,1.382v27.65
		c0,0.56-0.198,1.036-0.592,1.432c-0.395,0.362-0.856,0.543-1.383,0.543h-7.9c-0.56,0-1.037-0.181-1.432-0.543
		c-0.362-0.396-0.543-0.872-0.543-1.432V2.224c0-0.56,0.181-1.037,0.543-1.432C3.113,0.397,3.59,0.2,4.15,0.2h7.9
		C12.577,0.2,13.038,0.397,13.433,0.792 M29.825,2.175v27.65c0,0.56-0.198,1.036-0.593,1.432c-0.395,0.362-0.855,0.543-1.383,0.543
		H19.95c-0.56,0-1.037-0.181-1.433-0.543c-0.361-0.396-0.543-0.872-0.543-1.432V2.224c0-0.56,0.182-1.037,0.543-1.432
		C18.913,0.397,19.391,0.2,19.95,0.2h7.899c0.527,0,0.988,0.197,1.383,0.592S29.825,1.648,29.825,2.175"/>
</g>
<g id="Ebene_1">
</g>
</svg>
