<?xml version="1.0" encoding="iso-8859-1"?>
<!-- Generator: Adobe Illustrator 16.0.0, SVG Export Plug-In . SVG Version: 6.00 Build 0)  -->
<!DOCTYPE svg PUBLIC "-//W3C//DTD SVG 1.1//EN" "http://www.w3.org/Graphics/SVG/1.1/DTD/svg11.dtd">
<svg version="1.1" xmlns="http://www.w3.org/2000/svg" xmlns:xlink="http://www.w3.org/1999/xlink" x="0px" y="0px" width="32px"
	 height="32px" viewBox="0 0 32 32" style="enable-background:new 0 0 32 32;" xml:space="preserve">
<g id="player-four">
	<path id="path5091" inkscape:connector-curvature="0" d="M18.188,10.793c0.081,0.351,0.283,0.621,0.608,0.811l0.972,0.121
		l0.811-0.607c0.187-0.324,0.243-0.662,0.161-1.013c-0.083-0.352-0.297-0.607-0.65-0.77l-1.013-0.162
		c-0.351,0.081-0.607,0.296-0.768,0.648C18.147,10.118,18.106,10.442,18.188,10.793 M25.115,2.568
		c0.324,0.163,0.527,0.419,0.607,0.77l2.756,10.128l-0.122,1.013l-0.811,0.608L4.575,21.164l-0.972-0.121
		c-0.324-0.162-0.527-0.418-0.607-0.77L0.24,10.188C0.16,9.809,0.2,9.458,0.362,9.134c0.188-0.297,0.458-0.5,0.81-0.608
		l10.209-2.714l-0.851-3.16c-0.107-0.351-0.067-0.675,0.122-0.972l0.203-0.325l-0.041-0.162l0.648-0.162l1.013,0.162
		c0.298,0.188,0.5,0.458,0.608,0.81l0.851,3.16L24.143,2.45L25.115,2.568 M31.557,30.725c-0.162,0.162-0.352,0.244-0.566,0.244
		h-1.621c-0.217,0-0.405-0.082-0.567-0.244s-0.243-0.35-0.243-0.566v-4.053h-4.051c-0.217,0-0.405-0.08-0.567-0.242
		s-0.243-0.35-0.243-0.566v-6.482c0-0.215,0.081-0.406,0.243-0.566s0.352-0.244,0.567-0.244h1.62c0.217,0,0.405,0.084,0.567,0.244
		l0.243,0.566v4.051h1.62v-4.051c0-0.215,0.081-0.406,0.243-0.566s0.353-0.244,0.567-0.244h1.621c0.217,0,0.404,0.084,0.566,0.244
		l0.243,0.566v11.344L31.557,30.725 M23.252,10.388l1.013,0.122l0.811-0.567l0.121-1.013c-0.083-0.351-0.286-0.608-0.607-0.77
		c-0.354-0.216-0.691-0.284-1.014-0.203c-0.38,0.108-0.65,0.324-0.81,0.648c-0.162,0.324-0.203,0.661-0.121,1.013
		C22.725,9.97,22.928,10.226,23.252,10.388 M10.774,11.36l-2.512,0.689L7.614,9.537l-2.552,0.648l0.648,2.511l-2.552,0.689
		l0.689,2.512l2.552-0.689l0.689,2.553l2.552-0.648l-0.689-2.553l2.512-0.688L10.774,11.36"/>
</g>
<g id="Ebene_1">
</g>
</svg>
