<?xml version="1.0" encoding="iso-8859-1"?>
<!-- Generator: Adobe Illustrator 16.0.0, SVG Export Plug-In . SVG Version: 6.00 Build 0)  -->
<!DOCTYPE svg PUBLIC "-//W3C//DTD SVG 1.1//EN" "http://www.w3.org/Graphics/SVG/1.1/DTD/svg11.dtd">
<svg version="1.1" xmlns="http://www.w3.org/2000/svg" xmlns:xlink="http://www.w3.org/1999/xlink" x="0px" y="0px" width="32px"
	 height="32px" viewBox="0 0 32 32" style="enable-background:new 0 0 32 32;" xml:space="preserve">
<g id="player-three">
	<path id="path5099" inkscape:connector-curvature="0" d="M31.557,18.25l0.243,0.566V30.16l-0.243,0.564l-0.566,0.244h-6.482
		l-0.567-0.244c-0.162-0.16-0.243-0.352-0.243-0.564v-1.621c0-0.219,0.081-0.406,0.243-0.566c0.162-0.162,0.352-0.244,0.567-0.244
		h4.051v-1.621h-4.051l-0.567-0.244c-0.162-0.16-0.243-0.352-0.243-0.566v-1.619c0-0.219,0.081-0.406,0.243-0.566
		c0.162-0.162,0.352-0.244,0.567-0.244h4.051v-1.621h-4.051l-0.567-0.244c-0.162-0.16-0.243-0.352-0.243-0.566v-1.619
		c0-0.219,0.081-0.406,0.243-0.566c0.162-0.162,0.352-0.244,0.567-0.244h6.482C31.207,18.006,31.395,18.088,31.557,18.25
		 M22.645,9.62c0.08,0.352,0.283,0.608,0.607,0.77l1.013,0.122l0.811-0.567l0.121-1.013c-0.083-0.351-0.286-0.607-0.607-0.77
		c-0.354-0.216-0.691-0.283-1.014-0.202c-0.38,0.107-0.65,0.324-0.81,0.648C22.604,8.931,22.563,9.268,22.645,9.62 M20.739,10.106
		c-0.08-0.352-0.296-0.608-0.647-0.77l-1.013-0.162c-0.351,0.081-0.608,0.296-0.771,0.648c-0.161,0.297-0.202,0.622-0.118,0.973
		c0.082,0.35,0.284,0.621,0.607,0.81l0.97,0.122c0.354-0.108,0.623-0.311,0.811-0.608C20.767,10.795,20.821,10.457,20.739,10.106
		 M3.157,13.387l0.689,2.512l2.552-0.688l0.689,2.551l2.552-0.646l-0.689-2.553l2.512-0.689l-0.688-2.512L8.262,12.05L7.614,9.539
		l-2.552,0.648l0.648,2.511L3.157,13.387 M0.24,10.187C0.16,9.809,0.2,9.458,0.362,9.133c0.188-0.297,0.458-0.5,0.81-0.607
		l10.209-2.714l-0.851-3.16c-0.107-0.351-0.067-0.675,0.122-0.972l0.203-0.324l-0.041-0.162l0.648-0.162l1.013,0.162
		c0.298,0.189,0.5,0.458,0.608,0.811l0.851,3.16l10.208-2.714l0.973,0.122c0.324,0.162,0.527,0.419,0.607,0.77l2.756,10.128
		l-0.122,1.013c-0.217,0.297-0.486,0.5-0.811,0.607L4.575,21.166l-0.972-0.121c-0.324-0.162-0.527-0.418-0.607-0.77L0.24,10.187"/>
</g>
<g id="Ebene_1">
</g>
</svg>
