<?xml version="1.0" encoding="iso-8859-1"?>
<!-- Generator: Adobe Illustrator 16.0.0, SVG Export Plug-In . SVG Version: 6.00 Build 0)  -->
<!DOCTYPE svg PUBLIC "-//W3C//DTD SVG 1.1//EN" "http://www.w3.org/Graphics/SVG/1.1/DTD/svg11.dtd">
<svg version="1.1" xmlns="http://www.w3.org/2000/svg" xmlns:xlink="http://www.w3.org/1999/xlink" x="0px" y="0px" width="32px"
	 height="32px" viewBox="0 0 32 32" style="enable-background:new 0 0 32 32;" xml:space="preserve">
<g id="player-two">
	<path id="path5151" inkscape:connector-curvature="0" d="M23.94,18.25c0.162-0.162,0.352-0.244,0.567-0.244h6.482
		c0.217,0,0.404,0.082,0.566,0.244l0.243,0.566v6.48l-0.243,0.566c-0.162,0.162-0.352,0.244-0.566,0.244h-4.052v1.621h4.052
		c0.217,0,0.404,0.082,0.566,0.244l0.243,0.566v1.621l-0.243,0.564c-0.162,0.162-0.352,0.244-0.566,0.244h-6.482
		c-0.217,0-0.405-0.082-0.567-0.244c-0.162-0.16-0.243-0.352-0.243-0.564v-6.482c0-0.219,0.081-0.406,0.243-0.566
		c0.162-0.162,0.352-0.244,0.567-0.244h4.051v-1.621h-4.051c-0.217,0-0.405-0.082-0.567-0.244c-0.162-0.16-0.243-0.352-0.243-0.566
		v-1.619C23.697,18.6,23.778,18.41,23.94,18.25 M19.768,11.727l0.811-0.608c0.187-0.324,0.243-0.662,0.161-1.013
		c-0.083-0.352-0.297-0.608-0.65-0.77l-1.013-0.162c-0.351,0.081-0.607,0.296-0.768,0.648c-0.161,0.297-0.202,0.622-0.121,0.973
		c0.081,0.35,0.283,0.621,0.608,0.81L19.768,11.727 M24.589,8.161c-0.352-0.216-0.688-0.283-1.014-0.202
		c-0.378,0.107-0.647,0.324-0.81,0.648c-0.162,0.324-0.203,0.661-0.119,1.013c0.081,0.352,0.283,0.608,0.607,0.77l1.014,0.122
		c0.321-0.082,0.592-0.27,0.81-0.567c0.16-0.324,0.203-0.661,0.119-1.013C25.115,8.58,24.913,8.323,24.589,8.161 M10.814,1.193
		l0.648-0.162l1.013,0.162c0.298,0.189,0.5,0.458,0.608,0.811l0.851,3.16l10.208-2.714l0.973,0.122
		c0.324,0.162,0.527,0.419,0.607,0.77l2.756,10.128l-0.122,1.013l-0.811,0.607L4.575,21.166l-0.972-0.121
		c-0.324-0.162-0.527-0.418-0.607-0.77L0.24,10.189C0.16,9.811,0.2,9.46,0.362,9.136c0.188-0.297,0.458-0.5,0.81-0.607l10.209-2.715
		l-0.851-3.16c-0.107-0.351-0.067-0.675,0.122-0.972l0.203-0.324L10.814,1.193 M8.262,12.05L7.614,9.539l-2.552,0.648l0.648,2.511
		l-2.552,0.689l0.689,2.512l2.552-0.688l0.689,2.551l2.552-0.646l-0.689-2.553l2.512-0.689l-0.688-2.512L8.262,12.05"/>
</g>
<g id="Ebene_1">
</g>
</svg>
