<?xml version="1.0" encoding="iso-8859-1"?>
<!-- Generator: Adobe Illustrator 16.0.0, SVG Export Plug-In . SVG Version: 6.00 Build 0)  -->
<!DOCTYPE svg PUBLIC "-//W3C//DTD SVG 1.1//EN" "http://www.w3.org/Graphics/SVG/1.1/DTD/svg11.dtd">
<svg version="1.1" xmlns="http://www.w3.org/2000/svg" xmlns:xlink="http://www.w3.org/1999/xlink" x="0px" y="0px" width="32px"
	 height="32px" viewBox="0 0 32 32" style="enable-background:new 0 0 32 32;" xml:space="preserve">
<g id="player-one">
	<path id="path5143" inkscape:connector-curvature="0" d="M10.509,11.477l-2.449,0.671L7.428,9.699L4.94,10.331l0.632,2.449
		l-2.488,0.672L3.755,15.9l2.489-0.671l0.671,2.489l2.488-0.632l-0.671-2.489l2.449-0.672L10.509,11.477 M24.492,2.905
		c0.316,0.158,0.514,0.409,0.593,0.751l2.687,9.875l-0.119,0.987l-0.79,0.592L4.466,21.035l-0.948-0.118
		c-0.316-0.157-0.514-0.407-0.592-0.75l-2.687-9.833C0.161,9.964,0.2,9.622,0.358,9.306c0.184-0.29,0.447-0.487,0.79-0.592
		l9.954-2.646l-0.83-3.081c-0.105-0.342-0.065-0.658,0.119-0.948l0.197-0.316l-0.039-0.158l0.632-0.158l0.987,0.158
		c0.29,0.184,0.487,0.447,0.592,0.79l0.83,3.081l9.953-2.647L24.492,2.905 M31.8,18.744v11.061l-0.236,0.553l-0.554,0.236h-1.58
		l-0.553-0.236c-0.158-0.158-0.237-0.342-0.237-0.553v-8.69h-1.58l-0.553-0.237l-0.237-0.553v-1.58c0-0.21,0.079-0.395,0.237-0.553
		c0.158-0.155,0.344-0.237,0.553-0.237h3.95c0.212,0,0.396,0.082,0.554,0.237L31.8,18.744 M22.083,9.778
		c0.079,0.343,0.276,0.593,0.593,0.751l0.987,0.118l0.79-0.553l0.118-0.987c-0.081-0.342-0.278-0.592-0.593-0.75
		c-0.345-0.211-0.673-0.276-0.987-0.197c-0.371,0.105-0.634,0.316-0.79,0.632C22.044,9.106,22.004,9.435,22.083,9.778 M20.068,11.24
		c0.182-0.316,0.237-0.646,0.158-0.988c-0.081-0.343-0.29-0.592-0.635-0.75l-0.987-0.158c-0.343,0.079-0.593,0.289-0.748,0.632
		c-0.157,0.29-0.197,0.606-0.118,0.948c0.078,0.342,0.276,0.605,0.593,0.79l0.948,0.118L20.068,11.24"/>
</g>
<g id="Ebene_1">
</g>
</svg>
