<?xml version="1.0" encoding="iso-8859-1"?>
<!-- Generator: Adobe Illustrator 16.0.0, SVG Export Plug-In . SVG Version: 6.00 Build 0)  -->
<!DOCTYPE svg PUBLIC "-//W3C//DTD SVG 1.1//EN" "http://www.w3.org/Graphics/SVG/1.1/DTD/svg11.dtd">
<svg version="1.1" xmlns="http://www.w3.org/2000/svg" xmlns:xlink="http://www.w3.org/1999/xlink" x="0px" y="0px" width="32px"
	 height="32px" viewBox="0 0 32 32" style="enable-background:new 0 0 32 32;" xml:space="preserve">
<g id="plus-circle">
	<path d="M30.813,10.371c-0.757-2.008-1.976-3.852-3.654-5.529c-2.864-2.864-6.254-4.394-10.17-4.592L16,0.2
		c-4.345,0-8.065,1.53-11.159,4.591v0.05h-0.05c-1.645,1.678-2.846,3.521-3.603,5.529C0.529,12.116,0.2,13.991,0.2,16
		c0,4.378,1.546,8.112,4.641,11.207C7.935,30.27,11.655,31.8,16,31.8h0.988c3.916-0.23,7.306-1.762,10.17-4.593
		C30.252,24.112,31.8,20.378,31.8,16C31.8,13.991,31.47,12.116,30.813,10.371z M25.875,17.284c0,0.525-0.198,0.986-0.593,1.383
		c-0.396,0.394-0.856,0.592-1.382,0.592h-4.938v4.938c0,0.525-0.198,0.986-0.593,1.383c-0.429,0.394-0.873,0.592-1.334,0.592h-2.024
		c-0.526,0-0.987-0.198-1.383-0.592c-0.394-0.396-0.592-0.857-0.592-1.383v-4.938H8.1c-0.56,0-1.037-0.198-1.433-0.592
		c-0.329-0.363-0.509-0.824-0.542-1.383V15.26c0.033-0.494,0.214-0.938,0.542-1.334c0.396-0.394,0.873-0.592,1.433-0.592h4.938
		V8.396c0-0.559,0.198-1.037,0.592-1.432c0.363-0.329,0.823-0.51,1.383-0.542h2.024c0.494,0.033,0.938,0.213,1.334,0.542
		c0.395,0.396,0.593,0.873,0.593,1.432v4.938H23.9c0.525,0,0.986,0.198,1.382,0.592c0.395,0.428,0.593,0.874,0.593,1.334V17.284z"/>
</g>
<g id="Ebene_1">
</g>
</svg>
