<?xml version="1.0" encoding="iso-8859-1"?>
<!-- Generator: Adobe Illustrator 16.0.0, SVG Export Plug-In . SVG Version: 6.00 Build 0)  -->
<!DOCTYPE svg PUBLIC "-//W3C//DTD SVG 1.1//EN" "http://www.w3.org/Graphics/SVG/1.1/DTD/svg11.dtd">
<svg version="1.1" xmlns="http://www.w3.org/2000/svg" xmlns:xlink="http://www.w3.org/1999/xlink" x="0px" y="0px" width="32px"
	 height="32px" viewBox="0 0 32 32" style="enable-background:new 0 0 32 32;" xml:space="preserve">
<g id="plus">
	<path id="path5407" inkscape:connector-curvature="0" d="M2.175,12.05h9.875V2.224c0-0.56,0.181-1.037,0.543-1.432
		C12.988,0.397,13.465,0.2,14.025,0.2h3.95c0.527,0,0.988,0.197,1.383,0.592s0.593,0.856,0.593,1.382v9.875h9.875
		c0.526,0,0.987,0.198,1.383,0.593c0.395,0.395,0.592,0.856,0.592,1.382v3.95c0,0.56-0.197,1.037-0.592,1.433
		c-0.396,0.361-0.856,0.543-1.383,0.543H19.95v9.875c0,0.56-0.198,1.036-0.593,1.432c-0.395,0.362-0.855,0.543-1.383,0.543h-3.95
		c-0.56,0-1.037-0.181-1.432-0.543c-0.362-0.396-0.543-0.872-0.543-1.432V19.95H2.175c-0.56,0-1.037-0.182-1.432-0.543
		C0.381,19.012,0.2,18.534,0.2,17.975v-3.9c0-0.56,0.181-1.037,0.543-1.432C1.138,12.248,1.615,12.05,2.175,12.05"/>
</g>
<g id="Ebene_1">
</g>
</svg>
