<?xml version="1.0" encoding="iso-8859-1"?>
<!-- Generator: Adobe Illustrator 16.0.0, SVG Export Plug-In . SVG Version: 6.00 Build 0)  -->
<!DOCTYPE svg PUBLIC "-//W3C//DTD SVG 1.1//EN" "http://www.w3.org/Graphics/SVG/1.1/DTD/svg11.dtd">
<svg version="1.1" xmlns="http://www.w3.org/2000/svg" xmlns:xlink="http://www.w3.org/1999/xlink" x="0px" y="0px" width="32px"
	 height="32px" viewBox="0 0 32 32" style="enable-background:new 0 0 32 32;" xml:space="preserve">
<g id="podium-alt">
	<path id="_x3C_Zusammengesetzter_Pfad_x3E__6_" inkscape:connector-curvature="0" d="M14.141,7.635V8.89h1.348v5.251h1.441V7.635
		H14.141 M9.308,20.739c0-0.618-0.216-1.114-0.65-1.486c-0.403-0.311-0.883-0.465-1.441-0.465c-0.557,0-1.006,0.124-1.347,0.372
		c-0.372,0.214-0.713,0.558-1.022,1.022l1.162,0.697c0.372-0.589,0.743-0.884,1.116-0.884l0.557,0.187l0.232,0.557l-0.279,0.697
		l-0.79,0.883l-1.859,1.905v1.069h4.508v-1.302H6.938L8.1,22.831l0.929-1.162L9.308,20.739 M27.153,23.156
		c0-0.464-0.141-0.868-0.419-1.208c-0.278-0.341-0.682-0.561-1.208-0.65l1.348-1.487v-1.022h-3.996v1.255h2.044l-1.254,1.441v1.021
		l0.883-0.14c0.371,0,0.665,0.078,0.883,0.232c0.214,0.156,0.325,0.372,0.325,0.65l-0.278,0.604l-0.743,0.187
		c-0.465,0-1.008-0.218-1.627-0.651l-0.604,1.162c0.743,0.495,1.473,0.743,2.184,0.743c0.716,0,1.302-0.186,1.767-0.557
		C26.921,24.364,27.153,23.838,27.153,23.156 M21.948,3.546c0.371,0.372,0.558,0.806,0.558,1.301v10.224h7.436
		c0.495,0,0.929,0.186,1.302,0.558C31.614,16,31.8,16.434,31.8,16.93v10.224c0,0.526-0.186,0.976-0.557,1.348
		c-0.373,0.34-0.807,0.511-1.302,0.511H2.059c-0.527,0-0.976-0.171-1.348-0.511C0.37,28.129,0.2,27.68,0.2,27.153V16.976
		c0-0.527,0.17-0.976,0.511-1.347c0.372-0.372,0.821-0.558,1.348-0.558h6.506V4.894c0-0.526,0.17-0.976,0.511-1.348
		c0.372-0.372,0.821-0.558,1.348-0.558h10.224C21.143,2.988,21.576,3.174,21.948,3.546"/>
</g>
<g id="Ebene_1">
</g>
</svg>
