<?xml version="1.0" encoding="iso-8859-1"?>
<!-- Generator: Adobe Illustrator 16.0.0, SVG Export Plug-In . SVG Version: 6.00 Build 0)  -->
<!DOCTYPE svg PUBLIC "-//W3C//DTD SVG 1.1//EN" "http://www.w3.org/Graphics/SVG/1.1/DTD/svg11.dtd">
<svg version="1.1" xmlns="http://www.w3.org/2000/svg" xmlns:xlink="http://www.w3.org/1999/xlink" x="0px" y="0px" width="32px"
	 height="32px" viewBox="0 0 32 32" style="enable-background:new 0 0 32 32;" xml:space="preserve">
<g id="pointer">
	<path id="path6570" inkscape:connector-curvature="0" d="M24.813,6.408l6.512,11.303c0.8,1.404,0.592,3.081-0.621,5.028
		c-1.245,2.044-3.161,3.815-5.746,5.316c-2.588,1.468-5.028,2.235-7.325,2.299c-2.364,0.127-3.929-0.498-4.695-1.867l-0.91-1.485
		l-7.615-2.155c-1.118-0.223-1.963-0.83-2.539-1.82c-0.478-0.799-0.639-1.659-0.478-2.585l0.095-0.384l0.096-0.142
		c0.191-0.699,0.575-1.324,1.148-1.863l0.624-0.53c0.958-0.509,1.979-0.621,3.064-0.338L0.676,7.126
		c-0.415-0.734-0.559-1.484-0.431-2.25l0.096-0.574c0.255-0.958,0.798-1.66,1.628-2.108l0.048-0.096
		c0.862-0.446,1.772-0.574,2.73-0.383C5.705,1.971,6.439,2.545,6.95,3.439l3.018,5.364h0.047c0.767-0.702,1.692-1.357,2.778-1.963
		c2.587-1.469,5.063-2.268,7.423-2.395C22.481,4.413,24.013,5.067,24.813,6.408"/>
</g>
<g id="Ebene_1">
</g>
</svg>
