<?xml version="1.0" encoding="iso-8859-1"?>
<!-- Generator: Adobe Illustrator 16.0.0, SVG Export Plug-In . SVG Version: 6.00 Build 0)  -->
<!DOCTYPE svg PUBLIC "-//W3C//DTD SVG 1.1//EN" "http://www.w3.org/Graphics/SVG/1.1/DTD/svg11.dtd">
<svg version="1.1" xmlns="http://www.w3.org/2000/svg" xmlns:xlink="http://www.w3.org/1999/xlink" x="0px" y="0px" width="32px"
	 height="32px" viewBox="0 0 32 32" style="enable-background:new 0 0 32 32;" xml:space="preserve">
<g id="question-circle">
	<path id="path7543" inkscape:connector-curvature="0" d="M16,0.2c-4.345,0-8.065,1.53-11.16,4.592V4.84H4.792
		C1.73,7.935,0.2,11.655,0.2,16c0,4.378,1.546,8.114,4.64,11.208C7.935,30.269,11.655,31.8,16,31.8h0.987
		c3.917-0.229,7.308-1.761,10.172-4.592C30.253,24.114,31.8,20.378,31.8,16c0-4.345-1.547-8.065-4.641-11.16
		c-2.864-2.864-6.255-4.393-10.172-4.59L16,0.2z M16.188,5.869c1.793,0,3.262,0.484,4.401,1.456
		c1.163,1.034,1.744,2.449,1.744,4.244c0,0.865-0.117,1.499-0.35,1.9l-0.349,0.665h0.029l-0.567,0.854l-0.033,0.03l-0.505,0.571
		v0.031l-1.173,1.14l-0.473,0.538h-0.188v0.031h0.188l-0.127,0.16l-0.063,0.538v0.38v0.062l-0.222,0.507l-0.571,0.191H14.07
		l-0.539-0.191c-0.147-0.145-0.233-0.315-0.254-0.507v-1.772h0.096c0.042-0.38,0.125-0.686,0.253-0.918
		c0.189-0.401,0.613-0.949,1.267-1.646l1.708-1.71l0.158-0.696l-0.225-0.696c-0.105-0.147-0.253-0.212-0.443-0.19
		c-0.189,0-0.357,0.086-0.505,0.255v-0.033c-0.189,0.295-0.307,0.687-0.35,1.173l-0.286,0.505c-0.147,0.126-0.327,0.191-0.538,0.191
		h-4.019l-0.38-0.127l-0.285-0.286l-0.063-0.474c0.169-1.942,0.855-3.451,2.058-4.527C12.908,6.418,14.396,5.869,16.188,5.869z
		 M16.252,20.433c0.802,0,1.489,0.263,2.058,0.79c0.57,0.549,0.854,1.225,0.854,2.027c0,0.804-0.284,1.489-0.854,2.058
		c-0.569,0.55-1.256,0.824-2.058,0.824c-0.76,0-1.413-0.274-1.961-0.824c-0.548-0.549-0.823-1.234-0.823-2.058
		c0-0.803,0.274-1.478,0.823-2.027C14.84,20.695,15.492,20.433,16.252,20.433z"/>
</g>
<g id="Ebene_1">
</g>
</svg>
