<?xml version="1.0" encoding="iso-8859-1"?>
<!-- Generator: Adobe Illustrator 16.0.0, SVG Export Plug-In . SVG Version: 6.00 Build 0)  -->
<!DOCTYPE svg PUBLIC "-//W3C//DTD SVG 1.1//EN" "http://www.w3.org/Graphics/SVG/1.1/DTD/svg11.dtd">
<svg version="1.1" xmlns="http://www.w3.org/2000/svg" xmlns:xlink="http://www.w3.org/1999/xlink" x="0px" y="0px" width="32px"
	 height="32px" viewBox="0 0 32 32" style="enable-background:new 0 0 32 32;" xml:space="preserve">
<g id="question">
	<path id="path5365" inkscape:connector-curvature="0" d="M16.395,22.912c1.25,0,2.321,0.411,3.209,1.234
		c0.886,0.856,1.333,1.91,1.333,3.16s-0.444,2.32-1.333,3.21c-0.889,0.855-1.959,1.283-3.209,1.283
		c-1.185,0-2.205-0.428-3.062-1.283c-0.856-0.855-1.284-1.926-1.284-3.21c0-1.25,0.428-2.304,1.284-3.16
		C14.19,23.323,15.21,22.912,16.395,22.912 M14.371,10.915c-0.23,0.197-0.511,0.296-0.839,0.296H7.261l-0.593-0.197l-0.444-0.444
		L6.125,9.828C6.389,6.8,7.458,4.446,9.334,2.768C11.178,1.056,13.499,0.2,16.296,0.2c2.798,0,5.086,0.757,6.863,2.271
		c1.812,1.614,2.716,3.819,2.716,6.616c0,1.35-0.182,2.338-0.543,2.962l-0.543,1.037h0.049l-0.889,1.333L23.9,14.47l-0.79,0.889
		v0.049l-1.827,1.778l-0.741,0.839h-0.299v0.049h0.299l-0.196,0.247l-0.1,0.84v0.592v0.1l-0.346,0.79l-0.889,0.296h-6.023
		l-0.839-0.296c-0.23-0.23-0.363-0.494-0.395-0.79v-2.766h0.148c0.065-0.592,0.197-1.069,0.395-1.432
		c0.296-0.625,0.955-1.481,1.975-2.567l2.667-2.666l0.247-1.086l-0.347-1.086c-0.164-0.23-0.395-0.329-0.694-0.296
		c-0.296,0-0.559,0.131-0.79,0.395V8.298c-0.297,0.46-0.478,1.069-0.543,1.826L14.371,10.915"/>
</g>
<g id="Ebene_1">
</g>
</svg>
