<?xml version="1.0" encoding="iso-8859-1"?>
<!-- Generator: Adobe Illustrator 16.0.0, SVG Export Plug-In . SVG Version: 6.00 Build 0)  -->
<!DOCTYPE svg PUBLIC "-//W3C//DTD SVG 1.1//EN" "http://www.w3.org/Graphics/SVG/1.1/DTD/svg11.dtd">
<svg version="1.1" xmlns="http://www.w3.org/2000/svg" xmlns:xlink="http://www.w3.org/1999/xlink" x="0px" y="0px" width="32px"
	 height="32px" viewBox="0 0 32 32" style="enable-background:new 0 0 32 32;" xml:space="preserve">
<g id="radio-checked">
	<path d="M21.635,10.417C23.145,11.961,23.9,13.823,23.9,16s-0.756,4.055-2.266,5.635C20.055,23.145,18.177,23.9,16,23.9
		c-2.178,0-4.039-0.756-5.583-2.266C8.873,20.055,8.1,18.177,8.1,16s0.772-4.039,2.317-5.583C11.961,8.873,13.822,8.1,16,8.1
		C18.177,8.1,20.055,8.873,21.635,10.417 M16,5.467c-2.914,0-5.39,1.036-7.426,3.107C6.502,10.61,5.467,13.086,5.467,16
		s1.036,5.406,3.107,7.479c2.036,2.036,4.512,3.055,7.426,3.055s5.406-1.019,7.479-3.055c2.036-2.072,3.055-4.564,3.055-7.479
		s-1.019-5.39-3.055-7.426C21.406,6.502,18.914,5.467,16,5.467 M4.834,4.835C7.889,1.745,11.611,0.2,16,0.2
		c4.389,0,8.128,1.545,11.218,4.635C30.272,7.889,31.8,11.612,31.8,16c0,4.389-1.527,8.128-4.582,11.219
		C24.128,30.272,20.389,31.8,16,31.8c-4.389,0-8.111-1.527-11.166-4.581C1.745,24.128,0.2,20.389,0.2,16
		C0.2,11.612,1.745,7.889,4.834,4.835"/>
</g>
<g id="Ebene_1">
</g>
</svg>
