<?xml version="1.0" encoding="iso-8859-1"?>
<!-- Generator: Adobe Illustrator 16.0.0, SVG Export Plug-In . SVG Version: 6.00 Build 0)  -->
<!DOCTYPE svg PUBLIC "-//W3C//DTD SVG 1.1//EN" "http://www.w3.org/Graphics/SVG/1.1/DTD/svg11.dtd">
<svg version="1.1" xmlns="http://www.w3.org/2000/svg" xmlns:xlink="http://www.w3.org/1999/xlink" x="0px" y="0px" width="32px"
	 height="32px" viewBox="0 0 32 32" style="enable-background:new 0 0 32 32;" xml:space="preserve">
<g id="radio">
	<path d="M27.218,4.835C24.128,1.745,20.389,0.2,16,0.2c-4.389,0-8.111,1.545-11.166,4.635C1.745,7.889,0.2,11.612,0.2,16
		c0,4.389,1.545,8.128,4.634,11.219C7.889,30.272,11.611,31.8,16,31.8c4.389,0,8.128-1.527,11.218-4.581
		C30.272,24.128,31.8,20.389,31.8,16C31.8,11.612,30.272,7.889,27.218,4.835z M23.479,23.479c-2.072,2.036-4.564,3.055-7.479,3.055
		s-5.39-1.019-7.426-3.055C6.502,21.406,5.467,18.914,5.467,16s1.036-5.39,3.107-7.426C10.61,6.502,13.086,5.467,16,5.467
		s5.406,1.036,7.479,3.107c2.036,2.036,3.055,4.512,3.055,7.426S25.515,21.406,23.479,23.479z"/>
</g>
<g id="Ebene_1">
</g>
</svg>
