<?xml version="1.0" encoding="iso-8859-1"?>
<!-- Generator: Adobe Illustrator 16.0.0, SVG Export Plug-In . SVG Version: 6.00 Build 0)  -->
<!DOCTYPE svg PUBLIC "-//W3C//DTD SVG 1.1//EN" "http://www.w3.org/Graphics/SVG/1.1/DTD/svg11.dtd">
<svg version="1.1" xmlns="http://www.w3.org/2000/svg" xmlns:xlink="http://www.w3.org/1999/xlink" x="0px" y="0px" width="32px"
	 height="32px" viewBox="0 0 32 32" style="enable-background:new 0 0 32 32;" xml:space="preserve">
<g id="reduce">
	<path id="path5235" inkscape:connector-curvature="0" d="M27.85,23.9l3.95,3.949v3.95h-3.95L23.9,27.85v3.95h-3.95V19.95H31.8v3.95
		H27.85 M0.2,19.95h11.85V31.8H8.1v-3.95L4.15,31.8H0.2v-3.95L4.15,23.9H0.2V19.95 M12.05,0.2v11.85H0.2V8.1h3.95L0.2,4.15V0.2h3.95
		L8.1,4.15V0.2H12.05 M31.8,0.2v3.95L27.85,8.1h3.95v3.95H19.95V0.2h3.95v3.95L27.85,0.2H31.8"/>
</g>
<g id="Ebene_1">
</g>
</svg>
