<?xml version="1.0" encoding="iso-8859-1"?>
<!-- Generator: Adobe Illustrator 16.0.0, SVG Export Plug-In . SVG Version: 6.00 Build 0)  -->
<!DOCTYPE svg PUBLIC "-//W3C//DTD SVG 1.1//EN" "http://www.w3.org/Graphics/SVG/1.1/DTD/svg11.dtd">
<svg version="1.1" xmlns="http://www.w3.org/2000/svg" xmlns:xlink="http://www.w3.org/1999/xlink" x="0px" y="0px" width="32px"
	 height="32px" viewBox="0 0 32 32" style="enable-background:new 0 0 32 32;" xml:space="preserve">
<g id="reload">
	<path id="path5225" inkscape:connector-curvature="0" d="M29.196,7.986l1.073,1.991l0.05,0.102
		c2.146,4.255,1.958,8.594-0.561,13.019c-2.519,4.628-6.276,7.027-11.283,7.197c-0.408,0.034-0.782-0.085-1.122-0.357
		c-0.308-0.274-0.478-0.63-0.511-1.073c-0.375-2.448-0.528-4.254-0.46-5.413c0.035-0.406,0.17-0.766,0.409-1.072
		c0.272-0.306,0.63-0.459,1.072-0.459c2.076-0.17,3.642-1.138,4.696-2.91l-0.052,0.054c1.021-1.702,1.159-3.404,0.409-5.106
		c-0.987-2.315-2.657-3.54-5.004-3.676h-0.05c-1.668-0.033-3.097,0.544-4.289,1.736c1.668,0.954,2.843,1.735,3.523,2.348
		c0.271,0.238,0.442,0.528,0.511,0.868l-0.052,1.021l-0.714,0.767L2.65,25.241l-1.123,0.153c-0.375-0.034-0.697-0.204-0.97-0.511
		L0.2,23.863L0.251,7.22l0.204-0.868L1.068,5.74l0.051-0.052l0.766-0.204L2.65,5.688L6.224,7.73
		c1.293-1.735,2.739-3.063,4.339-3.981V3.697c3.233-1.94,6.603-2.468,10.107-1.583c3.368,0.817,6.16,2.723,8.372,5.718L29.196,7.986
		"/>
</g>
<g id="Ebene_1">
</g>
</svg>
