<?xml version="1.0" encoding="iso-8859-1"?>
<!-- Generator: Adobe Illustrator 16.0.0, SVG Export Plug-In . SVG Version: 6.00 Build 0)  -->
<!DOCTYPE svg PUBLIC "-//W3C//DTD SVG 1.1//EN" "http://www.w3.org/Graphics/SVG/1.1/DTD/svg11.dtd">
<svg version="1.1" xmlns="http://www.w3.org/2000/svg" xmlns:xlink="http://www.w3.org/1999/xlink" x="0px" y="0px" width="32px"
	 height="32px" viewBox="0 0 32 32" style="enable-background:new 0 0 32 32;" xml:space="preserve">
<g id="reload-inverse">
	<path id="path5225_1_" inkscape:connector-curvature="0" d="M2.803,7.986L1.73,9.978l-0.05,0.102
		c-2.147,4.254-1.958,8.593,0.56,13.017c2.519,4.629,6.277,7.027,11.283,7.198c0.409,0.034,0.783-0.085,1.123-0.357
		c0.307-0.274,0.477-0.63,0.51-1.073c0.375-2.449,0.529-4.254,0.461-5.413c-0.035-0.406-0.17-0.766-0.409-1.072
		c-0.273-0.306-0.63-0.459-1.073-0.459c-2.076-0.17-3.641-1.138-4.696-2.91l0.052,0.054c-1.021-1.702-1.159-3.403-0.409-5.105
		c0.987-2.315,2.657-3.54,5.003-3.675h0.05c1.669-0.034,3.098,0.544,4.289,1.735c-1.668,0.954-2.842,1.736-3.523,2.349
		c-0.271,0.237-0.443,0.527-0.511,0.868l0.052,1.021l0.714,0.766l14.192,8.219l1.123,0.153c0.375-0.034,0.697-0.204,0.97-0.511
		l0.358-1.021L31.748,7.22l-0.204-0.868L30.931,5.74L30.88,5.689l-0.766-0.205l-0.766,0.205l-3.573,2.042
		c-1.294-1.736-2.74-3.063-4.34-3.982V3.698c-3.233-1.94-6.602-2.468-10.107-1.583C7.96,2.932,5.168,4.837,2.957,7.833L2.803,7.986"
		/>
</g>
<g id="Ebene_1">
</g>
</svg>
