<?xml version="1.0" encoding="iso-8859-1"?>
<!-- Generator: Adobe Illustrator 16.0.0, SVG Export Plug-In . SVG Version: 6.00 Build 0)  -->
<!DOCTYPE svg PUBLIC "-//W3C//DTD SVG 1.1//EN" "http://www.w3.org/Graphics/SVG/1.1/DTD/svg11.dtd">
<svg version="1.1" xmlns="http://www.w3.org/2000/svg" xmlns:xlink="http://www.w3.org/1999/xlink" x="0px" y="0px" width="32px"
	 height="32px" viewBox="0 0 32 32" style="enable-background:new 0 0 32 32;" xml:space="preserve">
<g id="robot">
	<path id="path6550" inkscape:connector-curvature="0" d="M11.259,12.84h9.479V3.36h-9.479V12.84 M23.898,14.42
		c0,0.447-0.158,0.83-0.473,1.146C23.109,15.854,22.74,16,22.318,16h-1.896l-0.197,0.197c1.318,0.554,2.518,1.344,3.596,2.37
		c2.158,2.08,3.24,4.609,3.24,7.584c0,1.58-1.078,2.912-3.24,3.99c-2.133,1.105-4.74,1.658-7.821,1.658
		c-3.055,0-5.662-0.553-7.821-1.658c-2.133-1.08-3.213-2.41-3.239-3.99c0-2.978,1.08-5.506,3.239-7.586
		c1.08-1.027,2.278-1.817,3.595-2.37L11.575,16H9.679c-0.448,0-0.829-0.146-1.146-0.435c-0.29-0.316-0.435-0.698-0.435-1.146V1.819
		c0-0.448,0.145-0.829,0.435-1.145C8.85,0.358,9.231,0.2,9.679,0.2h12.64c0.422,0,0.791,0.158,1.107,0.474
		c0.314,0.316,0.473,0.685,0.473,1.105V14.42"/>
</g>
<g id="Ebene_1">
</g>
</svg>
