<?xml version="1.0" encoding="iso-8859-1"?>
<!-- Generator: Adobe Illustrator 16.0.0, SVG Export Plug-In . SVG Version: 6.00 Build 0)  -->
<!DOCTYPE svg PUBLIC "-//W3C//DTD SVG 1.1//EN" "http://www.w3.org/Graphics/SVG/1.1/DTD/svg11.dtd">
<svg version="1.1" xmlns="http://www.w3.org/2000/svg" xmlns:xlink="http://www.w3.org/1999/xlink" x="0px" y="0px" width="32px"
	 height="32px" viewBox="0 0 32 32" style="enable-background:new 0 0 32 32;" xml:space="preserve">
<g id="rows">
	<path id="path5507" inkscape:connector-curvature="0" d="M0.683,29.562C0.361,29.21,0.2,28.786,0.2,28.289v-3.468
		c0-0.498,0.161-0.921,0.482-1.272c0.352-0.351,0.775-0.526,1.273-0.526h28.089c0.468,0,0.877,0.176,1.229,0.526
		C31.624,23.9,31.8,24.31,31.8,24.777v3.512c0,0.497-0.176,0.921-0.526,1.272c-0.352,0.321-0.761,0.483-1.229,0.483H1.956
		C1.458,30.045,1.034,29.883,0.683,29.562 M31.273,13.016c0.351,0.351,0.526,0.761,0.526,1.229v3.512
		c0,0.497-0.176,0.921-0.526,1.272c-0.352,0.321-0.761,0.482-1.229,0.482H1.956c-0.498,0-0.921-0.161-1.273-0.482
		C0.361,18.677,0.2,18.253,0.2,17.756v-3.468c0-0.498,0.161-0.922,0.482-1.272c0.352-0.352,0.775-0.527,1.273-0.527h28.089
		C30.513,12.488,30.922,12.664,31.273,13.016 M31.8,7.222c0,0.497-0.176,0.922-0.526,1.273c-0.352,0.321-0.761,0.482-1.229,0.482
		H1.956c-0.498,0-0.921-0.161-1.273-0.482C0.361,8.144,0.2,7.719,0.2,7.222V3.755c0-0.498,0.161-0.922,0.482-1.272
		c0.352-0.352,0.775-0.527,1.273-0.527h28.089c0.468,0,0.877,0.176,1.229,0.527C31.624,2.833,31.8,3.243,31.8,3.711V7.222"/>
</g>
<g id="Ebene_1">
</g>
</svg>
