<?xml version="1.0" encoding="iso-8859-1"?>
<!-- Generator: Adobe Illustrator 16.0.0, SVG Export Plug-In . SVG Version: 6.00 Build 0)  -->
<!DOCTYPE svg PUBLIC "-//W3C//DTD SVG 1.1//EN" "http://www.w3.org/Graphics/SVG/1.1/DTD/svg11.dtd">
<svg version="1.1" xmlns="http://www.w3.org/2000/svg" xmlns:xlink="http://www.w3.org/1999/xlink" x="0px" y="0px" width="32px"
	 height="32px" viewBox="0 0 32 32" style="enable-background:new 0 0 32 32;" xml:space="preserve">
<g id="search-equal">
	<path d="M12.353,4.352c-2.229,0-4.137,0.76-5.723,2.279L6.579,6.683c-1.519,1.553-2.278,3.459-2.278,5.722
		c0,2.194,0.776,4.067,2.329,5.62c1.553,1.52,3.427,2.297,5.621,2.33h0.102l2.279-0.305c1.249-0.369,2.362-1.045,3.343-2.025h0.049
		c0.98-0.979,1.656-2.075,2.027-3.291l0.303-2.329v-0.151c-0.033-2.195-0.809-4.052-2.33-5.57V6.631
		C16.471,5.111,14.581,4.352,12.353,4.352 M12.353,0.2c3.409,0,6.28,1.181,8.61,3.544c2.363,2.364,3.545,5.25,3.545,8.66
		c0,1.249-0.152,2.431-0.457,3.545l-0.961,1.823l7.545,7.545c0.742,0.742,1.131,1.637,1.166,2.684c0,1.047-0.373,1.943-1.115,2.684
		c-0.742,0.744-1.637,1.115-2.684,1.115c-1.082,0-1.992-0.371-2.734-1.115l-7.496-7.494c0,0-0.514,0.428-1.823,0.861
		c-1.309,0.434-3.596,0.455-3.596,0.455c-3.377,0-6.263-1.18-8.659-3.545c-2.33-2.363-3.494-5.216-3.494-8.558
		c0-3.376,1.164-6.262,3.494-8.66C6.123,1.381,9.011,0.2,12.353,0.2 M17.472,11.188H7.343V8.149h10.129V11.188 M17.472,16.251H7.343
		v-3.038h10.129V16.251"/>
</g>
<g id="Ebene_1">
</g>
</svg>
