<?xml version="1.0" encoding="iso-8859-1"?>
<!-- Generator: Adobe Illustrator 16.0.0, SVG Export Plug-In . SVG Version: 6.00 Build 0)  -->
<!DOCTYPE svg PUBLIC "-//W3C//DTD SVG 1.1//EN" "http://www.w3.org/Graphics/SVG/1.1/DTD/svg11.dtd">
<svg version="1.1" xmlns="http://www.w3.org/2000/svg" xmlns:xlink="http://www.w3.org/1999/xlink" x="0px" y="0px" width="32px"
	 height="32px" viewBox="0 0 32 32" style="enable-background:new 0 0 32 32;" xml:space="preserve">
<g id="shopping-case">
	<path id="path5299" inkscape:connector-curvature="0" d="M4.179,31.443c-0.373-0.237-0.576-0.525-0.61-0.864l-2.494-13.23
		c-0.102-0.476,0-0.9,0.305-1.272c0.339-0.374,0.798-0.56,1.374-0.56h26.459c0.543,0,0.987,0.187,1.326,0.56
		c0.34,0.372,0.475,0.78,0.405,1.221l-2.494,13.281l-0.658,0.864c-0.372,0.237-0.783,0.356-1.221,0.356H5.401L4.179,31.443
		 M22.193,1.116l7.124,7.124c0.576,0.576,0.865,1.289,0.865,2.137c0,0.848-0.289,1.577-0.865,2.188
		c-0.612,0.576-1.34,0.865-2.188,0.865s-1.561-0.289-2.137-0.865l-7.124-7.124c-0.612-0.611-0.916-1.339-0.916-2.188
		s0.306-1.562,0.916-2.137C18.445,0.505,19.156,0.2,20.005,0.2S21.581,0.505,22.193,1.116 M14.917,3.253
		c0,0.848-0.289,1.577-0.865,2.188l-7.124,7.124c-0.611,0.576-1.34,0.865-2.188,0.865s-1.562-0.289-2.137-0.865
		c-0.611-0.611-0.916-1.339-0.916-2.188c0-0.849,0.305-1.562,0.916-2.137l7.124-7.124c0.576-0.611,1.29-0.916,2.138-0.916
		c0.848,0,1.577,0.305,2.188,0.916C14.628,1.692,14.917,2.406,14.917,3.253"/>
</g>
<g id="Ebene_1">
</g>
</svg>
