<?xml version="1.0" encoding="iso-8859-1"?>
<!-- Generator: Adobe Illustrator 16.0.0, SVG Export Plug-In . SVG Version: 6.00 Build 0)  -->
<!DOCTYPE svg PUBLIC "-//W3C//DTD SVG 1.1//EN" "http://www.w3.org/Graphics/SVG/1.1/DTD/svg11.dtd">
<svg version="1.1" xmlns="http://www.w3.org/2000/svg" xmlns:xlink="http://www.w3.org/1999/xlink" x="0px" y="0px" width="32px"
	 height="32px" viewBox="0 0 32 32" style="enable-background:new 0 0 32 32;" xml:space="preserve">
<g id="shopping-cart">
	<path id="path5305" inkscape:connector-curvature="0" d="M21.44,26.645c0-1.066,0.369-1.98,1.11-2.756
		c0.771-0.74,1.689-1.105,2.751-1.105s1.963,0.369,2.704,1.105c0.771,0.775,1.158,1.689,1.158,2.756
		c0,1.061-0.387,1.963-1.158,2.703c-0.741,0.771-1.643,1.158-2.704,1.158s-1.979-0.387-2.751-1.158
		C21.81,28.607,21.44,27.705,21.44,26.645 M7.924,26.645c0-1.066,0.37-1.98,1.11-2.756c0.772-0.74,1.689-1.105,2.751-1.105
		s1.963,0.369,2.704,1.105c0.772,0.775,1.158,1.689,1.158,2.756c0,1.061-0.386,1.963-1.158,2.703
		c-0.741,0.771-1.642,1.158-2.704,1.158s-1.979-0.387-2.751-1.158C8.294,28.607,7.924,27.705,7.924,26.645 M30.854,2.652L30.902,2.7
		c0.707,0.772,0.997,1.689,0.867,2.752v0.096L29.356,18.34l-0.047,0.049c-0.131,0.773-0.613,1.434-1.448,1.98l-0.146,0.051
		l-1.931,0.432H11.303c-0.804,0-1.464-0.16-1.979-0.482H9.276c-0.87-0.545-1.368-1.207-1.497-1.98V18.34L5.559,6.321H1.166
		c-0.258,0-0.483-0.097-0.676-0.29C0.297,5.838,0.2,5.613,0.2,5.355v-2.8V2.459c0-0.258,0.097-0.483,0.29-0.676
		C0.683,1.59,0.909,1.494,1.166,1.494h11.537l0.29,0.048h15.206C29.26,1.542,30.145,1.912,30.854,2.652"/>
</g>
<g id="Ebene_1">
</g>
</svg>
