<?xml version="1.0" encoding="iso-8859-1"?>
<!-- Generator: Adobe Illustrator 16.0.0, SVG Export Plug-In . SVG Version: 6.00 Build 0)  -->
<!DOCTYPE svg PUBLIC "-//W3C//DTD SVG 1.1//EN" "http://www.w3.org/Graphics/SVG/1.1/DTD/svg11.dtd">
<svg version="1.1" xmlns="http://www.w3.org/2000/svg" xmlns:xlink="http://www.w3.org/1999/xlink" x="0px" y="0px" width="32px"
	 height="32px" viewBox="0 0 32 32" style="enable-background:new 0 0 32 32;" xml:space="preserve">
<g id="sign-in">
	<path id="path7108-7-4" inkscape:connector-curvature="0" d="M24.664,16l-0.305,0.714L14.166,26.907l-0.714,0.306H9.374
		l-0.713-0.306l-0.306-0.714v-5.097H1.219c-0.272,0-0.51-0.102-0.714-0.306C0.302,20.587,0.2,20.349,0.2,20.077v-8.154
		c0-0.272,0.102-0.51,0.305-0.714c0.204-0.203,0.442-0.306,0.714-0.306h7.136V5.807c0-0.272,0.102-0.51,0.306-0.714
		C8.865,4.89,9.103,4.787,9.374,4.787h4.078c0.272,0,0.51,0.103,0.714,0.306l10.194,10.193L24.664,16 M31.239,2.341
		c0.374,0.408,0.561,0.9,0.561,1.478v24.414c0,0.577-0.187,1.07-0.561,1.479c-0.408,0.373-0.9,0.56-1.478,0.56H19.567v-4.077h8.155
		V5.807h-8.155V1.729h10.194C30.339,1.729,30.831,1.934,31.239,2.341"/>
</g>
<g id="Ebene_1">
</g>
</svg>
