<?xml version="1.0" encoding="iso-8859-1"?>
<!-- Generator: Adobe Illustrator 16.0.0, SVG Export Plug-In . SVG Version: 6.00 Build 0)  -->
<!DOCTYPE svg PUBLIC "-//W3C//DTD SVG 1.1//EN" "http://www.w3.org/Graphics/SVG/1.1/DTD/svg11.dtd">
<svg version="1.1" xmlns="http://www.w3.org/2000/svg" xmlns:xlink="http://www.w3.org/1999/xlink" x="0px" y="0px" width="32px"
	 height="32px" viewBox="0 0 32 32" style="enable-background:new 0 0 32 32;" xml:space="preserve">
<g id="sign-out">
	<path id="path5547" inkscape:connector-curvature="0" d="M12.432,5.807H4.277v20.387h8.155v4.077H2.239
		c-0.578,0-1.07-0.187-1.479-0.56C0.387,29.303,0.2,28.81,0.2,28.232V3.818c0-0.576,0.187-1.069,0.56-1.478
		c0.408-0.407,0.9-0.611,1.479-0.611h10.193V5.807 M31.8,16l-0.306,0.714L21.301,26.907l-0.714,0.306H16.51l-0.714-0.306
		l-0.306-0.714v-5.097H8.355c-0.272,0-0.51-0.102-0.714-0.306c-0.204-0.204-0.306-0.442-0.306-0.714v-8.154
		c0-0.272,0.102-0.51,0.306-0.714c0.204-0.203,0.442-0.306,0.714-0.306h7.135V5.807c0-0.272,0.102-0.51,0.306-0.714
		C16,4.89,16.238,4.787,16.51,4.787h4.077c0.272,0,0.51,0.103,0.714,0.306l10.193,10.193L31.8,16"/>
</g>
<g id="Ebene_1">
</g>
</svg>
