<?xml version="1.0" encoding="iso-8859-1"?>
<!-- Generator: Adobe Illustrator 16.0.0, SVG Export Plug-In . SVG Version: 6.00 Build 0)  -->
<!DOCTYPE svg PUBLIC "-//W3C//DTD SVG 1.1//EN" "http://www.w3.org/Graphics/SVG/1.1/DTD/svg11.dtd">
<svg version="1.1" xmlns="http://www.w3.org/2000/svg" xmlns:xlink="http://www.w3.org/1999/xlink" x="0px" y="0px" width="32px"
	 height="32px" viewBox="0 0 32 32" style="enable-background:new 0 0 32 32;" xml:space="preserve">
<g id="sign-in-inverse">
	<path id="path7108-7-4-5" inkscape:connector-curvature="0" d="M7.335,16l0.306-0.714L17.835,5.093l0.714-0.306h4.077l0.714,0.306
		l0.306,0.714v5.097h7.135c0.273,0,0.51,0.103,0.714,0.306c0.204,0.204,0.306,0.442,0.306,0.714v8.154
		c0,0.273-0.102,0.51-0.306,0.714s-0.44,0.306-0.714,0.306h-7.135v5.097c0,0.272-0.102,0.51-0.306,0.714s-0.441,0.306-0.714,0.306
		h-4.077c-0.273,0-0.51-0.102-0.714-0.306L7.641,16.714L7.335,16 M0.76,29.66c-0.374-0.408-0.56-0.9-0.56-1.479V3.768
		c0-0.576,0.187-1.069,0.56-1.478c0.408-0.373,0.9-0.561,1.479-0.561h10.193v4.077H4.277v20.387h8.155v4.077H2.239
		C1.661,30.271,1.168,30.067,0.76,29.66"/>
</g>
<g id="Ebene_1">
</g>
</svg>
