<?xml version="1.0" encoding="iso-8859-1"?>
<!-- Generator: Adobe Illustrator 16.0.0, SVG Export Plug-In . SVG Version: 6.00 Build 0)  -->
<!DOCTYPE svg PUBLIC "-//W3C//DTD SVG 1.1//EN" "http://www.w3.org/Graphics/SVG/1.1/DTD/svg11.dtd">
<svg version="1.1" xmlns="http://www.w3.org/2000/svg" xmlns:xlink="http://www.w3.org/1999/xlink" x="0px" y="0px" width="32px"
	 height="32px" viewBox="0 0 32 32" style="enable-background:new 0 0 32 32;" xml:space="preserve">
<g id="sign-out-inverse">
	<path id="path5553" inkscape:connector-curvature="0" d="M31.239,2.341c0.374,0.408,0.561,0.9,0.561,1.478v24.414
		c0,0.577-0.187,1.07-0.561,1.479c-0.408,0.373-0.9,0.56-1.478,0.56H19.567v-4.077h8.155V5.807h-8.155V1.729h10.194
		C30.339,1.729,30.831,1.934,31.239,2.341 M24.359,11.209l0.305,0.714v8.154l-0.305,0.714c-0.204,0.204-0.441,0.306-0.714,0.306
		H16.51v5.097l-0.306,0.714l-0.714,0.306h-4.077l-0.714-0.306L0.505,16.714C0.302,16.51,0.2,16.271,0.2,16s0.102-0.51,0.305-0.714
		L10.699,5.093c0.204-0.203,0.442-0.306,0.714-0.306h4.077c0.272,0,0.51,0.103,0.714,0.306l0.306,0.714v5.097h7.136
		C23.918,10.903,24.155,11.006,24.359,11.209"/>
</g>
<g id="Ebene_1">
</g>
</svg>
