<?xml version="1.0" encoding="iso-8859-1"?>
<!-- Generator: Adobe Illustrator 16.0.0, SVG Export Plug-In . SVG Version: 6.00 Build 0)  -->
<!DOCTYPE svg PUBLIC "-//W3C//DTD SVG 1.1//EN" "http://www.w3.org/Graphics/SVG/1.1/DTD/svg11.dtd">
<svg version="1.1" xmlns="http://www.w3.org/2000/svg" xmlns:xlink="http://www.w3.org/1999/xlink" x="0px" y="0px" width="32px"
	 height="32px" viewBox="0 0 32 32" style="enable-background:new 0 0 32 32;" xml:space="preserve">
<g id="smartphone">
	<path id="path5183" inkscape:connector-curvature="0" d="M10.888,5.776v18.588h10.223V5.776H10.888 M6.102,1.083V1.037
		C6.66,0.479,7.326,0.2,8.1,0.2h15.8c0.743,0,1.394,0.278,1.951,0.836c0.561,0.558,0.837,1.208,0.837,1.952v26.023
		c0,0.775-0.279,1.44-0.837,1.999v0.046C25.294,31.552,24.644,31.8,23.9,31.8H8.1c-0.774,0-1.425-0.248-1.952-0.743l-0.046-0.046
		c-0.527-0.559-0.791-1.224-0.791-1.999V3.035C5.312,2.26,5.575,1.61,6.102,1.083"/>
</g>
<g id="Ebene_1">
</g>
</svg>
