<?xml version="1.0" encoding="iso-8859-1"?>
<!-- Generator: Adobe Illustrator 16.0.0, SVG Export Plug-In . SVG Version: 6.00 Build 0)  -->
<!DOCTYPE svg PUBLIC "-//W3C//DTD SVG 1.1//EN" "http://www.w3.org/Graphics/SVG/1.1/DTD/svg11.dtd">
<svg version="1.1" xmlns="http://www.w3.org/2000/svg" xmlns:xlink="http://www.w3.org/1999/xlink" x="0px" y="0px" width="32px"
	 height="32px" viewBox="0 0 32 32" style="enable-background:new 0 0 32 32;" xml:space="preserve">
<g id="sort-horizontal">
	<path id="path5427" inkscape:connector-curvature="0" d="M13.894,2.307c0.281,0,0.526,0.105,0.737,0.316l0.316,0.737v25.28
		l-0.316,0.738l-0.737,0.315c-0.282,0-0.527-0.104-0.738-0.315L0.516,16.737C0.306,16.526,0.2,16.281,0.2,16
		s0.105-0.527,0.315-0.737l12.64-12.64C13.367,2.412,13.612,2.307,13.894,2.307 M31.8,16l-0.315,0.737L18.844,29.378l-0.737,0.315
		c-0.281,0-0.526-0.104-0.737-0.315s-0.315-0.456-0.315-0.738V3.36c0-0.281,0.104-0.526,0.315-0.737
		c0.211-0.21,0.458-0.316,0.737-0.316c0.28,0,0.527,0.105,0.737,0.316l12.641,12.64L31.8,16"/>
</g>
<g id="Ebene_1">
</g>
</svg>
