<?xml version="1.0" encoding="iso-8859-1"?>
<!-- Generator: Adobe Illustrator 16.0.0, SVG Export Plug-In . SVG Version: 6.00 Build 0)  -->
<!DOCTYPE svg PUBLIC "-//W3C//DTD SVG 1.1//EN" "http://www.w3.org/Graphics/SVG/1.1/DTD/svg11.dtd">
<svg version="1.1" xmlns="http://www.w3.org/2000/svg" xmlns:xlink="http://www.w3.org/1999/xlink" x="0px" y="0px" width="32px"
	 height="32px" viewBox="0 0 32 32" style="enable-background:new 0 0 32 32;" xml:space="preserve">
<g id="sort-vertical">
	<path id="path5423" inkscape:connector-curvature="0" d="M2.307,18.106c0-0.281,0.105-0.526,0.316-0.737
		c0.211-0.211,0.457-0.315,0.737-0.315h25.28c0.282,0,0.527,0.104,0.738,0.315l0.315,0.737l-0.315,0.737L16.737,31.484L16,31.8
		l-0.737-0.315L2.623,18.844C2.412,18.634,2.307,18.389,2.307,18.106 M29.378,13.156l0.315,0.738l-0.315,0.737l-0.738,0.316H3.36
		l-0.737-0.316c-0.21-0.211-0.316-0.456-0.316-0.737c0-0.282,0.105-0.527,0.316-0.738l12.64-12.64C15.473,0.306,15.719,0.2,16,0.2
		s0.526,0.105,0.737,0.315L29.378,13.156"/>
</g>
<g id="Ebene_1">
</g>
</svg>
