<?xml version="1.0" encoding="iso-8859-1"?>
<!-- Generator: Adobe Illustrator 16.0.0, SVG Export Plug-In . SVG Version: 6.00 Build 0)  -->
<!DOCTYPE svg PUBLIC "-//W3C//DTD SVG 1.1//EN" "http://www.w3.org/Graphics/SVG/1.1/DTD/svg11.dtd">
<svg version="1.1" xmlns="http://www.w3.org/2000/svg" xmlns:xlink="http://www.w3.org/1999/xlink" x="0px" y="0px" width="32px"
	 height="32px" viewBox="0 0 32 32" style="enable-background:new 0 0 32 32;" xml:space="preserve">
<g id="sound-on">
	<path id="path5147" inkscape:connector-curvature="0" d="M18.003,0.2c0.527,0,0.989,0.197,1.381,0.592
		c0.395,0.395,0.597,0.856,0.597,1.382v27.65c0,0.56-0.197,1.036-0.597,1.432c-0.392,0.362-0.854,0.543-1.381,0.543h-1.979
		L4.156,19.95H0.2v-7.9h3.956L16.024,0.2H18.003 M24.729,10.124l2.275-3.258l1.482,1.284l0.05,0.049
		c2.176,2.205,3.264,4.855,3.264,7.949c0,3.127-1.088,5.777-3.264,7.95l-0.099,0.099l-1.434,1.234l-2.275-3.259l0.89-0.74l0.05-0.05
		c1.451-1.449,2.176-3.192,2.176-5.234c0-2.007-0.725-3.735-2.176-5.184l-0.05-0.099L24.729,10.124"/>
</g>
<g id="Ebene_1">
</g>
</svg>
