<?xml version="1.0" encoding="iso-8859-1"?>
<!-- Generator: Adobe Illustrator 16.0.0, SVG Export Plug-In . SVG Version: 6.00 Build 0)  -->
<!DOCTYPE svg PUBLIC "-//W3C//DTD SVG 1.1//EN" "http://www.w3.org/Graphics/SVG/1.1/DTD/svg11.dtd">
<svg version="1.1" xmlns="http://www.w3.org/2000/svg" xmlns:xlink="http://www.w3.org/1999/xlink" x="0px" y="0px" width="32px"
	 height="32px" viewBox="0 0 32 32" style="enable-background:new 0 0 32 32;" xml:space="preserve">
<g id="sound-off">
	<path d="M18.003,0.2c0.527,0,0.989,0.198,1.385,0.593c0.395,0.395,0.594,0.855,0.594,1.382v10.172L11.92,4.299L16.025,0.2H18.003
		 M24.728,10.125l2.276-3.259l1.483,1.284l0.05,0.049c2.175,2.206,3.263,4.855,3.263,7.949c0,2.337-0.594,4.411-1.779,6.222
		l-2.919-2.915c0.494-1.021,0.742-2.121,0.742-3.307c0-2.008-0.725-3.736-2.176-5.185l-0.05-0.098L24.728,10.125 M6.283,9.928
		l13.698,13.678v6.22c0,0.56-0.199,1.038-0.594,1.433c-0.396,0.361-0.857,0.542-1.385,0.542h-1.978L4.156,19.95H0.2v-7.9h3.956
		L6.283,9.928 M8.408,3.607L31.156,26.32c0.396,0.361,0.595,0.822,0.595,1.383c0,0.56-0.198,1.036-0.595,1.432
		c-0.36,0.362-0.822,0.544-1.383,0.544c-0.563,0-1.04-0.182-1.435-0.544L5.59,6.422C5.227,6.027,5.047,5.55,5.047,4.99
		c0-0.56,0.18-1.021,0.543-1.383c0.396-0.395,0.874-0.592,1.435-0.592C7.585,3.015,8.047,3.213,8.408,3.607"/>
</g>
<g id="Ebene_1">
</g>
</svg>
