<?xml version="1.0" encoding="iso-8859-1"?>
<!-- Generator: Adobe Illustrator 16.0.0, SVG Export Plug-In . SVG Version: 6.00 Build 0)  -->
<!DOCTYPE svg PUBLIC "-//W3C//DTD SVG 1.1//EN" "http://www.w3.org/Graphics/SVG/1.1/DTD/svg11.dtd">
<svg version="1.1" xmlns="http://www.w3.org/2000/svg" xmlns:xlink="http://www.w3.org/1999/xlink" x="0px" y="0px" width="32px"
	 height="32px" viewBox="0 0 32 32" style="enable-background:new 0 0 32 32;" xml:space="preserve">
<g id="step-backward">
	<path id="path5349" inkscape:connector-curvature="0" d="M27.85,0.2c0.56,0,1.037,0.197,1.433,0.592
		c0.361,0.395,0.543,0.872,0.543,1.432v27.601c0,0.56-0.182,1.036-0.543,1.432c-0.396,0.362-0.873,0.543-1.433,0.543h-1.975
		L10.075,16l15.8-15.8H27.85 M2.175,2.175c0-0.526,0.198-0.987,0.593-1.382S3.624,0.2,4.15,0.2H8.1c0.56,0,1.037,0.197,1.432,0.592
		c0.362,0.395,0.543,0.872,0.543,1.432V16v13.825c0,0.56-0.181,1.036-0.543,1.432C9.137,31.619,8.66,31.8,8.1,31.8H4.15
		c-0.526,0-0.987-0.181-1.382-0.543c-0.395-0.396-0.593-0.872-0.593-1.432V2.175"/>
</g>
<g id="Ebene_1">
</g>
</svg>
