<?xml version="1.0" encoding="iso-8859-1"?>
<!-- Generator: Adobe Illustrator 16.0.0, SVG Export Plug-In . SVG Version: 6.00 Build 0)  -->
<!DOCTYPE svg PUBLIC "-//W3C//DTD SVG 1.1//EN" "http://www.w3.org/Graphics/SVG/1.1/DTD/svg11.dtd">
<svg version="1.1" xmlns="http://www.w3.org/2000/svg" xmlns:xlink="http://www.w3.org/1999/xlink" x="0px" y="0px" width="32px"
	 height="32px" viewBox="0 0 32 32" style="enable-background:new 0 0 32 32;" xml:space="preserve">
<g id="stick-move-rl">
	<path id="path6334" inkscape:connector-curvature="0" d="M22.063,9.947c1.33,1.329,2.125,2.873,2.387,4.631h5.236l-0.035,1.425
		c0,3.799-1.32,7.029-3.954,9.688c-2.659,2.636-5.892,3.954-9.691,3.954s-7.018-1.318-9.654-3.954
		c-2.659-2.659-3.989-5.89-3.989-9.689H0.225l3.562-4.274l3.562,4.274H5.212c0,2.993,1.057,5.546,3.17,7.659
		c2.09,2.09,4.63,3.135,7.623,3.135c2.992,0,5.544-1.047,7.659-3.135c1.757-1.758,2.776-3.835,3.063-6.233h-2.277
		c-0.262,1.757-1.055,3.301-2.387,4.631c-1.663,1.662-3.681,2.493-6.056,2.493c-2.375,0-4.393-0.831-6.055-2.493
		s-2.494-3.682-2.494-6.056c0-2.375,0.832-4.394,2.494-6.056c1.662-1.662,3.681-2.493,6.055-2.493
		C18.383,7.454,20.4,8.285,22.063,9.947"/>
</g>
<g id="Ebene_1">
</g>
</svg>
