<?xml version="1.0" encoding="iso-8859-1"?>
<!-- Generator: Adobe Illustrator 16.0.0, SVG Export Plug-In . SVG Version: 6.00 Build 0)  -->
<!DOCTYPE svg PUBLIC "-//W3C//DTD SVG 1.1//EN" "http://www.w3.org/Graphics/SVG/1.1/DTD/svg11.dtd">
<svg version="1.1" xmlns="http://www.w3.org/2000/svg" xmlns:xlink="http://www.w3.org/1999/xlink" x="0px" y="0px" width="32px"
	 height="32px" viewBox="0 0 32 32" style="enable-background:new 0 0 32 32;" xml:space="preserve">
<g id="stick-tilt-left">
	<path id="path6640" inkscape:connector-curvature="0" d="M29.047,13.288c-0.776,1.495-1.783,2.848-3.021,4.055l3.841,6.645
		c0.486,0.835,0.619,1.726,0.388,2.675l-0.088,0.089c-0.289,0.863-0.82,1.51-1.599,1.941l-4.487,2.589
		c-0.805,0.486-1.653,0.631-2.544,0.432l-0.127-0.089c-0.892-0.259-1.567-0.79-2.03-1.597l-3.84-6.645
		c-1.697,0.488-3.365,0.691-5.005,0.604c-3.883-0.145-6.543-1.524-7.982-4.143C1,17.257,1.129,14.265,2.941,10.872
		c1.639-3.078,4.257-5.667,7.852-7.767c3.625-2.071,7.165-3.035,10.617-2.891c3.909,0.086,6.587,1.453,8.025,4.099
		c1.581,2.56,1.438,5.566-0.431,9.018L29.047,13.288"/>
</g>
<g id="Ebene_1">
</g>
</svg>
