<?xml version="1.0" encoding="iso-8859-1"?>
<!-- Generator: Adobe Illustrator 16.0.0, SVG Export Plug-In . SVG Version: 6.00 Build 0)  -->
<!DOCTYPE svg PUBLIC "-//W3C//DTD SVG 1.1//EN" "http://www.w3.org/Graphics/SVG/1.1/DTD/svg11.dtd">
<svg version="1.1" xmlns="http://www.w3.org/2000/svg" xmlns:xlink="http://www.w3.org/1999/xlink" x="0px" y="0px" width="32px"
	 height="32px" viewBox="0 0 32 32" style="enable-background:new 0 0 32 32;" xml:space="preserve">
<g id="stick-left-side">
	<path d="M13.91,6.763v7.987h5.18v-1.58h-3.38V6.763H13.91 M31.797,10.756c0.089,3.043-1.564,5.603-4.958,7.68h0.043
		c-1.434,0.907-3.014,1.592-4.737,2.063v7.768c0,0.996-0.337,1.847-1.006,2.546l-0.091,0.044c-0.702,0.614-1.507,0.921-2.414,0.921
		h-5.267c-0.965,0-1.784-0.307-2.458-0.921l-0.088-0.132c-0.643-0.674-0.965-1.489-0.965-2.458v-7.768
		c-1.726-0.468-3.307-1.155-4.74-2.063c-3.335-2.077-4.974-4.638-4.915-7.68c-0.059-3.072,1.58-5.646,4.915-7.724
		C8.13,1.159,11.758,0.224,16,0.224s7.856,0.936,10.843,2.809C30.202,5.109,31.854,7.684,31.797,10.756"/>
</g>
<g id="Ebene_1">
</g>
</svg>
