<?xml version="1.0" encoding="iso-8859-1"?>
<!-- Generator: Adobe Illustrator 16.0.0, SVG Export Plug-In . SVG Version: 6.00 Build 0)  -->
<!DOCTYPE svg PUBLIC "-//W3C//DTD SVG 1.1//EN" "http://www.w3.org/Graphics/SVG/1.1/DTD/svg11.dtd">
<svg version="1.1" xmlns="http://www.w3.org/2000/svg" xmlns:xlink="http://www.w3.org/1999/xlink" x="0px" y="0px" width="32px"
	 height="32px" viewBox="0 0 32 32" style="enable-background:new 0 0 32 32;" xml:space="preserve">
<g id="stick-move-rt">
	<path id="path6328" inkscape:connector-curvature="0" d="M15.972,0.159v2.137c3.8,0,7.029,1.33,9.688,3.99
		c2.637,2.636,3.954,5.853,3.954,9.653l0.036,1.425h-5.236c-0.262,1.759-1.058,3.303-2.387,4.631
		c-1.662,1.662-3.681,2.493-6.056,2.493c-2.375,0-4.394-0.831-6.056-2.493s-2.493-3.681-2.493-6.056s0.831-4.394,2.493-6.056
		s3.681-2.493,6.056-2.493c2.375,0,4.394,0.831,6.056,2.493c1.329,1.331,2.125,2.874,2.387,4.631h2.279
		c-0.285-2.398-1.307-4.465-3.063-6.198c-2.114-2.114-4.666-3.17-7.658-3.17v2.137l-4.274-3.562L15.972,0.159"/>
</g>
<g id="Ebene_1">
</g>
</svg>
