<?xml version="1.0" encoding="iso-8859-1"?>
<!-- Generator: Adobe Illustrator 16.0.0, SVG Export Plug-In . SVG Version: 6.00 Build 0)  -->
<!DOCTYPE svg PUBLIC "-//W3C//DTD SVG 1.1//EN" "http://www.w3.org/Graphics/SVG/1.1/DTD/svg11.dtd">
<svg version="1.1" xmlns="http://www.w3.org/2000/svg" xmlns:xlink="http://www.w3.org/1999/xlink" x="0px" y="0px" width="32px"
	 height="32px" viewBox="0 0 32 32" style="enable-background:new 0 0 32 32;" xml:space="preserve">
<g id="stick-move-bt">
	<path id="path6368" inkscape:connector-curvature="0" d="M25.518,6.1v0.036h0.036l0.179,0.178c2.635,2.636,3.953,5.853,3.953,9.653
		s-1.318,7.03-3.953,9.689c-2.661,2.636-5.893,3.953-9.692,3.953l-1.425,0.036v-5.236c-1.757-0.262-3.3-1.056-4.631-2.386
		c-1.662-1.663-2.493-3.683-2.493-6.056c0-2.375,0.831-4.394,2.493-6.056s3.681-2.494,6.056-2.494s4.394,0.832,6.055,2.494
		c1.662,1.662,2.494,3.681,2.494,6.056c0,2.374-0.832,4.393-2.494,6.056c-1.327,1.328-2.871,2.122-4.63,2.386v2.28
		c2.397-0.285,4.477-1.307,6.233-3.063c2.091-2.113,3.135-4.667,3.135-7.659s-1.046-5.534-3.135-7.623l-0.178-0.178h0.037
		c-2.091-1.995-4.595-2.993-7.517-2.993v2.137l-4.274-3.562l4.274-3.562v2.137C19.724,2.324,22.883,3.583,25.518,6.1"/>
</g>
<g id="Ebene_1">
</g>
</svg>
