<?xml version="1.0" encoding="iso-8859-1"?>
<!-- Generator: Adobe Illustrator 16.0.0, SVG Export Plug-In . SVG Version: 6.00 Build 0)  -->
<!DOCTYPE svg PUBLIC "-//W3C//DTD SVG 1.1//EN" "http://www.w3.org/Graphics/SVG/1.1/DTD/svg11.dtd">
<svg version="1.1" xmlns="http://www.w3.org/2000/svg" xmlns:xlink="http://www.w3.org/1999/xlink" x="0px" y="0px" width="32px"
	 height="32px" viewBox="0 0 32 32" style="enable-background:new 0 0 32 32;" xml:space="preserve">
<g id="stick-move-tb-alt">
	<path id="path6324" inkscape:connector-curvature="0" d="M16.007,2.289l1.424-0.036v5.236c1.758,0.262,3.301,1.057,4.631,2.387
		c1.663,1.662,2.494,3.681,2.494,6.056c0,2.375-0.831,4.394-2.494,6.055c-1.662,1.663-3.68,2.494-6.055,2.494
		c-2.375,0-4.394-0.831-6.056-2.494c-1.662-1.661-2.494-3.68-2.494-6.055c0-2.375,0.832-4.394,2.494-6.056
		c1.33-1.33,2.874-2.125,4.631-2.387V5.245c-2.399,0.261-4.465,1.282-6.198,3.063c-2.113,2.089-3.17,4.631-3.17,7.623
		s1.056,5.545,3.17,7.658c2.09,2.092,4.631,3.135,7.623,3.135v-2.138l4.275,3.563l-4.275,3.563v-2.138
		c-3.799,0-7.018-1.317-9.653-3.954c-2.66-2.659-3.99-5.889-3.99-9.688c0-3.799,1.33-7.018,3.99-9.653
		C8.99,3.618,12.208,2.289,16.007,2.289"/>
</g>
<g id="Ebene_1">
</g>
</svg>
