<?xml version="1.0" encoding="iso-8859-1"?>
<!-- Generator: Adobe Illustrator 16.0.0, SVG Export Plug-In . SVG Version: 6.00 Build 0)  -->
<!DOCTYPE svg PUBLIC "-//W3C//DTD SVG 1.1//EN" "http://www.w3.org/Graphics/SVG/1.1/DTD/svg11.dtd">
<svg version="1.1" xmlns="http://www.w3.org/2000/svg" xmlns:xlink="http://www.w3.org/1999/xlink" x="0px" y="0px" width="32px"
	 height="32px" viewBox="0 0 32 32" style="enable-background:new 0 0 32 32;" xml:space="preserve">
<g id="stick-move-tr">
	<path id="path6364" inkscape:connector-curvature="0" d="M17.396,5.252v2.244c1.757,0.262,3.302,1.057,4.631,2.387
		c1.662,1.662,2.493,3.681,2.493,6.056c0,2.375-0.831,4.394-2.493,6.056s-3.681,2.493-6.056,2.493c-2.375,0-4.394-0.831-6.056-2.493
		s-2.493-3.681-2.493-6.056s0.831-4.394,2.493-6.056c1.33-1.33,2.873-2.125,4.631-2.387V3.721c0-0.404,0.142-0.736,0.427-0.998
		c0.262-0.285,0.593-0.427,0.998-0.427c3.8,0,7.029,1.33,9.688,3.99c2.637,2.636,3.954,5.853,3.954,9.653h2.137l-3.562,4.274
		l-3.563-4.274h2.138c0-2.992-1.045-5.533-3.132-7.623C21.872,6.535,19.795,5.514,17.396,5.252"/>
</g>
<g id="Ebene_1">
</g>
</svg>
