<?xml version="1.0" encoding="iso-8859-1"?>
<!-- Generator: Adobe Illustrator 16.0.0, SVG Export Plug-In . SVG Version: 6.00 Build 0)  -->
<!DOCTYPE svg PUBLIC "-//W3C//DTD SVG 1.1//EN" "http://www.w3.org/Graphics/SVG/1.1/DTD/svg11.dtd">
<svg version="1.1" xmlns="http://www.w3.org/2000/svg" xmlns:xlink="http://www.w3.org/1999/xlink" x="0px" y="0px" width="32px"
	 height="32px" viewBox="0 0 32 32" style="enable-background:new 0 0 32 32;" xml:space="preserve">
<g id="stick-side">
	<path id="path6588" inkscape:connector-curvature="0" d="M15.998,0.224c4.242,0,7.856,0.936,10.841,2.809
		c3.363,2.077,5.018,4.651,4.958,7.724c0.089,3.043-1.564,5.603-4.958,7.68h0.043c-1.434,0.907-3.014,1.592-4.737,2.063v7.768
		c0,0.996-0.337,1.847-1.006,2.546l-0.091,0.044c-0.702,0.614-1.507,0.921-2.414,0.921h-5.267c-0.965,0-1.784-0.307-2.458-0.921
		l-0.088-0.132c-0.643-0.674-0.965-1.489-0.965-2.458v-7.768c-1.726-0.468-3.307-1.155-4.74-2.063
		c-3.335-2.077-4.974-4.638-4.915-7.68c-0.059-3.072,1.58-5.646,4.915-7.724C8.127,1.159,11.756,0.224,15.998,0.224"/>
</g>
<g id="Ebene_1">
</g>
</svg>
