<?xml version="1.0" encoding="iso-8859-1"?>
<!-- Generator: Adobe Illustrator 16.0.0, SVG Export Plug-In . SVG Version: 6.00 Build 0)  -->
<!DOCTYPE svg PUBLIC "-//W3C//DTD SVG 1.1//EN" "http://www.w3.org/Graphics/SVG/1.1/DTD/svg11.dtd">
<svg version="1.1" xmlns="http://www.w3.org/2000/svg" xmlns:xlink="http://www.w3.org/1999/xlink" x="0px" y="0px" width="32px"
	 height="32px" viewBox="0 0 32 32" style="enable-background:new 0 0 32 32;" xml:space="preserve">
<g id="stick-move-lr-alt">
	<path id="path6326" inkscape:connector-curvature="0" d="M16.042,7.454c2.375,0,4.394,0.831,6.056,2.493
		c1.662,1.662,2.493,3.681,2.493,6.056c0,2.374-0.831,4.394-2.493,6.056s-3.682,2.493-6.056,2.493c-2.374,0-4.393-0.831-6.055-2.493
		c-1.33-1.33-2.125-2.874-2.386-4.631H5.356c0.262,2.398,1.283,4.476,3.063,6.233c2.09,2.09,4.631,3.135,7.623,3.135
		c2.993,0,5.545-1.047,7.659-3.135c2.091-2.114,3.135-4.666,3.135-7.658h-2.137l3.562-4.274l3.563,4.274h-2.138
		c0,3.799-1.318,7.029-3.953,9.688c-2.661,2.636-5.893,3.954-9.692,3.954s-7.017-1.318-9.653-3.954
		c-2.66-2.659-3.99-5.89-3.99-9.689l-0.036-1.425h5.236c0.261-1.757,1.057-3.3,2.386-4.631C11.649,8.285,13.668,7.454,16.042,7.454"
		/>
</g>
<g id="Ebene_1">
</g>
</svg>
