<?xml version="1.0" encoding="iso-8859-1"?>
<!-- Generator: Adobe Illustrator 16.0.0, SVG Export Plug-In . SVG Version: 6.00 Build 0)  -->
<!DOCTYPE svg PUBLIC "-//W3C//DTD SVG 1.1//EN" "http://www.w3.org/Graphics/SVG/1.1/DTD/svg11.dtd">
<svg version="1.1" xmlns="http://www.w3.org/2000/svg" xmlns:xlink="http://www.w3.org/1999/xlink" x="0px" y="0px" width="32px"
	 height="32px" viewBox="0 0 32 32" style="enable-background:new 0 0 32 32;" xml:space="preserve">
<g id="stick-move-rb">
	<path id="path6330" inkscape:connector-curvature="0" d="M29.294,14.934c0.261,0.261,0.392,0.593,0.392,0.998
		c0,3.8-1.318,7.029-3.953,9.688c-2.661,2.637-5.893,3.954-9.692,3.954v2.138l-4.274-3.563l4.274-3.563v2.138
		c2.993,0,5.545-1.045,7.659-3.135c1.759-1.758,2.778-3.835,3.065-6.233h-2.279c-0.262,1.757-1.058,3.302-2.39,4.63
		c-1.661,1.663-3.681,2.494-6.055,2.494s-4.394-0.831-6.056-2.494c-1.662-1.661-2.493-3.68-2.493-6.055
		c0-2.375,0.831-4.394,2.493-6.056s3.681-2.494,6.056-2.494s4.394,0.832,6.055,2.494c1.33,1.33,2.125,2.873,2.39,4.631h3.775
		C28.665,14.507,29.009,14.649,29.294,14.934"/>
</g>
<g id="Ebene_1">
</g>
</svg>
