<?xml version="1.0" encoding="iso-8859-1"?>
<!-- Generator: Adobe Illustrator 16.0.0, SVG Export Plug-In . SVG Version: 6.00 Build 0)  -->
<!DOCTYPE svg PUBLIC "-//W3C//DTD SVG 1.1//EN" "http://www.w3.org/Graphics/SVG/1.1/DTD/svg11.dtd">
<svg version="1.1" xmlns="http://www.w3.org/2000/svg" xmlns:xlink="http://www.w3.org/1999/xlink" x="0px" y="0px" width="32px"
	 height="32px" viewBox="0 0 32 32" style="enable-background:new 0 0 32 32;" xml:space="preserve">
<g id="stick-move-tl">
	<path id="path6366" inkscape:connector-curvature="0" d="M24.557,15.938c0,2.375-0.831,4.394-2.494,6.056
		c-1.662,1.662-3.68,2.493-6.055,2.493c-2.375,0-4.394-0.831-6.056-2.493s-2.494-3.681-2.494-6.056s0.832-4.394,2.494-6.056
		c1.33-1.33,2.874-2.125,4.631-2.387V5.252c-2.399,0.261-4.465,1.282-6.198,3.063c-2.113,2.089-3.17,4.631-3.17,7.623h2.137
		L3.79,20.213l-3.563-4.274h2.137c0-3.799,1.33-7.017,3.99-9.653c2.636-2.66,5.853-3.99,9.653-3.99l1.424-0.036v5.236
		c1.758,0.262,3.301,1.057,4.631,2.387C23.726,11.545,24.557,13.563,24.557,15.938"/>
</g>
<g id="Ebene_1">
</g>
</svg>
