<?xml version="1.0" encoding="iso-8859-1"?>
<!-- Generator: Adobe Illustrator 16.0.0, SVG Export Plug-In . SVG Version: 6.00 Build 0)  -->
<!DOCTYPE svg PUBLIC "-//W3C//DTD SVG 1.1//EN" "http://www.w3.org/Graphics/SVG/1.1/DTD/svg11.dtd">
<svg version="1.1" xmlns="http://www.w3.org/2000/svg" xmlns:xlink="http://www.w3.org/1999/xlink" x="0px" y="0px" width="32px"
	 height="32px" viewBox="0 0 32 32" style="enable-background:new 0 0 32 32;" xml:space="preserve">
<g id="stick-right-side">
	<path d="M31.797,10.756c0.089,3.043-1.564,5.603-4.958,7.68h0.043c-1.434,0.907-3.014,1.592-4.737,2.063v7.768
		c0,0.996-0.337,1.847-1.006,2.546l-0.091,0.044c-0.702,0.614-1.507,0.921-2.414,0.921h-5.267c-0.965,0-1.784-0.307-2.458-0.921
		l-0.088-0.132c-0.643-0.674-0.965-1.489-0.965-2.458v-7.768c-1.726-0.468-3.307-1.155-4.74-2.063
		c-3.335-2.077-4.974-4.638-4.915-7.68c-0.059-3.072,1.58-5.646,4.915-7.724C8.13,1.159,11.758,0.224,16,0.224
		s7.856,0.936,10.843,2.809C30.202,5.109,31.854,7.684,31.797,10.756 M17.056,8.562C17.261,8.708,17.362,9,17.362,9.439
		c0,0.41-0.098,0.717-0.307,0.922c-0.234,0.204-0.643,0.307-1.229,0.307h-1.316V8.299h1.316C16.412,8.299,16.821,8.386,17.056,8.562
		 M19.206,9.439c0-0.936-0.262-1.609-0.789-2.019c-0.527-0.439-1.42-0.658-2.678-0.658h-3.028v7.987h1.799v-2.546h1.229l1.756,2.546
		h2.193l-2.018-2.853C18.694,11.517,19.206,10.697,19.206,9.439"/>
</g>
<g id="Ebene_1">
</g>
</svg>
