<?xml version="1.0" encoding="iso-8859-1"?>
<!-- Generator: Adobe Illustrator 16.0.0, SVG Export Plug-In . SVG Version: 6.00 Build 0)  -->
<!DOCTYPE svg PUBLIC "-//W3C//DTD SVG 1.1//EN" "http://www.w3.org/Graphics/SVG/1.1/DTD/svg11.dtd">
<svg version="1.1" xmlns="http://www.w3.org/2000/svg" xmlns:xlink="http://www.w3.org/1999/xlink" x="0px" y="0px" width="32px"
	 height="32px" viewBox="0 0 32 32" style="enable-background:new 0 0 32 32;" xml:space="preserve">
<g id="stick-move-tb">
	<path id="path6268" inkscape:connector-curvature="0" d="M17.396,5.245v2.244c1.757,0.262,3.302,1.057,4.631,2.387
		c1.662,1.662,2.493,3.681,2.493,6.056c0,2.375-0.831,4.394-2.493,6.055c-1.662,1.663-3.681,2.494-6.056,2.494
		c-2.375,0-4.394-0.831-6.056-2.494c-1.662-1.661-2.493-3.68-2.493-6.055c0-2.375,0.831-4.394,2.493-6.056
		c1.33-1.33,2.873-2.125,4.631-2.387V2.253l1.425,0.036c3.8,0,7.029,1.329,9.688,3.989c2.637,2.636,3.954,5.854,3.954,9.653
		c0,3.8-1.317,7.029-3.954,9.688l-0.178,0.179h-0.036c-2.636,2.517-5.794,3.775-9.475,3.775v2.138l-4.274-3.563l4.274-3.563v2.138
		c2.896,0,5.39-0.985,7.48-2.957l0.035-0.035l0.143-0.143c2.09-2.113,3.135-4.666,3.135-7.658s-1.047-5.534-3.135-7.623
		C21.872,6.527,19.795,5.506,17.396,5.245"/>
</g>
<g id="Ebene_1">
</g>
</svg>
