<?xml version="1.0" encoding="iso-8859-1"?>
<!-- Generator: Adobe Illustrator 16.0.0, SVG Export Plug-In . SVG Version: 6.00 Build 0)  -->
<!DOCTYPE svg PUBLIC "-//W3C//DTD SVG 1.1//EN" "http://www.w3.org/Graphics/SVG/1.1/DTD/svg11.dtd">
<svg version="1.1" xmlns="http://www.w3.org/2000/svg" xmlns:xlink="http://www.w3.org/1999/xlink" x="0px" y="0px" width="32px"
	 height="32px" viewBox="0 0 32 32" style="enable-background:new 0 0 32 32;" xml:space="preserve">
<g id="stick-move-lt">
	<path id="path6422" inkscape:connector-curvature="0" d="M14.226,2.402l1.816-0.106V0.159l4.275,3.562l-4.275,3.562V5.146
		c-2.992,0-5.533,1.057-7.623,3.17c-1.781,1.733-2.803,3.799-3.063,6.198h2.137v1.247c0.048-2.303,0.879-4.262,2.494-5.877
		c1.662-1.662,3.681-2.493,6.055-2.493c2.375,0,4.394,0.831,6.056,2.493s2.493,3.681,2.493,6.056c0,2.375-0.831,4.394-2.493,6.056
		s-3.682,2.493-6.056,2.493c-2.374,0-4.393-0.831-6.055-2.493c-1.615-1.614-2.446-3.573-2.494-5.877v1.247H2.364L2.4,15.938
		c0-3.799,1.33-7.017,3.99-9.653C8.598,4.053,11.21,2.759,14.226,2.402"/>
</g>
<g id="Ebene_1">
</g>
</svg>
