<?xml version="1.0" encoding="iso-8859-1"?>
<!-- Generator: Adobe Illustrator 16.0.0, SVG Export Plug-In . SVG Version: 6.00 Build 0)  -->
<!DOCTYPE svg PUBLIC "-//W3C//DTD SVG 1.1//EN" "http://www.w3.org/Graphics/SVG/1.1/DTD/svg11.dtd">
<svg version="1.1" xmlns="http://www.w3.org/2000/svg" xmlns:xlink="http://www.w3.org/1999/xlink" x="0px" y="0px" width="32px"
	 height="32px" viewBox="0 0 32 32" style="enable-background:new 0 0 32 32;" xml:space="preserve">
<g id="stick-move-lb">
	<path id="path6420" inkscape:connector-curvature="0" d="M21.992,9.876c1.661,1.662,2.493,3.681,2.493,6.056
		c0,2.375-0.832,4.394-2.493,6.055c-1.663,1.663-3.682,2.494-6.056,2.494s-4.394-0.831-6.056-2.494
		c-1.615-1.614-2.446-3.573-2.494-5.876v1.247H5.25c0.262,2.398,1.283,4.476,3.064,6.233c2.089,2.092,4.63,3.135,7.623,3.135v-2.138
		l4.275,3.563l-4.275,3.563v-2.138c-3.799,0-7.018-1.317-9.653-3.954c-2.659-2.659-3.99-5.889-3.99-9.688
		c0-0.404,0.143-0.737,0.428-0.998c0.261-0.285,0.593-0.427,0.997-0.427h3.669v1.247c0.048-2.303,0.878-4.262,2.494-5.877
		c1.662-1.662,3.681-2.494,6.056-2.494S20.329,8.214,21.992,9.876"/>
</g>
<g id="Ebene_1">
</g>
</svg>
