<?xml version="1.0" encoding="iso-8859-1"?>
<!-- Generator: Adobe Illustrator 16.0.0, SVG Export Plug-In . SVG Version: 6.00 Build 0)  -->
<!DOCTYPE svg PUBLIC "-//W3C//DTD SVG 1.1//EN" "http://www.w3.org/Graphics/SVG/1.1/DTD/svg11.dtd">
<svg version="1.1" xmlns="http://www.w3.org/2000/svg" xmlns:xlink="http://www.w3.org/1999/xlink" x="0px" y="0px" width="32px"
	 height="32px" viewBox="0 0 32 32" style="enable-background:new 0 0 32 32;" xml:space="preserve">
<g id="stick-move-bt-alt">
	<path id="path6362" inkscape:connector-curvature="0" d="M2.364,15.967c0-3.799,1.33-7.018,3.99-9.653
		c2.636-2.66,5.853-3.99,9.653-3.99V0.187l4.275,3.562l-4.275,3.562V5.174c-2.992,0-5.534,1.057-7.623,3.17
		c-2.113,2.089-3.17,4.631-3.17,7.623c0,2.992,1.056,5.545,3.17,7.659c1.734,1.757,3.799,2.775,6.198,3.063v-2.28
		c-1.757-0.262-3.301-1.056-4.631-2.386c-1.662-1.663-2.494-3.683-2.494-6.056c0-2.375,0.832-4.394,2.494-6.056
		s3.681-2.494,6.056-2.494c2.375,0,4.393,0.832,6.055,2.494c1.663,1.662,2.494,3.681,2.494,6.056c0,2.374-0.831,4.393-2.494,6.056
		c-1.33,1.327-2.873,2.122-4.631,2.386v5.236l-1.424-0.036c-3.799,0-7.018-1.317-9.653-3.953
		C3.694,22.997,2.364,19.766,2.364,15.967"/>
</g>
<g id="Ebene_1">
</g>
</svg>
