<?xml version="1.0" encoding="iso-8859-1"?>
<!-- Generator: Adobe Illustrator 16.0.0, SVG Export Plug-In . SVG Version: 6.00 Build 0)  -->
<!DOCTYPE svg PUBLIC "-//W3C//DTD SVG 1.1//EN" "http://www.w3.org/Graphics/SVG/1.1/DTD/svg11.dtd">
<svg version="1.1" xmlns="http://www.w3.org/2000/svg" xmlns:xlink="http://www.w3.org/1999/xlink" x="0px" y="0px" width="32px"
	 height="32px" viewBox="0 0 32 32" style="enable-background:new 0 0 32 32;" xml:space="preserve">
<g id="stick-move-rl-alt">
	<path id="path6332" inkscape:connector-curvature="0" d="M2.364,15.938c0-3.799,1.33-7.017,3.99-9.653
		c2.636-2.66,5.853-3.99,9.653-3.99s7.03,1.33,9.689,3.99c2.636,2.636,3.954,5.853,3.954,9.653l0.037,1.425h-5.238
		c-0.261,1.759-1.054,3.303-2.387,4.631c-1.662,1.662-3.68,2.493-6.055,2.493c-2.375,0-4.394-0.831-6.056-2.493
		s-2.494-3.681-2.494-6.056s0.832-4.394,2.494-6.056s3.681-2.493,6.056-2.493c2.375,0,4.393,0.831,6.055,2.493
		c1.33,1.331,2.125,2.874,2.387,4.631h2.279c-0.284-2.398-1.306-4.465-3.063-6.198c-2.114-2.114-4.666-3.17-7.659-3.17
		c-2.992,0-5.534,1.057-7.623,3.17c-2.113,2.089-3.17,4.631-3.17,7.623h2.137L3.79,20.213l-3.563-4.274H2.364"/>
</g>
<g id="Ebene_1">
</g>
</svg>
