<?xml version="1.0" encoding="iso-8859-1"?>
<!-- Generator: Adobe Illustrator 16.0.0, SVG Export Plug-In . SVG Version: 6.00 Build 0)  -->
<!DOCTYPE svg PUBLIC "-//W3C//DTD SVG 1.1//EN" "http://www.w3.org/Graphics/SVG/1.1/DTD/svg11.dtd">
<svg version="1.1" xmlns="http://www.w3.org/2000/svg" xmlns:xlink="http://www.w3.org/1999/xlink" x="0px" y="0px" width="32px"
	 height="32px" viewBox="0 0 32 32" style="enable-background:new 0 0 32 32;" xml:space="preserve">
<g id="stick-move-bl">
	<path id="path6376" inkscape:connector-curvature="0" d="M16.007,7.418c2.375,0,4.393,0.832,6.055,2.494
		c1.663,1.662,2.494,3.681,2.494,6.056c0,2.374-0.831,4.393-2.494,6.056c-1.615,1.613-3.574,2.445-5.877,2.493h1.246v5.129
		l-1.424-0.038c-3.799,0-7.018-1.318-9.653-3.953c-2.66-2.66-3.99-5.891-3.99-9.689H0.227L3.79,11.69l3.562,4.274H5.214
		c0,2.994,1.056,5.548,3.17,7.658c1.734,1.758,3.799,2.777,6.198,3.064v-2.174h1.247c-2.303-0.047-4.262-0.878-5.877-2.493
		c-1.662-1.663-2.494-3.681-2.494-6.056c0-2.375,0.832-4.394,2.494-6.056C11.614,8.248,13.633,7.418,16.007,7.418"/>
</g>
<g id="Ebene_1">
</g>
</svg>
