<?xml version="1.0" encoding="iso-8859-1"?>
<!-- Generator: Adobe Illustrator 16.0.0, SVG Export Plug-In . SVG Version: 6.00 Build 0)  -->
<!DOCTYPE svg PUBLIC "-//W3C//DTD SVG 1.1//EN" "http://www.w3.org/Graphics/SVG/1.1/DTD/svg11.dtd">
<svg version="1.1" xmlns="http://www.w3.org/2000/svg" xmlns:xlink="http://www.w3.org/1999/xlink" x="0px" y="0px" width="32px"
	 height="32px" viewBox="0 0 32 32" style="enable-background:new 0 0 32 32;" xml:space="preserve">
<g id="stick-move-br">
	<path id="path6370" inkscape:connector-curvature="0" d="M7.352,16.003c0-2.375,0.831-4.394,2.493-6.056
		c1.662-1.662,3.681-2.493,6.056-2.493c2.375,0,4.394,0.831,6.056,2.493c1.662,1.662,2.493,3.681,2.493,6.056
		c0,2.374-0.831,4.394-2.493,6.056c-1.614,1.614-3.573,2.445-5.877,2.493h1.247v2.173c2.398-0.285,4.476-1.307,6.233-3.063
		c2.092-2.114,3.135-4.666,3.135-7.658h-2.137l3.562-4.274l3.563,4.274h-2.138c0,3.799-1.317,7.029-3.953,9.688
		c-2.66,2.636-5.89,3.954-9.689,3.954c-0.404,0-0.736-0.131-0.997-0.392c-0.286-0.285-0.428-0.63-0.428-1.033v-3.669h1.247
		c-2.303-0.048-4.262-0.879-5.877-2.493C8.183,20.396,7.352,18.377,7.352,16.003"/>
</g>
<g id="Ebene_1">
</g>
</svg>
