<?xml version="1.0" encoding="iso-8859-1"?>
<!-- Generator: Adobe Illustrator 16.0.0, SVG Export Plug-In . SVG Version: 6.00 Build 0)  -->
<!DOCTYPE svg PUBLIC "-//W3C//DTD SVG 1.1//EN" "http://www.w3.org/Graphics/SVG/1.1/DTD/svg11.dtd">
<svg version="1.1" xmlns="http://www.w3.org/2000/svg" xmlns:xlink="http://www.w3.org/1999/xlink" x="0px" y="0px" width="32px"
	 height="32px" viewBox="0 0 32 32" style="enable-background:new 0 0 32 32;" xml:space="preserve">
<g id="stick-right-top">
	<path d="M20.69,11.063c-0.922-0.657-2.436-0.987-4.543-0.987h-5.085v12.837h3.012v-4.146h2.073l3.012,4.146h3.753l-3.406-4.592
		c1.679-0.625,2.518-1.942,2.518-3.95C22.023,12.856,21.579,11.754,20.69,11.063 M27.158,4.793C30.252,7.886,31.8,11.622,31.8,16
		s-1.548,8.099-4.642,11.159C24.097,30.253,20.377,31.8,16,31.8c-4.378,0-8.114-1.547-11.208-4.641C1.73,24.099,0.2,20.378,0.2,16
		S1.73,7.886,4.792,4.793C7.886,1.73,11.622,0.2,16,0.2C20.377,0.2,24.097,1.73,27.158,4.793 M18.419,15.852
		c-0.395,0.33-1.119,0.494-2.172,0.494h-2.173v-3.851h2.222l2.073,0.395c0.396,0.264,0.594,0.758,0.594,1.48
		C18.963,15.029,18.781,15.522,18.419,15.852"/>
</g>
<g id="Ebene_1">
</g>
</svg>
