<?xml version="1.0" encoding="iso-8859-1"?>
<!-- Generator: Adobe Illustrator 16.0.0, SVG Export Plug-In . SVG Version: 6.00 Build 0)  -->
<!DOCTYPE svg PUBLIC "-//W3C//DTD SVG 1.1//EN" "http://www.w3.org/Graphics/SVG/1.1/DTD/svg11.dtd">
<svg version="1.1" xmlns="http://www.w3.org/2000/svg" xmlns:xlink="http://www.w3.org/1999/xlink" x="0px" y="0px" width="32px"
	 height="32px" viewBox="0 0 32 32" style="enable-background:new 0 0 32 32;" xml:space="preserve">
<g id="stick-tilt-right">
	<path id="path6644" inkscape:connector-curvature="0" d="M29.021,10.875c1.841,3.425,1.986,6.434,0.432,9.023
		c-1.41,2.618-4.086,3.985-8.03,4.102l0.044,0.042c-1.642,0.058-3.31-0.144-5.009-0.602l-3.841,6.646
		c-0.489,0.837-1.194,1.384-2.116,1.64h-0.086c-0.922,0.173-1.771,0.045-2.547-0.387l-4.49-2.59
		c-0.807-0.488-1.338-1.152-1.598-1.987L1.736,26.59c-0.2-0.892-0.071-1.742,0.389-2.548l3.843-6.646
		c-1.238-1.238-2.245-2.591-3.022-4.059C1.132,9.913,1.003,6.92,2.558,4.358c1.438-2.647,4.101-4.029,7.986-4.145
		c3.481-0.144,7.021,0.834,10.619,2.937C24.789,5.221,27.408,7.797,29.021,10.875"/>
</g>
<g id="Ebene_1">
</g>
</svg>
