<?xml version="1.0" encoding="iso-8859-1"?>
<!-- Generator: Adobe Illustrator 16.0.0, SVG Export Plug-In . SVG Version: 6.00 Build 0)  -->
<!DOCTYPE svg PUBLIC "-//W3C//DTD SVG 1.1//EN" "http://www.w3.org/Graphics/SVG/1.1/DTD/svg11.dtd">
<svg version="1.1" xmlns="http://www.w3.org/2000/svg" xmlns:xlink="http://www.w3.org/1999/xlink" x="0px" y="0px" width="32px"
	 height="32px" viewBox="0 0 32 32" style="enable-background:new 0 0 32 32;" xml:space="preserve">
<g id="stick-move-lr">
	<path id="path6338" inkscape:connector-curvature="0" d="M6.39,6.286c2.636-2.66,5.854-3.99,9.653-3.99s7.029,1.33,9.69,3.99
		c2.635,2.636,3.955,5.853,3.955,9.653h2.138l-3.563,4.274l-3.562-4.274h2.137c0-2.992-1.046-5.533-3.135-7.623
		c-2.112-2.114-4.666-3.17-7.658-3.17s-5.533,1.057-7.623,3.17c-1.781,1.733-2.803,3.799-3.063,6.198h2.244
		c0.261-1.757,1.056-3.3,2.387-4.631c1.662-1.662,3.681-2.493,6.055-2.493c2.375,0,4.395,0.831,6.056,2.493
		c1.662,1.662,2.493,3.681,2.493,6.056c0,2.375-0.831,4.394-2.493,6.056c-1.661,1.662-3.681,2.493-6.056,2.493
		c-2.375,0-4.393-0.831-6.055-2.493c-1.331-1.328-2.125-2.872-2.387-4.631H2.364L2.4,15.938C2.4,12.139,3.73,8.921,6.39,6.286"/>
</g>
<g id="Ebene_1">
</g>
</svg>
