<?xml version="1.0" encoding="iso-8859-1"?>
<!-- Generator: Adobe Illustrator 16.0.0, SVG Export Plug-In . SVG Version: 6.00 Build 0)  -->
<!DOCTYPE svg PUBLIC "-//W3C//DTD SVG 1.1//EN" "http://www.w3.org/Graphics/SVG/1.1/DTD/svg11.dtd">
<svg version="1.1" xmlns="http://www.w3.org/2000/svg" xmlns:xlink="http://www.w3.org/1999/xlink" x="0px" y="0px" width="32px"
	 height="32px" viewBox="0 0 32 32" style="enable-background:new 0 0 32 32;" xml:space="preserve">
<g id="tablet">
	<path id="path5187" inkscape:connector-curvature="0" d="M22.971,5.776H9.029v18.588h13.941V5.776 M27.71,1.037
		c0.562,0.558,0.837,1.208,0.837,1.952v26.023c0,0.775-0.278,1.44-0.837,1.999v0.046c-0.557,0.495-1.208,0.743-1.951,0.743H6.241
		c-0.774,0-1.425-0.248-1.952-0.743l-0.046-0.046c-0.527-0.559-0.79-1.224-0.79-1.999V3.035c0-0.774,0.263-1.425,0.79-1.952V1.037
		C4.801,0.479,5.467,0.2,6.241,0.2h19.518C26.502,0.2,27.153,0.479,27.71,1.037"/>
</g>
<g id="Ebene_1">
</g>
</svg>
