<?xml version="1.0" encoding="iso-8859-1"?>
<!-- Generator: Adobe Illustrator 16.0.0, SVG Export Plug-In . SVG Version: 6.00 Build 0)  -->
<!DOCTYPE svg PUBLIC "-//W3C//DTD SVG 1.1//EN" "http://www.w3.org/Graphics/SVG/1.1/DTD/svg11.dtd">
<svg version="1.1" xmlns="http://www.w3.org/2000/svg" xmlns:xlink="http://www.w3.org/1999/xlink" x="0px" y="0px" width="32px"
	 height="32px" viewBox="0 0 32 32" style="enable-background:new 0 0 32 32;" xml:space="preserve">
<g id="times">
	<path d="M0.2,7.679c0-0.597,0.21-1.089,0.631-1.475l5.373-5.372C6.59,0.411,7.082,0.2,7.678,0.2s1.106,0.21,1.527,0.632L16,7.679
		l6.899-6.847C23.285,0.411,23.776,0.2,24.374,0.2c0.562,0,1.054,0.21,1.475,0.632l5.372,5.372C31.606,6.59,31.8,7.082,31.8,7.679
		c0,0.562-0.193,1.053-0.579,1.475L24.374,16l6.847,6.899c0.386,0.386,0.579,0.86,0.579,1.422c0,0.597-0.193,1.106-0.579,1.527
		l-5.372,5.372c-0.421,0.386-0.913,0.579-1.475,0.579c-0.598,0-1.089-0.193-1.475-0.579L16,24.321l-6.794,6.899
		C8.784,31.606,8.275,31.8,7.678,31.8s-1.088-0.193-1.474-0.579l-5.373-5.372C0.411,25.428,0.2,24.918,0.2,24.321
		c0-0.562,0.21-1.036,0.631-1.422L7.678,16L0.832,9.153C0.411,8.732,0.2,8.24,0.2,7.679"/>
</g>
<g id="Ebene_1">
</g>
</svg>
