<?xml version="1.0" encoding="iso-8859-1"?>
<!-- Generator: Adobe Illustrator 16.0.0, SVG Export Plug-In . SVG Version: 6.00 Build 0)  -->
<!DOCTYPE svg PUBLIC "-//W3C//DTD SVG 1.1//EN" "http://www.w3.org/Graphics/SVG/1.1/DTD/svg11.dtd">
<svg version="1.1" xmlns="http://www.w3.org/2000/svg" xmlns:xlink="http://www.w3.org/1999/xlink" x="0px" y="0px" width="32px"
	 height="32px" viewBox="0 0 32 32" style="enable-background:new 0 0 32 32;" xml:space="preserve">
<g id="times-circle">
	<path d="M27.844,5.564l-0.692-0.688C24.086,1.824,20.394,0.265,16.074,0.2L16.025,0.25h-0.049c-2.374,0-4.534,0.443-6.478,1.328
		C7.784,2.365,6.217,3.465,4.8,4.876c-3.1,3.084-4.632,6.809-4.6,11.173c0,4.332,1.533,8.023,4.6,11.075l0.691,0.689
		c2.967,2.593,6.461,3.921,10.484,3.986c4.383-0.032,8.126-1.592,11.225-4.676c1.418-1.411,2.505-2.97,3.264-4.677
		C31.354,20.511,31.8,18.362,31.8,16C31.8,11.963,30.48,8.485,27.844,5.564z M23.442,19.691c0.396,0.393,0.594,0.853,0.594,1.378
		c0,0.558-0.164,1.002-0.495,1.329l-1.433,1.429c-0.396,0.393-0.874,0.59-1.435,0.59c-0.562,0.033-1.038-0.148-1.435-0.542
		l-3.461-3.494l-3.461,3.446c-0.396,0.393-0.874,0.59-1.435,0.59c-0.593,0-1.055-0.163-1.384-0.492l-1.435-1.428
		c-0.363-0.36-0.543-0.837-0.543-1.428c0-0.525,0.197-0.985,0.593-1.378l3.462-3.445l-3.511-3.495
		c-0.396-0.394-0.577-0.886-0.543-1.477c0.033-0.492,0.23-0.936,0.593-1.33l1.435-1.427c0.362-0.328,0.807-0.525,1.334-0.591
		c0.527,0.033,0.989,0.247,1.385,0.641l3.511,3.495l3.511-3.495c0.396-0.394,0.857-0.591,1.385-0.591
		c0.527,0.033,0.989,0.23,1.384,0.591l1.435,1.426c0.363,0.395,0.544,0.837,0.544,1.33c0.032,0.525-0.148,0.984-0.544,1.377
		l-3.511,3.496L23.442,19.691z"/>
</g>
<g id="Ebene_1">
</g>
</svg>
