<?xml version="1.0" encoding="iso-8859-1"?>
<!-- Generator: Adobe Illustrator 16.0.0, SVG Export Plug-In . SVG Version: 6.00 Build 0)  -->
<!DOCTYPE svg PUBLIC "-//W3C//DTD SVG 1.1//EN" "http://www.w3.org/Graphics/SVG/1.1/DTD/svg11.dtd">
<svg version="1.1" xmlns="http://www.w3.org/2000/svg" xmlns:xlink="http://www.w3.org/1999/xlink" x="0px" y="0px" width="32px"
	 height="32px" viewBox="0 0 32 32" style="enable-background:new 0 0 32 32;" xml:space="preserve">
<g id="top">
	<path id="path6610" inkscape:connector-curvature="0" d="M29.306,30.137c0,0.471-0.167,0.873-0.499,1.206
		c-0.333,0.305-0.721,0.457-1.164,0.457H4.357c-0.471,0-0.873-0.152-1.206-0.457c-0.305-0.333-0.457-0.735-0.457-1.206v-3.285
		c0-0.472,0.152-0.873,0.457-1.206c0.333-0.332,0.735-0.498,1.206-0.498h23.285c0.443,0,0.831,0.166,1.164,0.498
		c0.332,0.333,0.499,0.722,0.499,1.165V30.137 M27.643,13.505c0,0.471-0.167,0.873-0.499,1.206
		c-0.333,0.304-0.734,0.457-1.206,0.457h-4.948v6.653c0,0.471-0.166,0.873-0.498,1.206c-0.333,0.304-0.734,0.457-1.206,0.457h-6.611
		c-0.472,0-0.873-0.153-1.206-0.457c-0.306-0.333-0.457-0.735-0.457-1.206v-6.653h-4.99c-0.471,0-0.873-0.153-1.206-0.457
		c-0.305-0.333-0.457-0.735-0.457-1.206v-1.663L16,0.2l11.643,11.642V13.505"/>
</g>
<g id="Ebene_1">
</g>
</svg>
