<?xml version="1.0" encoding="iso-8859-1"?>
<!-- Generator: Adobe Illustrator 16.0.0, SVG Export Plug-In . SVG Version: 6.00 Build 0)  -->
<!DOCTYPE svg PUBLIC "-//W3C//DTD SVG 1.1//EN" "http://www.w3.org/Graphics/SVG/1.1/DTD/svg11.dtd">
<svg version="1.1" xmlns="http://www.w3.org/2000/svg" xmlns:xlink="http://www.w3.org/1999/xlink" x="0px" y="0px" width="32px"
	 height="32px" viewBox="0 0 32 32" style="enable-background:new 0 0 32 32;" xml:space="preserve">
<g id="trash">
	<path id="path5385" inkscape:connector-curvature="0" d="M25.028,31.8H6.972c-0.512,0-0.948-0.166-1.31-0.496
		c-0.331-0.361-0.496-0.798-0.496-1.31V11.847h21.668v18.147c0,0.512-0.181,0.948-0.541,1.31C25.932,31.634,25.51,31.8,25.028,31.8
		 M20.515,2.909h4.514c0.481,0,0.903,0.181,1.265,0.542c0.358,0.361,0.541,0.783,0.541,1.264v5.327H5.166V4.759
		c0-0.511,0.165-0.948,0.496-1.309c0.361-0.361,0.798-0.542,1.31-0.542h4.515V2.051c0-0.511,0.165-0.948,0.496-1.309
		C12.344,0.381,12.78,0.2,13.292,0.2h5.417c0.481,0,0.902,0.181,1.264,0.542c0.361,0.361,0.542,0.783,0.542,1.264V2.909"/>
</g>
<g id="Ebene_1">
</g>
</svg>
