<?xml version="1.0" encoding="iso-8859-1"?>
<!-- Generator: Adobe Illustrator 16.0.0, SVG Export Plug-In . SVG Version: 6.00 Build 0)  -->
<!DOCTYPE svg PUBLIC "-//W3C//DTD SVG 1.1//EN" "http://www.w3.org/Graphics/SVG/1.1/DTD/svg11.dtd">
<svg version="1.1" xmlns="http://www.w3.org/2000/svg" xmlns:xlink="http://www.w3.org/1999/xlink" x="0px" y="0px" width="32px"
	 height="32px" viewBox="0 0 32 32" style="enable-background:new 0 0 32 32;" xml:space="preserve">
<g id="trash-alt">
	<path id="path5383" inkscape:connector-curvature="0" d="M6.811,30.16V13.689h19.667v16.472c0,0.463-0.164,0.859-0.492,1.187
		c-0.327,0.301-0.709,0.452-1.146,0.452H8.45c-0.464,0-0.861-0.151-1.188-0.452C6.962,31.02,6.811,30.624,6.811,30.16 M5.706,6.191
		c0.219-0.437,0.546-0.71,0.983-0.819l3.974-1.065l-0.164-0.738c-0.137-0.463-0.095-0.887,0.123-1.27
		c0.219-0.41,0.56-0.669,1.024-0.778l4.752-1.27c0.41-0.109,0.819-0.042,1.229,0.205c0.385,0.191,0.631,0.505,0.737,0.942
		l0.205,0.778l3.974-1.024c0.41-0.137,0.836-0.082,1.272,0.164c0.383,0.219,0.631,0.547,0.736,0.983l1.229,4.671L6.813,12.05
		L5.584,7.42C5.473,6.956,5.514,6.546,5.706,6.191"/>
</g>
<g id="Ebene_1">
</g>
</svg>
