<?xml version="1.0" encoding="iso-8859-1"?>
<!-- Generator: Adobe Illustrator 16.0.0, SVG Export Plug-In . SVG Version: 6.00 Build 0)  -->
<!DOCTYPE svg PUBLIC "-//W3C//DTD SVG 1.1//EN" "http://www.w3.org/Graphics/SVG/1.1/DTD/svg11.dtd">
<svg version="1.1" xmlns="http://www.w3.org/2000/svg" xmlns:xlink="http://www.w3.org/1999/xlink" x="0px" y="0px" width="32px"
	 height="32px" viewBox="0 0 32 32" style="enable-background:new 0 0 32 32;" xml:space="preserve">
<g id="twitter">
	<path id="_x3C_Zusammengesetzter_Pfad_x3E__2_" d="M14.549,9.958c0-1.978,0.704-3.674,2.11-5.087
		c1.336-1.415,3.007-2.12,5.012-2.12c0.985,0,1.952,0.211,2.9,0.636l1.847,1.219l3.007-1.219l0.634-0.159l0.579,0.265l0.371,0.53
		l-0.053,0.636l-0.476,1.06h0.528l0.526,0.318L31.8,6.671l-0.159,0.636c-0.808,1.202-1.76,2.243-2.85,3.127V10.7
		c0,2.19-0.386,4.363-1.158,6.519c-0.845,2.19-2.024,4.17-3.536,5.936c-1.653,1.873-3.551,3.34-5.696,4.399
		c-2.427,1.131-5.064,1.696-7.914,1.696c-1.758,0-3.499-0.266-5.223-0.796h0.053c-1.653-0.494-3.218-1.199-4.694-2.119L0.2,25.805
		v-0.688l0.422-0.53l0.686-0.212l1.371,0.053c1.266,0,2.515-0.212,3.747-0.637l-0.054,0.054l1.108-0.477l-1.478-0.901
		c-1.196-0.919-2.022-2.102-2.479-3.552c-0.071-0.246-0.054-0.477,0.052-0.688l0.211-0.318L2.997,17.06
		c-1.091-1.343-1.636-2.88-1.636-4.61v-0.054l0.264-0.636l0.581-0.37h0.053c-0.563-1.06-0.844-2.174-0.844-3.34
		c0-1.272,0.316-2.475,0.949-3.604c0.106-0.211,0.264-0.371,0.475-0.477l0.687-0.053l0.58,0.371C5.545,6.054,7.27,7.485,9.273,8.58
		L9.221,8.527c1.689,0.883,3.464,1.448,5.328,1.696V9.958z"/>
</g>
<g id="Ebene_1">
</g>
</svg>
