<?xml version="1.0" encoding="iso-8859-1"?>
<!-- Generator: Adobe Illustrator 16.0.0, SVG Export Plug-In . SVG Version: 6.00 Build 0)  -->
<!DOCTYPE svg PUBLIC "-//W3C//DTD SVG 1.1//EN" "http://www.w3.org/Graphics/SVG/1.1/DTD/svg11.dtd">
<svg version="1.1" xmlns="http://www.w3.org/2000/svg" xmlns:xlink="http://www.w3.org/1999/xlink" x="0px" y="0px" width="32px"
	 height="32px" viewBox="0 0 32 32" style="enable-background:new 0 0 32 32;" xml:space="preserve">
<g id="unlock">
	<path id="path5393" inkscape:connector-curvature="0" d="M19.326,25.147v-3.326h-6.652v3.326h1.663v3.326h3.326v-3.326H19.326
		 M22.652,9.347V6.894h3.326v2.453H22.652 M25.979,3.526v3.326h-3.326V3.526H9.347v11.642h19.959v14.968
		c0,0.471-0.167,0.873-0.499,1.206c-0.333,0.305-0.721,0.457-1.164,0.457H4.357c-0.471,0-0.873-0.152-1.206-0.457
		c-0.305-0.333-0.457-0.735-0.457-1.206V15.168h3.326V3.526c0-0.915,0.318-1.691,0.956-2.328C7.643,0.533,8.433,0.2,9.347,0.2
		h13.306c0.915,0,1.691,0.333,2.328,0.998C25.646,1.863,25.979,2.64,25.979,3.526"/>
</g>
<g id="Ebene_1">
</g>
</svg>
