<?xml version="1.0" encoding="iso-8859-1"?>
<!-- Generator: Adobe Illustrator 16.0.0, SVG Export Plug-In . SVG Version: 6.00 Build 0)  -->
<!DOCTYPE svg PUBLIC "-//W3C//DTD SVG 1.1//EN" "http://www.w3.org/Graphics/SVG/1.1/DTD/svg11.dtd">
<svg version="1.1" xmlns="http://www.w3.org/2000/svg" xmlns:xlink="http://www.w3.org/1999/xlink" x="0px" y="0px" width="32px"
	 height="32px" viewBox="0 0 32 32" style="enable-background:new 0 0 32 32;" xml:space="preserve">
<g id="user">
	<path id="path5489" inkscape:connector-curvature="0" d="M21.281,12.297c1.646,0.691,3.146,1.679,4.494,2.962
		c2.697,2.6,4.051,5.761,4.051,9.48c0,1.975-1.35,3.641-4.051,4.987c-2.666,1.382-5.926,2.073-9.777,2.073
		c-3.819,0-7.077-0.691-9.776-2.073c-2.666-1.35-4.016-3.013-4.049-4.987c0-3.722,1.35-6.883,4.049-9.483
		c1.35-1.283,2.847-2.271,4.493-2.962c-1.382-1.382-2.074-3.027-2.074-4.938c0-1.975,0.724-3.654,2.172-5.036
		c1.416-1.413,3.144-2.12,5.185-2.12c2.074,0,3.82,0.708,5.234,2.123c1.449,1.382,2.172,3.061,2.172,5.036
		C23.404,9.269,22.697,10.915,21.281,12.297"/>
</g>
<g id="Ebene_1">
</g>
</svg>
