<?xml version="1.0" encoding="iso-8859-1"?>
<!-- Generator: Adobe Illustrator 16.0.0, SVG Export Plug-In . SVG Version: 6.00 Build 0)  -->
<!DOCTYPE svg PUBLIC "-//W3C//DTD SVG 1.1//EN" "http://www.w3.org/Graphics/SVG/1.1/DTD/svg11.dtd">
<svg version="1.1" xmlns="http://www.w3.org/2000/svg" xmlns:xlink="http://www.w3.org/1999/xlink" x="0px" y="0px" width="32px"
	 height="32px" viewBox="0 0 32 32" style="enable-background:new 0 0 32 32;" xml:space="preserve">
<g id="users-alt">
	<path id="path5579" inkscape:connector-curvature="0" d="M9.885,7.511C9.55,8.308,9.383,9.183,9.383,10.135
		c0,0.694,0.103,1.363,0.309,2.006l-0.115,0.116l0.192,0.115l0.193,0.502c-0.565,0.386-1.094,0.822-1.582,1.312v0.039
		c-2.136,2.135-3.202,4.72-3.202,7.755v0.155c-1.106-0.155-2.097-0.476-2.972-0.965c-1.312-0.669-1.98-1.505-2.006-2.508v-0.039
		c0-1.88,0.669-3.487,2.006-4.823c0.644-0.694,1.376-1.208,2.2-1.543c-0.695-0.721-1.042-1.569-1.042-2.547
		c0-1.003,0.347-1.865,1.042-2.585c0.72-0.721,1.581-1.08,2.585-1.08c1.003,0,1.865,0.359,2.585,1.08L9.885,7.511 M20.187,13.839
		c0.798,0.437,1.53,0.989,2.199,1.659c1.777,1.801,2.662,3.96,2.662,6.481v0.039v0.231c-0.103,1.237-0.99,2.289-2.662,3.166
		c-1.75,0.924-3.872,1.389-6.365,1.389c-2.495,0-4.631-0.465-6.405-1.389c-1.646-0.877-2.521-1.929-2.623-3.166v-0.231v-0.039
		c0-2.521,0.874-4.681,2.623-6.481c0.694-0.67,1.428-1.222,2.199-1.659l0.733-0.348c-0.9-0.926-1.351-2.045-1.351-3.356
		c0-1.364,0.477-2.521,1.428-3.473c0.926-0.979,2.058-1.467,3.396-1.467c1.337,0,2.482,0.488,3.434,1.467
		c0.926,0.951,1.39,2.108,1.39,3.473c0,1.312-0.45,2.431-1.351,3.356L20.187,13.839 M22.193,7.511l0.306-0.386
		c0.722-0.721,1.569-1.08,2.549-1.08c1.004,0,1.864,0.359,2.585,1.08c0.694,0.721,1.042,1.582,1.042,2.585
		c0,0.978-0.348,1.826-1.042,2.547c0.797,0.335,1.531,0.849,2.199,1.543c1.313,1.337,1.968,2.945,1.968,4.823v0.039
		c0,1.003-0.655,1.839-1.968,2.508c-0.875,0.489-1.865,0.81-2.971,0.965v-0.116v-0.039c0-3.035-1.067-5.62-3.202-7.755v-0.039
		l-1.582-1.312l0.231-0.54l0.154-0.077l-0.116-0.078c0.209-0.668,0.309-1.35,0.309-2.044C22.655,9.183,22.501,8.308,22.193,7.511"/>
</g>
<g id="Ebene_1">
</g>
</svg>
