<?xml version="1.0" encoding="iso-8859-1"?>
<!-- Generator: Adobe Illustrator 16.0.0, SVG Export Plug-In . SVG Version: 6.00 Build 0)  -->
<!DOCTYPE svg PUBLIC "-//W3C//DTD SVG 1.1//EN" "http://www.w3.org/Graphics/SVG/1.1/DTD/svg11.dtd">
<svg version="1.1" xmlns="http://www.w3.org/2000/svg" xmlns:xlink="http://www.w3.org/1999/xlink" x="0px" y="0px" width="32px"
	 height="32px" viewBox="0 0 32 32" style="enable-background:new 0 0 32 32;" xml:space="preserve">
<g id="users">
	<path id="path5581" inkscape:connector-curvature="0" d="M12.794,13.473c1.083,0.451,2.076,1.129,2.979,2.031l0.226,0.226
		c1.625,1.744,2.438,3.837,2.438,6.274c0,1.294-0.813,2.389-2.438,3.292l-0.226,0.136c-1.775,0.935-3.927,1.401-6.454,1.401
		c-2.528,0-4.681-0.467-6.455-1.398c-1.746-0.934-2.634-2.076-2.663-3.431c0-2.559,0.887-4.726,2.663-6.5
		c0.902-0.902,1.88-1.58,2.934-2.031c-0.902-0.934-1.354-2.063-1.354-3.386c0-1.385,0.48-2.543,1.443-3.476
		C6.82,5.648,7.964,5.167,9.318,5.167c1.354,0,2.512,0.481,3.476,1.444c0.932,0.933,1.398,2.091,1.398,3.476
		C14.192,11.411,13.726,12.54,12.794,13.473 M17.804,10.087c0-1.385,0.481-2.543,1.444-3.476c0.963-0.963,2.106-1.444,3.431-1.444
		c1.354,0,2.513,0.481,3.479,1.444c0.933,0.933,1.4,2.091,1.4,3.476c0,1.323-0.468,2.452-1.4,3.386
		c1.083,0.451,2.078,1.129,2.98,2.031c1.775,1.774,2.662,3.941,2.662,6.5c0,1.354-0.887,2.497-2.662,3.431
		c-1.779,0.932-3.931,1.398-6.459,1.398l-4.649-0.632c1.596-1.174,2.333-2.572,2.212-4.197c0-2.887-0.964-5.387-2.889-7.49
		c0.571-0.422,1.188-0.768,1.851-1.038C18.271,12.54,17.804,11.411,17.804,10.087"/>
</g>
<g id="Ebene_1">
</g>
</svg>
