<?xml version="1.0" encoding="iso-8859-1"?>
<!-- Generator: Adobe Illustrator 16.0.0, SVG Export Plug-In . SVG Version: 6.00 Build 0)  -->
<!DOCTYPE svg PUBLIC "-//W3C//DTD SVG 1.1//EN" "http://www.w3.org/Graphics/SVG/1.1/DTD/svg11.dtd">
<svg version="1.1" xmlns="http://www.w3.org/2000/svg" xmlns:xlink="http://www.w3.org/1999/xlink" x="0px" y="0px" width="32px"
	 height="32px" viewBox="0 0 32 32" style="enable-background:new 0 0 32 32;" xml:space="preserve">
<g id="we-heart">
	<path d="M14.419,3.08L16,4.363L2.916,17.33l-1.284-1.577C0.678,14.306,0.2,12.679,0.2,10.872c0-2.564,0.905-4.734,2.716-6.509
		C4.726,2.588,6.915,1.7,9.482,1.7C11.293,1.7,12.938,2.16,14.419,3.08z M29.085,4.363C27.273,2.588,25.103,1.7,22.567,1.7
		c-1.843,0-3.49,0.46-4.938,1.38L16,4.363L29.085,17.33l1.332-1.627c0.922-1.413,1.383-3.024,1.383-4.832
		C31.8,8.307,30.895,6.138,29.085,4.363z M4.496,18.86L16,30.3L27.554,18.86L16,7.468L4.496,18.86z"/>
</g>
<g id="Ebene_1">
</g>
</svg>
