<?xml version="1.0" encoding="iso-8859-1"?>
<!-- Generator: Adobe Illustrator 16.0.0, SVG Export Plug-In . SVG Version: 6.00 Build 0)  -->
<!DOCTYPE svg PUBLIC "-//W3C//DTD SVG 1.1//EN" "http://www.w3.org/Graphics/SVG/1.1/DTD/svg11.dtd">
<svg version="1.1" xmlns="http://www.w3.org/2000/svg" xmlns:xlink="http://www.w3.org/1999/xlink" x="0px" y="0px" width="32px"
	 height="32px" viewBox="0 0 32 32" style="enable-background:new 0 0 32 32;" xml:space="preserve">
<g id="wolfcms-alt">
	<path id="path3576" d="M15.998,0.202C7.296,0.202,0.2,7.299,0.2,16c0,8.702,7.096,15.798,15.798,15.798
		C24.699,31.798,31.8,24.702,31.8,16S24.7,0.202,15.998,0.202z M15.99,1.551c7.967,0,14.43,6.463,14.43,14.43
		c0,2.018-0.587,4.815-1.138,5.881c-0.552,1.064-1.173,0.799-1.273,0.63c-0.101-0.168-0.347-0.566-0.587-0.749
		c-0.24-0.184-0.501-0.422-1.035-0.527c-0.512-0.103-0.685-0.107-1.066-0.5c-0.266-0.273-0.362-0.521-0.222-0.654
		c0.22-0.209,0.721-0.314,0.816-0.476c0.098-0.164-1.841-2.469-2.046-2.681c-0.374-0.387-1.787-1.48-1.888-1.769
		c-0.133-0.383-0.228-1.378-0.868-2.348c-0.644-0.975-3.052-1.701-3.529-2.348c-0.475-0.644-0.808-1.349-0.979-1.677
		c-0.328-0.629-1.386-1.965-1.78-2.034c-0.13-0.023-0.318,0.019-0.46,0.095c-0.268,0.146-0.075,0.279-0.111,0.472
		C14.22,7.477,14.024,7.55,13.71,7.819c-0.325,0.279-0.407,0.364-0.741,1.027s-0.245,1.077-0.23,1.725
		c0.015,0.648-0.432,1.341-0.805,1.324c-0.374-0.017-0.429-0.245-0.556-0.459c-0.122-0.207-0.046-0.575-0.15-0.635
		c-0.109-0.063-0.397,0.253-0.555,0.512c-0.095,0.154-0.386,0.665-0.381,1.11c0.003,0.323,0.39,0.816,0.5,0.959
		s0.336,0.413,0.503,0.603c0.355,0.403,0.593,0.855,0.754,1.42c0.154,0.544-0.302,2.907-0.187,3.978
		c0.086,0.794,0.542,1.299,0.317,3.382c-0.225,2.08-0.065,4.092,0.476,5.188c0.643,1.302,0.975,2.196,0.893,2.26
		C6.743,29.05,1.556,23.114,1.556,15.98C1.556,8.014,8.023,1.551,15.99,1.551z"/>
</g>
<g id="Ebene_1">
</g>
</svg>
