<?xml version="1.0" encoding="iso-8859-1"?>
<!-- Generator: Adobe Illustrator 16.0.0, SVG Export Plug-In . SVG Version: 6.00 Build 0)  -->
<!DOCTYPE svg PUBLIC "-//W3C//DTD SVG 1.1//EN" "http://www.w3.org/Graphics/SVG/1.1/DTD/svg11.dtd">
<svg version="1.1" xmlns="http://www.w3.org/2000/svg" xmlns:xlink="http://www.w3.org/1999/xlink" x="0px" y="0px" width="32px"
	 height="32px" viewBox="0 0 32 32" style="enable-background:new 0 0 32 32;" xml:space="preserve">
<g id="wolfcms">
	<path d="M29.601,16.114c0,1.915-0.556,4.57-1.074,5.58c-0.521,1.012-1.105,0.757-1.202,0.597c-0.094-0.16-0.324-0.539-0.551-0.712
		c-0.226-0.173-0.472-0.397-0.975-0.499c-0.483-0.095-0.647-0.102-1.005-0.473c-0.253-0.261-0.34-0.495-0.209-0.622
		c0.207-0.2,0.679-0.3,0.769-0.454c0.092-0.153-1.735-2.343-1.926-2.541c-0.354-0.367-1.684-1.408-1.78-1.68
		c-0.123-0.363-0.215-1.308-0.816-2.229c-0.606-0.924-2.88-1.613-3.329-2.227c-0.448-0.611-0.761-1.281-0.924-1.594
		c-0.31-0.597-1.305-1.862-1.677-1.928c-0.122-0.021-0.299,0.015-0.431,0.088c-0.252,0.138-0.071,0.266-0.105,0.448
		c-0.032,0.172-0.217,0.242-0.513,0.498c-0.306,0.265-0.383,0.347-0.698,0.976c-0.315,0.628-0.23,1.023-0.216,1.638
		c0.016,0.616-0.409,1.272-0.761,1.256c-0.353-0.015-0.402-0.235-0.521-0.439c-0.116-0.196-0.045-0.542-0.143-0.599
		c-0.102-0.06-0.375,0.24-0.524,0.486c-0.087,0.146-0.363,0.628-0.358,1.051c0.003,0.306,0.366,0.775,0.47,0.911
		c0.104,0.135,0.32,0.393,0.478,0.573c0.334,0.382,0.557,0.811,0.708,1.346c0.146,0.516-0.282,2.76-0.174,3.774
		c0.082,0.756,0.512,1.234,0.299,3.213c-0.212,1.974-0.064,3.883,0.446,4.923c0.605,1.236,0.919,2.082,0.84,2.142
		C7.288,28.514,2.402,22.883,2.402,16.114c0-7.562,6.094-13.696,13.601-13.696C23.509,2.418,29.601,8.553,29.601,16.114z
		 M31.799,16.114c0.099,8.764-7.05,15.632-16.287,15.686C6.275,31.854,0.2,24.413,0.2,16.114C0.2,7.814,7.311,0.2,16.005,0.2
		C24.7,0.2,31.699,7.35,31.799,16.114z M31.024,16.107c-0.094-8.336-6.749-15.134-15.02-15.134c-8.27,0-15.031,7.24-15.031,15.134
		c0,7.895,5.775,14.968,14.563,14.918C24.321,30.977,31.121,24.441,31.024,16.107z"/>
</g>
<g id="Ebene_1">
</g>
</svg>
