<?xml version="1.0" encoding="iso-8859-1"?>
<!-- Generator: Adobe Illustrator 16.0.0, SVG Export Plug-In . SVG Version: 6.00 Build 0)  -->
<!DOCTYPE svg PUBLIC "-//W3C//DTD SVG 1.1//EN" "http://www.w3.org/Graphics/SVG/1.1/DTD/svg11.dtd">
<svg version="1.1" xmlns="http://www.w3.org/2000/svg" xmlns:xlink="http://www.w3.org/1999/xlink" x="0px" y="0px" width="32px"
	 height="32px" viewBox="0 0 32 32" style="enable-background:new 0 0 32 32;" xml:space="preserve">
<g id="wrench">
	<path id="path5437" inkscape:connector-curvature="0" d="M27.011,23.899c-1.053-0.889-2.123-0.889-3.209,0v0.05l-0.445,0.84
		l-0.049,0.099l-0.1,0.592c0,0.56,0.197,1.09,0.594,1.583c0.493,0.392,1.038,0.593,1.629,0.593c0.625,0,1.151-0.195,1.58-0.593
		c0.494-0.493,0.74-1.021,0.74-1.583l-0.099-0.641l-0.594-0.889L27.011,23.899 M17.975,3.212c1.812,1.646,2.864,3.671,3.16,6.073
		v0.099v0.05v1.431l-0.099,1.137l8.839,8.738c1.118,0.988,1.743,2.206,1.875,3.654l0.05,0.889c0,1.843-0.625,3.374-1.877,4.589
		l-0.048,0.052c-1.152,1.185-2.7,1.778-4.643,1.778c-1.743,0-3.271-0.594-4.588-1.778v-0.05l-5.875-5.825l-0.148-0.393l-2.914-2.766
		l-2.619-0.15l0.099,0.05c-2.304-0.361-4.262-1.315-5.875-2.86v-0.052C0.974,15.44-0.046,12.741,0.25,9.779
		c0.033-0.956,0.23-1.91,0.593-2.864c0.065-0.197,0.181-0.346,0.346-0.444l0.494-0.099l0.395,0.247l5.628,5.628l1.086,0.593
		l0.988-0.543v-0.05l2.37-2.468c0.494-0.462,0.626-0.956,0.395-1.481L12.1,7.606L6.471,2.225L6.274,1.829
		C6.208,1.632,6.225,1.467,6.323,1.336C6.39,1.171,6.505,1.057,6.668,0.99c0.429-0.23,0.84-0.412,1.234-0.543h0.05l4.69-0.148
		c2.041,0.362,3.835,1.333,5.382,2.913H17.975"/>
</g>
<g id="Ebene_1">
</g>
</svg>
