<?xml version="1.0" encoding="iso-8859-1"?>
<!-- Generator: Adobe Illustrator 16.0.0, SVG Export Plug-In . SVG Version: 6.00 Build 0)  -->
<!DOCTYPE svg PUBLIC "-//W3C//DTD SVG 1.1//EN" "http://www.w3.org/Graphics/SVG/1.1/DTD/svg11.dtd">
<svg version="1.1" xmlns="http://www.w3.org/2000/svg" xmlns:xlink="http://www.w3.org/1999/xlink" x="0px" y="0px" width="32px"
	 height="32px" viewBox="0 0 32 32" style="enable-background:new 0 0 32 32;" xml:space="preserve">
<g id="youtube">
	<path d="M31.608,11.113l-0.145-1.629l-0.288-1.294c-0.254-0.895-0.572-1.549-0.956-1.965c-0.511-0.574-1.117-0.958-1.819-1.15
		l-0.767-0.191l-0.573-0.048l-7.184-0.288L17.102,4.5H16l-3.878,0.048L4.94,4.835L4.365,4.884L3.552,5.075
		C2.881,5.267,2.291,5.65,1.78,6.225C1.365,6.64,1.03,7.295,0.774,8.189L0.487,9.483l-0.144,1.629L0.2,14.754v2.491l0.144,3.643
		l0.144,1.629L0.583,22.9l0.192,0.862c0.255,0.926,0.591,1.598,1.005,2.013c0.479,0.542,1.117,0.926,1.915,1.15l0.862,0.143
		l0.671,0.097l6.32,0.239L16,27.5h1.102l2.775-0.048l7.184-0.287l0.573-0.097l0.767-0.143c0.702-0.225,1.309-0.608,1.819-1.15
		c0.384-0.415,0.702-1.087,0.956-2.013l0.241-0.862l0.047-0.384l0.145-1.629l0.191-3.643v-2.491L31.608,11.113z M12.744,20.265v-9.2
		l8.521,4.6L12.744,20.265z"/>
</g>
<g id="Ebene_1">
</g>
</svg>
