<?xml version="1.0" standalone="no"?>
<!DOCTYPE svg PUBLIC "-//W3C//DTD SVG 1.1//EN" "http://www.w3.org/Graphics/SVG/1.1/DTD/svg11.dtd" >
<svg xmlns="http://www.w3.org/2000/svg">
<metadata>Generated by IcoMoon</metadata>
<defs>
<font id="icomoon" horiz-adv-x="1024">
<font-face units-per-em="1024" ascent="960" descent="-64" />
<missing-glyph horiz-adv-x="1024" />
<glyph unicode="&#x20;" horiz-adv-x="512" d="" />
<glyph unicode="&#xe900;" glyph-name="arrow-top" d="M810.667 512v-42.667q0-18.133-12.8-30.933-12.8-11.733-30.933-11.733h-126.933v-298.667q0-18.133-12.8-30.933-12.8-11.733-30.933-11.733h-169.6q-18.133 0-30.933 11.733-11.733 12.8-11.733 30.933v298.667h-128q-18.133 0-30.933 11.733-11.733 12.8-11.733 30.933v42.667l298.667 298.667 298.667-298.667z" />
<glyph unicode="&#xe901;" glyph-name="arrow-right" d="M490.667 702.933q0 18.133 11.733 30.933 12.8 12.8 30.933 12.8h42.667l298.667-298.667-298.667-298.667h-42.667q-18.133 0-30.933 11.733-11.733 12.8-11.733 30.933v128h-298.667q-18.133 0-30.933 11.733-11.733 12.8-11.733 30.933v169.6q0 18.133 11.733 30.933 12.8 12.8 30.933 12.8h298.667v126.933z" />
<glyph unicode="&#xe902;" glyph-name="arrow-bottom" d="M797.867 457.6q12.8-12.8 12.8-30.933v-42.667l-298.667-298.667-298.667 298.667v42.667q0 18.133 11.733 30.933 12.8 11.733 30.933 11.733h128v298.667q0 18.133 11.733 30.933 12.8 11.733 30.933 11.733h169.6q18.133 0 30.933-11.733 12.8-12.8 12.8-30.933v-298.667h126.933q18.133 0 30.933-11.733z" />
<glyph unicode="&#xe903;" glyph-name="arrow-left" d="M832 576q18.133 0 30.933-12.8 11.733-12.8 11.733-30.933v-169.6q0-18.133-11.733-30.933-12.8-11.733-30.933-11.733h-298.667v-128q0-18.133-11.733-30.933-12.8-11.733-30.933-11.733h-42.667l-298.667 298.667 298.667 298.667h42.667q18.133 0 30.933-12.8 11.733-12.8 11.733-30.933v-126.933h298.667z" />
<glyph unicode="&#xe904;" glyph-name="arrow-top-right" d="M747.733 272q-18.133 1.067-30.933 14.933l-92.8 91.733-214.4-214.4q-12.8-13.867-29.867-14.933-18.133 1.067-30.933 14.933l-121.6 121.6q-12.8 12.8-13.867 30.933 0 17.067 12.8 30.933l214.4 214.4-90.667 91.733q-12.8 12.8-13.867 30.933 1.067 19.2 13.867 32l29.867 29.867h430.933v-429.867l-30.933-29.867q-12.8-13.867-32-14.933z" />
<glyph unicode="&#xe905;" glyph-name="arrow-bottom-right" d="M348.8 732.8q12.8 12.8 30.933 13.867 18.133 0 30.933-12.8l214.4-215.467 91.733 91.733q12.8 12.8 30.933 13.867 19.2-1.067 32-13.867l30.933-30.933v-429.867h-430.933l-29.867 30.933q-12.8 12.8-13.867 30.933 1.067 18.133 13.867 32l91.733 91.733-214.4 215.467q-12.8 12.8-13.867 28.8 1.067 19.2 13.867 32l121.6 121.6z" />
<glyph unicode="&#xe906;" glyph-name="arrow-bottom-left" d="M810.667 579.2q0-17.067-13.867-29.867l-214.4-215.467 90.667-91.733q12.8-12.8 13.867-30.933-1.067-18.133-13.867-32l-29.867-29.867h-429.867v429.867l29.867 30.933q12.8 12.8 32 13.867 18.133-1.067 30.933-13.867l92.8-92.8 214.4 215.467q12.8 12.8 29.867 13.867 18.133-1.067 30.933-13.867l121.6-121.6q12.8-13.867 14.933-32z" />
<glyph unicode="&#xe907;" glyph-name="arrow-top-left" d="M581.333 562.133l215.467-215.467q12.8-12.8 13.867-30.933 0-17.067-12.8-29.867l-122.667-122.667q-12.8-12.8-30.933-13.867-18.133 1.067-30.933 13.867l-215.467 215.467-91.733-91.733q-12.8-12.8-30.933-14.933-18.133 0-30.933 12.8l-30.933 30.933v430.933h430.933l30.933-30.933q12.8-12.8 12.8-30.933-1.067-17.067-13.867-29.867l-92.8-92.8z" />
<glyph unicode="&#xe908;" glyph-name="caret-top" d="M840.533 246.4q-12.8-11.733-30.933-11.733h-596.267q-18.133 0-30.933 11.733-11.733 12.8-11.733 30.933v42.667l341.333 341.333 341.333-341.333v-42.667q0-18.133-12.8-30.933z" />
<glyph unicode="&#xe909;" glyph-name="caret-right" d="M310.4 776.533q12.8 12.8 30.933 12.8h42.667l341.333-341.333-341.333-341.333h-42.667q-18.133 0-30.933 11.733-11.733 12.8-11.733 30.933v596.267q0 18.133 11.733 30.933z" />
<glyph unicode="&#xe90a;" glyph-name="caret-bottom" d="M853.333 618.667v-42.667l-341.333-341.333-341.333 341.333v42.667q0 18.133 11.733 30.933 12.8 11.733 30.933 11.733h596.267q18.133 0 30.933-11.733 12.8-12.8 12.8-30.933z" />
<glyph unicode="&#xe90b;" glyph-name="caret-left" d="M713.6 776.533q11.733-12.8 11.733-30.933v-596.267q0-18.133-11.733-30.933-12.8-11.733-30.933-11.733h-42.667l-341.333 341.333 341.333 341.333h42.667q18.133 0 30.933-12.8z" />
<glyph unicode="&#xe90c;" glyph-name="next" d="M512 789.333l341.333-341.333-341.333-341.333h-85.333v170.667h-85.333v-85.333h-170.667v341.333q0 35.2 24.533 59.733 25.6 25.6 60.8 25.6h170.667v170.667h85.333z" />
<glyph unicode="&#xe90d;" glyph-name="next-alt" d="M512 106.667l341.333 341.333-341.333 341.333h-85.333v-170.667h-85.333v85.333h-170.667v-341.333q0-35.2 24.533-59.733 25.6-25.6 60.8-25.6h170.667v-170.667h85.333z" />
<glyph unicode="&#xe90e;" glyph-name="previous-alt" d="M512 106.667l-341.333 341.333 341.333 341.333h85.333v-170.667h85.333v85.333h170.667v-341.333q0-35.2-24.533-59.733-25.6-25.6-60.8-25.6h-170.667v-170.667h-85.333z" />
<glyph unicode="&#xe90f;" glyph-name="previous" d="M512 789.333l-341.333-341.333 341.333-341.333h85.333v170.667h85.333v-85.333h170.667v341.333q0 35.2-24.533 59.733-25.6 25.6-60.8 25.6h-170.667v170.667h-85.333z" />
<glyph unicode="&#xe910;" glyph-name="bottom" d="M182.4 54.4q-11.733 12.8-11.733 30.933v84.267q0 18.133 11.733 30.933 12.8 12.8 30.933 12.8h597.333q17.067 0 29.867-12.8t12.8-29.867v-85.333q0-18.133-12.8-30.933-12.8-11.733-29.867-11.733h-597.333q-18.133 0-30.933 11.733zM797.867 628.267q12.8-12.8 12.8-30.933v-42.667l-298.667-298.667-298.667 298.667v42.667q0 18.133 11.733 30.933 12.8 11.733 30.933 11.733h128v170.667q0 18.133 11.733 30.933 12.8 11.733 30.933 11.733h169.6q18.133 0 30.933-11.733 12.8-12.8 12.8-30.933v-170.667h126.933q18.133 0 30.933-11.733z" />
<glyph unicode="&#xe911;" glyph-name="check" d="M330.126 623.407q12.8-1.067 22.4-10.667l106.667-128 213.333 252.8q7.467 9.6 20.267 11.733 12.8 1.067 22.4-7.467l126.933-108.8q9.6-7.467 10.667-20.267t-6.4-23.467l-362.667-433.067-14.933-9.6h-17.067l-16 9.6-257.067 307.2q-8.533 10.667-7.467 22.4 1.067 13.867 10.667 21.333l125.867 108.8q10.667 8.533 22.4 7.467z" />
<glyph unicode="&#xe912;" glyph-name="circle" d="M270.933 690.133c66.844 66.133 147.2 99.2 241.067 99.2s174.222-33.422 241.067-100.267c66.844-66.844 100.267-147.2 100.267-241.067 0-94.578-33.422-175.289-100.267-242.133-66.844-66.133-147.2-99.2-241.067-99.2s-174.222 33.067-241.067 99.2c-66.844 66.844-100.267 147.556-100.267 242.133 0 93.867 33.067 174.222 99.2 241.067h1.067v1.067zM512 661.333c-59.022 0-109.511-20.622-151.467-61.867-41.956-41.956-62.933-92.444-62.933-151.467 0-59.733 20.978-110.222 62.933-151.467 41.956-41.956 92.444-62.933 151.467-62.933s109.511 20.978 151.467 62.933h1.067c41.244 41.244 61.867 91.733 61.867 151.467 0 59.022-20.622 109.511-61.867 151.467-42.667 41.244-93.511 61.867-152.533 61.867z" />
<glyph unicode="&#xe913;" glyph-name="circle-dot" d="M270.933 690.133q100.267 99.2 241.067 99.2t241.067-100.267 100.267-241.067q0-141.867-100.267-242.133-100.267-99.2-241.067-99.2t-241.067 99.2q-100.267 100.267-100.267 242.133 0 140.8 99.2 241.067h1.067v1.067zM512 568.533q50.133 0 85.333-35.2t35.2-85.333-35.2-85.333q-35.2-36.267-85.333-36.267-51.2 0-86.4 36.267-34.133 35.2-34.133 85.333t34.133 85.333q35.2 35.2 86.4 35.2zM512 661.333q-88.533 0-151.467-61.867-62.933-62.933-62.933-151.467 0-89.6 62.933-151.467 62.933-62.933 151.467-62.933t151.467 62.933h1.067q61.867 61.867 61.867 151.467 0 88.533-61.867 151.467-64 61.867-152.533 61.867z" />
<glyph unicode="&#xe914;" glyph-name="cloud" d="M730.667 560.8q81.067-12.8 141.867-72.533 76.8-75.733 76.8-183.467l-6.4-57.6-6.4-10.667-12.8-4.267q-443.733-118.4-808.533 0l-9.6 2.133-7.467 6.4q-23.467 36.267-23.467 82.133 0 64 45.867 108.8 32 30.933 72.533 41.6 8.533 97.067 81.067 168.533 82.133 81.067 199.467 81.067 116.267 0 199.467-81.067 37.333-37.333 57.6-81.067z" />
<glyph unicode="&#xe915;" glyph-name="cloud-upload" d="M923.733 232.611q-140.8-37.333-273.067-51.2v179.2h64l14.933 5.333 6.4 16v21.333l-149.333 149.333-149.333-149.333v-21.333q0-9.6 6.4-16l14.933-5.333h64v-187.733q-214.4-3.2-407.467 59.733l-9.6 2.133-7.467 6.4q-23.467 36.267-23.467 82.133 0 64 45.867 108.8 32 30.933 72.533 41.6 8.533 97.067 81.067 168.533 82.133 81.067 199.467 81.067 116.267 0 199.467-81.067 37.333-37.333 57.6-81.067 81.067-12.8 141.867-72.533 76.8-75.733 76.8-183.467l-6.4-57.6-6.4-10.667-12.8-4.267z" />
<glyph unicode="&#xe916;" glyph-name="cells" d="M139.733 118.4q-11.733 12.8-11.733 30.933v84.267q0 18.133 11.733 30.933 12.8 12.8 30.933 12.8h682.667q17.067 0 29.867-12.8t12.8-29.867v-85.333q0-18.133-12.8-30.933-12.8-11.733-29.867-11.733h-682.667q-18.133 0-30.933 11.733zM883.2 520.533q12.8-12.8 12.8-29.867v-85.333q0-18.133-12.8-30.933-12.8-11.733-29.867-11.733h-682.667q-18.133 0-30.933 11.733-11.733 12.8-11.733 30.933v84.267q0 18.133 11.733 30.933 12.8 12.8 30.933 12.8h682.667q17.067 0 29.867-12.8zM896 661.333q0-18.133-12.8-30.933-12.8-11.733-29.867-11.733h-682.667q-18.133 0-30.933 11.733-11.733 12.8-11.733 30.933v84.267q0 18.133 11.733 30.933 12.8 12.8 30.933 12.8h682.667q17.067 0 29.867-12.8t12.8-29.867v-85.333z" />
<glyph unicode="&#xe917;" glyph-name="grid" d="M341.333 234.667v-85.333q0-18.133-12.8-30.933-12.8-11.733-29.867-11.733h-85.333q-18.133 0-30.933 11.733-11.733 12.8-11.733 30.933v84.267q0 18.133 11.733 30.933 12.8 12.8 30.933 12.8h85.333q17.067 0 29.867-12.8t12.8-29.867zM298.667 533.333q17.067 0 29.867-12.8t12.8-29.867v-85.333q0-18.133-12.8-30.933-12.8-11.733-29.867-11.733h-85.333q-18.133 0-30.933 11.733-11.733 12.8-11.733 30.933v84.267q0 18.133 11.733 30.933 12.8 12.8 30.933 12.8h85.333zM341.333 746.667v-85.333q0-18.133-12.8-30.933-12.8-11.733-29.867-11.733h-85.333q-18.133 0-30.933 11.733-11.733 12.8-11.733 30.933v84.267q0 18.133 11.733 30.933 12.8 12.8 30.933 12.8h85.333q17.067 0 29.867-12.8t12.8-29.867zM584.533 264.533q12.8-12.8 12.8-29.867v-85.333q0-18.133-12.8-30.933-12.8-11.733-29.867-11.733h-85.333q-18.133 0-30.933 11.733-11.733 12.8-11.733 30.933v84.267q0 18.133 11.733 30.933 12.8 12.8 30.933 12.8h85.333q17.067 0 29.867-12.8zM853.333 234.667v-85.333q0-18.133-12.8-30.933-12.8-11.733-29.867-11.733h-85.333q-18.133 0-30.933 11.733-11.733 12.8-11.733 30.933v84.267q0 18.133 11.733 30.933 12.8 12.8 30.933 12.8h85.333q17.067 0 29.867-12.8t12.8-29.867zM584.533 520.533q12.8-12.8 12.8-29.867v-85.333q0-18.133-12.8-30.933-12.8-11.733-29.867-11.733h-85.333q-18.133 0-30.933 11.733-11.733 12.8-11.733 30.933v84.267q0 18.133 11.733 30.933 12.8 12.8 30.933 12.8h85.333q17.067 0 29.867-12.8zM725.333 533.333h85.333q17.067 0 29.867-12.8t12.8-29.867v-85.333q0-18.133-12.8-30.933-12.8-11.733-29.867-11.733h-85.333q-18.133 0-30.933 11.733-11.733 12.8-11.733 30.933v84.267q0 18.133 11.733 30.933 12.8 12.8 30.933 12.8zM597.333 746.667v-85.333q0-18.133-12.8-30.933-12.8-11.733-29.867-11.733h-85.333q-18.133 0-30.933 11.733-11.733 12.8-11.733 30.933v84.267q0 18.133 11.733 30.933 12.8 12.8 30.933 12.8h85.333q17.067 0 29.867-12.8t12.8-29.867zM853.333 746.667v-85.333q0-18.133-12.8-30.933-12.8-11.733-29.867-11.733h-85.333q-18.133 0-30.933 11.733-11.733 12.8-11.733 30.933v84.267q0 18.133 11.733 30.933 12.8 12.8 30.933 12.8h85.333q17.067 0 29.867-12.8t12.8-29.867z" />
<glyph unicode="&#xe918;" glyph-name="grid-list" d="M341.333 405.333q0-18.133-12.8-30.933-12.8-11.733-29.867-11.733h-85.333q-18.133 0-30.933 11.733-11.733 12.8-11.733 30.933v84.267q0 18.133 11.733 30.933 12.8 12.8 30.933 12.8h85.333q17.067 0 29.867-12.8t12.8-29.867v-85.333zM438.4 118.4q-11.733 12.8-11.733 30.933v84.267q0 18.133 11.733 30.933 12.8 12.8 30.933 12.8h341.333q17.067 0 29.867-12.8t12.8-29.867v-85.333q0-18.133-12.8-30.933-12.8-11.733-29.867-11.733h-341.333q-18.133 0-30.933 11.733zM341.333 149.333q0-18.133-12.8-30.933-12.8-11.733-29.867-11.733h-85.333q-18.133 0-30.933 11.733-11.733 12.8-11.733 30.933v84.267q0 18.133 11.733 30.933 12.8 12.8 30.933 12.8h85.333q17.067 0 29.867-12.8t12.8-29.867v-85.333zM341.333 661.333q0-18.133-12.8-30.933-12.8-11.733-29.867-11.733h-85.333q-18.133 0-30.933 11.733-11.733 12.8-11.733 30.933v84.267q0 18.133 11.733 30.933 12.8 12.8 30.933 12.8h85.333q17.067 0 29.867-12.8t12.8-29.867v-85.333zM853.333 661.333q0-18.133-12.8-30.933-12.8-11.733-29.867-11.733h-341.333q-18.133 0-30.933 11.733-11.733 12.8-11.733 30.933v84.267q0 18.133 11.733 30.933 12.8 12.8 30.933 12.8h341.333q17.067 0 29.867-12.8t12.8-29.867v-85.333zM840.533 520.533q12.8-12.8 12.8-29.867v-85.333q0-18.133-12.8-30.933-12.8-11.733-29.867-11.733h-341.333q-18.133 0-30.933 11.733-11.733 12.8-11.733 30.933v84.267q0 18.133 11.733 30.933 12.8 12.8 30.933 12.8h341.333q17.067 0 29.867-12.8z" />
<glyph unicode="&#xe919;" glyph-name="backward" d="M905.6 776.533q11.733-12.8 11.733-30.933v-596.267q0-18.133-11.733-30.933-12.8-11.733-30.933-11.733h-42.667l-298.667 298.667v-256q0-18.133-11.733-30.933-12.8-11.733-30.933-11.733h-42.667l-341.333 341.333 341.333 341.333h42.667q18.133 0 30.933-12.8 11.733-12.8 11.733-30.933v-254.933l298.667 298.667h42.667q18.133 0 30.933-12.8z" />
<glyph unicode="&#xe91a;" glyph-name="badge" d="M512 682.133q-54.4 0-91.733-37.333-36.267-37.333-36.267-90.667 0-52.267 36.267-89.6 37.333-38.4 91.733-38.4 53.333 0 90.667 38.4 37.333 37.333 37.333 89.6 0 53.333-37.333 90.667t-90.667 37.333zM768 555.2q0-105.6-74.667-180.267-34.133-35.2-74.667-54.4v-215.467l-5.333-13.867-13.867-5.333-13.867 4.267-73.6 73.6-73.6-73.6-13.867-4.267-13.867 5.333-5.333 13.867v214.4q-41.6 20.267-76.8 55.467-72.533 74.667-72.533 180.267 0 106.667 72.533 181.333 74.667 73.6 183.467 73.6 106.667 0 181.333-73.6 74.667-74.667 74.667-181.333z" />
<glyph unicode="&#xe91b;" glyph-name="badge-alt" d="M769.173 548.267q0-85.333-49.067-151.467l1.067-1.067 107.733-187.733 3.2-13.867-10.667-11.733-13.867-3.2-100.267 26.667-26.667-100.267-10.667-10.667-13.867-2.133-11.733 8.533-107.733 187.733-1.067 3.2-22.4-1.067-23.467 1.067-2.133-3.2-107.733-187.733-11.733-8.533-13.867 2.133-10.667 10.667-26.667 100.267-100.267-26.667-13.867 3.2-10.667 11.733q-1.067 7.467 3.2 13.867l107.733 187.733 2.133 2.133q-48 65.067-48 150.4 0 106.667 72.533 181.333 74.667 73.6 183.467 73.6 106.667 0 181.333-73.6 74.667-74.667 74.667-181.333zM641.173 547.2q0 53.333-37.333 90.667t-90.667 37.333q-54.4 0-91.733-37.333-36.267-37.333-36.267-90.667 0-52.267 36.267-89.6 37.333-38.4 91.733-38.4 53.333 0 90.667 38.4 37.333 37.333 37.333 89.6z" />
<glyph unicode="&#xe91c;" glyph-name="button-a" d="M753.067 690.133q100.267-100.267 100.267-242.133t-100.267-241.067q-99.2-100.267-241.067-100.267t-242.133 100.267q-99.2 99.2-99.2 241.067t99.2 242.133q100.267 99.2 242.133 99.2t241.067-99.2zM540.8 597.333h-58.667l-119.467-277.333h65.067l25.6 59.733h116.267l25.6-59.733h66.133l-120.533 277.333zM476.8 433.067l35.2 82.133 34.133-82.133h-69.333z" />
<glyph unicode="&#xe91d;" glyph-name="button-b" d="M530.133 576h-103.467v-277.333h117.333q54.4 0 76.8 25.6 19.2 22.4 19.2 51.2 0 26.667-14.933 43.733-14.933 18.133-39.467 23.467l9.6 4.267 9.6 7.467q20.267 14.933 20.267 48 0 26.667-18.133 48l-28.8 18.133-48 7.467zM512 789.333q141.867 0 241.067-99.2 100.267-100.267 100.267-242.133t-100.267-241.067q-99.2-100.267-241.067-100.267t-242.133 100.267q-99.2 99.2-99.2 241.067t99.2 242.133q100.267 99.2 242.133 99.2zM486.4 522.667h27.733l38.4-5.333q10.667-6.4 10.667-24.533t-11.733-24.533l-37.333-5.333h-27.733v59.733zM521.6 413.867l42.667-5.333q14.933-5.333 14.933-25.6 0-18.133-13.867-25.6l-38.4-6.4h-40.533v62.933h35.2z" />
<glyph unicode="&#xe91e;" glyph-name="button-l" d="M500.267 574.933h-51.2v-234.667h149.333v46.933h-98.133v187.733zM917.333 704v-512h-810.667v405.333q0 106.667 106.667 106.667h704z" />
<glyph unicode="&#xe91f;" glyph-name="button-l1" d="M609.067 558.933h-84.267v-40.533h39.467v-168.533h44.8v209.067zM418.133 558.933h-46.933v-209.067h135.467v41.6h-88.533v167.467zM106.667 597.333q0 106.667 106.667 106.667h704v-512h-810.667v405.333z" />
<glyph unicode="&#xe920;" glyph-name="button-l2" d="M576 563.2q-27.733 0-44.8-11.733t-32-34.133l37.333-22.4q17.067 28.8 37.333 28.8 10.667 0 17.067-7.467 7.467-6.4 7.467-17.067t-8.533-22.4l-25.6-29.867-61.867-61.867v-35.2h147.2v41.6h-82.133l37.333 39.467 30.933 37.333 7.467 30.933q0 29.867-20.267 46.933t-46.933 17.067zM341.333 558.933v-209.067h135.467v41.6h-88.533v167.467h-46.933zM106.667 597.333q0 106.667 106.667 106.667h704v-512h-810.667v405.333z" />
<glyph unicode="&#xe921;" glyph-name="button-one" d="M432 573.867v-54.4h53.333v-229.333h60.8v283.733h-114.133zM753.067 690.133q100.267-100.267 100.267-242.133t-100.267-241.067q-99.2-100.267-241.067-100.267t-242.133 100.267q-99.2 99.2-99.2 241.067t99.2 242.133q100.267 99.2 242.133 99.2t241.067-99.2z" />
<glyph unicode="&#xe922;" glyph-name="button-r" d="M510.933 553.6h-83.2v-234.667h50.133v74.667h33.067l48-74.667h60.8l-55.467 84.267q42.667 16 42.667 72.533 0 41.6-22.4 58.667-22.4 19.2-73.6 19.2zM917.333 597.333v-405.333h-810.667v512h704q106.667 0 106.667-106.667zM477.867 507.733h36.267l33.067-6.4q8.533-6.4 8.533-25.6t-8.533-27.733q-8.533-9.6-34.133-9.6h-35.2v69.333z" />
<glyph unicode="&#xe923;" glyph-name="button-r1" d="M567.467 518.4v-168.533h44.8v209.067h-84.267v-40.533h39.467zM474.667 541.867q-20.267 17.067-69.333 17.067h-78.933v-209.067h46.933v66.133h32l45.867-66.133h57.6l-52.267 74.667q39.467 14.933 39.467 65.067 0 36.267-21.333 52.267zM917.333 597.333v-405.333h-810.667v512h704q106.667 0 106.667-106.667zM448 489.6q0-17.067-8.533-25.6l-32-7.467h-34.133v61.867h34.133q23.467 0 32-6.4t8.533-22.4z" />
<glyph unicode="&#xe924;" glyph-name="button-r2" d="M444.8 541.867q-20.267 17.067-69.333 17.067h-78.933v-209.067h46.933v66.133h32l45.867-66.133h57.6l-52.267 74.667q39.467 14.933 39.467 65.067 0 36.267-21.333 52.267zM917.333 597.333v-405.333h-810.667v512h704q106.667 0 106.667-106.667zM377.6 518.4l32-6.4q8.533-6.4 8.533-22.4 0-17.067-8.533-25.6-8.533-7.467-32-7.467h-34.133v61.867h34.133zM626.133 546.133q-20.267 17.067-46.933 17.067-27.733 0-44.8-11.733t-32-34.133l37.333-22.4q17.067 28.8 37.333 28.8 10.667 0 17.067-7.467 7.467-6.4 7.467-17.067t-8.533-22.4l-25.6-29.867-61.867-61.867v-35.2h147.2v41.6h-82.133l37.333 39.467 30.933 37.333 7.467 30.933q0 29.867-20.267 46.933z" />
<glyph unicode="&#xe925;" glyph-name="button-select" d="M531.2 412.8v24.533h53.333v23.467h-53.333v24.533h58.667v23.467h-85.333v-119.467h87.467v23.467h-60.8zM380.8 485.333v23.467h-85.333v-119.467h87.467v23.467h-60.8v24.533h53.333v23.467h-53.333v24.533h58.667zM434.133 412.8v96h-26.667v-119.467h76.8v23.467h-50.133zM273.067 423.467q0 16-9.6 24.533t-26.667 12.8l-21.333 7.467-5.333 8.533 4.267 8.533 10.667 2.133q16 0 32-11.733l13.867 20.267q-9.6 7.467-21.333 11.733l-23.467 3.2q-19.2 0-30.933-8.533-11.733-9.6-11.733-26.667t9.6-24.533q9.6-8.533 29.867-12.8l18.133-6.4 4.267-8.533-4.267-8.533-11.733-3.2q-16 0-35.2 17.067l-16-20.267q22.4-20.267 51.2-20.267 19.2 0 30.933 9.6 12.8 9.6 12.8 25.6zM825.6 485.333v23.467h-94.933v-23.467h34.133v-96h26.667v96h34.133zM720 410.667l-17.067 18.133q-11.733-16-32-16-13.867 0-24.533 9.6-9.6 10.667-9.6 27.733 0 16 10.667 25.6 10.667 10.667 25.6 10.667 18.133 0 30.933-16l17.067 18.133q-20.267 22.4-49.067 22.4-26.667 0-44.8-17.067-18.133-18.133-18.133-44.8t18.133-43.733q17.067-17.067 44.8-17.067t48 22.4zM96 704h832q17.067 0 29.867-12.8t12.8-29.867v-426.667q0-18.133-12.8-30.933-12.8-11.733-29.867-11.733h-832q-18.133 0-30.933 11.733-11.733 12.8-11.733 30.933v425.6q0 18.133 11.733 30.933 12.8 12.8 30.933 12.8z" />
<glyph unicode="&#xe926;" glyph-name="button-start" d="M330.667 508.8v-23.467h34.133v-96h26.667v96h34.133v23.467h-94.933zM256 476.8l4.267 8.533 10.667 2.133q16 0 32-11.733l13.867 20.267-21.333 11.733-23.467 3.2q-19.2 0-30.933-8.533-11.733-9.6-11.733-26.667t9.6-24.533q9.6-8.533 29.867-12.8l18.133-6.4 4.267-8.533-4.267-8.533-11.733-3.2q-16 0-35.2 17.067l-16-20.267q22.4-20.267 51.2-20.267l30.933 9.6q12.8 9.6 12.8 25.6t-9.6 24.533l-26.667 12.8-21.333 7.467-5.333 8.533zM745.6 485.333h34.133v23.467h-94.933v-23.467h34.133v-96h26.667v96zM598.4 427.733h18.133l26.667-38.4h32l-29.867 42.667q22.4 8.533 22.4 37.333 0 20.267-11.733 29.867t-39.467 9.6h-44.8v-119.467h26.667v38.4zM506.667 508.8h-25.6l-52.267-119.467h28.8l10.667 25.6h50.133l10.667-25.6h28.8l-51.2 119.467zM957.867 691.2q12.8-12.8 12.8-29.867v-426.667q0-18.133-12.8-30.933l-9.6-7.467-20.267-4.267h-832q-18.133 0-30.933 11.733-11.733 12.8-11.733 30.933v425.6q0 18.133 11.733 30.933 12.8 12.8 30.933 12.8h832l20.267-5.333 9.6-7.467zM598.4 485.333h19.2l18.133-3.2 5.333-12.8-5.333-14.933-18.133-4.267h-19.2v35.2zM508.8 438.4h-29.867l14.933 35.2 14.933-35.2z" />
<glyph unicode="&#xe927;" glyph-name="button-three" d="M826.667 583.467q26.667-61.867 26.667-135.467t-26.667-135.467q-24.533-57.6-73.6-105.6-99.2-100.267-241.067-100.267t-242.133 100.267q-99.2 99.2-99.2 241.067t99.2 242.133q100.267 99.2 242.133 99.2t241.067-99.2q49.067-49.067 73.6-106.667zM584.533 530.133v43.733h-172.8v-54.4h88.533l-54.4-64v-46.933l37.333 8.533q25.6 0 39.467-10.667t13.867-27.733q0-18.133-11.733-27.733-12.8-8.533-32-8.533-30.933 0-71.467 27.733l-25.6-50.133q48-33.067 94.933-33.067t76.8 25.6q30.933 25.6 30.933 69.333 0 29.867-19.2 53.333-18.133 22.4-52.267 28.8l57.6 66.133z" />
<glyph unicode="&#xe928;" glyph-name="button-two" d="M564.267 556.8q-27.733 23.467-64 23.467t-60.8-16q-23.467-16-43.733-46.933l51.2-29.867q23.467 38.4 50.133 38.4 14.933 0 24.533-9.6t9.6-23.467q0-14.933-10.667-29.867l-36.267-40.533-83.2-85.333v-46.933h199.467v56.533h-112l51.2 53.333 41.6 51.2q10.667 20.267 10.667 41.6 0 40.533-27.733 64zM753.067 206.933q-99.2-100.267-241.067-100.267t-242.133 100.267q-99.2 99.2-99.2 241.067t99.2 242.133q100.267 99.2 242.133 99.2t241.067-99.2q100.267-100.267 100.267-242.133t-100.267-241.067z" />
<glyph unicode="&#xe929;" glyph-name="button-x" d="M653.867 576h-76.8l-54.4-82.133-55.467 82.133h-76.8l90.667-135.467-97.067-141.867h76.8l61.867 90.667 60.8-90.667h77.867l-96 142.933 88.533 134.4zM753.067 690.133q100.267-100.267 100.267-242.133t-100.267-241.067q-99.2-100.267-241.067-100.267t-242.133 100.267q-99.2 99.2-99.2 241.067t99.2 242.133q100.267 99.2 242.133 99.2t241.067-99.2z" />
<glyph unicode="&#xe92a;" glyph-name="button-y" d="M512 789.333q141.867 0 241.067-99.2 100.267-100.267 100.267-242.133t-100.267-241.067q-99.2-100.267-241.067-100.267t-242.133 100.267q-99.2 99.2-99.2 241.067t99.2 242.133q100.267 99.2 242.133 99.2zM460.8 573.867h-68.267l98.133-171.733v-112h62.933v112l98.133 171.733h-68.267l-61.867-105.6-60.8 105.6z" />
<glyph unicode="&#xe92b;" glyph-name="car" d="M638.933 324.267q29.867 30.933 71.467 30.933 42.667 0 73.6-30.933v1.067q28.8-30.933 28.8-73.6l-1.067-24.533q-6.4-26.667-27.733-49.067-30.933-28.8-73.6-28.8-41.6 0-71.467 28.8-22.4 23.467-28.8 52.267v1.067l-2.133 20.267q0 41.6 30.933 72.533zM208 251.733q0 42.667 30.933 73.6v-1.067q28.8 30.933 71.467 30.933 41.6 0 73.6-29.867v-1.067q29.867-30.933 29.867-72.533l-1.067-18.133q-6.4-32-28.8-55.467-30.933-28.8-73.6-28.8t-71.467 28.8q-25.6 25.6-29.867 57.6l-1.067 16zM310.4 391.467q-57.6 0-99.2-40.533-40.533-41.6-40.533-99.2l1.067-20.267-75.733 2.133v259.2l181.333 19.2 98.133 234.667h253.867l93.867-221.867 204.8-32-13.867-274.133-66.133 1.067 2.133 32q0 57.6-40.533 99.2-40.533 40.533-99.2 40.533-57.6 0-98.133-40.533-41.6-41.6-41.6-99.2l3.2-27.733-124.8 3.2 1.067 24.533q0 57.6-40.533 99.2-41.6 40.533-99.2 40.533z" />
<glyph unicode="&#xe92c;" glyph-name="cog" d="M512 530.133q34.133 0 58.667-23.467 24.533-24.533 24.533-58.667t-24.533-58.667-58.667-24.533-58.667 24.533q-23.467 24.533-23.467 58.667t23.467 58.667q24.533 23.467 58.667 23.467zM512 613.333q-68.267 0-117.333-48-48-49.067-48-117.333t48-117.333q49.067-48 117.333-48t117.333 48q48 49.067 48 117.333t-48 117.333q-49.067 48-117.333 48zM827.733 580.267q25.6-60.8 25.6-132.267 0-10.667-7.467-18.133t-18.133-7.467h-70.4l-8.533-43.733 66.133-27.733 13.867-13.867q4.267-9.6 0-19.2-24.533-60.8-75.733-112l-17.067-6.4-18.133 6.4-50.133 50.133-37.333-25.6 27.733-65.067q4.267-9.6 0-19.2l-13.867-13.867q-60.8-25.6-132.267-25.6-10.667 0-18.133 7.467t-7.467 18.133v70.4l-43.733 7.467-26.667-65.067-13.867-13.867q-9.6-4.267-19.2 0-61.867 24.533-112 74.667-7.467 7.467-7.467 18.133t7.467 18.133l50.133 50.133-25.6 37.333-66.133-27.733q-9.6-4.267-19.2 0l-13.867 13.867q-25.6 60.8-25.6 132.267 0 10.667 7.467 18.133t18.133 7.467h70.4l8.533 43.733-66.133 26.667-13.867 13.867q-4.267 9.6 0 19.2 24.533 61.867 75.733 112 7.467 7.467 17.067 7.467 10.667 0 18.133-7.467l50.133-50.133q18.133 14.933 37.333 25.6l-27.733 66.133q-4.267 9.6 0 19.2t13.867 13.867q60.8 25.6 132.267 25.6 10.667 0 18.133-7.467t7.467-18.133v-70.4l43.733-8.533 27.733 66.133q3.2 9.6 12.8 13.867t20.267 0q39.467-16 75.733-43.733l35.2-32q7.467-7.467 7.467-18.133l-7.467-17.067-49.067-50.133 24.533-37.333 66.133 27.733q9.6 4.267 19.2 0l13.867-13.867z" />
<glyph unicode="&#xe92d;" glyph-name="coin" d="M693.333 266.667q74.667 74.667 74.667 181.333t-74.667 181.333-181.333 74.667-181.333-74.667-74.667-181.333 74.667-181.333 181.333-74.667 181.333 74.667zM753.067 206.933q-99.2-100.267-241.067-100.267t-242.133 100.267q-99.2 99.2-99.2 241.067t99.2 242.133q100.267 99.2 242.133 99.2t241.067-99.2q100.267-100.267 100.267-242.133t-100.267-241.067zM648.533 311.467q-56.533-55.467-136.533-55.467t-135.467 55.467q-56.533 56.533-56.533 136.533t56.533 135.467q55.467 56.533 135.467 56.533t136.533-56.533q55.467-55.467 55.467-135.467t-55.467-136.533zM554.667 341.333v213.333h-85.333v-213.333h85.333z" />
<glyph unicode="&#xe92e;" glyph-name="computer" d="M277.333 789.333v-341.333h469.333v341.333h-469.333zM640 192v-85.333h85.333v85.333h-85.333zM234.667 277.333h554.667q17.067 0 29.867-12.8t12.8-29.867v-170.667q0-18.133-12.8-30.933-12.8-11.733-29.867-11.733h-554.667q-18.133 0-30.933 11.733-11.733 12.8-11.733 30.933v169.6q0 18.133 11.733 30.933 12.8 12.8 30.933 12.8zM234.667 874.667h554.667q17.067 0 29.867-12.8t12.8-29.867v-469.333l-4.267-20.267-8.533-10.667q-12.8-11.733-29.867-11.733h-554.667q-18.133 0-30.933 11.733l-7.467 10.667-4.267 20.267v468.267q0 18.133 11.733 30.933 12.8 12.8 30.933 12.8z" />
<glyph unicode="&#xe92f;" glyph-name="cub" d="M298.667 576h-42.667v-170.667h42.667v170.667zM768 576h-42.667v-170.667h42.667v170.667zM853.333 618.667v-213.333q0-36.267-25.6-60.8-24.533-24.533-59.733-24.533h-170.667v-85.333h128q17.067 0 29.867-12.8t12.8-29.867v-42.667h-512v41.6q0 18.133 11.733 30.933 12.8 12.8 30.933 12.8h128v85.333h-170.667q-36.267 0-60.8 24.533-24.533 25.6-24.533 60.8v212.267q0 18.133 11.733 30.933 12.8 12.8 30.933 12.8h85.333v85.333h426.667v-85.333h85.333q17.067 0 29.867-12.8t12.8-29.867z" />
<glyph unicode="&#xe930;" glyph-name="cursor" d="M753.6 468.364q-8.533-13.867-23.467-19.2l-91.733-34.133 97.067-173.867 5.333-21.333-7.467-20.267-16-14.933-140.8-64-28.8-2.133q-16 5.333-23.467 17.067l-112 172.8-74.667-60.8q-13.867-9.6-28.8-8.533t-26.667 11.733q-11.733 11.733-11.733 27.733l-3.2 458.667q0 16 10.667 26.667 9.6 10.667 23.467 12.8 16 3.2 28.8-5.333l408.533-249.6q13.867-8.533 18.133-24.533l-3.2-28.8z" />
<glyph unicode="&#xe931;" glyph-name="device" d="M170.667 320h682.667v256h-682.667v-256zM925.867 648.533q12.8-12.8 12.8-29.867v-341.333q0-18.133-12.8-30.933-12.8-11.733-29.867-11.733h-768q-18.133 0-30.933 11.733-11.733 12.8-11.733 30.933v340.267q0 18.133 11.733 30.933 12.8 12.8 30.933 12.8h768q17.067 0 29.867-12.8z" />
<glyph unicode="&#xe932;" glyph-name="device-tilt-left" d="M874.721 256l-66.133 247.467-659.2-178.133 66.133-246.4 659.2 177.067zM827.788 597.333q17.067 4.267 32-5.333 16-8.533 20.267-25.6l88.533-329.6q4.267-17.067-5.333-33.067-8.533-14.933-25.6-19.2l-741.333-199.467-33.067 4.267q-14.933 9.6-19.2 26.667l-88.533 328.533q-4.267 18.133 4.267 33.067 9.6 16 26.667 20.267l741.333 199.467zM789.388 787.2q2.133-10.667-7.467-24.533l-66.133-109.867-19.2-14.933q-12.8-3.2-25.6 6.4-40.533 27.733-88.533 37.333h-1.067l-108.8-6.4 23.467-33.067q12.8-17.067 2.133-36.267l-1.067-2.133q-11.733-12.8-27.733-12.8h-2.133l-226.133 28.8h-2.133q-16 3.2-22.4 17.067l2.133-2.133q-9.6 11.733-4.267 25.6v2.133l81.067 226.133q2.133 19.2 27.733 22.4h2.133q18.133 0 27.733-16l1.067-3.2 20.267-45.867q114.133 51.2 242.133 26.667 85.333-14.933 155.733-65.067 16-7.467 17.067-20.267z" />
<glyph unicode="&#xe933;" glyph-name="device-tilt-right" d="M667.798 890.667l1.067 3.2q9.6 16 27.733 16h2.133q25.6-3.2 27.733-22.4l81.067-226.133v-2.133q5.333-13.867-4.267-25.6l2.133 2.133-22.4-17.067h-2.133l-226.133-28.8h-2.133q-16 0-27.733 12.8l-1.067 2.133q-10.667 19.2 2.133 36.267l23.467 33.067-109.867 6.4q-48-9.6-88.533-37.333-12.8-9.6-25.6-6.4-12.8 4.267-19.2 14.933l-66.133 109.867q-9.6 13.867-7.467 24.533 1.067 12.8 17.067 20.267 70.4 50.133 155.733 65.067 128 24.533 242.133-26.667l20.267 45.867zM163.265 590.933q17.067 9.6 34.133 5.333l741.333-198.4q16-5.333 25.6-20.267 8.533-14.933 4.267-32l-88.533-330.667q-5.333-17.067-20.267-25.6l-32-3.2-742.4 197.333q-17.067 4.267-26.667 20.267-7.467 16-3.2 33.067l88.533 328.533q4.267 17.067 19.2 25.6zM215.531 502.4l-66.133-247.467 660.267-176 65.067 247.467-659.2 176z" />
<glyph unicode="&#xe934;" glyph-name="diamond" d="M850.129 601.067q12.8-10.667 13.867-28.8 1.067-16-9.6-29.867l-309.333-368-20.267-13.867h-24.533q-12.8 4.267-20.267 13.867l-309.333 368q-11.733 13.867-10.667 29.867t12.8 27.733l123.733 122.667q12.8 12.8 29.867 12.8h361.6q17.067 0 28.8-11.733l133.333-122.667z" />
<glyph unicode="&#xe935;" glyph-name="download" d="M341.333 405.333v-128h341.333v126.933q0 18.133 11.733 30.933 12.8 12.8 30.933 12.8h85.333q17.067 0 29.867-12.8t12.8-29.867v-256q0-18.133-12.8-30.933-12.8-11.733-29.867-11.733h-597.333q-18.133 0-30.933 11.733-11.733 12.8-11.733 30.933v254.933q0 18.133 11.733 30.933 12.8 12.8 30.933 12.8h85.333q17.067 0 29.867-12.8t12.8-29.867zM682.667 618.667v-85.333l-170.667-170.667-170.667 170.667v85.333h85.333v170.667h170.667v-170.667h85.333z" />
<glyph unicode="&#xe936;" glyph-name="dpad" d="M896 576v-256q0-17.067-12.8-29.867t-29.867-12.8h-170.667v-170.667q0-18.133-12.8-30.933-12.8-11.733-29.867-11.733h-256q-18.133 0-30.933 11.733-11.733 12.8-11.733 30.933v170.667h-170.667q-18.133 0-30.933 12.8-11.733 12.8-11.733 29.867v256q0 18.133 11.733 30.933 12.8 11.733 30.933 11.733h170.667v169.6q0 18.133 11.733 30.933 12.8 12.8 30.933 12.8h256q17.067 0 29.867-12.8t12.8-29.867v-170.667h169.6q18.133 0 30.933-11.733 12.8-12.8 12.8-30.933z" />
<glyph unicode="&#xe937;" glyph-name="dpad-alt" d="M426.667 224v-10.667l85.333-85.333 85.333 85.333v10.667l-3.2 7.467-7.467 3.2h-149.333q-4.267 0-7.467-3.2t-3.2-7.467zM298.667 522.667l-3.2 7.467q-3.2 3.2-7.467 3.2h-10.667l-85.333-85.333 85.333-85.333h10.667l7.467 3.2 3.2 7.467v149.333zM429.867 664.533l7.467-3.2h149.333l7.467 3.2 3.2 7.467v10.667l-85.333 85.333-85.333-85.333v-10.667l3.2-7.467zM883.2 606.933q12.8-12.8 12.8-30.933v-256q0-17.067-12.8-29.867t-29.867-12.8h-170.667v-170.667q0-18.133-12.8-30.933-12.8-11.733-29.867-11.733h-256q-18.133 0-30.933 11.733-11.733 12.8-11.733 30.933v170.667h-170.667q-18.133 0-30.933 12.8-11.733 12.8-11.733 29.867v256q0 18.133 11.733 30.933 12.8 11.733 30.933 11.733h170.667v169.6q0 18.133 11.733 30.933 12.8 12.8 30.933 12.8h256q17.067 0 29.867-12.8t12.8-29.867v-170.667h169.6q18.133 0 30.933-11.733zM725.333 522.667v-149.333l3.2-7.467 7.467-3.2h10.667l85.333 85.333-85.333 85.333h-10.667q-4.267 0-7.467-3.2l-3.2-7.467z" />
<glyph unicode="&#xe938;" glyph-name="dpad-bottom" d="M426.667 213.333l85.333-85.333 85.333 85.333v10.667l-3.2 7.467-7.467 3.2h-149.333q-4.267 0-7.467-3.2t-3.2-7.467v-10.667zM853.333 618.667q18.133 0 30.933-12.8 11.733-12.8 11.733-29.867v-256q0-18.133-11.733-30.933-12.8-11.733-30.933-11.733h-170.667v-169.6q0-18.133-11.733-30.933-12.8-12.8-30.933-12.8h-256q-17.067 0-29.867 12.8t-12.8 29.867v170.667h-169.6q-18.133 0-30.933 11.733-12.8 12.8-12.8 30.933v256q0 17.067 12.8 29.867t29.867 12.8h170.667v170.667q0 18.133 12.8 30.933 12.8 11.733 29.867 11.733h256q18.133 0 30.933-11.733 11.733-12.8 11.733-30.933v-170.667h170.667z" />
<glyph unicode="&#xe939;" glyph-name="dpad-left" d="M853.333 618.667q18.133 0 30.933-11.733 11.733-12.8 11.733-30.933v-256q0-17.067-11.733-29.867-12.8-12.8-30.933-12.8h-170.667v-170.667q0-17.067-12.8-29.867t-29.867-12.8h-256q-18.133 0-30.933 12.8-11.733 12.8-11.733 30.933v169.6h-170.667q-17.067 0-29.867 12.8t-12.8 29.867v256q0 18.133 12.8 30.933 12.8 11.733 30.933 11.733h169.6v170.667q0 18.133 11.733 30.933 12.8 11.733 30.933 11.733h256q17.067 0 29.867-11.733 12.8-12.8 12.8-30.933v-170.667h170.667zM295.467 530.133l-7.467 3.2h-10.667l-85.333-85.333 85.333-85.333h10.667l7.467 3.2 3.2 7.467v149.333l-3.2 7.467z" />
<glyph unicode="&#xe93a;" glyph-name="dpad-right" d="M725.333 522.667v-149.333l3.2-7.467 7.467-3.2h10.667l85.333 85.333-85.333 85.333h-10.667l-7.467-3.2-3.2-7.467zM896 576v-256q0-17.067-12.8-29.867t-29.867-12.8h-170.667v-169.6q0-18.133-11.733-30.933-12.8-12.8-30.933-12.8h-256q-17.067 0-29.867 12.8t-12.8 29.867v170.667h-170.667q-18.133 0-30.933 12.8-11.733 12.8-11.733 29.867v256q0 18.133 11.733 30.933 12.8 11.733 30.933 11.733h170.667v170.667q0 18.133 12.8 30.933 12.8 11.733 29.867 11.733h256q18.133 0 30.933-11.733 11.733-12.8 11.733-30.933v-170.667h169.6q18.133 0 30.933-11.733 12.8-12.8 12.8-30.933z" />
<glyph unicode="&#xe93b;" glyph-name="dpad-top" d="M594.133 664.533l3.2 7.467v10.667l-85.333 85.333-85.333-85.333v-10.667l3.2-7.467 7.467-3.2h149.333l7.467 3.2zM353.067 819.2q12.8 12.8 30.933 12.8h256q17.067 0 29.867-12.8t12.8-29.867v-170.667h169.6q18.133 0 30.933-11.733 12.8-12.8 12.8-30.933v-256q0-17.067-12.8-29.867t-29.867-12.8h-170.667v-170.667q0-18.133-12.8-30.933-12.8-11.733-29.867-11.733h-256q-18.133 0-30.933 11.733-11.733 12.8-11.733 30.933v170.667h-170.667q-18.133 0-30.933 12.8-11.733 12.8-11.733 29.867v256q0 18.133 11.733 30.933 12.8 11.733 30.933 11.733h170.667v169.6q0 18.133 11.733 30.933z" />
<glyph unicode="&#xe93c;" glyph-name="eraser" d="M148.267 324.267q-12.8 12.8-13.867 30.933 0 17.067 12.8 29.867l427.733 427.733q11.733 11.733 29.867 12.8 18.133-1.067 29.867-12.8l241.067-242.133q12.8-12.8 13.867-29.867-1.067-18.133-12.8-29.867l-427.733-427.733q-12.8-12.8-29.867-12.8-18.133 0-30.933 12.8l-240 241.067z" />
<glyph unicode="&#xe93d;" glyph-name="exclamation" d="M426.667 213.333q0 35.2 24.533 59.733 25.6 25.6 60.8 25.6 36.267 0 60.8-25.6h-1.067q25.6-25.6 25.6-59.733 0-36.267-25.6-61.867v1.067q-24.533-24.533-59.733-24.533-36.267 0-60.8 24.533-24.533 25.6-24.533 60.8zM584.533 755.2q12.8-12.8 12.8-29.867v-320q0-18.133-12.8-30.933-12.8-11.733-29.867-11.733h-85.333q-18.133 0-30.933 11.733-11.733 12.8-11.733 30.933v318.933q0 18.133 11.733 30.933 12.8 12.8 30.933 12.8h85.333q17.067 0 29.867-12.8z" />
<glyph unicode="&#xe93e;" glyph-name="exclamation-circle" d="M512 896c-124.444 0-230.408-43.369-317.875-130.125-86.756-88.178-130.125-194.142-130.125-317.875 0-124.444 43.369-230.036 130.125-316.792 87.467-87.467 193.431-131.208 317.875-131.208 123.733 0 228.994 43.742 315.75 131.208 88.178 86.756 132.25 192.347 132.25 316.792 0 123.733-44.072 229.697-132.25 317.875-86.756 86.756-192.017 130.125-315.75 130.125zM469.333 768h85.333c11.378 0 21.342-4.258 29.875-12.792s12.792-18.497 12.792-29.875v-320c0-12.089-4.258-22.383-12.792-30.917-8.533-7.822-18.497-11.75-29.875-11.75h-85.333c-12.089 0-22.383 3.928-30.917 11.75-7.822 8.533-11.75 18.828-11.75 30.917v318.917c0 12.089 3.928 22.425 11.75 30.958 8.533 8.533 18.828 12.792 30.917 12.792zM512 298.667c24.178 0 44.436-8.517 60.792-25.583h-1.042c17.067-17.067 25.583-36.994 25.583-59.75 0-24.178-8.517-44.808-25.583-61.875v1.083c-16.356-16.356-36.283-24.542-59.75-24.542-24.178 0-44.436 8.186-60.792 24.542-16.356 17.067-24.542 37.325-24.542 60.792s8.186 43.394 24.542 59.75c17.067 17.067 37.325 25.583 60.792 25.583z" />
<glyph unicode="&#xe93f;" glyph-name="exclamation-circle-alt" d="M512 789.333c-93.867 0-174.239-33.075-241.083-99.208v-1.083h-1.083c-66.133-66.844-99.167-147.175-99.167-241.042 0-94.578 33.406-175.281 100.25-242.125 66.844-66.133 147.217-99.208 241.083-99.208s174.197 33.075 241.042 99.208c66.844 66.844 100.292 147.547 100.292 242.125 0 93.867-33.447 174.197-100.292 241.042s-147.175 100.292-241.042 100.292zM484.625 653.167h54.708c7.296 0 13.695-2.737 19.167-8.208s8.208-11.829 8.208-19.125v-205.208c0-7.752-2.737-14.362-8.208-19.833-5.472-5.016-11.871-7.5-19.167-7.5h-54.708c-7.752 0-14.362 2.484-19.833 7.5-5.016 5.472-7.542 12.082-7.542 19.833v204.5c0 7.752 2.526 14.362 7.542 19.833 5.472 5.472 12.082 8.208 19.833 8.208zM512 352.25c15.503 0 28.471-5.473 38.958-16.417h-0.667c10.943-10.943 16.417-23.742 16.417-38.333 0-15.503-5.473-28.723-16.417-39.667v0.708c-10.487-10.487-23.245-15.75-38.292-15.75-15.503 0-28.513 5.263-39 15.75-10.487 10.943-15.75 23.911-15.75 38.958s5.263 27.846 15.75 38.333c10.943 10.943 23.953 16.417 39 16.417z" />
<glyph unicode="&#xe940;" glyph-name="exclamation-triangle" d="M479.249 601.867l-8.533-6.4q-11.733-12.8-11.733-30.933v-190.933q0-18.133 11.733-30.933l8.533-6.4 21.333-5.333h22.4q17.067 0 29.867 11.733 12.8 12.8 12.8 30.933v192q0 17.067-12.8 29.867t-29.867 12.8h-22.4q-11.733 0-21.333-6.4zM512.316 288.267q-22.4 0-38.4-16-14.933-14.933-14.933-37.333 0-21.333 14.933-37.333 16-16 38.4-16t37.333 16v-1.067q16 16 16 38.4 0 21.333-16 37.333h1.067q-14.933 16-38.4 16zM492.049 773.6q20.267 9.6 41.6 0h1.067q18.133-7.467 27.733-27.733l293.333-526.933q9.6-20.267 8.533-42.667v-1.067q-3.2-24.533-19.2-39.467h1.067q-17.067-18.133-40.533-18.133h-586.667q-24.533 0-40.533 19.2-14.933 16-18.133 38.4t7.467 43.733h1.067l293.333 526.933v1.067q10.667 19.2 28.8 26.667h1.067z" />
<glyph unicode="&#xe941;" glyph-name="exit" d="M449.067 721.467q12.8 14.933 29.867 18.133l299.733 57.6v-640l-299.733-57.6q-17.067-3.2-29.867 6.4-11.733 10.667-11.733 28.8v553.6q0 18.133 11.733 33.067zM288 795.067h105.6v-85.333h-62.933v-512h62.933v-85.333h-105.6q-18.133 0-30.933 11.733-11.733 12.8-11.733 30.933v596.267q0 18.133 11.733 30.933 12.8 12.8 30.933 12.8zM573.867 422.8q12.8 12.8 12.8 30.933 0 17.067-12.8 29.867h1.067q-12.8 12.8-30.933 12.8-17.067 0-29.867-12.8t-12.8-29.867q0-18.133 12.8-30.933 11.733-11.733 29.867-11.733t29.867 11.733z" />
<glyph unicode="&#xe942;" glyph-name="expand" d="M597.333 362.667h85.333l85.333-85.333v85.333h85.333v-256h-256v85.333h85.333l-85.333 85.333v85.333zM170.667 362.667h85.333v-85.333l85.333 85.333h85.333v-85.333l-85.333-85.333h85.333v-85.333h-256v256zM597.333 618.667l85.333 85.333h-85.333v85.333h256v-256h-85.333v85.333l-85.333-85.333h-85.333v85.333zM256 618.667v-85.333h-85.333v256h256v-85.333h-85.333l85.333-85.333v-85.333h-85.333l-85.333 85.333z" />
<glyph unicode="&#xe943;" glyph-name="external" d="M458.667 757.333h341.333q8.533 0 14.933-6.4l6.4-14.933v-341.333l-6.4-14.933-14.933-6.4-14.933 6.4-70.4 70.4-155.733-155.733-14.933-6.4-14.933 6.4-170.667 170.667q-6.4 6.4-6.4 14.933t6.4 14.933l155.733 155.733-70.4 70.4q-6.4 6.4-6.4 14.933t6.4 14.933 14.933 6.4zM373.333 565.333h-85.333v-341.333h341.333v85.333h85.333v-128q0-18.133-11.733-30.933h-1.067q-12.8-11.733-29.867-11.733h-426.667q-18.133 0-30.933 11.733-11.733 12.8-11.733 30.933v425.6q0 18.133 11.733 30.933 12.8 12.8 30.933 12.8h128v-85.333z" />
<glyph unicode="&#xe944;" glyph-name="figure" d="M587.733 558.933q28.8-28.8 52.267-81.067 52.267-117.333 53.333-282.667v-2.133q0-43.733-53.333-75.733-52.267-32-128-32t-129.067 32q-52.267 32-52.267 75.733v2.133q1.067 165.333 52.267 282.667 24.533 52.267 53.333 82.133l-21.333 17.067q-40.533 40.533-40.533 97.067t40.533 96q39.467 40.533 97.067 40.533t98.133-40.533q40.533-39.467 40.533-96t-40.533-97.067l-22.4-18.133z" />
<glyph unicode="&#xe945;" glyph-name="fill" d="M201.026 51.733q-36.267 0-60.8 59.733-24.533 58.667-24.533 142.933t24.533 144q24.533 58.667 60.8 58.667 35.2 0 59.733-58.667 25.6-59.733 25.6-144t-25.6-142.933q-24.533-59.733-59.733-59.733zM502.892 831.467q12.8 12.8 30.933 12.8t30.933-11.733l331.733-331.733q12.8-12.8 11.733-30.933 0-17.067-12.8-29.867l-270.933-270.933q-12.8-12.8-30.933-13.867-16 1.067-28.8 13.867l-331.733 330.667q-12.8 12.8-13.867 29.867 0 18.133 12.8 30.933l270.933 270.933z" />
<glyph unicode="&#xe946;" glyph-name="first-circle" d="M246.4 469.333l167.467-170.667 41.6 42.667-167.467 170.667-41.6-42.667zM64 448q0 185.6 130.133 317.867 131.2 130.133 317.867 130.133 185.6 0 315.733-130.133 132.267-132.267 132.267-317.867 0-186.667-132.267-316.8-130.133-131.2-315.733-131.2-186.667 0-317.867 131.2-130.133 130.133-130.133 316.8zM305.067 530.133l167.467-171.733 42.667 42.667-168.533 170.667-41.6-41.6zM657.067 632.533l-66.133-17.067-125.867-128 41.6-43.733 83.2 86.4 48-49.067-201.6-205.867 61.867-61.867 34.133 34.133h83.2l125.867 129.067-41.6 41.6 42.667 42.667-1.067 86.4-84.267 85.333zM465.067 692.267l-42.667-42.667 84.267-85.333 41.6 42.667-83.2 85.333zM405.333 632.533l-41.6-42.667 84.267-85.333 41.6 41.6-84.267 86.4z" />
<glyph unicode="&#xe947;" glyph-name="fist" d="M259.2 550.933l56.533 56.533 224-228.267-56.533-56.533-224 228.267zM338.133 630.933l55.467 56.533 112-114.133-55.467-56.533-112 114.133zM405.333 242.667l-224 228.267 55.467 56.533 224-228.267-55.467-56.533zM729.6 688.533l112-114.133 1.067-115.2-56.533-56.533 55.467-56.533-168.533-171.733h-110.933l-44.8-45.867-82.133 83.2 268.8 274.133-64 65.067-112-114.133-55.467 57.6 168.533 170.667 88.533 23.467zM584.533 653.333l-56.533-56.533-112 114.133 56.533 56.533 112-114.133z" />
<glyph unicode="&#xe948;" glyph-name="flag" d="M268.8 812.8q8.533 0 14.933-6.4l6.4-14.933v-686.933l-6.4-14.933-14.933-6.4h-88.533l-14.933 6.4q-6.4 6.4-6.4 14.933v686.933q0 8.533 6.4 14.933t14.933 6.4h88.533zM365.867 782.933q231.467-154.667 480-178.133 8.533-1.067 13.867-7.467l5.333-13.867v-12.8l-4.267-13.867q-208-258.133-507.733-232.533-8.533 1.067-13.867 6.4-6.4 6.4-6.4 14.933v420.267q0 7.467 5.333 13.867t13.867 7.467q7.467 1.067 13.867-4.267z" />
<glyph unicode="&#xe949;" glyph-name="flap" d="M830.892 646.933l-459.733-123.733h481.067v-405.333q0-18.133-12.8-30.933-12.8-11.733-29.867-11.733h-554.667q-18.133 0-30.933 11.733-11.733 12.8-11.733 30.933v362.667l-38.4 142.933q-5.333 18.133 3.2 33.067 9.6 16 26.667 21.333l535.467 142.933 32-4.267q16-8.533 21.333-25.6l38.4-144z" />
<glyph unicode="&#xe94a;" glyph-name="forward" d="M149.333 789.333h42.667l298.667-298.667v254.933q0 18.133 11.733 30.933 12.8 12.8 30.933 12.8h42.667l341.333-341.333-341.333-341.333h-42.667q-18.133 0-30.933 11.733-11.733 12.8-11.733 30.933v256l-298.667-298.667h-42.667q-18.133 0-30.933 11.733-11.733 12.8-11.733 30.933v596.267q0 18.133 11.733 30.933 12.8 12.8 30.933 12.8z" />
<glyph unicode="&#xe94b;" glyph-name="gamepad" d="M896 661.333q17.067 0 29.867-12.8t12.8-29.867v-341.333q0-18.133-12.8-30.933-12.8-11.733-29.867-11.733h-768q-18.133 0-30.933 11.733-11.733 12.8-11.733 30.933v340.267q0 18.133 11.733 30.933 12.8 12.8 30.933 12.8h768zM320 576h-85.333v-84.267h-85.333v-85.333h85.333v-85.333h85.333v85.333h84.267v85.333h-84.267v84.267zM861.867 418.133q12.8 11.733 12.8 29.867 0 17.067-12.8 29.867t-29.867 12.8q-18.133 0-30.933-12.8-11.733-12.8-11.733-29.867 0-18.133 11.733-29.867 12.8-12.8 30.933-12.8 17.067 0 29.867 12.8zM712.533 418.133q12.8 11.733 12.8 29.867 0 17.067-12.8 29.867t-29.867 12.8q-18.133 0-30.933-12.8-11.733-12.8-11.733-29.867 0-18.133 11.733-29.867 12.8-12.8 30.933-12.8 17.067 0 29.867 12.8z" />
<glyph unicode="&#xe94c;" glyph-name="gamepad-alt" d="M481.067 723.2l9.6 7.467v5.333h21.333q17.067 0 29.867-12.8t12.8-29.867v-106.667h341.333q17.067 0 29.867-12.8t12.8-29.867v-341.333q0-18.133-12.8-30.933-12.8-11.733-29.867-11.733h-768q-18.133 0-30.933 11.733-11.733 12.8-11.733 30.933v340.267q0 18.133 11.733 30.933 12.8 12.8 30.933 12.8h341.333v105.6q0 18.133 11.733 30.933zM320 501.333h-85.333v-84.267h-85.333v-85.333h85.333v-85.333h85.333v85.333h84.267v85.333h-84.267v84.267zM832 416q-18.133 0-30.933-12.8-11.733-12.8-11.733-29.867 0-18.133 11.733-29.867 12.8-12.8 30.933-12.8 17.067 0 29.867 12.8 12.8 11.733 12.8 29.867 0 17.067-12.8 29.867t-29.867 12.8zM651.733 403.2q-11.733-12.8-11.733-29.867 0-18.133 11.733-29.867 12.8-12.8 30.933-12.8 17.067 0 29.867 12.8 12.8 11.733 12.8 29.867 0 17.067-12.8 29.867t-29.867 12.8q-18.133 0-30.933-12.8z" />
<glyph unicode="&#xe94d;" glyph-name="gamepad-tilt-left" d="M861.921 386.133q-4.267 16-20.267 25.6l-32 3.2q-17.067-4.267-26.667-19.2-7.467-16-3.2-32 5.333-18.133 19.2-25.6l33.067-5.333q17.067 4.267 25.6 21.333 9.6 13.867 4.267 32zM713.655 314.667q9.6 13.867 4.267 32-4.267 16-20.267 25.6l-32 4.267q-17.067-4.267-26.667-19.2-7.467-16-3.2-32 5.333-18.133 19.2-25.6l33.067-5.333q17.067 4.267 25.6 20.267zM396.855 305.067l-81.067-21.333-22.4 82.133-82.133-22.4 22.4-82.133-83.2-21.333 21.333-82.133 83.2 21.333 22.4-82.133 82.133 22.4-22.4 82.133 81.067 21.333-21.333 82.133zM859.788 592q16-8.533 20.267-25.6l88.533-329.6q4.267-17.067-5.333-33.067-8.533-14.933-25.6-19.2l-741.333-199.467-33.067 4.267q-14.933 9.6-19.2 26.667l-88.533 328.533q-4.267 18.133 4.267 33.067 9.6 16 26.667 20.267l741.333 199.467q17.067 4.267 32-5.333zM789.388 787.2q2.133-10.667-7.467-24.533l-66.133-109.867-19.2-14.933q-12.8-3.2-25.6 6.4-40.533 27.733-88.533 37.333h-1.067l-108.8-6.4 23.467-33.067q12.8-17.067 2.133-36.267l-1.067-2.133q-11.733-12.8-27.733-12.8h-2.133l-226.133 28.8h-2.133q-16 3.2-22.4 17.067l2.133-2.133q-9.6 11.733-4.267 25.6v2.133l81.067 226.133q2.133 19.2 27.733 22.4h2.133q18.133 0 27.733-16l1.067-3.2 20.267-45.867q114.133 51.2 242.133 26.667 85.333-14.933 155.733-65.067 16-7.467 17.067-20.267z" />
<glyph unicode="&#xe94e;" glyph-name="gamepad-tilt-right" d="M698.731 210.133q14.933 7.467 19.2 25.6 4.267 16-4.267 32-8.533 14.933-25.6 20.267l-33.067-3.2q-14.933-10.667-18.133-26.667-5.333-18.133 3.2-32 8.533-16 25.6-20.267l33.067 4.267zM857.665 230.4q-8.533 13.867-25.6 19.2l-33.067-4.267q-14.933-9.6-18.133-25.6-5.333-18.133 3.2-32 8.533-16 25.6-21.333l33.067 5.333q16 8.533 19.2 25.6 5.333 16-4.267 33.067zM256.065 404.267l-82.133 23.467-23.467-82.133 82.133-23.467-20.267-82.133 81.067-21.333 22.4 82.133 81.067-22.4 22.4 82.133-81.067 21.333 22.4 83.2-83.2 21.333-21.333-82.133zM696.598 909.867h2.133q25.6-3.2 27.733-22.4l81.067-226.133v-2.133q5.333-13.867-4.267-25.6l2.133 2.133-22.4-17.067h-2.133l-226.133-28.8h-2.133q-16 0-27.733 12.8l-1.067 2.133q-10.667 19.2 2.133 36.267l23.467 33.067-109.867 6.4q-48-9.6-88.533-37.333-12.8-9.6-25.6-6.4-12.8 4.267-19.2 14.933l-66.133 109.867q-9.6 13.867-7.467 24.533 1.067 12.8 17.067 20.267 70.4 50.133 155.733 65.067 128 24.533 242.133-26.667l20.267 45.867 1.067 3.2q9.6 16 27.733 16zM964.331 377.6q8.533-14.933 4.267-32l-88.533-330.667q-5.333-17.067-20.267-25.6l-32-3.2-742.4 197.333q-17.067 4.267-26.667 20.267-7.467 16-3.2 33.067l88.533 328.533q4.267 17.067 19.2 25.6 17.067 9.6 34.133 5.333l741.333-198.4q16-5.333 25.6-20.267z" />
<glyph unicode="&#xe94f;" glyph-name="home" d="M426.667 106.667h-128q-18.133 0-30.933 11.733-11.733 12.8-11.733 30.933v213.333h-85.333v85.333l341.333 341.333 341.333-341.333v-85.333h-85.333v-213.333q0-18.133-12.8-30.933-12.8-11.733-29.867-11.733h-128v256h-170.667v-256z" />
<glyph unicode="&#xe950;" glyph-name="info" d="M554.667 554.667q25.6 0 44.8-19.2t19.2-44.8v-277.333h21.333q25.6 0 44.8-19.2t19.2-44.8v-42.667l-6.4-14.933-14.933-6.4h-341.333q-8.533 0-14.933 6.4t-6.4 14.933v41.6q0 26.667 18.133 44.8v1.067q19.2 19.2 45.867 19.2h21.333v213.333h-64q-8.533 0-14.933 6.4t-6.4 14.933v85.333q0 8.533 6.4 14.933t14.933 6.4h213.333zM436.267 628.267q-30.933 32-30.933 75.733t30.933 74.667q32 32 75.733 32 44.8 0 75.733-32h-1.067q32-32 32-74.667 0-45.867-32-76.8v1.067q-30.933-30.933-74.667-30.933-44.8 0-75.733 30.933z" />
<glyph unicode="&#xe951;" glyph-name="info-circle" d="M512 896c-124.444 0-230.408-43.369-317.875-130.125-86.756-88.178-130.125-194.142-130.125-317.875 0-124.444 43.369-230.036 130.125-316.792 87.467-87.467 193.431-131.208 317.875-131.208 123.733 0 228.994 43.742 315.75 131.208 88.178 86.756 132.25 192.347 132.25 316.792 0 123.733-44.072 229.697-132.25 317.875-86.756 86.756-192.017 130.125-315.75 130.125zM512 810.667c29.867 0 55.128-10.667 75.75-32h-1.083c21.333-21.333 32-46.222 32-74.667 0-30.578-10.667-56.169-32-76.792v1.042c-20.622-20.622-45.511-30.917-74.667-30.917-29.867 0-55.128 10.294-75.75 30.917-20.622 21.333-30.917 46.594-30.917 75.75s10.294 54.044 30.917 74.667c21.333 21.333 46.594 32 75.75 32zM341.333 554.667h213.333c17.067 0 31.992-6.408 44.792-19.208s19.208-27.725 19.208-44.792v-277.333h21.333c17.067 0 31.992-6.408 44.792-19.208s19.208-27.725 19.208-44.792v-42.667l-6.417-14.917-14.917-6.417h-341.333c-5.689 0-10.65 2.15-14.917 6.417s-6.417 9.228-6.417 14.917v41.583c0 17.778 6.036 32.744 18.125 44.833v1.042c12.8 12.8 28.097 19.208 45.875 19.208h21.333v213.333h-64c-5.689 0-10.65 2.15-14.917 6.417s-6.417 9.228-6.417 14.917v85.333c0 5.689 2.15 10.65 6.417 14.917s9.228 6.417 14.917 6.417z" />
<glyph unicode="&#xe952;" glyph-name="info-circle-alt" d="M512 789.333c-93.867 0-174.239-33.075-241.083-99.208v-1.042h-1.042c-66.133-66.844-99.208-147.217-99.208-241.083 0-94.578 33.406-175.281 100.25-242.125 66.844-66.133 147.217-99.208 241.083-99.208h21.333c84.622 4.978 157.883 38.053 219.75 99.208 66.844 66.844 100.25 147.547 100.25 242.125 0 93.867-33.406 174.239-100.25 241.083-61.867 61.867-135.128 94.9-219.75 99.167l-21.333 1.083zM512 680.542c19.151 0 35.318-6.821 48.542-20.5h-0.667c13.679-13.679 20.542-29.636 20.542-47.875 0-19.607-6.862-36.027-20.542-49.25v0.667c-13.223-13.223-29.18-19.833-47.875-19.833-19.151 0-35.319 6.61-48.542 19.833-13.223 13.679-19.833 29.888-19.833 48.583s6.61 34.652 19.833 47.875c13.679 13.679 29.847 20.5 48.542 20.5zM402.583 516.417h136.792c10.943 0 20.501-4.126 28.708-12.333s12.333-17.765 12.333-28.708v-177.833h13.667c10.943 0 20.501-4.126 28.708-12.333s12.333-17.765 12.333-28.708v-27.375l-4.125-9.583-9.583-4.083h-218.833c-3.648 0-6.847 1.347-9.583 4.083s-4.125 5.936-4.125 9.583v26.667c0 11.399 3.873 20.998 11.625 28.75v0.667c8.207 8.208 18.017 12.333 29.417 12.333h13.708v136.792h-41.042c-3.648 0-6.847 1.347-9.583 4.083s-4.125 5.936-4.125 9.583v54.708c0 3.648 1.389 6.848 4.125 9.583s5.936 4.125 9.583 4.125z" />
<glyph unicode="&#xe953;" glyph-name="joystick" d="M192 96.533v145.067q0 26.667 18.133 44.8v1.067q19.2 19.2 45.867 19.2h190.933v206.933q-26.667 11.733-50.133 34.133-45.867 46.933-45.867 113.067t45.867 113.067q48 46.933 114.133 46.933t113.067-46.933 46.933-113.067-46.933-113.067q-22.4-22.4-49.067-34.133v-206.933h193.067q25.6 0 44.8-19.2t19.2-44.8v-146.133l-6.4-14.933-14.933-6.4h-597.333l-14.933 6.4q-6.4 6.4-6.4 14.933z" />
<glyph unicode="&#xe954;" glyph-name="joystick-alt" d="M768 277.333h-85.333v-85.333h85.333v85.333zM682.667 618.667q0-36.267-25.6-60.8-24.533-24.533-59.733-24.533v-170.667h213.333q17.067 0 29.867-12.8t12.8-29.867v-213.333h-682.667v212.267q0 18.133 11.733 30.933 12.8 12.8 30.933 12.8h213.333v170.667q-36.267 0-60.8 24.533-24.533 25.6-24.533 60.8v85.333q0 35.2 24.533 59.733 25.6 25.6 60.8 25.6h170.667q35.2 0 59.733-25.6 25.6-25.6 25.6-59.733v-85.333z" />
<glyph unicode="&#xe955;" glyph-name="joystick-left" d="M565.333 578.365l-38.4-45.867 59.733-222.933h181.333q25.6 0 44.8-19.2t19.2-44.8v-146.133l-6.4-14.933-14.933-6.4h-597.333l-14.933 6.4q-6.4 6.4-6.4 14.933v145.067q0 26.667 18.133 44.8v1.067q19.2 19.2 45.867 19.2h198.4l-51.2 189.867q-28.8 4.267-57.6 20.267-56.533 33.067-73.6 97.067-17.067 62.933 14.933 121.6 35.2 56.533 99.2 73.6t120.533-14.933q57.6-34.133 74.667-97.067 17.067-64-16-121.6z" />
<glyph unicode="&#xe956;" glyph-name="joystick-right" d="M513.067 797.032q58.667 32 122.667 14.933t97.067-73.6q34.133-58.667 17.067-121.6-17.067-64-75.733-97.067-26.667-16-55.467-20.267l-50.133-189.867h199.467q25.6 0 44.8-19.2t19.2-44.8v-146.133l-6.4-14.933q-6.4-6.4-14.933-6.4h-597.333l-14.933 6.4q-6.4 6.4-6.4 14.933v145.067q0 26.667 18.133 44.8v1.067q19.2 19.2 45.867 19.2h179.2l59.733 222.933q-23.467 18.133-40.533 45.867-30.933 57.6-13.867 121.6 17.067 62.933 72.533 97.067z" />
<glyph unicode="&#xe957;" glyph-name="key" d="M393.215 378.806q-33.067 29.867-69.333 38.4-23.467 4.267-39.467-8.533-11.733-14.933-7.467-37.333 7.467-39.467 39.467-73.6l8.533-8.533q28.8-25.6 64-32l3.2-1.067q21.333-2.133 34.133 9.6 10.667 13.867 8.533 34.133v4.267q-7.467 34.133-30.933 64l-7.467 8.533-3.2 2.133zM778.281 705.206q1.067-20.267-7.467-35.2l90.667-91.733q26.667-26.667 0-53.333l-20.267-20.267-9.6-5.333-8.533 4.267-13.867 13.867-48-50.133 13.867-12.8 3.2-8.533-4.267-9.6-19.2-20.267q-27.733-27.733-54.4 0l-90.667 91.733-86.4-89.6q26.667-43.733 36.267-93.867l-2.133-1.067q17.067-91.733-41.6-146.133-55.467-60.8-147.2-45.867-72.533 12.8-132.267 68.267l-8.533 8.533q-62.933 61.867-75.733 139.733v1.067q-5.333 29.867-1.067 54.4 3.2 57.6 43.733 96 39.467 40.533 94.933 45.867l52.267-2.133h3.2q46.933-8.533 88.533-35.2l243.2 246.4q13.867 16 40.533 12.8 23.467-3.2 40.533-21.333l9.6-8.533q10.667-13.867 10.667-32z" />
<glyph unicode="&#xe958;" glyph-name="key-large" d="M904.533 107.733q-12.8-11.733-29.867-11.733h-725.333q-18.133 0-30.933 11.733-11.733 12.8-11.733 30.933v270.933q0-11.733 11.733-24.533 12.8-11.733 30.933-11.733h725.333q17.067 0 29.867 11.733 12.8 12.8 12.8 24.533v-270.933q0-18.133-12.8-30.933zM917.333 757.333v-278.4q0-17.067-12.8-29.867-12.8-11.733-29.867-11.733h-725.333q-18.133 0-30.933 11.733-11.733 12.8-11.733 29.867v277.333q0 18.133 11.733 30.933 12.8 12.8 30.933 12.8h725.333q17.067 0 29.867-12.8t12.8-29.867z" />
<glyph unicode="&#xe959;" glyph-name="key-large-3d" d="M903.49 800l53.333-362.667h-887.467l53.333 362.667h780.8zM1002.69 146.133q3.2-20.267-9.6-35.2-12.8-12.8-33.067-14.933h-896q-21.333 2.133-34.133 14.933-11.733 14.933-8.533 35.2l42.667 264.533q-1.067-9.6 8.533-20.267 10.667-9.6 34.133-17.067h810.667l34.133 17.067 2.133 3.2q7.467 10.667 6.4 22.4l42.667-269.867z" />
<glyph unicode="&#xe95a;" glyph-name="key-small" d="M192 138.667v274.133q0-14.933 11.733-27.733 12.8-11.733 30.933-11.733h554.667q17.067 0 29.867 11.733 12.8 12.8 12.8 27.733v-274.133q0-18.133-12.8-30.933-12.8-11.733-29.867-11.733h-554.667q-18.133 0-30.933 11.733-11.733 12.8-11.733 30.933zM819.2 787.2q12.8-12.8 12.8-29.867v-278.4q0-17.067-12.8-29.867-12.8-11.733-29.867-11.733h-554.667q-18.133 0-30.933 11.733-11.733 12.8-11.733 29.867v277.333q0 18.133 11.733 30.933 12.8 12.8 30.933 12.8h554.667q17.067 0 29.867-12.8z" />
<glyph unicode="&#xe95b;" glyph-name="key-small-3d" d="M775.49 800l53.333-362.667h-631.467l53.333 362.667h524.8zM823.49 390.4l2.133 3.2q7.467 10.667 6.4 22.4l42.667-269.867q3.2-20.267-9.6-35.2-12.8-12.8-33.067-14.933h-640q-21.333 2.133-34.133 14.933-11.733 14.933-8.533 35.2l42.667 264.533q-1.067-9.6 8.533-20.267 10.667-9.6 34.133-17.067h554.667l34.133 17.067z" />
<glyph unicode="&#xe95c;" glyph-name="lock" d="M554.667 277.333h42.667v85.333h-170.667v-85.333h42.667v-85.333h85.333v85.333zM853.333 533.333v-384q0-18.133-12.8-30.933-12.8-11.733-29.867-11.733h-597.333q-18.133 0-30.933 11.733-11.733 12.8-11.733 30.933v384h85.333v170.667q0 35.2 24.533 59.733 25.6 25.6 60.8 25.6h341.333q35.2 0 59.733-25.6 25.6-25.6 25.6-59.733v-170.667h85.333zM682.667 704h-341.333v-170.667h341.333v170.667z" />
<glyph unicode="&#xe95d;" glyph-name="minus" d="M840.533 520.533q12.8-12.8 12.8-29.867v-85.333q0-18.133-12.8-30.933-12.8-11.733-29.867-11.733h-597.333q-18.133 0-30.933 11.733-11.733 12.8-11.733 30.933v84.267q0 18.133 11.733 30.933 12.8 12.8 30.933 12.8h597.333q17.067 0 29.867-12.8z" />
<glyph unicode="&#xe95e;" glyph-name="minus-alt" d="M778.933 520.533q10.4-12.8 10.4-29.867v-85.333q0-18.133-10.4-30.933-10.4-11.733-24.267-11.733h-485.333q-14.733 0-25.133 11.733-9.533 12.8-9.533 30.933v84.267q0 18.133 9.533 30.933 10.4 12.8 25.133 12.8h485.333q13.867 0 24.267-12.8z" />
<glyph unicode="&#xe95f;" glyph-name="minus-circle" d="M512 789.333c-93.867 0-174.239-33.075-241.083-99.208v-1.042h-1.042c-66.133-66.844-99.208-147.217-99.208-241.083 0-94.578 33.406-175.281 100.25-242.125 66.844-66.133 147.217-99.208 241.083-99.208h21.333c84.622 4.978 157.883 38.053 219.75 99.208 66.844 66.844 100.25 147.547 100.25 242.125 0 93.867-33.406 174.239-100.25 241.083-61.867 61.867-135.128 94.9-219.75 99.167l-21.333 1.083zM269.333 533.333h485.333c9.244 0 17.317-4.258 24.25-12.792s10.417-18.497 10.417-29.875v-85.333c0-12.089-3.483-22.383-10.417-30.917-6.933-7.822-15.006-11.75-24.25-11.75h-485.333c-9.822 0-18.192 3.928-25.125 11.75-6.356 8.533-9.542 18.828-9.542 30.917v84.25c0 12.089 3.186 22.425 9.542 30.958 6.933 8.533 15.303 12.792 25.125 12.792z" />
<glyph unicode="&#xe960;" glyph-name="mouse" d="M277.333 545.067h105.6v-80q1.067-53.333 35.2-91.733 38.4-43.733 92.8-42.667 55.467-1.067 93.867 43.733l-2.133-3.2q36.267 39.467 36.267 93.867v80h107.733v210.133h-469.333v-210.133zM225.067 806.4q12.8 12.8 30.933 12.8h512q17.067 0 29.867-12.8t12.8-29.867v-402.133h-1.067q0-123.733-87.467-210.133-86.4-87.467-210.133-87.467h-1.067q-123.733 0-211.2 87.467-86.4 86.4-86.4 210.133v401.067q0 18.133 11.733 30.933zM465.067 673.067q19.2 20.267 45.867 20.267t44.8-20.267q19.2-20.267 19.2-49.067v-158.933q0-28.8-19.2-49.067-18.133-21.333-44.8-21.333t-45.867 21.333q-18.133 20.267-18.133 49.067v158.933q0 28.8 18.133 49.067z" />
<glyph unicode="&#xe961;" glyph-name="mouse-alt" d="M555.733 672q-18.133 20.267-44.8 20.267t-45.867-20.267q-11.733-12.8-14.933-28.8l-3.2-19.2v-158.933q0-28.8 18.133-49.067 19.2-21.333 45.867-21.333t44.8 21.333q19.2 20.267 19.2 49.067v158.933l-2.133 19.2q-5.333 16-17.067 28.8zM810.667 776.533v-402.133h-1.067q0-123.733-87.467-210.133-86.4-87.467-210.133-87.467h-1.067q-123.733 0-211.2 87.467-86.4 86.4-86.4 210.133v401.067q0 18.133 11.733 30.933 12.8 12.8 30.933 12.8h512q17.067 0 29.867-12.8t12.8-29.867zM382.933 545.067v78.933q1.067 52.267 35.2 89.6 36.267 40.533 87.467 41.6h-228.267v-210.133h105.6zM746.667 755.2h-230.4q52.267-1.067 88.533-42.667l-2.133 3.2q36.267-38.4 36.267-91.733v-78.933h107.733v210.133z" />
<glyph unicode="&#xe962;" glyph-name="mouse-left-button" d="M465.067 672q-11.733-12.8-14.933-28.8l-3.2-19.2v-158.933q0-28.8 18.133-49.067 19.2-21.333 45.867-21.333t44.8 21.333q19.2 20.267 19.2 49.067v158.933l-2.133 19.2-17.067 28.8q-18.133 20.267-44.8 20.267t-45.867-20.267zM602.667 715.733q36.267-38.4 36.267-91.733v-78.933h107.733v210.133h-230.4q52.267-1.067 88.533-42.667l-2.133 3.2zM797.867 806.4q12.8-12.8 12.8-29.867v-402.133h-1.067q0-123.733-87.467-210.133-86.4-87.467-210.133-87.467h-1.067q-123.733 0-211.2 87.467-86.4 86.4-86.4 210.133v401.067q0 18.133 11.733 30.933 12.8 12.8 30.933 12.8h512q17.067 0 29.867-12.8z" />
<glyph unicode="&#xe963;" glyph-name="mouse-right-button" d="M277.333 545.067h105.6v78.933q1.067 52.267 35.2 89.6 36.267 40.533 87.467 41.6h-228.267v-210.133zM797.867 806.4q12.8-12.8 12.8-29.867v-402.133h-1.067q0-123.733-87.467-210.133-86.4-87.467-210.133-87.467h-1.067q-123.733 0-211.2 87.467-86.4 86.4-86.4 210.133v401.067q0 18.133 11.733 30.933 12.8 12.8 30.933 12.8h512q17.067 0 29.867-12.8zM450.133 643.2l-3.2-19.2v-158.933q0-28.8 18.133-49.067 19.2-21.333 45.867-21.333t44.8 21.333q19.2 20.267 19.2 49.067v158.933l-2.133 19.2-17.067 28.8q-18.133 20.267-44.8 20.267t-45.867-20.267q-11.733-12.8-14.933-28.8z" />
<glyph unicode="&#xe964;" glyph-name="move-bl" d="M188.8 448.427q0-134.4 94.933-229.333 44.8-44.8 99.2-69.333 40.533-17.067 86.4-22.4v65.067h85.333v-153.6l-42.667 1.067q-68.267 0-129.067 19.2-89.6 28.8-160 99.2-119.467 119.467-119.467 290.133h-64l106.667 128 106.667-128h-64z" />
<glyph unicode="&#xe965;" glyph-name="move-br" d="M466.133 81.493v109.867h85.333v-65.067q107.733 12.8 186.667 91.733 93.867 94.933 93.867 229.333h-64l106.667 128 106.667-128h-64q0-170.667-118.4-290.133-119.467-118.4-290.133-118.4-18.133 0-29.867 11.733-12.8 12.8-12.8 30.933z" />
<glyph unicode="&#xe966;" glyph-name="move-bt" d="M797.867 742.827l5.333-5.333q118.4-118.4 118.4-289.067t-118.4-290.133q-119.467-118.4-290.133-118.4l-42.667-1.067v156.8h85.333v-68.267q107.733 12.8 186.667 91.733 93.867 94.933 93.867 229.333t-93.867 228.267l-5.333 5.333h1.067q-93.867 89.6-225.067 89.6v-64l-128 106.667 128 106.667v-64q165.333 0 283.733-113.067v-1.067h1.067z" />
<glyph unicode="&#xe967;" glyph-name="move-bt2" d="M512 856.96v64l128-106.667-128-106.667v64q-134.4 0-228.267-94.933-94.933-93.867-94.933-228.267t94.933-229.333q77.867-78.933 185.6-91.733v68.267h85.333v-156.8l-42.667 1.067q-170.667 0-289.067 118.4-119.467 119.467-119.467 290.133t119.467 289.067q118.4 119.467 289.067 119.467z" />
<glyph unicode="&#xe968;" glyph-name="move-lb" d="M253.867 492.16v-85.333h-64q11.733-107.733 91.733-186.667 93.867-93.867 228.267-93.867v64l128-106.667-128-106.667v64q-170.667 0-289.067 118.4-119.467 119.467-119.467 290.133 0 18.133 12.8 29.867 11.733 12.8 29.867 12.8h109.867z" />
<glyph unicode="&#xe969;" glyph-name="move-lr" d="M260.267 406.4h-156.8l1.067 42.667q0 170.667 119.467 289.067 70.4 71.467 160 100.267 60.8 19.2 129.067 19.2 170.667 0 290.133-119.467 118.4-118.4 118.4-289.067h64l-106.667-128-106.667 128h64q0 134.4-93.867 228.267-94.933 94.933-229.333 94.933-70.4 0-129.067-25.6-54.4-23.467-99.2-69.333-80-77.867-91.733-185.6h67.2v-85.333z" />
<glyph unicode="&#xe96a;" glyph-name="move-lr2" d="M104.533 447.36l-1.067 42.667h156.8v-85.333h-67.2l3.2-20.267q16-94.933 88.533-166.4 93.867-93.867 228.267-93.867t229.333 93.867q71.467 71.467 88.533 166.4l5.333 62.933h-64l106.667 128 106.667-128h-64l-4.267-62.933q-18.133-130.133-114.133-227.2-119.467-118.4-290.133-118.4t-289.067 118.4q-97.067 97.067-115.2 227.2l-4.267 62.933z" />
<glyph unicode="&#xe96b;" glyph-name="move-lt" d="M641.067 814.933l-128-106.667v64q-130.133 0-221.867-88.533l-6.4-6.4q-80-77.867-91.733-185.6h64v-85.333h-153.6l1.067 42.667q0 133.333 73.6 234.667 19.2 28.8 45.867 54.4 44.8 44.8 97.067 73.6l2.133 1.067q62.933 33.067 135.467 41.6l54.4 3.2v64l128-106.667z" />
<glyph unicode="&#xe96c;" glyph-name="move-rb" d="M908.587 479.36q11.733-11.733 11.733-29.867 0-170.667-118.4-290.133-119.467-118.4-290.133-118.4v-64l-128 106.667 128 106.667v-64q134.4 0 229.333 93.867 78.933 78.933 91.733 186.667h-68.267v85.333h113.067q18.133 0 30.933-12.8z" />
<glyph unicode="&#xe96d;" glyph-name="move-rl" d="M512 124.16q134.4 0 229.333 93.867 71.467 71.467 88.533 166.4l3.2 20.267h-68.267v85.333h156.8l-1.067-42.667-4.267-62.933q-18.133-130.133-114.133-227.2-119.467-118.4-290.133-118.4t-289.067 118.4q-97.067 97.067-115.2 227.2l-4.267 62.933h-64l106.667 128 106.667-128h-64q0-33.067 5.333-62.933 18.133-94.933 89.6-166.4 93.867-93.867 228.267-93.867z" />
<glyph unicode="&#xe96e;" glyph-name="move-rl2" d="M921.6 406.4h-156.8v85.333h68.267q-12.8 107.733-91.733 185.6-94.933 94.933-229.333 94.933t-228.267-94.933q-94.933-93.867-94.933-228.267h64l-106.667-128-106.667 128h64q0 170.667 119.467 289.067 118.4 119.467 289.067 119.467t290.133-119.467q118.4-118.4 118.4-289.067l1.067-42.667z" />
<glyph unicode="&#xe96f;" glyph-name="move-rt" d="M920.533 406.4h-156.8v85.333h68.267q-12.8 107.733-91.733 185.6-94.933 94.933-229.333 94.933v-64l-128 106.667 128 106.667v-64q170.667 0 290.133-119.467 118.4-118.4 118.4-289.067l1.067-42.667z" />
<glyph unicode="&#xe970;" glyph-name="move-tb" d="M553.6 769.493v-67.2h-85.333v156.8l42.667-1.067q170.667 0 290.133-119.467 118.4-118.4 118.4-289.067t-118.4-290.133l-5.333-5.333h-1.067q-118.4-113.067-283.733-113.067v-64l-128 106.667 128 106.667v-64q130.133 0 224 88.533l5.333 5.333q93.867 94.933 93.867 229.333t-93.867 228.267q-78.933 80-186.667 91.733z" />
<glyph unicode="&#xe971;" glyph-name="move-tb2" d="M512 858.027l42.667 1.067v-156.8h-85.333v67.2q-107.733-11.733-185.6-91.733-94.933-93.867-94.933-228.267t94.933-229.333q93.867-93.867 228.267-93.867v64l128-106.667-128-106.667v64q-170.667 0-289.067 118.4-119.467 119.467-119.467 290.133t119.467 289.067q118.4 119.467 289.067 119.467z" />
<glyph unicode="&#xe972;" glyph-name="move-tl" d="M469.333 701.867v67.2q-45.867-5.333-86.4-22.4-54.4-23.467-99.2-69.333-94.933-93.867-94.933-228.267h64l-106.667-128-106.667 128h64q0 170.667 119.467 289.067 70.4 71.467 160 100.267 60.8 19.2 129.067 19.2l42.667 1.067v-156.8h-85.333z" />
<glyph unicode="&#xe973;" glyph-name="move-tr" d="M740.267 677.333q-78.933 80-186.667 91.733v-67.2h-85.333v113.067q0 18.133 12.8 29.867 11.733 12.8 29.867 12.8 170.667 0 290.133-119.467 118.4-118.4 118.4-289.067h64l-106.667-128-106.667 128h64q0 134.4-93.867 228.267z" />
<glyph unicode="&#xe974;" glyph-name="movie" d="M233.6 405.333h84.267v106.667h-84.267v-106.667zM233.6 277.333v-106.667h84.267v106.667h-84.267zM317.867 618.667v106.667h-84.267v-106.667h84.267zM638.933 170.667v234.667h-256v-234.667h256zM702.933 405.333h84.267v106.667h-84.267v-106.667zM702.933 170.667h84.267v106.667h-84.267v-106.667zM382.933 725.333v-256h256v256h-256zM853.333 746.667v-597.333q0-18.133-12.8-30.933-12.8-11.733-29.867-11.733h-597.333q-18.133 0-30.933 11.733-11.733 12.8-11.733 30.933v596.267q0 18.133 11.733 30.933 12.8 12.8 30.933 12.8h597.333q17.067 0 29.867-12.8t12.8-29.867zM787.2 725.333h-84.267v-106.667h84.267v106.667z" />
<glyph unicode="&#xe975;" glyph-name="music" d="M799.947 716.575v-329.6q-6.4-58.667-42.667-96h-2.133q-38.4-42.667-90.667-46.933h-1.067q-54.4-5.333-90.667 33.067-35.2 34.133-29.867 91.733 5.333 51.2 42.667 89.6 36.267 36.267 78.933 42.667h28.8v106.667h-213.333v-362.667q2.133-40.533-43.733-81.067l-1.067-3.2q-38.4-37.333-88.533-42.667h-1.067q-55.467-5.333-90.667 30.933-36.267 35.2-29.867 89.6 4.267 53.333 41.6 92.8l2.133 1.067q35.2 34.133 76.8 42.667h1.067l48-2.133v341.333q-2.133 66.133 52.267 64h289.067q64 0 64-61.867z" />
<glyph unicode="&#xe976;" glyph-name="music-off" d="M511.413 359.259l116.267-116.267q-52.267-2.133-86.4 34.133-32 30.933-29.867 82.133zM235.147 331.525l2.133 1.067q35.2 34.133 76.8 42.667h1.067l48-2.133v134.4l85.333-85.333v-177.067q2.133-40.533-43.733-81.067l-1.067-3.2q-38.4-37.333-88.533-42.667h-1.067q-55.467-5.333-90.667 30.933-36.267 35.2-29.867 89.6 4.267 53.333 41.6 92.8zM267.147 724.059q12.8 12.8 30.933 12.8t29.867-12.8l490.667-490.667q12.8-11.733 12.8-29.867t-12.8-30.933q-11.733-11.733-29.867-11.733t-30.933 11.733l-490.667 490.667q-11.733 12.8-11.733 30.933t11.733 29.867zM367.413 746.459q9.6 33.067 48 32h289.067q64 0 64-61.867v-329.6l-6.4-35.2-145.067 145.067 16 4.267h28.8v106.667h-155.733l-138.667 138.667z" />
<glyph unicode="&#xe977;" glyph-name="network" d="M722.133 831.467q62.933 0 107.733-43.733 44.8-44.8 44.8-109.867 0-62.933-44.8-107.733t-107.733-44.8q-64 0-108.8 44.8l-11.733 12.8-149.333-103.467 3.2-30.933-5.333-40.533 150.4-96 12.8 14.933q44.8 44.8 108.8 44.8 62.933 0 107.733-44.8t44.8-108.8-44.8-108.8-107.733-44.8q-64 0-108.8 44.8-43.733 44.8-43.733 108.8l2.133 22.4-160 101.333-2.133-2.133q-44.8-44.8-107.733-44.8-64 0-108.8 44.8-43.733 44.8-43.733 108.8t43.733 108.8q44.8 44.8 108.8 44.8 62.933 0 107.733-44.8l8.533-8.533 153.6 104.533-2.133 24.533q0 65.067 43.733 109.867 44.8 43.733 108.8 43.733z" />
<glyph unicode="&#xe978;" glyph-name="off" d="M568.533 800l6.4-14.933v-362.667l-6.4-14.933-14.933-6.4h-85.333l-14.933 6.4q-6.4 6.4-6.4 14.933v362.667q0 8.533 6.4 14.933t14.933 6.4h85.333q8.533 0 14.933-6.4zM744.533 711.467l18.133-16v-1.067q103.467-103.467 103.467-250.667t-103.467-249.6l-1.067-1.067q-102.4-103.467-249.6-103.467t-250.667 103.467-103.467 250.667q0 144 99.2 246.4l4.267 5.333 17.067 14.933q6.4 5.333 16 4.267 8.533 0 13.867-7.467l54.4-65.067 5.333-14.933-7.467-14.933-8.533-7.467-3.2-3.2q-62.933-66.133-62.933-157.867 0-93.867 66.133-160t160-66.133q91.733 0 156.8 62.933l6.4 6.4q62.933 65.067 62.933 156.8 0 93.867-66.133 160h-1.067l-9.6 9.6-7.467 14.933q0 8.533 5.333 14.933l55.467 65.067q5.333 7.467 14.933 7.467l14.933-4.267z" />
<glyph unicode="&#xe979;" glyph-name="paint-brush" d="M193.496 253.333l2.133 2.133q22.4 22.4 54.4 22.4 32 1.067 55.467-21.333 22.4-22.4 22.4-54.4t-22.4-54.4l-2.133-2.133q-48-46.933-99.2-66.133l-74.667 2.133q-23.467 22.4-3.2 73.6 19.2 51.2 67.2 98.133zM829.229 816.533l77.867-72.533q-381.867-625.067-594.133-534.4l-36.267 36.267q-74.667 229.333 552.533 570.667z" />
<glyph unicode="&#xe97a;" glyph-name="pause" d="M456.533 776.533q12.8-12.8 12.8-29.867v-597.333q0-18.133-12.8-30.933-12.8-11.733-29.867-11.733h-170.667q-18.133 0-30.933 11.733-11.733 12.8-11.733 30.933v596.267q0 18.133 11.733 30.933 12.8 12.8 30.933 12.8h170.667q17.067 0 29.867-12.8zM810.667 746.667v-597.333q0-18.133-12.8-30.933-12.8-11.733-29.867-11.733h-170.667q-18.133 0-30.933 11.733-11.733 12.8-11.733 30.933v596.267q0 18.133 11.733 30.933 12.8 12.8 30.933 12.8h170.667q17.067 0 29.867-12.8t12.8-29.867z" />
<glyph unicode="&#xe97b;" glyph-name="pencil" d="M387.2 115.2l-208-40.533-40.533 40.533 40.533 208 498.133 498.133 208-206.933-498.133-499.2z" />
<glyph unicode="&#xe97c;" glyph-name="player-four" d="M569.6 585.067q3.2-13.867 16-21.333l25.6-3.2 21.333 16q7.467 12.8 4.267 26.667t-17.067 20.267l-26.667 4.267q-13.867-3.2-20.267-17.067-6.4-11.733-3.2-25.6zM752 801.6q12.8-6.4 16-20.267l72.533-266.667-3.2-26.667-21.333-16-604.8-160-25.6 3.2q-12.8 6.4-16 20.267l-72.533 265.6q-3.2 14.933 3.2 27.733 7.467 11.733 21.333 16l268.8 71.467-22.4 83.2q-4.267 13.867 3.2 25.6l5.333 8.533-1.067 4.267 17.067 4.267 26.667-4.267q11.733-7.467 16-21.333l22.4-83.2 268.8 71.467 25.6-3.2zM921.6 60.267q-6.4-6.4-14.933-6.4h-42.667q-8.533 0-14.933 6.4t-6.4 14.933v106.667h-106.667q-8.533 0-14.933 6.4t-6.4 14.933v170.667q0 8.533 6.4 14.933t14.933 6.4h42.667q8.533 0 14.933-6.4l6.4-14.933v-106.667h42.667v106.667q0 8.533 6.4 14.933t14.933 6.4h42.667q8.533 0 14.933-6.4l6.4-14.933v-298.667l-6.4-14.933zM702.933 595.733l26.667-3.2 21.333 14.933 3.2 26.667q-3.2 13.867-16 20.267-13.867 8.533-26.667 5.333-14.933-4.267-21.333-17.067t-3.2-26.667 16-20.267zM374.4 570.133l-66.133-18.133-17.067 66.133-67.2-17.067 17.067-66.133-67.2-18.133 18.133-66.133 67.2 18.133 18.133-67.2 67.2 17.067-18.133 67.2 66.133 18.133-18.133 66.133z" />
<glyph unicode="&#xe97d;" glyph-name="player-one" d="M363.733 570.133l-66.133-18.133-17.067 66.133-67.2-17.067 17.067-66.133-67.2-18.133 18.133-66.133 67.2 18.133 18.133-67.2 67.2 17.067-18.133 67.2 66.133 18.133-18.133 66.133zM741.333 801.6q12.8-6.4 16-20.267l72.533-266.667-3.2-26.667-21.333-16-604.8-160-25.6 3.2q-12.8 6.4-16 20.267l-72.533 265.6q-3.2 14.933 3.2 27.733 7.467 11.733 21.333 16l268.8 71.467-22.4 83.2q-4.267 13.867 3.2 25.6l5.333 8.533-1.067 4.267 17.067 4.267 26.667-4.267q11.733-7.467 16-21.333l22.4-83.2 268.8 71.467 25.6-3.2zM938.667 373.867v-298.667l-6.4-14.933-14.933-6.4h-42.667l-14.933 6.4q-6.4 6.4-6.4 14.933v234.667h-42.667l-14.933 6.4-6.4 14.933v42.667q0 8.533 6.4 14.933t14.933 6.4h106.667q8.533 0 14.933-6.4l6.4-14.933zM676.267 616q3.2-13.867 16-20.267l26.667-3.2 21.333 14.933 3.2 26.667q-3.2 13.867-16 20.267-13.867 8.533-26.667 5.333-14.933-4.267-21.333-17.067t-3.2-26.667zM621.867 576.533q7.467 12.8 4.267 26.667t-17.067 20.267l-26.667 4.267q-13.867-3.2-20.267-17.067-6.4-11.733-3.2-25.6t16-21.333l25.6-3.2 21.333 16z" />
<glyph unicode="&#xe97e;" glyph-name="player-three" d="M921.6 388.8l6.4-14.933v-298.667l-6.4-14.933-14.933-6.4h-170.667l-14.933 6.4q-6.4 6.4-6.4 14.933v42.667q0 8.533 6.4 14.933t14.933 6.4h106.667v42.667h-106.667l-14.933 6.4q-6.4 6.4-6.4 14.933v42.667q0 8.533 6.4 14.933t14.933 6.4h106.667v42.667h-106.667l-14.933 6.4q-6.4 6.4-6.4 14.933v42.667q0 8.533 6.4 14.933t14.933 6.4h170.667q8.533 0 14.933-6.4zM686.933 616q3.2-13.867 16-20.267l26.667-3.2 21.333 14.933 3.2 26.667q-3.2 13.867-16 20.267-13.867 8.533-26.667 5.333-14.933-4.267-21.333-17.067t-3.2-26.667zM636.8 603.2q-3.2 13.867-17.067 20.267l-26.667 4.267q-13.867-3.2-20.267-17.067-6.4-11.733-3.2-25.6t16-21.333l25.6-3.2q13.867 4.267 21.333 16 7.467 12.8 4.267 26.667zM173.867 516.8l18.133-66.133 67.2 18.133 18.133-67.2 67.2 17.067-18.133 67.2 66.133 18.133-18.133 66.133-66.133-18.133-17.067 66.133-67.2-17.067 17.067-66.133-67.2-18.133zM97.067 601.067q-3.2 14.933 3.2 27.733 7.467 11.733 21.333 16l268.8 71.467-22.4 83.2q-4.267 13.867 3.2 25.6l5.333 8.533-1.067 4.267 17.067 4.267 26.667-4.267q11.733-7.467 16-21.333l22.4-83.2 268.8 71.467 25.6-3.2q12.8-6.4 16-20.267l72.533-266.667-3.2-26.667q-8.533-11.733-21.333-16l-604.8-160-25.6 3.2q-12.8 6.4-16 20.267l-72.533 265.6z" />
<glyph unicode="&#xe97f;" glyph-name="player-two" d="M721.067 388.8q6.4 6.4 14.933 6.4h170.667q8.533 0 14.933-6.4l6.4-14.933v-170.667l-6.4-14.933q-6.4-6.4-14.933-6.4h-106.667v-42.667h106.667q8.533 0 14.933-6.4l6.4-14.933v-42.667l-6.4-14.933q-6.4-6.4-14.933-6.4h-170.667q-8.533 0-14.933 6.4t-6.4 14.933v170.667q0 8.533 6.4 14.933t14.933 6.4h106.667v42.667h-106.667q-8.533 0-14.933 6.4t-6.4 14.933v42.667q0 8.533 6.4 14.933zM611.2 560.533l21.333 16q7.467 12.8 4.267 26.667t-17.067 20.267l-26.667 4.267q-13.867-3.2-20.267-17.067-6.4-11.733-3.2-25.6t16-21.333l25.6-3.2zM738.133 654.4q-13.867 8.533-26.667 5.333-14.933-4.267-21.333-17.067t-3.2-26.667 16-20.267l26.667-3.2q12.8 3.2 21.333 14.933 6.4 12.8 3.2 26.667t-16 20.267zM375.467 837.867l17.067 4.267 26.667-4.267q11.733-7.467 16-21.333l22.4-83.2 268.8 71.467 25.6-3.2q12.8-6.4 16-20.267l72.533-266.667-3.2-26.667-21.333-16-604.8-160-25.6 3.2q-12.8 6.4-16 20.267l-72.533 265.6q-3.2 14.933 3.2 27.733 7.467 11.733 21.333 16l268.8 71.467-22.4 83.2q-4.267 13.867 3.2 25.6l5.333 8.533-1.067 4.267zM308.267 552l-17.067 66.133-67.2-17.067 17.067-66.133-67.2-18.133 18.133-66.133 67.2 18.133 18.133-67.2 67.2 17.067-18.133 67.2 66.133 18.133-18.133 66.133-66.133-18.133z" />
<glyph unicode="&#xe980;" glyph-name="plus" d="M213.333 533.333h213.333v212.267q0 18.133 11.733 30.933 12.8 12.8 30.933 12.8h85.333q17.067 0 29.867-12.8t12.8-29.867v-213.333h213.333q17.067 0 29.867-12.8t12.8-29.867v-85.333q0-18.133-12.8-30.933-12.8-11.733-29.867-11.733h-213.333v-213.333q0-18.133-12.8-30.933-12.8-11.733-29.867-11.733h-85.333q-18.133 0-30.933 11.733-11.733 12.8-11.733 30.933v213.333h-213.333q-18.133 0-30.933 11.733-11.733 12.8-11.733 30.933v84.267q0 18.133 11.733 30.933 12.8 12.8 30.933 12.8z" />
<glyph unicode="&#xe981;" glyph-name="plus-alt" d="M438.4 712.533q12.8 12.8 30.933 12.8h85.333q17.067 0 29.867-12.8t12.8-29.867v-149.333h149.333q17.067 0 29.867-12.8t12.8-29.867v-85.333q0-18.133-12.8-30.933-12.8-11.733-29.867-11.733h-149.333v-149.333q0-18.133-12.8-30.933-12.8-11.733-29.867-11.733h-85.333q-18.133 0-30.933 11.733-11.733 12.8-11.733 30.933v149.333h-149.333q-18.133 0-30.933 11.733-11.733 12.8-11.733 30.933v84.267q0 18.133 11.733 30.933 12.8 12.8 30.933 12.8h149.333v148.267q0 18.133 11.733 30.933z" />
<glyph unicode="&#xe982;" glyph-name="plus-circle" d="M512 789.333c-93.867 0-174.239-33.075-241.083-99.208v-1.042h-1.042c-66.133-66.844-99.208-147.217-99.208-241.083 0-94.578 33.406-175.281 100.25-242.125 66.844-66.133 147.217-99.208 241.083-99.208h21.333c84.622 4.978 157.883 38.053 219.75 99.208 66.844 66.844 100.25 147.547 100.25 242.125 0 93.867-33.406 174.239-100.25 241.083-61.867 61.867-135.128 94.9-219.75 99.167l-21.333 1.083zM469.333 725.333h85.333c11.378 0 21.342-4.258 29.875-12.792s12.792-18.497 12.792-29.875v-149.333h149.333c11.378 0 21.342-4.258 29.875-12.792s12.792-18.497 12.792-29.875v-85.333c0-12.089-4.258-22.383-12.792-30.917-8.533-7.822-18.497-11.75-29.875-11.75h-149.333v-149.333c0-12.089-4.258-22.383-12.792-30.917-8.533-7.822-18.497-11.75-29.875-11.75h-85.333c-12.089 0-22.383 3.928-30.917 11.75-7.822 8.533-11.75 18.828-11.75 30.917v149.333h-149.333c-12.089 0-22.383 3.928-30.917 11.75-7.822 8.533-11.75 18.828-11.75 30.917v84.25c0 12.089 3.928 22.425 11.75 30.958 8.533 8.533 18.828 12.792 30.917 12.792h149.333v148.25c0 12.089 3.928 22.425 11.75 30.958 8.533 8.533 18.828 12.792 30.917 12.792z" />
<glyph unicode="&#xe983;" glyph-name="podium" d="M213.333 362.667h85.333v85.333h-85.333v-85.333zM554.667 618.667h-85.333v-85.333h85.333v85.333zM384 704h256v-256h256v-256h-768v341.333h256v170.667zM725.333 362.667v-85.333h85.333v85.333h-85.333z" />
<glyph unicode="&#xe984;" glyph-name="podium-alt" d="M469.333 640v-28.8h30.933v-120.533h33.067v149.333h-64zM358.4 339.2q0 21.333-14.933 34.133-13.867 10.667-33.067 10.667t-30.933-8.533q-12.8-7.467-23.467-23.467l26.667-16q12.8 20.267 25.6 20.267l12.8-4.267 5.333-12.8-6.4-16-18.133-20.267-42.667-43.733v-24.533h103.467v29.867h-58.667l26.667 26.667 21.333 26.667 6.4 21.333zM768 283.733q0 16-9.6 27.733t-27.733 14.933l30.933 34.133v23.467h-91.733v-28.8h46.933l-28.8-33.067v-23.467l20.267 3.2q12.8 0 20.267-5.333t7.467-14.933l-6.4-13.867-17.067-4.267q-16 0-37.333 14.933l-13.867-26.667q25.6-17.067 50.133-17.067t40.533 12.8 16 36.267zM648.533 733.867q12.8-12.8 12.8-29.867v-234.667h170.667q17.067 0 29.867-12.8t12.8-29.867v-234.667q0-18.133-12.8-30.933-12.8-11.733-29.867-11.733h-640q-18.133 0-30.933 11.733-11.733 12.8-11.733 30.933v233.6q0 18.133 11.733 30.933 12.8 12.8 30.933 12.8h149.333v233.6q0 18.133 11.733 30.933 12.8 12.8 30.933 12.8h234.667q17.067 0 29.867-12.8z" />
<glyph unicode="&#xe985;" glyph-name="pointer" d="M708.278 661.622l145.067-251.733q26.667-46.933-13.867-112-41.6-68.267-128-118.4-86.4-49.067-163.2-51.2-78.933-4.267-104.533 41.6l-20.267 33.067-169.6 48q-37.333 7.467-56.533 40.533-16 26.667-10.667 57.6l2.133 8.533 2.133 3.2q6.4 23.467 25.6 41.6l13.867 11.733q32 17.067 68.267 7.467l-128 224q-13.867 24.533-9.6 50.133l2.133 12.8q8.533 32 36.267 46.933l1.067 2.133q28.8 14.933 60.8 8.533 32-8.533 49.067-38.4l67.2-119.467h1.067q25.6 23.467 61.867 43.733 86.4 49.067 165.333 53.333 75.733 1.067 102.4-43.733z" />
<glyph unicode="&#xe986;" glyph-name="question" d="M520.533 298.667q40.533 0 69.333-26.667 28.8-27.733 28.8-68.267t-28.8-69.333q-28.8-27.733-69.333-27.733-38.4 0-66.133 27.733t-27.733 69.333q0 40.533 27.733 68.267 27.733 26.667 66.133 26.667zM476.8 557.867q-7.467-6.4-18.133-6.4h-135.467l-12.8 4.267-9.6 9.6-2.133 16q8.533 98.133 69.333 152.533 59.733 55.467 150.4 55.467t148.267-49.067q58.667-52.267 58.667-142.933 0-43.733-11.733-64l-11.733-22.4h1.067l-19.2-28.8-1.067-1.067-17.067-19.2v-1.067l-39.467-38.4-16-18.133h-6.4v-1.067h6.4l-4.267-5.333-2.133-18.133v-14.933l-7.467-17.067-19.2-6.4h-130.133l-18.133 6.4q-7.467 7.467-8.533 17.067v59.733h3.2q2.133 19.2 8.533 30.933 9.6 20.267 42.667 55.467l57.6 57.6 5.333 23.467-7.467 23.467q-5.333 7.467-14.933 6.4-9.6 0-17.067-8.533v1.067q-9.6-14.933-11.733-39.467l-9.6-17.067z" />
<glyph unicode="&#xe987;" glyph-name="question-circle" d="M512 896c-124.444 0-230.408-43.369-317.875-130.125-86.756-88.178-130.125-194.142-130.125-317.875 0-124.444 43.369-230.036 130.125-316.792 87.467-87.467 193.431-131.208 317.875-131.208 123.733 0 228.994 43.742 315.75 131.208 88.178 86.756 132.25 192.347 132.25 316.792 0 123.733-44.072 229.697-132.25 317.875-86.756 86.756-192.017 130.125-315.75 130.125zM518.417 789.333c60.444 0 109.85-16.372 148.25-49.083 39.111-34.844 58.667-82.472 58.667-142.917 0-29.156-3.928-50.489-11.75-64l-11.708-22.417h1.042l-19.167-28.792-1.083-1.042-17.083-19.208v-1.083l-39.458-38.375-16-18.167h-6.375v-1.042h6.375l-4.25-5.333-2.125-18.125v-14.958l-7.5-17.042-19.167-6.417h-130.167l-18.125 6.417c-4.978 4.978-7.831 10.642-8.542 17.042v59.75h3.208c1.422 12.8 4.275 23.094 8.542 30.917 6.4 13.511 20.622 31.992 42.667 55.458l57.583 57.625 5.333 23.458-7.458 23.458c-3.556 4.978-8.517 7.128-14.917 6.417-6.4 0-12.106-2.853-17.083-8.542v1.083c-6.4-9.956-10.286-23.144-11.708-39.5l-9.625-17.042c-4.978-4.267-11.014-6.417-18.125-6.417h-135.458l-12.792 4.292-9.625 9.583-2.125 16c5.689 65.422 28.8 116.275 69.333 152.542 39.822 36.978 89.972 55.458 150.417 55.458zM509.875 298.667c27.022 0 50.133-8.889 69.333-26.667 19.2-18.489 28.792-41.228 28.792-68.25s-9.592-50.133-28.792-69.333c-19.2-18.489-42.311-27.75-69.333-27.75-25.6 0-47.636 9.261-66.125 27.75s-27.75 41.6-27.75 69.333c0 27.022 9.261 49.761 27.75 68.25 18.489 17.778 40.525 26.667 66.125 26.667z" />
<glyph unicode="&#xe988;" glyph-name="question-circle-alt" d="M512 789.333c-93.867 0-174.239-33.075-241.083-99.208v-1.042h-1.042c-66.133-66.844-99.208-147.217-99.208-241.083 0-94.578 33.406-175.281 100.25-242.125 66.844-66.133 147.217-99.208 241.083-99.208h21.333c84.622 4.978 157.883 38.053 219.75 99.208 66.844 66.844 100.25 147.547 100.25 242.125 0 93.867-33.406 174.239-100.25 241.083-61.867 61.867-135.128 94.9-219.75 99.167l-21.333 1.083zM516.083 666.875c38.758 0 70.461-10.484 95.083-31.458 25.079-22.343 37.625-52.909 37.625-91.667 0-18.695-2.526-32.378-7.542-41.042l-7.5-14.375h0.667l-12.292-18.458-0.708-0.667-10.917-12.333v-0.667l-25.333-24.625-10.25-11.625h-4.083v-0.667h4.083l-2.708-3.458-1.375-11.625v-9.542l-4.792-10.958-12.333-4.125h-83.417l-11.625 4.125c-3.192 3.192-5.044 6.855-5.5 10.958v38.292h2.083c0.911 8.208 2.721 14.818 5.458 19.833 4.104 8.663 13.24 20.495 27.375 35.542l36.917 36.958 3.417 15.042-4.792 15.042c-2.28 3.192-5.48 4.581-9.583 4.125-4.104 0-7.725-1.852-10.917-5.5v0.708c-4.104-6.384-6.63-14.846-7.542-25.333l-6.167-10.917c-3.192-2.736-7.065-4.125-11.625-4.125h-86.833l-8.208 2.75-6.167 6.167-1.375 10.25c3.648 41.949 18.468 74.537 44.458 97.792 25.534 23.711 57.659 35.583 96.417 35.583zM517.458 352.25c17.327 0 32.147-5.684 44.458-17.083 12.311-11.855 18.458-26.465 18.458-43.792s-6.147-32.147-18.458-44.458c-12.311-11.855-27.131-17.792-44.458-17.792-16.415 0-30.52 5.936-42.375 17.792s-17.792 26.675-17.792 44.458c0 17.327 5.937 31.936 17.792 43.792 11.855 11.399 25.96 17.083 42.375 17.083z" />
<glyph unicode="&#xe989;" glyph-name="reduce" d="M768 277.333l85.333-85.333v-85.333h-85.333l-85.333 85.333v-85.333h-85.333v256h256v-85.333h-85.333zM170.667 362.667h256v-256h-85.333v85.333l-85.333-85.333h-85.333v85.333l85.333 85.333h-85.333v85.333zM426.667 789.333v-256h-256v85.333h85.333l-85.333 85.333v85.333h85.333l85.333-85.333v85.333h85.333zM853.333 789.333v-85.333l-85.333-85.333h85.333v-85.333h-256v256h85.333v-85.333l85.333 85.333h85.333z" />
<glyph unicode="&#xe98a;" glyph-name="reload" d="M787.749 615.449l22.4-41.6 1.067-2.133q67.2-133.333-11.733-272-78.933-145.067-235.733-150.4-12.8-1.067-23.467 7.467-9.6 8.533-10.667 22.4-11.733 76.8-9.6 113.067 1.067 12.8 8.533 22.4 8.533 9.6 22.4 9.6 65.067 5.333 98.133 60.8l-1.067-1.067q32 53.333 8.533 106.667-30.933 72.533-104.533 76.8h-1.067q-52.267 1.067-89.6-36.267 52.267-29.867 73.6-49.067 8.533-7.467 10.667-18.133l-1.067-21.333-14.933-16-296.533-171.733-23.467-3.2q-11.733 1.067-20.267 10.667l-7.467 21.333 1.067 347.733 4.267 18.133 13.867 13.867 16 4.267 16-4.267 74.667-42.667q40.533 54.4 90.667 83.2v1.067q101.333 60.8 211.2 33.067 105.6-25.6 174.933-119.467l3.2-3.2z" />
<glyph unicode="&#xe98b;" glyph-name="robot" d="M384 533.333h256v256h-256v-256zM725.333 490.667q0-18.133-12.8-30.933-12.8-11.733-29.867-11.733h-51.2l-5.333-5.333q53.333-22.4 97.067-64 87.467-84.267 87.467-204.8 0-64-87.467-107.733-86.4-44.8-211.2-44.8-123.733 0-211.2 44.8-86.4 43.733-87.467 107.733 0 120.533 87.467 204.8 43.733 41.6 97.067 64l-5.333 5.333h-51.2q-18.133 0-30.933 11.733-11.733 12.8-11.733 30.933v340.267q0 18.133 11.733 30.933 12.8 12.8 30.933 12.8h341.333q17.067 0 29.867-12.8t12.8-29.867v-341.333z" />
<glyph unicode="&#xe98c;" glyph-name="rows" d="M182.4 776.533q12.8 12.8 30.933 12.8h85.333q17.067 0 29.867-12.8t12.8-29.867v-597.333q0-18.133-12.8-30.933-12.8-11.733-29.867-11.733h-85.333q-18.133 0-30.933 11.733-11.733 12.8-11.733 30.933v596.267q0 18.133 11.733 30.933zM438.4 776.533q12.8 12.8 30.933 12.8h85.333q17.067 0 29.867-12.8t12.8-29.867v-597.333q0-18.133-12.8-30.933-12.8-11.733-29.867-11.733h-85.333q-18.133 0-30.933 11.733-11.733 12.8-11.733 30.933v596.267q0 18.133 11.733 30.933zM853.333 746.667v-597.333q0-18.133-12.8-30.933-12.8-11.733-29.867-11.733h-85.333q-18.133 0-30.933 11.733-11.733 12.8-11.733 30.933v596.267q0 18.133 11.733 30.933 12.8 12.8 30.933 12.8h85.333q17.067 0 29.867-12.8t12.8-29.867z" />
<glyph unicode="&#xe98d;" glyph-name="save" d="M256 192h512v256h-512v-256zM853.333 618.667v-512h-682.667v682.667h512l170.667-170.667zM554.667 576v85.333h85.333v-85.333h-85.333zM682.667 704h-341.333v-170.667h341.333v170.667z" />
<glyph unicode="&#xe98e;" glyph-name="search" d="M594.667 537.067q-1.067 69.333-49.067 117.333v1.067q-49.067 48-119.467 48t-120.533-48l-1.067-1.067q-48-49.067-48-120.533 0-69.333 49.067-118.4 49.067-48 118.4-49.067h2.133q70.4 0 118.4 49.067h1.067q49.067 49.067 49.067 118.4v3.2zM607.467 716.267q74.667-74.667 74.667-182.4 0-39.467-9.6-74.667l27.733-28.8 118.4-118.4q34.133-36.267 35.2-84.267v-5.333q-1.067-48-35.2-81.067-28.8-29.867-67.2-35.2l-17.067-1.067-16 1.067q-38.4 5.333-69.333 34.133l-53.333 53.333v1.067l-90.667 91.733 8.533-9.6-11.733 11.733-75.733-9.6q-106.667 0-182.4 74.667-73.6 74.667-73.6 180.267 0 106.667 73.6 182.4 76.8 74.667 182.4 74.667 107.733 0 181.333-74.667z" />
<glyph unicode="&#xe98f;" glyph-name="search-equal" d="M341.867 596.8h170.667v-64h-170.667v64zM512.533 511.467v-64h-170.667v64h170.667zM170.133 533.867q0 106.667 73.6 182.4 76.8 74.667 182.4 74.667 107.733 0 181.333-74.667 74.667-74.667 74.667-182.4 0-39.467-9.6-74.667l27.733-28.8 118.4-118.4q34.133-36.267 35.2-84.267v-5.333q-1.067-48-35.2-81.067-28.8-29.867-67.2-35.2l-17.067-1.067-16 1.067q-38.4 5.333-69.333 34.133l-53.333 53.333v1.067l-90.667 91.733 8.533-9.6-11.733 11.733-75.733-9.6q-106.667 0-182.4 74.667-73.6 74.667-73.6 180.267zM305.6 655.467l-1.067-1.067q-48-49.067-48-120.533 0-69.333 49.067-118.4 49.067-48 118.4-49.067h2.133q70.4 0 118.4 49.067h1.067q49.067 49.067 49.067 118.4v3.2q-1.067 69.333-49.067 117.333v1.067q-49.067 48-119.467 48t-120.533-48z" />
<glyph unicode="&#xe990;" glyph-name="search-minus" d="M512.533 490.133h-170.667v85.333h170.667v-85.333zM607.467 716.267q74.667-74.667 74.667-182.4 0-39.467-9.6-74.667l27.733-28.8 118.4-118.4q34.133-36.267 35.2-84.267v-5.333q-1.067-48-35.2-81.067-28.8-29.867-67.2-35.2l-17.067-1.067-16 1.067q-38.4 5.333-69.333 34.133l-53.333 53.333v1.067l-90.667 91.733 8.533-9.6-11.733 11.733-75.733-9.6q-106.667 0-182.4 74.667-73.6 74.667-73.6 180.267 0 106.667 73.6 182.4 76.8 74.667 182.4 74.667 107.733 0 181.333-74.667zM594.667 537.067q-1.067 69.333-49.067 117.333v1.067q-49.067 48-119.467 48t-120.533-48l-1.067-1.067q-48-49.067-48-120.533 0-69.333 49.067-118.4 49.067-48 118.4-49.067h2.133q70.4 0 118.4 49.067h1.067q49.067 49.067 49.067 118.4v3.2z" />
<glyph unicode="&#xe991;" glyph-name="search-plus" d="M305.6 655.467l-1.067-1.067q-48-49.067-48-120.533 0-69.333 49.067-118.4 49.067-48 118.4-49.067h2.133q70.4 0 118.4 49.067h1.067q49.067 49.067 49.067 118.4v3.2q-1.067 69.333-49.067 117.333v1.067q-49.067 48-119.467 48t-120.533-48zM734.4 105.067l-16 1.067q-38.4 5.333-69.333 34.133l-144 146.133 8.533-9.6-11.733 11.733-75.733-9.6q-106.667 0-182.4 74.667-73.6 74.667-73.6 180.267 0 106.667 73.6 182.4 76.8 74.667 182.4 74.667 107.733 0 181.333-74.667 74.667-74.667 74.667-182.4 0-39.467-9.6-74.667l27.733-28.8 118.4-118.4q34.133-36.267 35.2-84.267v-5.333q-1.067-48-35.2-81.067-28.8-29.867-67.2-35.2l-17.067-1.067zM384.533 618.133h85.333v-42.667h42.667v-85.333h-42.667v-42.667h-85.333v42.667h-42.667v85.333h42.667v42.667z" />
<glyph unicode="&#xe992;" glyph-name="shopping-cart" d="M632.205 212.8q0 35.2 24.533 60.8 25.6 24.533 60.8 24.533t59.733-24.533q25.6-25.6 25.6-60.8t-25.6-59.733q-24.533-25.6-59.733-25.6t-60.8 25.6q-24.533 24.533-24.533 59.733zM333.538 212.8q0 35.2 24.533 60.8 25.6 24.533 60.8 24.533t59.733-24.533q25.6-25.6 25.6-60.8t-25.6-59.733q-24.533-25.6-59.733-25.6t-60.8 25.6q-24.533 24.533-24.533 59.733zM840.205 742.933l1.067-1.067q23.467-25.6 19.2-60.8v-2.133l-53.333-282.667-1.067-1.067q-4.267-25.6-32-43.733l-3.2-1.067-42.667-9.6h-320q-26.667 0-43.733 10.667h-1.067q-28.8 18.133-33.067 43.733v1.067l-49.067 265.6h-97.067q-8.533 0-14.933 6.4t-6.4 14.933v64q0 8.533 6.4 14.933t14.933 6.4h254.933l6.4-1.067h336q35.2 0 58.667-24.533z" />
<glyph unicode="&#xe993;" glyph-name="shopping-case" d="M264.222 124.267q-11.733 7.467-12.8 18.133l-52.267 277.333q-3.2 14.933 6.4 26.667 10.667 11.733 28.8 11.733h554.667q17.067 0 27.733-11.733t8.533-25.6l-52.267-278.4-13.867-18.133q-11.733-7.467-25.6-7.467h-443.733l-25.6 7.467zM641.822 760l149.333-149.333q18.133-18.133 18.133-44.8t-18.133-45.867q-19.2-18.133-45.867-18.133t-44.8 18.133l-149.333 149.333q-19.2 19.2-19.2 45.867t19.2 44.8q18.133 19.2 44.8 19.2t45.867-19.2zM489.289 715.2q0-26.667-18.133-45.867l-149.333-149.333q-19.2-18.133-45.867-18.133t-44.8 18.133q-19.2 19.2-19.2 45.867t19.2 44.8l149.333 149.333q18.133 19.2 44.8 19.2t45.867-19.2q18.133-18.133 18.133-44.8z" />
<glyph unicode="&#xe994;" glyph-name="signal-high" d="M341.333 405.333v-256q0-18.133-12.8-30.933-12.8-11.733-29.867-11.733h-85.333q-18.133 0-30.933 11.733-11.733 12.8-11.733 30.933v254.933q0 18.133 11.733 30.933 12.8 12.8 30.933 12.8h85.333q17.067 0 29.867-12.8t12.8-29.867zM584.533 605.867q12.8-12.8 12.8-29.867v-426.667q0-18.133-12.8-30.933-12.8-11.733-29.867-11.733h-85.333q-18.133 0-30.933 11.733-11.733 12.8-11.733 30.933v425.6q0 18.133 11.733 30.933 12.8 12.8 30.933 12.8h85.333q17.067 0 29.867-12.8zM725.333 789.333h85.333q17.067 0 29.867-12.8t12.8-29.867v-597.333q0-18.133-12.8-30.933-12.8-11.733-29.867-11.733h-85.333q-18.133 0-30.933 11.733-11.733 12.8-11.733 30.933v596.267q0 18.133 11.733 30.933 12.8 12.8 30.933 12.8z" />
<glyph unicode="&#xe995;" glyph-name="signal-low" d="M341.333 405.333v-256q0-18.133-12.8-30.933-12.8-11.733-29.867-11.733h-85.333q-18.133 0-30.933 11.733-11.733 12.8-11.733 30.933v254.933q0 18.133 11.733 30.933 12.8 12.8 30.933 12.8h85.333q17.067 0 29.867-12.8t12.8-29.867z" />
<glyph unicode="&#xe996;" glyph-name="signal-medium" d="M213.333 106.667q-18.133 0-30.933 11.733-11.733 12.8-11.733 30.933v254.933q0 18.133 11.733 30.933 12.8 12.8 30.933 12.8h85.333q17.067 0 29.867-12.8t12.8-29.867v-256q0-18.133-12.8-30.933-12.8-11.733-29.867-11.733h-85.333zM584.533 605.867q12.8-12.8 12.8-29.867v-426.667q0-18.133-12.8-30.933-12.8-11.733-29.867-11.733h-85.333q-18.133 0-30.933 11.733-11.733 12.8-11.733 30.933v425.6q0 18.133 11.733 30.933 12.8 12.8 30.933 12.8h85.333q17.067 0 29.867-12.8z" />
<glyph unicode="&#xe997;" glyph-name="sign-in" d="M693.333 448l-6.4-14.933-213.333-213.333-14.933-6.4h-85.333l-14.933 6.4-6.4 14.933v106.667h-149.333q-8.533 0-14.933 6.4t-6.4 14.933v170.667q0 8.533 6.4 14.933t14.933 6.4h149.333v106.667q0 8.533 6.4 14.933t14.933 6.4h85.333q8.533 0 14.933-6.4l213.333-213.333 6.4-14.933zM830.933 733.867q11.733-12.8 11.733-30.933v-510.933q0-18.133-11.733-30.933-12.8-11.733-30.933-11.733h-213.333v85.333h170.667v426.667h-170.667v85.333h213.333q18.133 0 30.933-12.8z" />
<glyph unicode="&#xe998;" glyph-name="sign-in-alt" d="M330.667 448l6.4 14.933 213.333 213.333 14.933 6.4h85.333l14.933-6.4 6.4-14.933v-106.667h149.333q8.533 0 14.933-6.4t6.4-14.933v-170.667q0-8.533-6.4-14.933t-14.933-6.4h-149.333v-106.667q0-8.533-6.4-14.933t-14.933-6.4h-85.333q-8.533 0-14.933 6.4l-213.333 213.333-6.4 14.933zM193.067 162.133q-11.733 12.8-11.733 30.933v510.933q0 18.133 11.733 30.933 12.8 11.733 30.933 11.733h213.333v-85.333h-170.667v-426.667h170.667v-85.333h-213.333q-18.133 0-30.933 12.8z" />
<glyph unicode="&#xe999;" glyph-name="sign-out" d="M437.333 661.333h-170.667v-426.667h170.667v-85.333h-213.333q-18.133 0-30.933 11.733-11.733 12.8-11.733 30.933v510.933q0 18.133 11.733 30.933 12.8 12.8 30.933 12.8h213.333v-85.333zM842.667 448l-6.4-14.933-213.333-213.333-14.933-6.4h-85.333l-14.933 6.4-6.4 14.933v106.667h-149.333q-8.533 0-14.933 6.4t-6.4 14.933v170.667q0 8.533 6.4 14.933t14.933 6.4h149.333v106.667q0 8.533 6.4 14.933t14.933 6.4h85.333q8.533 0 14.933-6.4l213.333-213.333 6.4-14.933z" />
<glyph unicode="&#xe99a;" glyph-name="sign-out-alt" d="M830.933 733.867q11.733-12.8 11.733-30.933v-510.933q0-18.133-11.733-30.933-12.8-11.733-30.933-11.733h-213.333v85.333h170.667v426.667h-170.667v85.333h213.333q18.133 0 30.933-12.8zM686.933 548.267l6.4-14.933v-170.667l-6.4-14.933q-6.4-6.4-14.933-6.4h-149.333v-106.667l-6.4-14.933-14.933-6.4h-85.333l-14.933 6.4-213.333 213.333q-6.4 6.4-6.4 14.933t6.4 14.933l213.333 213.333q6.4 6.4 14.933 6.4h85.333q8.533 0 14.933-6.4l6.4-14.933v-106.667h149.333q8.533 0 14.933-6.4z" />
<glyph unicode="&#xe99b;" glyph-name="smartphone" d="M394.667 682.667v-426.667h234.667v426.667h-234.667zM284.8 790.4v1.067q19.2 19.2 45.867 19.2h362.667q25.6 0 44.8-19.2t19.2-44.8v-597.333q0-26.667-19.2-45.867v-1.067q-19.2-17.067-44.8-17.067h-362.667q-26.667 0-44.8 17.067l-1.067 1.067q-18.133 19.2-18.133 45.867v596.267q0 26.667 18.133 44.8z" />
<glyph unicode="&#xe99c;" glyph-name="sort-horizontal" d="M469.333 725.333q8.533 0 14.933-6.4l6.4-14.933v-512l-6.4-14.933-14.933-6.4q-8.533 0-14.933 6.4l-256 256q-6.4 6.4-6.4 14.933t6.4 14.933l256 256q6.4 6.4 14.933 6.4zM832 448l-6.4-14.933-256-256-14.933-6.4q-8.533 0-14.933 6.4t-6.4 14.933v512q0 8.533 6.4 14.933t14.933 6.4 14.933-6.4l256-256 6.4-14.933z" />
<glyph unicode="&#xe99d;" glyph-name="sort-vertical" d="M234.667 405.333q0 8.533 6.4 14.933t14.933 6.4h512q8.533 0 14.933-6.4l6.4-14.933-6.4-14.933-256-256-14.933-6.4-14.933 6.4-256 256q-6.4 6.4-6.4 14.933zM782.933 505.6l6.4-14.933-6.4-14.933-14.933-6.4h-512l-14.933 6.4q-6.4 6.4-6.4 14.933t6.4 14.933l256 256q6.4 6.4 14.933 6.4t14.933-6.4l256-256z" />
<glyph unicode="&#xe99e;" glyph-name="star" d="M300.8 128l-9.6 215.467-120.533 180.267 204.8 75.733 137.6 168.533 135.467-168.533 204.8-75.733-120.533-180.267-11.733-215.467-208 56.533-212.267-56.533z" />
<glyph unicode="&#xe99f;" glyph-name="step-backward" d="M768 789.333q18.133 0 30.933-12.8 11.733-12.8 11.733-30.933v-596.267q0-18.133-11.733-30.933-12.8-11.733-30.933-11.733h-42.667l-341.333 341.333 341.333 341.333h42.667zM213.333 746.667q0 17.067 12.8 29.867t29.867 12.8h85.333q18.133 0 30.933-12.8 11.733-12.8 11.733-30.933v-596.267q0-18.133-11.733-30.933-12.8-11.733-30.933-11.733h-85.333q-17.067 0-29.867 11.733-12.8 12.8-12.8 30.933v597.333z" />
<glyph unicode="&#xe9a0;" glyph-name="step-forward" d="M797.867 776.533q12.8-12.8 12.8-29.867v-597.333q0-18.133-12.8-30.933-12.8-11.733-29.867-11.733h-85.333q-18.133 0-30.933 11.733-11.733 12.8-11.733 30.933v298.667l-341.333-341.333h-42.667q-18.133 0-30.933 11.733-11.733 12.8-11.733 30.933v596.267q0 18.133 11.733 30.933 12.8 12.8 30.933 12.8h42.667l341.333-341.333v297.6q0 18.133 11.733 30.933 12.8 12.8 30.933 12.8h85.333q17.067 0 29.867-12.8z" />
<glyph unicode="&#xe9a1;" glyph-name="stick" d="M725.333 590.933q42.667-61.867 42.667-142.933t-42.667-142.933l-32-38.4q-74.667-74.667-181.333-74.667t-181.333 74.667-74.667 181.333 74.667 181.333 181.333 74.667 181.333-74.667l32-38.4z" />
<glyph unicode="&#xe9a2;" glyph-name="stick-left-side" d="M444.778 672.533v-194.133h125.867v38.4h-82.133v155.733h-43.733zM895.978 575.467q3.2-110.933-120.533-186.667h1.067q-52.267-33.067-115.2-50.133v-188.8q0-36.267-24.533-61.867l-2.133-1.067q-25.6-22.4-58.667-22.4h-128q-35.2 0-59.733 22.4l-2.133 3.2q-23.467 24.533-23.467 59.733v188.8q-62.933 17.067-115.2 50.133-121.6 75.733-119.467 186.667-2.133 112 119.467 187.733 109.867 68.267 264.533 68.267t263.467-68.267q122.667-75.733 120.533-187.733z" />
<glyph unicode="&#xe9a3;" glyph-name="stick-left-top" d="M483.2 573.867h-62.933v-283.733h183.467v56.533h-120.533v227.2zM753.067 690.133q100.267-100.267 100.267-242.133t-100.267-241.067q-99.2-100.267-241.067-100.267t-242.133 100.267q-99.2 99.2-99.2 241.067t99.2 242.133q100.267 99.2 242.133 99.2t241.067-99.2z" />
<glyph unicode="&#xe9a4;" glyph-name="stick-move-bl" d="M512 704.427q106.667 0 181.333-74.667t74.667-181.333-74.667-181.333q-72.533-72.533-176-74.667h37.333v-153.6l-42.667 1.067q-170.667 0-289.067 118.4-119.467 119.467-119.467 290.133h-64l106.667 128 106.667-128h-64q0-134.4 94.933-229.333 77.867-78.933 185.6-91.733v65.067h37.333q-103.467 2.133-176 74.667-74.667 74.667-74.667 181.333t74.667 181.333 181.333 74.667z" />
<glyph unicode="&#xe9a5;" glyph-name="stick-move-br" d="M252.8 447.358q0 106.667 74.667 181.333t181.333 74.667 181.333-74.667 74.667-181.333-74.667-181.333q-72.533-72.533-176-74.667h37.333v-65.067q107.733 12.8 186.667 91.733 93.867 94.933 93.867 229.333h-64l106.667 128 106.667-128h-64q0-170.667-118.4-290.133-119.467-118.4-290.133-118.4-18.133 0-29.867 11.733-12.8 12.8-12.8 30.933v109.867h37.333q-103.467 2.133-176 74.667-74.667 74.667-74.667 181.333z" />
<glyph unicode="&#xe9a6;" glyph-name="stick-move-bt" d="M796.8 743.892v-1.067h1.067l5.333-5.333q118.4-118.4 118.4-289.067t-118.4-290.133q-119.467-118.4-290.133-118.4l-42.667-1.067v156.8q-78.933 11.733-138.667 71.467-74.667 74.667-74.667 181.333t74.667 181.333 181.333 74.667 181.333-74.667 74.667-181.333-74.667-181.333q-59.733-59.733-138.667-71.467v-68.267q107.733 12.8 186.667 91.733 93.867 94.933 93.867 229.333t-93.867 228.267l-5.333 5.333h1.067q-93.867 89.6-225.067 89.6v-64l-128 106.667 128 106.667v-64q165.333 0 283.733-113.067z" />
<glyph unicode="&#xe9a7;" glyph-name="stick-move-bt2" d="M103.467 448.427q0 170.667 119.467 289.067 118.4 119.467 289.067 119.467v64l128-106.667-128-106.667v64q-134.4 0-228.267-94.933-94.933-93.867-94.933-228.267t94.933-229.333q77.867-78.933 185.6-91.733v68.267q-78.933 11.733-138.667 71.467-74.667 74.667-74.667 181.333t74.667 181.333 181.333 74.667 181.333-74.667 74.667-181.333-74.667-181.333q-59.733-59.733-138.667-71.467v-156.8l-42.667 1.067q-170.667 0-289.067 118.4-119.467 119.467-119.467 290.133z" />
<glyph unicode="&#xe9a8;" glyph-name="stick-move-lb" d="M691.2 630.827q74.667-74.667 74.667-181.333t-74.667-181.333-181.333-74.667-181.333 74.667q-72.533 72.533-74.667 176v-37.333h-64q11.733-107.733 91.733-186.667 93.867-93.867 228.267-93.867v64l128-106.667-128-106.667v64q-170.667 0-289.067 118.4-119.467 119.467-119.467 290.133 0 18.133 12.8 29.867 11.733 12.8 29.867 12.8h109.867v-37.333q2.133 103.467 74.667 176 74.667 74.667 181.333 74.667t181.333-74.667z" />
<glyph unicode="&#xe9a9;" glyph-name="stick-move-lr" d="M224 738.347q118.4 119.467 289.067 119.467t290.133-119.467q118.4-118.4 118.4-289.067h64l-106.667-128-106.667 128h64q0 134.4-93.867 228.267-94.933 94.933-229.333 94.933t-228.267-94.933q-80-77.867-91.733-185.6h67.2q11.733 78.933 71.467 138.667 74.667 74.667 181.333 74.667t181.333-74.667 74.667-181.333-74.667-181.333-181.333-74.667-181.333 74.667q-59.733 59.733-71.467 138.667h-156.8l1.067 42.667q0 170.667 119.467 289.067z" />
<glyph unicode="&#xe9aa;" glyph-name="stick-move-lr2" d="M513.067 703.36q106.667 0 181.333-74.667t74.667-181.333-74.667-181.333-181.333-74.667-181.333 74.667q-59.733 59.733-71.467 138.667h-67.2q11.733-107.733 91.733-186.667 93.867-93.867 228.267-93.867t229.333 93.867q93.867 94.933 93.867 229.333h-64l106.667 128 106.667-128h-64q0-170.667-118.4-290.133-119.467-118.4-290.133-118.4t-289.067 118.4q-119.467 119.467-119.467 290.133l-1.067 42.667h156.8q11.733 78.933 71.467 138.667 74.667 74.667 181.333 74.667z" />
<glyph unicode="&#xe9ab;" glyph-name="stick-move-lt" d="M458.667 854.613l54.4 3.2v64l128-106.667-128-106.667v64q-134.4 0-228.267-94.933-80-77.867-91.733-185.6h64v-37.333q2.133 103.467 74.667 176 74.667 74.667 181.333 74.667t181.333-74.667 74.667-181.333-74.667-181.333-181.333-74.667-181.333 74.667q-72.533 72.533-74.667 176v-37.333h-153.6l1.067 42.667q0 170.667 119.467 289.067 99.2 100.267 234.667 116.267z" />
<glyph unicode="&#xe9ac;" glyph-name="stick-move-rb" d="M909.867 479.36q11.733-11.733 11.733-29.867 0-170.667-118.4-290.133-119.467-118.4-290.133-118.4v-64l-128 106.667 128 106.667v-64q134.4 0 229.333 93.867 78.933 78.933 91.733 186.667h-68.267q-11.733-78.933-71.467-138.667-74.667-74.667-181.333-74.667t-181.333 74.667-74.667 181.333 74.667 181.333 181.333 74.667 181.333-74.667q59.733-59.733 71.467-138.667h113.067q18.133 0 30.933-12.8z" />
<glyph unicode="&#xe9ad;" glyph-name="stick-move-rl" d="M693.333 628.693q59.733-59.733 71.467-138.667h156.8l-1.067-42.667q0-170.667-118.4-290.133-119.467-118.4-290.133-118.4t-289.067 118.4q-119.467 119.467-119.467 290.133h-64l106.667 128 106.667-128h-64q0-134.4 94.933-229.333 93.867-93.867 228.267-93.867t229.333 93.867q78.933 78.933 91.733 186.667h-68.267q-11.733-78.933-71.467-138.667-74.667-74.667-181.333-74.667t-181.333 74.667-74.667 181.333 74.667 181.333 181.333 74.667 181.333-74.667z" />
<glyph unicode="&#xe9ae;" glyph-name="stick-move-rl2" d="M103.467 449.28q0 170.667 119.467 289.067 118.4 119.467 289.067 119.467t290.133-119.467q118.4-118.4 118.4-289.067l1.067-42.667h-156.8q-11.733-78.933-71.467-138.667-74.667-74.667-181.333-74.667t-181.333 74.667-74.667 181.333 74.667 181.333 181.333 74.667 181.333-74.667q59.733-59.733 71.467-138.667h68.267q-12.8 107.733-91.733 185.6-94.933 94.933-229.333 94.933t-228.267-94.933q-94.933-93.867-94.933-228.267h64l-106.667-128-106.667 128h64z" />
<glyph unicode="&#xe9af;" glyph-name="stick-move-rt" d="M510.933 921.813v-64q170.667 0 290.133-119.467 118.4-118.4 118.4-289.067l1.067-42.667h-156.8q-11.733-78.933-71.467-138.667-74.667-74.667-181.333-74.667t-181.333 74.667-74.667 181.333 74.667 181.333 181.333 74.667 181.333-74.667q59.733-59.733 71.467-138.667h68.267q-12.8 107.733-91.733 185.6-94.933 94.933-229.333 94.933v-64l-128 106.667 128 106.667z" />
</font>
</defs>
</svg>
