<svg xmlns:dc="http://purl.org/dc/elements/1.1/" xmlns:cc="http://creativecommons.org/ns#" xmlns:rdf="http://www.w3.org/1999/02/22-rdf-syntax-ns#" xmlns:svg="http://www.w3.org/2000/svg" xmlns="http://www.w3.org/2000/svg" xmlns:sodipodi="http://sodipodi.sourceforge.net/DTD/sodipodi-0.dtd" xmlns:inkscape="http://www.inkscape.org/namespaces/inkscape" width="48" height="48" id="svg5057" version="1.1" inkscape:version="0.91 r13725" viewBox="0 0 48 48" sodipodi:docname="all_icons.tar">
  <defs id="defs5059"/>
  <sodipodi:namedview id="base" pagecolor="#ffffff" bordercolor="#666666" borderopacity="1.0" inkscape:pageopacity="0.0" inkscape:pageshadow="2" inkscape:zoom="5.3607533" inkscape:cx="17.083968" inkscape:cy="9.574371" inkscape:current-layer="layer36" showgrid="true" inkscape:grid-bbox="true" inkscape:document-units="px" inkscape:window-width="1680" inkscape:window-height="988" inkscape:window-x="-8" inkscape:window-y="-8" inkscape:window-maximized="1" showguides="true">
    <inkscape:grid type="xygrid" id="grid6922"/>
  </sodipodi:namedview>
  <metadata id="metadata5062">
    <rdf:RDF>
      <cc:Work rdf:about="">
        <dc:format>image/svg+xml</dc:format>
        <dc:type rdf:resource="http://purl.org/dc/dcmitype/StillImage"/>
        <dc:title/>
      </cc:Work>
    </rdf:RDF>
  </metadata>
  <g inkscape:groupmode="layer" id="layer53" inkscape:label="adjust" style="display:inline">
    <path id="path5177" style="display:inline;fill:#000000;stroke:none" d="m 12.7,12.7 0,-0.05 Q 17.4,8 24,8 l 1,0.05 Q 30.95,8.35 35.3,12.7 40,17.4 40,24 40,30.65 35.3,35.35 30.95,39.65 25,40 l -1,0 Q 17.4,40 12.7,35.35 8,30.65 8,24 8,17.4 12.65,12.7 l 0.05,0 M 25,14.05 24,14 24,34.05 25,34 q 3.5,-0.3 6.1,-2.9 l 0.05,0 q 2.9,-2.9 2.9,-7.1 0,-4.15 -2.9,-7.1 Q 28.5,14.35 25,14.05" inkscape:connector-curvature="0"/>
  </g>
  </svg>