<svg xmlns:dc="http://purl.org/dc/elements/1.1/" xmlns:cc="http://creativecommons.org/ns#" xmlns:rdf="http://www.w3.org/1999/02/22-rdf-syntax-ns#" xmlns:svg="http://www.w3.org/2000/svg" xmlns="http://www.w3.org/2000/svg" xmlns:sodipodi="http://sodipodi.sourceforge.net/DTD/sodipodi-0.dtd" xmlns:inkscape="http://www.inkscape.org/namespaces/inkscape" width="48" height="48" id="svg5057" version="1.1" inkscape:version="0.91 r13725" viewBox="0 0 48 48" sodipodi:docname="all_icons.tar">
  <defs id="defs5059"/>
  <sodipodi:namedview id="base" pagecolor="#ffffff" bordercolor="#666666" borderopacity="1.0" inkscape:pageopacity="0.0" inkscape:pageshadow="2" inkscape:zoom="5.3607533" inkscape:cx="17.083968" inkscape:cy="9.574371" inkscape:current-layer="layer36" showgrid="true" inkscape:grid-bbox="true" inkscape:document-units="px" inkscape:window-width="1680" inkscape:window-height="988" inkscape:window-x="-8" inkscape:window-y="-8" inkscape:window-maximized="1" showguides="true">
    <inkscape:grid type="xygrid" id="grid6922"/>
  </sodipodi:namedview>
  <metadata id="metadata5062">
    <rdf:RDF>
      <cc:Work rdf:about="">
        <dc:format>image/svg+xml</dc:format>
        <dc:type rdf:resource="http://purl.org/dc/dcmitype/StillImage"/>
        <dc:title/>
      </cc:Work>
    </rdf:RDF>
  </metadata>
  <g inkscape:groupmode="layer" id="layer109" inkscape:label="button-start" style="display:inline">
    <path id="path5521" style="fill:#000000;stroke:none" d="m 15.5,21.15 0,1.1 1.6,0 0,4.5 1.25,0 0,-4.5 1.6,0 0,-1.1 -4.45,0 m -3.5,1.5 0.2,-0.4 0.5,-0.1 q 0.75,0 1.5,0.55 l 0.65,-0.95 -1,-0.55 -1.1,-0.15 q -0.9,0 -1.45,0.4 -0.55,0.45 -0.55,1.25 0,0.8 0.45,1.15 0.45,0.4 1.4,0.6 l 0.85,0.3 0.2,0.4 -0.2,0.4 -0.55,0.15 q -0.75,0 -1.65,-0.8 l -0.75,0.95 q 1.05,0.95 2.4,0.95 l 1.45,-0.45 q 0.6,-0.45 0.6,-1.2 0,-0.75 -0.45,-1.15 l -1.25,-0.6 -1,-0.35 -0.25,-0.4 m 22.95,-0.4 1.6,0 0,-1.1 -4.45,0 0,1.1 1.6,0 0,4.5 1.25,0 0,-4.5 m -6.9,2.7 0.85,0 1.25,1.8 1.5,0 -1.4,-2 Q 31.3,24.35 31.3,23 31.3,22.05 30.75,21.6 30.2,21.15 28.9,21.15 l -2.1,0 0,5.6 1.25,0 0,-1.8 m -4.3,-3.8 -1.2,0 -2.45,5.6 1.35,0 0.5,-1.2 2.35,0 0.5,1.2 1.35,0 -2.4,-5.6 M 44.9,12.6 q 0.6,0.6 0.6,1.4 l 0,20 q 0,0.85 -0.6,1.45 L 44.45,35.8 43.5,36 4.5,36 Q 3.65,36 3.05,35.45 2.5,34.85 2.5,34 l 0,-19.95 Q 2.5,13.2 3.05,12.6 3.65,12 4.5,12 l 39,0 0.95,0.25 0.45,0.35 m -16.85,9.65 0.9,0 0.85,0.15 0.25,0.6 -0.25,0.7 -0.85,0.2 -0.9,0 0,-1.65 m -4.2,2.2 -1.4,0 0.7,-1.65 0.7,1.65" inkscape:connector-curvature="0"/>
  </g>
  </svg>