<svg xmlns:dc="http://purl.org/dc/elements/1.1/" xmlns:cc="http://creativecommons.org/ns#" xmlns:rdf="http://www.w3.org/1999/02/22-rdf-syntax-ns#" xmlns:svg="http://www.w3.org/2000/svg" xmlns="http://www.w3.org/2000/svg" xmlns:sodipodi="http://sodipodi.sourceforge.net/DTD/sodipodi-0.dtd" xmlns:inkscape="http://www.inkscape.org/namespaces/inkscape" width="48" height="48" id="svg5057" version="1.1" inkscape:version="0.91 r13725" viewBox="0 0 48 48" sodipodi:docname="all_icons.tar">
  <defs id="defs5059"/>
  <sodipodi:namedview id="base" pagecolor="#ffffff" bordercolor="#666666" borderopacity="1.0" inkscape:pageopacity="0.0" inkscape:pageshadow="2" inkscape:zoom="5.3607533" inkscape:cx="17.083968" inkscape:cy="9.574371" inkscape:current-layer="layer36" showgrid="true" inkscape:grid-bbox="true" inkscape:document-units="px" inkscape:window-width="1680" inkscape:window-height="988" inkscape:window-x="-8" inkscape:window-y="-8" inkscape:window-maximized="1" showguides="true">
    <inkscape:grid type="xygrid" id="grid6922"/>
  </sodipodi:namedview>
  <metadata id="metadata5062">
    <rdf:RDF>
      <cc:Work rdf:about="">
        <dc:format>image/svg+xml</dc:format>
        <dc:type rdf:resource="http://purl.org/dc/dcmitype/StillImage"/>
        <dc:title/>
      </cc:Work>
    </rdf:RDF>
  </metadata>
  <g inkscape:groupmode="layer" id="layer107" inkscape:label="button-l2" style="display:inline">
    <path id="path5261" style="fill:#000000;stroke:none" d="m 27,18.6 q -1.3,0 -2.1,0.55 -0.8,0.55 -1.5,1.6 l 1.75,1.05 q 0.8,-1.35 1.75,-1.35 0.5,0 0.8,0.35 0.35,0.3 0.35,0.8 0,0.5 -0.4,1.05 l -1.2,1.4 -2.9,2.9 0,1.65 6.9,0 0,-1.95 -3.85,0 1.75,-1.85 1.45,-1.75 0.35,-1.45 q 0,-1.4 -0.95,-2.2 -0.95,-0.8 -2.2,-0.8 m -11,0.2 0,9.8 6.35,0 0,-1.95 -4.15,0 0,-7.85 -2.2,0 M 5,17 q 0,-5 5,-5 l 33,0 0,24 -38,0 0,-19" inkscape:connector-curvature="0"/>
  </g>
  </svg>