<svg xmlns:dc="http://purl.org/dc/elements/1.1/" xmlns:cc="http://creativecommons.org/ns#" xmlns:rdf="http://www.w3.org/1999/02/22-rdf-syntax-ns#" xmlns:svg="http://www.w3.org/2000/svg" xmlns="http://www.w3.org/2000/svg" xmlns:sodipodi="http://sodipodi.sourceforge.net/DTD/sodipodi-0.dtd" xmlns:inkscape="http://www.inkscape.org/namespaces/inkscape" width="48" height="48" id="svg5057" version="1.1" inkscape:version="0.91 r13725" viewBox="0 0 48 48" sodipodi:docname="all_icons.tar">
  <defs id="defs5059"/>
  <sodipodi:namedview id="base" pagecolor="#ffffff" bordercolor="#666666" borderopacity="1.0" inkscape:pageopacity="0.0" inkscape:pageshadow="2" inkscape:zoom="5.3607533" inkscape:cx="17.083968" inkscape:cy="9.574371" inkscape:current-layer="layer36" showgrid="true" inkscape:grid-bbox="true" inkscape:document-units="px" inkscape:window-width="1680" inkscape:window-height="988" inkscape:window-x="-8" inkscape:window-y="-8" inkscape:window-maximized="1" showguides="true">
    <inkscape:grid type="xygrid" id="grid6922"/>
  </sodipodi:namedview>
  <metadata id="metadata5062">
    <rdf:RDF>
      <cc:Work rdf:about="">
        <dc:format>image/svg+xml</dc:format>
        <dc:type rdf:resource="http://purl.org/dc/dcmitype/StillImage"/>
        <dc:title/>
      </cc:Work>
    </rdf:RDF>
  </metadata>
  <g inkscape:groupmode="layer" id="layer97" inkscape:label="button-b" style="display:inline">
    <path id="path5125" style="fill:#000000;stroke:none" d="m 24.85,18 -4.85,0 0,13 5.5,0 q 2.55,0 3.6,-1.2 0.9,-1.05 0.9,-2.4 0,-1.25 -0.7,-2.05 -0.7,-0.85 -1.85,-1.1 l 0.45,-0.2 0.45,-0.35 Q 29.3,23 29.3,21.45 29.3,20.2 28.45,19.2 L 27.1,18.35 24.85,18 M 24,8 Q 30.65,8 35.3,12.65 40,17.35 40,24 40,30.65 35.3,35.3 30.65,40 24,40 17.35,40 12.65,35.3 8,30.65 8,24 8,17.35 12.65,12.65 17.35,8 24,8 m -1.2,12.5 1.3,0 1.8,0.25 q 0.5,0.3 0.5,1.15 0,0.85 -0.55,1.15 l -1.75,0.25 -1.3,0 0,-2.8 m 1.65,5.1 2,0.25 q 0.7,0.25 0.7,1.2 0,0.85 -0.65,1.2 l -1.8,0.3 -1.9,0 0,-2.95 1.65,0" inkscape:connector-curvature="0"/>
  </g>
  </svg>