<svg xmlns:dc="http://purl.org/dc/elements/1.1/" xmlns:cc="http://creativecommons.org/ns#" xmlns:rdf="http://www.w3.org/1999/02/22-rdf-syntax-ns#" xmlns:svg="http://www.w3.org/2000/svg" xmlns="http://www.w3.org/2000/svg" xmlns:sodipodi="http://sodipodi.sourceforge.net/DTD/sodipodi-0.dtd" xmlns:inkscape="http://www.inkscape.org/namespaces/inkscape" width="48" height="48" id="svg5057" version="1.1" inkscape:version="0.91 r13725" viewBox="0 0 48 48" sodipodi:docname="all_icons.tar">
  <defs id="defs5059"/>
  <sodipodi:namedview id="base" pagecolor="#ffffff" bordercolor="#666666" borderopacity="1.0" inkscape:pageopacity="0.0" inkscape:pageshadow="2" inkscape:zoom="5.3607533" inkscape:cx="17.083968" inkscape:cy="9.574371" inkscape:current-layer="layer36" showgrid="true" inkscape:grid-bbox="true" inkscape:document-units="px" inkscape:window-width="1680" inkscape:window-height="988" inkscape:window-x="-8" inkscape:window-y="-8" inkscape:window-maximized="1" showguides="true">
    <inkscape:grid type="xygrid" id="grid6922"/>
  </sodipodi:namedview>
  <metadata id="metadata5062">
    <rdf:RDF>
      <cc:Work rdf:about="">
        <dc:format>image/svg+xml</dc:format>
        <dc:type rdf:resource="http://purl.org/dc/dcmitype/StillImage"/>
        <dc:title/>
      </cc:Work>
    </rdf:RDF>
  </metadata>
  <g inkscape:groupmode="layer" id="layer104" inkscape:label="button-r" style="display:inline">
    <path id="path5325" style="fill:#000000;stroke:none" d="m 23.95,19.05 -3.9,0 0,11 2.35,0 0,-3.5 1.55,0 2.25,3.5 2.85,0 -2.6,-3.95 q 2,-0.75 2,-3.4 0,-1.95 -1.05,-2.75 -1.05,-0.9 -3.45,-0.9 M 43,17 43,36 5,36 5,12 38,12 q 5,0 5,5 m -20.6,4.2 1.7,0 1.55,0.3 q 0.4,0.3 0.4,1.2 0,0.9 -0.4,1.3 -0.4,0.45 -1.6,0.45 l -1.65,0 0,-3.25" inkscape:connector-curvature="0"/>
  </g>
  </svg>