<svg xmlns:dc="http://purl.org/dc/elements/1.1/" xmlns:cc="http://creativecommons.org/ns#" xmlns:rdf="http://www.w3.org/1999/02/22-rdf-syntax-ns#" xmlns:svg="http://www.w3.org/2000/svg" xmlns="http://www.w3.org/2000/svg" xmlns:sodipodi="http://sodipodi.sourceforge.net/DTD/sodipodi-0.dtd" xmlns:inkscape="http://www.inkscape.org/namespaces/inkscape" width="48" height="48" id="svg5057" version="1.1" inkscape:version="0.91 r13725" viewBox="0 0 48 48" sodipodi:docname="all_icons.tar">
  <defs id="defs5059"/>
  <sodipodi:namedview id="base" pagecolor="#ffffff" bordercolor="#666666" borderopacity="1.0" inkscape:pageopacity="0.0" inkscape:pageshadow="2" inkscape:zoom="5.3607533" inkscape:cx="17.083968" inkscape:cy="9.574371" inkscape:current-layer="layer36" showgrid="true" inkscape:grid-bbox="true" inkscape:document-units="px" inkscape:window-width="1680" inkscape:window-height="988" inkscape:window-x="-8" inkscape:window-y="-8" inkscape:window-maximized="1" showguides="true">
    <inkscape:grid type="xygrid" id="grid6922"/>
  </sodipodi:namedview>
  <metadata id="metadata5062">
    <rdf:RDF>
      <cc:Work rdf:about="">
        <dc:format>image/svg+xml</dc:format>
        <dc:type rdf:resource="http://purl.org/dc/dcmitype/StillImage"/>
        <dc:title/>
      </cc:Work>
    </rdf:RDF>
  </metadata>
  <g inkscape:groupmode="layer" id="layer102" inkscape:label="button-three" style="display:inline">
    <path id="path5337" style="display:inline;fill:#000000;stroke:none" d="M 38.75,17.65 Q 40,20.55 40,24 40,27.45 38.75,30.35 37.6,33.05 35.3,35.3 30.65,40 24,40 17.35,40 12.65,35.3 8,30.65 8,24 8,17.35 12.65,12.65 17.35,8 24,8 q 6.65,0 11.3,4.65 2.3,2.3 3.45,5 m -11.35,2.5 0,-2.05 -8.1,0 0,2.55 4.15,0 -2.55,3 0,2.2 1.75,-0.4 q 1.2,0 1.85,0.5 0.65,0.5 0.65,1.3 0,0.85 -0.55,1.3 -0.6,0.4 -1.5,0.4 -1.45,0 -3.35,-1.3 L 18.55,30 q 2.25,1.55 4.45,1.55 2.2,0 3.6,-1.2 1.45,-1.2 1.45,-3.25 0,-1.4 -0.9,-2.5 -0.85,-1.05 -2.45,-1.35 l 2.7,-3.1" inkscape:connector-curvature="0"/>
  </g>
  </svg>