<svg xmlns:dc="http://purl.org/dc/elements/1.1/" xmlns:cc="http://creativecommons.org/ns#" xmlns:rdf="http://www.w3.org/1999/02/22-rdf-syntax-ns#" xmlns:svg="http://www.w3.org/2000/svg" xmlns="http://www.w3.org/2000/svg" xmlns:sodipodi="http://sodipodi.sourceforge.net/DTD/sodipodi-0.dtd" xmlns:inkscape="http://www.inkscape.org/namespaces/inkscape" width="48" height="48" id="svg5057" version="1.1" inkscape:version="0.91 r13725" viewBox="0 0 48 48" sodipodi:docname="all_icons.tar">
  <defs id="defs5059"/>
  <sodipodi:namedview id="base" pagecolor="#ffffff" bordercolor="#666666" borderopacity="1.0" inkscape:pageopacity="0.0" inkscape:pageshadow="2" inkscape:zoom="5.3607533" inkscape:cx="17.083968" inkscape:cy="9.574371" inkscape:current-layer="layer36" showgrid="true" inkscape:grid-bbox="true" inkscape:document-units="px" inkscape:window-width="1680" inkscape:window-height="988" inkscape:window-x="-8" inkscape:window-y="-8" inkscape:window-maximized="1" showguides="true">
    <inkscape:grid type="xygrid" id="grid6922"/>
  </sodipodi:namedview>
  <metadata id="metadata5062">
    <rdf:RDF>
      <cc:Work rdf:about="">
        <dc:format>image/svg+xml</dc:format>
        <dc:type rdf:resource="http://purl.org/dc/dcmitype/StillImage"/>
        <dc:title/>
      </cc:Work>
    </rdf:RDF>
  </metadata>
  <g inkscape:groupmode="layer" id="layer101" inkscape:label="button-two" style="display:inline">
    <path id="path5071" style="fill:#000000;stroke:none" d="m 26.45,18.9 q -1.3,-1.1 -3,-1.1 -1.7,0 -2.85,0.75 -1.1,0.75 -2.05,2.2 l 2.4,1.4 q 1.1,-1.8 2.35,-1.8 0.7,0 1.15,0.45 0.45,0.45 0.45,1.1 0,0.7 -0.5,1.4 l -1.7,1.9 -3.9,4 0,2.2 9.35,0 0,-2.65 -5.25,0 2.4,-2.5 1.95,-2.4 q 0.5,-0.95 0.5,-1.95 0,-1.9 -1.3,-3 M 35.3,35.3 Q 30.65,40 24,40 17.35,40 12.65,35.3 8,30.65 8,24 8,17.35 12.65,12.65 17.35,8 24,8 30.65,8 35.3,12.65 40,17.35 40,24 q 0,6.65 -4.7,11.3" inkscape:connector-curvature="0"/>
  </g>
  </svg>