<svg xmlns:dc="http://purl.org/dc/elements/1.1/" xmlns:cc="http://creativecommons.org/ns#" xmlns:rdf="http://www.w3.org/1999/02/22-rdf-syntax-ns#" xmlns:svg="http://www.w3.org/2000/svg" xmlns="http://www.w3.org/2000/svg" xmlns:sodipodi="http://sodipodi.sourceforge.net/DTD/sodipodi-0.dtd" xmlns:inkscape="http://www.inkscape.org/namespaces/inkscape" width="48" height="48" id="svg5057" version="1.1" inkscape:version="0.91 r13725" viewBox="0 0 48 48" sodipodi:docname="all_icons.tar">
  <defs id="defs5059"/>
  <sodipodi:namedview id="base" pagecolor="#ffffff" bordercolor="#666666" borderopacity="1.0" inkscape:pageopacity="0.0" inkscape:pageshadow="2" inkscape:zoom="5.3607533" inkscape:cx="17.083968" inkscape:cy="9.574371" inkscape:current-layer="layer36" showgrid="true" inkscape:grid-bbox="true" inkscape:document-units="px" inkscape:window-width="1680" inkscape:window-height="988" inkscape:window-x="-8" inkscape:window-y="-8" inkscape:window-maximized="1" showguides="true">
    <inkscape:grid type="xygrid" id="grid6922"/>
  </sodipodi:namedview>
  <metadata id="metadata5062">
    <rdf:RDF>
      <cc:Work rdf:about="">
        <dc:format>image/svg+xml</dc:format>
        <dc:type rdf:resource="http://purl.org/dc/dcmitype/StillImage"/>
        <dc:title/>
      </cc:Work>
    </rdf:RDF>
  </metadata>
  <g inkscape:groupmode="layer" id="layer106" inkscape:label="button-r1" style="display:inline">
    <path id="path5267" style="fill:#000000;stroke:none" d="m 26.6,20.7 0,7.9 2.1,0 0,-9.8 -3.95,0 0,1.9 1.85,0 M 22.25,19.6 Q 21.3,18.8 19,18.8 l -3.7,0 0,9.8 2.2,0 0,-3.1 1.5,0 2.15,3.1 2.7,0 -2.45,-3.5 q 1.85,-0.7 1.85,-3.05 0,-1.7 -1,-2.45 M 43,17 43,36 5,36 5,12 38,12 q 5,0 5,5 m -22,5.05 q 0,0.8 -0.4,1.2 l -1.5,0.35 -1.6,0 0,-2.9 1.6,0 q 1.1,0 1.5,0.3 0.4,0.3 0.4,1.05" inkscape:connector-curvature="0"/>
  </g>
  </svg>