<svg xmlns:dc="http://purl.org/dc/elements/1.1/" xmlns:cc="http://creativecommons.org/ns#" xmlns:rdf="http://www.w3.org/1999/02/22-rdf-syntax-ns#" xmlns:svg="http://www.w3.org/2000/svg" xmlns="http://www.w3.org/2000/svg" xmlns:sodipodi="http://sodipodi.sourceforge.net/DTD/sodipodi-0.dtd" xmlns:inkscape="http://www.inkscape.org/namespaces/inkscape" width="48" height="48" id="svg5057" version="1.1" inkscape:version="0.91 r13725" viewBox="0 0 48 48" sodipodi:docname="all_icons.tar">
  <defs id="defs5059"/>
  <sodipodi:namedview id="base" pagecolor="#ffffff" bordercolor="#666666" borderopacity="1.0" inkscape:pageopacity="0.0" inkscape:pageshadow="2" inkscape:zoom="5.3607533" inkscape:cx="17.083968" inkscape:cy="9.574371" inkscape:current-layer="layer36" showgrid="true" inkscape:grid-bbox="true" inkscape:document-units="px" inkscape:window-width="1680" inkscape:window-height="988" inkscape:window-x="-8" inkscape:window-y="-8" inkscape:window-maximized="1" showguides="true">
    <inkscape:grid type="xygrid" id="grid6922"/>
  </sodipodi:namedview>
  <metadata id="metadata5062">
    <rdf:RDF>
      <cc:Work rdf:about="">
        <dc:format>image/svg+xml</dc:format>
        <dc:type rdf:resource="http://purl.org/dc/dcmitype/StillImage"/>
        <dc:title/>
      </cc:Work>
    </rdf:RDF>
  </metadata>
  <g inkscape:groupmode="layer" id="layer110" inkscape:label="button-select" style="display:inline">
    <path id="path5513" style="fill:#000000;stroke:none" d="m 24.9,25.65 0,-1.15 2.5,0 0,-1.1 -2.5,0 0,-1.15 2.75,0 0,-1.1 -4,0 0,5.6 4.1,0 0,-1.1 -2.85,0 m -7.05,-3.4 0,-1.1 -4,0 0,5.6 4.1,0 0,-1.1 -2.85,0 0,-1.15 2.5,0 0,-1.1 -2.5,0 0,-1.15 2.75,0 m 2.5,3.4 0,-4.5 -1.25,0 0,5.6 3.6,0 0,-1.1 -2.35,0 M 12.8,25.15 Q 12.8,24.4 12.35,24 11.9,23.6 11.1,23.4 l -1,-0.35 -0.25,-0.4 0.2,-0.4 0.5,-0.1 q 0.75,0 1.5,0.55 l 0.65,-0.95 q -0.45,-0.35 -1,-0.55 l -1.1,-0.15 q -0.9,0 -1.45,0.4 -0.55,0.45 -0.55,1.25 0,0.8 0.45,1.15 0.45,0.4 1.4,0.6 l 0.85,0.3 0.2,0.4 -0.2,0.4 -0.55,0.15 Q 10,25.7 9.1,24.9 l -0.75,0.95 q 1.05,0.95 2.4,0.95 0.9,0 1.45,-0.45 0.6,-0.45 0.6,-1.2 m 25.9,-2.9 0,-1.1 -4.45,0 0,1.1 1.6,0 0,4.5 1.25,0 0,-4.5 1.6,0 m -4.95,3.5 -0.8,-0.85 q -0.55,0.75 -1.5,0.75 -0.65,0 -1.15,-0.45 -0.45,-0.5 -0.45,-1.3 0,-0.75 0.5,-1.2 0.5,-0.5 1.2,-0.5 0.85,0 1.45,0.75 l 0.8,-0.85 q -0.95,-1.05 -2.3,-1.05 -1.25,0 -2.1,0.8 -0.85,0.85 -0.85,2.1 0,1.25 0.85,2.05 0.8,0.8 2.1,0.8 1.3,0 2.25,-1.05 M 4.5,12 l 39,0 q 0.8,0 1.4,0.6 0.6,0.6 0.6,1.4 l 0,20 q 0,0.85 -0.6,1.45 Q 44.3,36 43.5,36 l -39,0 Q 3.65,36 3.05,35.45 2.5,34.85 2.5,34 l 0,-19.95 Q 2.5,13.2 3.05,12.6 3.65,12 4.5,12" inkscape:connector-curvature="0"/>
  </g>
  </svg>