<svg xmlns:dc="http://purl.org/dc/elements/1.1/" xmlns:cc="http://creativecommons.org/ns#" xmlns:rdf="http://www.w3.org/1999/02/22-rdf-syntax-ns#" xmlns:svg="http://www.w3.org/2000/svg" xmlns="http://www.w3.org/2000/svg" xmlns:sodipodi="http://sodipodi.sourceforge.net/DTD/sodipodi-0.dtd" xmlns:inkscape="http://www.inkscape.org/namespaces/inkscape" width="48" height="48" id="svg5057" version="1.1" inkscape:version="0.91 r13725" viewBox="0 0 48 48" sodipodi:docname="all_icons.tar">
  <defs id="defs5059"/>
  <sodipodi:namedview id="base" pagecolor="#ffffff" bordercolor="#666666" borderopacity="1.0" inkscape:pageopacity="0.0" inkscape:pageshadow="2" inkscape:zoom="5.3607533" inkscape:cx="17.083968" inkscape:cy="9.574371" inkscape:current-layer="layer36" showgrid="true" inkscape:grid-bbox="true" inkscape:document-units="px" inkscape:window-width="1680" inkscape:window-height="988" inkscape:window-x="-8" inkscape:window-y="-8" inkscape:window-maximized="1" showguides="true">
    <inkscape:grid type="xygrid" id="grid6922"/>
  </sodipodi:namedview>
  <metadata id="metadata5062">
    <rdf:RDF>
      <cc:Work rdf:about="">
        <dc:format>image/svg+xml</dc:format>
        <dc:type rdf:resource="http://purl.org/dc/dcmitype/StillImage"/>
        <dc:title/>
      </cc:Work>
    </rdf:RDF>
  </metadata>
  <g inkscape:groupmode="layer" id="layer18" inkscape:label="cells" style="display:inline">
    <path id="path5507" style="fill:#000000;stroke:none" d="M 6.55,39.45 Q 6,38.85 6,38 L 6,34.05 Q 6,33.2 6.55,32.6 7.15,32 8,32 l 32,0 q 0.8,0 1.4,0.6 0.6,0.6 0.6,1.4 l 0,4 q 0,0.85 -0.6,1.45 Q 40.8,40 40,40 L 8,40 Q 7.15,40 6.55,39.45 M 41.4,20.6 Q 42,21.2 42,22 l 0,4 q 0,0.85 -0.6,1.45 Q 40.8,28 40,28 L 8,28 Q 7.15,28 6.55,27.45 6,26.85 6,26 L 6,22.05 Q 6,21.2 6.55,20.6 7.15,20 8,20 l 32,0 q 0.8,0 1.4,0.6 M 42,14 q 0,0.85 -0.6,1.45 Q 40.8,16 40,16 L 8,16 Q 7.15,16 6.55,15.45 6,14.85 6,14 L 6,10.05 Q 6,9.2 6.55,8.6 7.15,8 8,8 L 40,8 Q 40.8,8 41.4,8.6 42,9.2 42,10 l 0,4" inkscape:connector-curvature="0"/>
  </g>
  </svg>