<svg xmlns:dc="http://purl.org/dc/elements/1.1/" xmlns:cc="http://creativecommons.org/ns#" xmlns:rdf="http://www.w3.org/1999/02/22-rdf-syntax-ns#" xmlns:svg="http://www.w3.org/2000/svg" xmlns="http://www.w3.org/2000/svg" xmlns:sodipodi="http://sodipodi.sourceforge.net/DTD/sodipodi-0.dtd" xmlns:inkscape="http://www.inkscape.org/namespaces/inkscape" width="48" height="48" id="svg5057" version="1.1" inkscape:version="0.91 r13725" viewBox="0 0 48 48" sodipodi:docname="all_icons.tar">
  <defs id="defs5059"/>
  <sodipodi:namedview id="base" pagecolor="#ffffff" bordercolor="#666666" borderopacity="1.0" inkscape:pageopacity="0.0" inkscape:pageshadow="2" inkscape:zoom="5.3607533" inkscape:cx="17.083968" inkscape:cy="9.574371" inkscape:current-layer="layer36" showgrid="true" inkscape:grid-bbox="true" inkscape:document-units="px" inkscape:window-width="1680" inkscape:window-height="988" inkscape:window-x="-8" inkscape:window-y="-8" inkscape:window-maximized="1" showguides="true">
    <inkscape:grid type="xygrid" id="grid6922"/>
  </sodipodi:namedview>
  <metadata id="metadata5062">
    <rdf:RDF>
      <cc:Work rdf:about="">
        <dc:format>image/svg+xml</dc:format>
        <dc:type rdf:resource="http://purl.org/dc/dcmitype/StillImage"/>
        <dc:title/>
      </cc:Work>
    </rdf:RDF>
  </metadata>
  <g style="display:inline" inkscape:label="circle" id="g5897" inkscape:groupmode="layer">
    <path inkscape:connector-curvature="0" d="M 12.7,12.65 C 15.833333,9.55 19.6,8 24,8 c 4.4,0 8.166667,1.5666667 11.3,4.7 3.133333,3.133333 4.7,6.9 4.7,11.3 0,4.433333 -1.566667,8.216667 -4.7,11.35 C 32.166667,38.45 28.4,40 24,40 19.6,40 15.833333,38.45 12.7,35.35 9.5666667,32.216667 8,28.433333 8,24 8,19.6 9.55,15.833333 12.65,12.7 l 0.05,0 0,-0.05 M 24,14 c -2.766667,0 -5.133333,0.966667 -7.1,2.9 -1.966667,1.966667 -2.95,4.333333 -2.95,7.1 0,2.8 0.983333,5.166667 2.95,7.1 1.966667,1.966667 4.333333,2.95 7.1,2.95 2.766667,0 5.133333,-0.983333 7.1,-2.95 l 0.05,0 c 1.933333,-1.933333 2.9,-4.3 2.9,-7.1 0,-2.766667 -0.966667,-5.133333 -2.9,-7.1 C 29.15,14.966667 26.766667,14 24,14" style="display:inline;fill:#000000;stroke:none" id="path5899" sodipodi:nodetypes="cssscscscccccscsccscc"/>
  </g>
  </svg>