<svg xmlns:dc="http://purl.org/dc/elements/1.1/" xmlns:cc="http://creativecommons.org/ns#" xmlns:rdf="http://www.w3.org/1999/02/22-rdf-syntax-ns#" xmlns:svg="http://www.w3.org/2000/svg" xmlns="http://www.w3.org/2000/svg" xmlns:sodipodi="http://sodipodi.sourceforge.net/DTD/sodipodi-0.dtd" xmlns:inkscape="http://www.inkscape.org/namespaces/inkscape" width="48" height="48" id="svg5057" version="1.1" inkscape:version="0.91 r13725" viewBox="0 0 48 48" sodipodi:docname="all_icons.tar">
  <defs id="defs5059"/>
  <sodipodi:namedview id="base" pagecolor="#ffffff" bordercolor="#666666" borderopacity="1.0" inkscape:pageopacity="0.0" inkscape:pageshadow="2" inkscape:zoom="5.3607533" inkscape:cx="17.083968" inkscape:cy="9.574371" inkscape:current-layer="layer36" showgrid="true" inkscape:grid-bbox="true" inkscape:document-units="px" inkscape:window-width="1680" inkscape:window-height="988" inkscape:window-x="-8" inkscape:window-y="-8" inkscape:window-maximized="1" showguides="true">
    <inkscape:grid type="xygrid" id="grid6922"/>
  </sodipodi:namedview>
  <metadata id="metadata5062">
    <rdf:RDF>
      <cc:Work rdf:about="">
        <dc:format>image/svg+xml</dc:format>
        <dc:type rdf:resource="http://purl.org/dc/dcmitype/StillImage"/>
        <dc:title/>
      </cc:Work>
    </rdf:RDF>
  </metadata>
  <g inkscape:groupmode="layer" id="layer50" inkscape:label="circle-dot" style="display:inline">
    <path id="path5573" style="display:inline;fill:#000000;stroke:none" d="M 12.7,12.65 Q 17.4,8 24,8 30.6,8 35.3,12.7 40,17.4 40,24 40,30.65 35.3,35.35 30.6,40 24,40 17.4,40 12.7,35.35 8,30.65 8,24 8,17.4 12.65,12.7 l 0.05,0 0,-0.05 m 11.3,5.7 q 2.35,0 4,1.65 1.65,1.65 1.65,4 0,2.35 -1.65,4 -1.65,1.7 -4,1.7 -2.4,0 -4.05,-1.7 -1.6,-1.65 -1.6,-4 0,-2.35 1.6,-4 Q 21.6,18.35 24,18.35 M 24,14 q -4.15,0 -7.1,2.9 -2.95,2.95 -2.95,7.1 0,4.2 2.95,7.1 2.95,2.95 7.1,2.95 4.15,0 7.1,-2.95 l 0.05,0 q 2.9,-2.9 2.9,-7.1 0,-4.15 -2.9,-7.1 Q 28.15,14 24,14" inkscape:connector-curvature="0"/>
  </g>
  </svg>