<svg xmlns:dc="http://purl.org/dc/elements/1.1/" xmlns:cc="http://creativecommons.org/ns#" xmlns:rdf="http://www.w3.org/1999/02/22-rdf-syntax-ns#" xmlns:svg="http://www.w3.org/2000/svg" xmlns="http://www.w3.org/2000/svg" xmlns:sodipodi="http://sodipodi.sourceforge.net/DTD/sodipodi-0.dtd" xmlns:inkscape="http://www.inkscape.org/namespaces/inkscape" width="48" height="48" id="svg5057" version="1.1" inkscape:version="0.91 r13725" viewBox="0 0 48 48" sodipodi:docname="all_icons.tar">
  <defs id="defs5059"/>
  <sodipodi:namedview id="base" pagecolor="#ffffff" bordercolor="#666666" borderopacity="1.0" inkscape:pageopacity="0.0" inkscape:pageshadow="2" inkscape:zoom="5.3607533" inkscape:cx="17.083968" inkscape:cy="9.574371" inkscape:current-layer="layer36" showgrid="true" inkscape:grid-bbox="true" inkscape:document-units="px" inkscape:window-width="1680" inkscape:window-height="988" inkscape:window-x="-8" inkscape:window-y="-8" inkscape:window-maximized="1" showguides="true">
    <inkscape:grid type="xygrid" id="grid6922"/>
  </sodipodi:namedview>
  <metadata id="metadata5062">
    <rdf:RDF>
      <cc:Work rdf:about="">
        <dc:format>image/svg+xml</dc:format>
        <dc:type rdf:resource="http://purl.org/dc/dcmitype/StillImage"/>
        <dc:title/>
      </cc:Work>
    </rdf:RDF>
  </metadata>
  <g inkscape:groupmode="layer" id="layer124" inkscape:label="cloud-upload" style="display:inline">
    <path style="display:inline;fill:#000000;stroke:none" d="m 43.3,34.096371 q -6.6,1.75 -12.8,2.4 l 0,-8.4 3,0 0.7,-0.25 0.3,-0.75 0,-1 -7,-7 -7,7 0,1 q 0,0.45 0.3,0.75 l 0.7,0.25 3,0 0,8.8 q -10.05,0.15 -19.1,-2.8 l -0.45,-0.1 -0.35,-0.3 q -1.1,-1.7 -1.1,-3.85 0,-3 2.15,-5.1 1.5,-1.45 3.4,-1.95 0.4,-4.55 3.8,-7.9 3.85,-3.8 9.35,-3.8 5.45,0 9.35,3.8 1.75,1.75 2.7,3.8 3.8,0.6 6.65,3.4 3.6,3.55 3.6,8.6 l -0.3,2.7 -0.3,0.5 -0.6,0.2" id="path6642" inkscape:connector-curvature="0"/>
  </g>
  </svg>