<svg xmlns:dc="http://purl.org/dc/elements/1.1/" xmlns:cc="http://creativecommons.org/ns#" xmlns:rdf="http://www.w3.org/1999/02/22-rdf-syntax-ns#" xmlns:svg="http://www.w3.org/2000/svg" xmlns="http://www.w3.org/2000/svg" xmlns:sodipodi="http://sodipodi.sourceforge.net/DTD/sodipodi-0.dtd" xmlns:inkscape="http://www.inkscape.org/namespaces/inkscape" width="48" height="48" id="svg5057" version="1.1" inkscape:version="0.91 r13725" viewBox="0 0 48 48" sodipodi:docname="all_icons.tar">
  <defs id="defs5059"/>
  <sodipodi:namedview id="base" pagecolor="#ffffff" bordercolor="#666666" borderopacity="1.0" inkscape:pageopacity="0.0" inkscape:pageshadow="2" inkscape:zoom="5.3607533" inkscape:cx="17.083968" inkscape:cy="9.574371" inkscape:current-layer="layer36" showgrid="true" inkscape:grid-bbox="true" inkscape:document-units="px" inkscape:window-width="1680" inkscape:window-height="988" inkscape:window-x="-8" inkscape:window-y="-8" inkscape:window-maximized="1" showguides="true">
    <inkscape:grid type="xygrid" id="grid6922"/>
  </sodipodi:namedview>
  <metadata id="metadata5062">
    <rdf:RDF>
      <cc:Work rdf:about="">
        <dc:format>image/svg+xml</dc:format>
        <dc:type rdf:resource="http://purl.org/dc/dcmitype/StillImage"/>
        <dc:title/>
      </cc:Work>
    </rdf:RDF>
  </metadata>
  <g inkscape:groupmode="layer" id="layer49" inkscape:label="cog" style="display:inline">
    <path id="path5567" style="fill:#000000;stroke:none" d="m 24,20.15 q 1.6,0 2.75,1.1 1.15,1.15 1.15,2.75 0,1.6 -1.15,2.75 -1.15,1.15 -2.75,1.15 -1.6,0 -2.75,-1.15 -1.1,-1.15 -1.1,-2.75 0,-1.6 1.1,-2.75 1.15,-1.1 2.75,-1.1 m 0,-3.9 q -3.2,0 -5.5,2.25 -2.25,2.3 -2.25,5.5 0,3.2 2.25,5.5 2.3,2.25 5.5,2.25 3.2,0 5.5,-2.25 2.25,-2.3 2.25,-5.5 0,-3.2 -2.25,-5.5 Q 27.2,16.25 24,16.25 M 38.8,17.8 Q 40,20.65 40,24 40,24.5 39.65,24.85 39.3,25.2 38.8,25.2 l -3.3,0 -0.4,2.05 3.1,1.3 0.65,0.65 q 0.2,0.45 0,0.9 -1.15,2.85 -3.55,5.25 l -0.8,0.3 -0.85,-0.3 -2.35,-2.35 -1.75,1.2 1.3,3.05 q 0.2,0.45 0,0.9 L 30.2,38.8 Q 27.35,40 24,40 23.5,40 23.15,39.65 22.8,39.3 22.8,38.8 l 0,-3.3 -2.05,-0.35 -1.25,3.05 -0.65,0.65 q -0.45,0.2 -0.9,0 -2.9,-1.15 -5.25,-3.5 -0.35,-0.35 -0.35,-0.85 0,-0.5 0.35,-0.85 l 2.35,-2.35 -1.2,-1.75 -3.1,1.3 q -0.45,0.2 -0.9,0 L 9.2,30.2 Q 8,27.35 8,24 8,23.5 8.35,23.15 8.7,22.8 9.2,22.8 l 3.3,0 0.4,-2.05 L 9.8,19.5 9.15,18.85 q -0.2,-0.45 0,-0.9 1.15,-2.9 3.55,-5.25 0.35,-0.35 0.8,-0.35 0.5,0 0.85,0.35 l 2.35,2.35 q 0.85,-0.7 1.75,-1.2 l -1.3,-3.1 q -0.2,-0.45 0,-0.9 Q 17.35,9.4 17.8,9.2 20.65,8 24,8 24.5,8 24.85,8.35 25.2,8.7 25.2,9.2 l 0,3.3 2.05,0.4 1.3,-3.1 q 0.15,-0.45 0.6,-0.65 0.45,-0.2 0.95,0 1.85,0.75 3.55,2.05 l 1.65,1.5 q 0.35,0.35 0.35,0.85 l -0.35,0.8 -2.3,2.35 1.15,1.75 3.1,-1.3 q 0.45,-0.2 0.9,0 l 0.65,0.65" inkscape:connector-curvature="0"/>
  </g>
  </svg>