<svg xmlns:dc="http://purl.org/dc/elements/1.1/" xmlns:cc="http://creativecommons.org/ns#" xmlns:rdf="http://www.w3.org/1999/02/22-rdf-syntax-ns#" xmlns:svg="http://www.w3.org/2000/svg" xmlns="http://www.w3.org/2000/svg" xmlns:sodipodi="http://sodipodi.sourceforge.net/DTD/sodipodi-0.dtd" xmlns:inkscape="http://www.inkscape.org/namespaces/inkscape" width="48" height="48" id="svg5057" version="1.1" inkscape:version="0.91 r13725" viewBox="0 0 48 48" sodipodi:docname="all_icons.tar">
  <defs id="defs5059"/>
  <sodipodi:namedview id="base" pagecolor="#ffffff" bordercolor="#666666" borderopacity="1.0" inkscape:pageopacity="0.0" inkscape:pageshadow="2" inkscape:zoom="5.3607533" inkscape:cx="17.083968" inkscape:cy="9.574371" inkscape:current-layer="layer36" showgrid="true" inkscape:grid-bbox="true" inkscape:document-units="px" inkscape:window-width="1680" inkscape:window-height="988" inkscape:window-x="-8" inkscape:window-y="-8" inkscape:window-maximized="1" showguides="true">
    <inkscape:grid type="xygrid" id="grid6922"/>
  </sodipodi:namedview>
  <metadata id="metadata5062">
    <rdf:RDF>
      <cc:Work rdf:about="">
        <dc:format>image/svg+xml</dc:format>
        <dc:type rdf:resource="http://purl.org/dc/dcmitype/StillImage"/>
        <dc:title/>
      </cc:Work>
    </rdf:RDF>
  </metadata>
  <g inkscape:groupmode="layer" id="layer121" inkscape:label="coin" style="display:inline">
    <path id="path6592" style="display:inline;fill:#000000;stroke:none" d="M 32.5,32.5 Q 36,29 36,24 36,19 32.5,15.5 29,12 24,12 19,12 15.5,15.5 12,19 12,24 q 0,5 3.5,8.5 3.5,3.5 8.5,3.5 5,0 8.5,-3.5 m 2.8,2.8 Q 30.65,40 24,40 17.35,40 12.65,35.3 8,30.65 8,24 8,17.35 12.65,12.65 17.35,8 24,8 30.65,8 35.3,12.65 40,17.35 40,24 40,30.65 35.3,35.3 M 30.4,30.4 Q 27.75,33 24,33 20.25,33 17.65,30.4 15,27.75 15,24 15,20.25 17.65,17.65 20.25,15 24,15 q 3.75,0 6.4,2.65 2.6,2.6 2.6,6.35 0,3.75 -2.6,6.4 M 26,29 l 0,-10 -4,0 0,10 4,0" inkscape:connector-curvature="0"/>
  </g>
  </svg>