<svg xmlns:dc="http://purl.org/dc/elements/1.1/" xmlns:cc="http://creativecommons.org/ns#" xmlns:rdf="http://www.w3.org/1999/02/22-rdf-syntax-ns#" xmlns:svg="http://www.w3.org/2000/svg" xmlns="http://www.w3.org/2000/svg" xmlns:sodipodi="http://sodipodi.sourceforge.net/DTD/sodipodi-0.dtd" xmlns:inkscape="http://www.inkscape.org/namespaces/inkscape" width="48" height="48" id="svg5057" version="1.1" inkscape:version="0.91 r13725" viewBox="0 0 48 48" sodipodi:docname="all_icons.tar">
  <defs id="defs5059"/>
  <sodipodi:namedview id="base" pagecolor="#ffffff" bordercolor="#666666" borderopacity="1.0" inkscape:pageopacity="0.0" inkscape:pageshadow="2" inkscape:zoom="5.3607533" inkscape:cx="17.083968" inkscape:cy="9.574371" inkscape:current-layer="layer36" showgrid="true" inkscape:grid-bbox="true" inkscape:document-units="px" inkscape:window-width="1680" inkscape:window-height="988" inkscape:window-x="-8" inkscape:window-y="-8" inkscape:window-maximized="1" showguides="true">
    <inkscape:grid type="xygrid" id="grid6922"/>
  </sodipodi:namedview>
  <metadata id="metadata5062">
    <rdf:RDF>
      <cc:Work rdf:about="">
        <dc:format>image/svg+xml</dc:format>
        <dc:type rdf:resource="http://purl.org/dc/dcmitype/StillImage"/>
        <dc:title/>
      </cc:Work>
    </rdf:RDF>
  </metadata>
  <g inkscape:groupmode="layer" id="layer134" inkscape:label="computer" style="display:inline">
    <path id="path6530" style="display:inline;fill:#000000;stroke:none" d="m 13,8.0000015 0,16.0000005 22,0 0,-16.0000005 -22,0 m 17,27.9999975 0,4 4,0 0,-4 -4,0 m -19,-3.999997 26,0 q 0.8,0 1.4,0.6 0.6,0.599999 0.6,1.399997 l 0,8 q 0,0.849999 -0.6,1.45 -0.6,0.55 -1.4,0.55 l -26,0 q -0.85,0 -1.45,-0.55 -0.55,-0.6 -0.55,-1.45 l 0,-7.950001 q 0,-0.849997 0.55,-1.449996 0.6,-0.6 1.45,-0.6 m 0,-28.0000005 26,0 q 0.8,0 1.4,0.6 0.6,0.6 0.6,1.4 l 0,22.0000005 -0.2,0.95 -0.4,0.5 q -0.6,0.55 -1.4,0.55 l -26,0 q -0.85,0 -1.45,-0.55 l -0.35,-0.5 -0.2,-0.95 0,-21.9500005 q 0,-0.85 0.55,-1.45 0.6,-0.6 1.45,-0.6" inkscape:connector-curvature="0"/>
  </g>
  </svg>