<svg xmlns:dc="http://purl.org/dc/elements/1.1/" xmlns:cc="http://creativecommons.org/ns#" xmlns:rdf="http://www.w3.org/1999/02/22-rdf-syntax-ns#" xmlns:svg="http://www.w3.org/2000/svg" xmlns="http://www.w3.org/2000/svg" xmlns:sodipodi="http://sodipodi.sourceforge.net/DTD/sodipodi-0.dtd" xmlns:inkscape="http://www.inkscape.org/namespaces/inkscape" width="48" height="48" id="svg5057" version="1.1" inkscape:version="0.91 r13725" viewBox="0 0 48 48" sodipodi:docname="all_icons.tar">
  <defs id="defs5059"/>
  <sodipodi:namedview id="base" pagecolor="#ffffff" bordercolor="#666666" borderopacity="1.0" inkscape:pageopacity="0.0" inkscape:pageshadow="2" inkscape:zoom="5.3607533" inkscape:cx="17.083968" inkscape:cy="9.574371" inkscape:current-layer="layer36" showgrid="true" inkscape:grid-bbox="true" inkscape:document-units="px" inkscape:window-width="1680" inkscape:window-height="988" inkscape:window-x="-8" inkscape:window-y="-8" inkscape:window-maximized="1" showguides="true">
    <inkscape:grid type="xygrid" id="grid6922"/>
  </sodipodi:namedview>
  <metadata id="metadata5062">
    <rdf:RDF>
      <cc:Work rdf:about="">
        <dc:format>image/svg+xml</dc:format>
        <dc:type rdf:resource="http://purl.org/dc/dcmitype/StillImage"/>
        <dc:title/>
      </cc:Work>
    </rdf:RDF>
  </metadata>
  <g inkscape:groupmode="layer" id="layer45" inkscape:label="cub" style="display:inline">
    <path transform="translate(-100.74636,43.171976)" id="path5381" style="fill:#000000;stroke:none" d="m 114.74636,-25.171976 -2,0 0,8 2,0 0,-8 m 22,0 -2,0 0,8 2,0 0,-8 m 4,-2 0,10 q 0,1.7 -1.2,2.85 -1.15,1.15 -2.8,1.15 l -8,0 0,4 6,0 q 0.8,0 1.4,0.6 0.6,0.6 0.6,1.4 l 0,2 -24,0 0,-1.95 q 0,-0.85 0.55,-1.45 0.6,-0.6 1.45,-0.6 l 6,0 0,-4 -8,0 q -1.7,0 -2.85,-1.15 -1.15,-1.2 -1.15,-2.85 l 0,-9.95 q 0,-0.85 0.55,-1.45 0.6,-0.6 1.45,-0.6 l 4,0 0,-4 20,0 0,4 4,0 q 0.8,0 1.4,0.6 0.6,0.6 0.6,1.4" inkscape:connector-curvature="0"/>
  </g>
  </svg>