<svg xmlns:dc="http://purl.org/dc/elements/1.1/" xmlns:cc="http://creativecommons.org/ns#" xmlns:rdf="http://www.w3.org/1999/02/22-rdf-syntax-ns#" xmlns:svg="http://www.w3.org/2000/svg" xmlns="http://www.w3.org/2000/svg" xmlns:sodipodi="http://sodipodi.sourceforge.net/DTD/sodipodi-0.dtd" xmlns:inkscape="http://www.inkscape.org/namespaces/inkscape" width="48" height="48" id="svg5057" version="1.1" inkscape:version="0.91 r13725" viewBox="0 0 48 48" sodipodi:docname="all_icons.tar">
  <defs id="defs5059"/>
  <sodipodi:namedview id="base" pagecolor="#ffffff" bordercolor="#666666" borderopacity="1.0" inkscape:pageopacity="0.0" inkscape:pageshadow="2" inkscape:zoom="5.3607533" inkscape:cx="17.083968" inkscape:cy="9.574371" inkscape:current-layer="layer36" showgrid="true" inkscape:grid-bbox="true" inkscape:document-units="px" inkscape:window-width="1680" inkscape:window-height="988" inkscape:window-x="-8" inkscape:window-y="-8" inkscape:window-maximized="1" showguides="true">
    <inkscape:grid type="xygrid" id="grid6922"/>
  </sodipodi:namedview>
  <metadata id="metadata5062">
    <rdf:RDF>
      <cc:Work rdf:about="">
        <dc:format>image/svg+xml</dc:format>
        <dc:type rdf:resource="http://purl.org/dc/dcmitype/StillImage"/>
        <dc:title/>
      </cc:Work>
    </rdf:RDF>
  </metadata>
  <g inkscape:groupmode="layer" id="layer133" inkscape:label="device-tilt-left" style="display:inline">
    <path id="path6528" style="display:inline;fill:#000000;stroke:none" d="m 41.002564,33.000001 -3.1,-11.599999 -30.8999999,8.349999 3.0999999,11.549997 30.9,-8.299997 m -2.2,-16 q 0.8,-0.2 1.5,0.25 0.75,0.400001 0.95,1.2 l 4.15,15.449997 q 0.2,0.8 -0.25,1.55 -0.4,0.7 -1.2,0.9 l -34.7499999,9.35 -1.55,-0.2 q -0.7,-0.45 -0.9,-1.25 l -4.15,-15.399997 q -0.2,-0.85 0.2,-1.55 0.45,-0.75 1.25,-0.95 l 34.7499999,-9.35 m -1.8,-8.8999995 q 0.1,0.5 -0.35,1.15 l -3.1,5.1500005 -0.9,0.7 q -0.6,0.15 -1.2,-0.3 -1.9,-1.3 -4.15,-1.75 l -0.05,0 -5.1,0.3 1.1,1.55 q 0.6,0.799999 0.1,1.7 l -0.05,0.1 q -0.55,0.6 -1.3,0.6 l -0.1,0 -10.6,-1.35 -0.1,0 q -0.75,-0.15 -1.05,-0.799999 l 0.1,0.1 q -0.4499999,-0.55 -0.2,-1.2 l 0,-0.1 3.8,-10.5999995 q 0.1,-0.9 1.3,-1.05 l 0.1,0 q 0.85,0 1.3,0.75 l 0.05,0.15 0.95,2.15 q 5.35,-2.4 11.35,-1.25 4,0.7 7.3,3.05 0.75,0.35 0.8,0.95" inkscape:connector-curvature="0"/>
  </g>
  </svg>