<svg xmlns:dc="http://purl.org/dc/elements/1.1/" xmlns:cc="http://creativecommons.org/ns#" xmlns:rdf="http://www.w3.org/1999/02/22-rdf-syntax-ns#" xmlns:svg="http://www.w3.org/2000/svg" xmlns="http://www.w3.org/2000/svg" xmlns:sodipodi="http://sodipodi.sourceforge.net/DTD/sodipodi-0.dtd" xmlns:inkscape="http://www.inkscape.org/namespaces/inkscape" width="48" height="48" id="svg5057" version="1.1" inkscape:version="0.91 r13725" viewBox="0 0 48 48" sodipodi:docname="all_icons.tar">
  <defs id="defs5059"/>
  <sodipodi:namedview id="base" pagecolor="#ffffff" bordercolor="#666666" borderopacity="1.0" inkscape:pageopacity="0.0" inkscape:pageshadow="2" inkscape:zoom="5.3607533" inkscape:cx="17.083968" inkscape:cy="9.574371" inkscape:current-layer="layer36" showgrid="true" inkscape:grid-bbox="true" inkscape:document-units="px" inkscape:window-width="1680" inkscape:window-height="988" inkscape:window-x="-8" inkscape:window-y="-8" inkscape:window-maximized="1" showguides="true">
    <inkscape:grid type="xygrid" id="grid6922"/>
  </sodipodi:namedview>
  <metadata id="metadata5062">
    <rdf:RDF>
      <cc:Work rdf:about="">
        <dc:format>image/svg+xml</dc:format>
        <dc:type rdf:resource="http://purl.org/dc/dcmitype/StillImage"/>
        <dc:title/>
      </cc:Work>
    </rdf:RDF>
  </metadata>
  <g inkscape:groupmode="layer" id="layer132" inkscape:label="device-tilt-right" style="display:inline">
    <path id="path6460" style="display:inline;fill:#000000;stroke:none" d="m 31.30303,3.2500015 0.05,-0.15 q 0.45,-0.75 1.3,-0.75 l 0.1,0 q 1.2,0.15 1.3,1.05 l 3.8,10.6000005 0,0.1 q 0.25,0.65 -0.2,1.2 l 0.1,-0.1 -1.05,0.8 -0.1,0 -10.6,1.35 -0.1,0 q -0.75,0 -1.3,-0.6 l -0.05,-0.1 q -0.5,-0.9 0.1,-1.7 l 1.1,-1.55 -5.1,-0.3 -0.05,0 q -2.25,0.45 -4.15,1.75 -0.6,0.45 -1.2,0.3 -0.6,-0.2 -0.9,-0.7 l -3.1,-5.1500005 q -0.45,-0.65 -0.35,-1.15 0.05,-0.6 0.8,-0.95 3.3,-2.35 7.3,-3.05 6,-1.15 11.35,1.25 l 0.95,-2.15 M 7.6530303,17.300001 q 0.8,-0.45 1.6,-0.25 l 34.7499997,9.3 q 0.75,0.25 1.2,0.95 0.4,0.7 0.2,1.5 l -4.15,15.499997 q -0.25,0.8 -0.95,1.2 l -1.5,0.15 -34.7999997,-9.25 q -0.8,-0.2 -1.25,-0.95 -0.35,-0.75 -0.15,-1.55 l 4.15,-15.399997 q 0.2,-0.8 0.9,-1.2 m 2.4499997,4.15 -3.0999997,11.6 30.9499997,8.249997 3.05,-11.599997 -30.9,-8.25" inkscape:connector-curvature="0"/>
  </g>
  </svg>