<svg xmlns:dc="http://purl.org/dc/elements/1.1/" xmlns:cc="http://creativecommons.org/ns#" xmlns:rdf="http://www.w3.org/1999/02/22-rdf-syntax-ns#" xmlns:svg="http://www.w3.org/2000/svg" xmlns="http://www.w3.org/2000/svg" xmlns:sodipodi="http://sodipodi.sourceforge.net/DTD/sodipodi-0.dtd" xmlns:inkscape="http://www.inkscape.org/namespaces/inkscape" width="48" height="48" id="svg5057" version="1.1" inkscape:version="0.91 r13725" viewBox="0 0 48 48" sodipodi:docname="all_icons.tar">
  <defs id="defs5059"/>
  <sodipodi:namedview id="base" pagecolor="#ffffff" bordercolor="#666666" borderopacity="1.0" inkscape:pageopacity="0.0" inkscape:pageshadow="2" inkscape:zoom="5.3607533" inkscape:cx="17.083968" inkscape:cy="9.574371" inkscape:current-layer="layer36" showgrid="true" inkscape:grid-bbox="true" inkscape:document-units="px" inkscape:window-width="1680" inkscape:window-height="988" inkscape:window-x="-8" inkscape:window-y="-8" inkscape:window-maximized="1" showguides="true">
    <inkscape:grid type="xygrid" id="grid6922"/>
  </sodipodi:namedview>
  <metadata id="metadata5062">
    <rdf:RDF>
      <cc:Work rdf:about="">
        <dc:format>image/svg+xml</dc:format>
        <dc:type rdf:resource="http://purl.org/dc/dcmitype/StillImage"/>
        <dc:title/>
      </cc:Work>
    </rdf:RDF>
  </metadata>
  <g inkscape:groupmode="layer" id="layer63" inkscape:label="download" style="display:inline">
    <path id="path5429" style="fill:#000000;stroke:none" d="m 16,26 0,6 16,0 0,-5.95 Q 32,25.2 32.55,24.6 33.15,24 34,24 l 4,0 q 0.8,0 1.4,0.6 0.6,0.6 0.6,1.4 l 0,12 q 0,0.85 -0.6,1.45 Q 38.8,40 38,40 L 10,40 Q 9.15,40 8.55,39.45 8,38.85 8,38 L 8,26.05 Q 8,25.2 8.55,24.6 9.15,24 10,24 l 4,0 q 0.8,0 1.4,0.6 0.6,0.6 0.6,1.4 m 16,-10 0,4 -8,8 -8,-8 0,-4 4,0 0,-8 8,0 0,8 4,0" inkscape:connector-curvature="0"/>
  </g>
  </svg>