<svg xmlns:dc="http://purl.org/dc/elements/1.1/" xmlns:cc="http://creativecommons.org/ns#" xmlns:rdf="http://www.w3.org/1999/02/22-rdf-syntax-ns#" xmlns:svg="http://www.w3.org/2000/svg" xmlns="http://www.w3.org/2000/svg" xmlns:sodipodi="http://sodipodi.sourceforge.net/DTD/sodipodi-0.dtd" xmlns:inkscape="http://www.inkscape.org/namespaces/inkscape" width="48" height="48" id="svg5057" version="1.1" inkscape:version="0.91 r13725" viewBox="0 0 48 48" sodipodi:docname="all_icons.tar">
  <defs id="defs5059"/>
  <sodipodi:namedview id="base" pagecolor="#ffffff" bordercolor="#666666" borderopacity="1.0" inkscape:pageopacity="0.0" inkscape:pageshadow="2" inkscape:zoom="5.3607533" inkscape:cx="17.083968" inkscape:cy="9.574371" inkscape:current-layer="layer36" showgrid="true" inkscape:grid-bbox="true" inkscape:document-units="px" inkscape:window-width="1680" inkscape:window-height="988" inkscape:window-x="-8" inkscape:window-y="-8" inkscape:window-maximized="1" showguides="true">
    <inkscape:grid type="xygrid" id="grid6922"/>
  </sodipodi:namedview>
  <metadata id="metadata5062">
    <rdf:RDF>
      <cc:Work rdf:about="">
        <dc:format>image/svg+xml</dc:format>
        <dc:type rdf:resource="http://purl.org/dc/dcmitype/StillImage"/>
        <dc:title/>
      </cc:Work>
    </rdf:RDF>
  </metadata>
  <g inkscape:groupmode="layer" id="layer142" inkscape:label="dpad" style="display:inline">
    <path style="display:inline;fill:#000000;stroke:none" d="m 42,18 0,12 q 0,0.8 -0.6,1.4 Q 40.8,32 40,32 l -8,0 0,8 q 0,0.85 -0.6,1.45 Q 30.8,42 30,42 L 18,42 Q 17.15,42 16.55,41.45 16,40.85 16,40 l 0,-8 -8,0 Q 7.15,32 6.55,31.4 6,30.8 6,30 L 6,18 Q 6,17.15 6.55,16.55 7.15,16 8,16 l 8,0 0,-7.95 Q 16,7.2 16.55,6.6 17.15,6 18,6 L 30,6 Q 30.8,6 31.4,6.6 32,7.2 32,8 l 0,8 7.95,0 q 0.85,0 1.45,0.55 0.6,0.6 0.6,1.45" id="path6380" inkscape:connector-curvature="0"/>
  </g>
  </svg>