<svg xmlns:dc="http://purl.org/dc/elements/1.1/" xmlns:cc="http://creativecommons.org/ns#" xmlns:rdf="http://www.w3.org/1999/02/22-rdf-syntax-ns#" xmlns:svg="http://www.w3.org/2000/svg" xmlns="http://www.w3.org/2000/svg" xmlns:sodipodi="http://sodipodi.sourceforge.net/DTD/sodipodi-0.dtd" xmlns:inkscape="http://www.inkscape.org/namespaces/inkscape" width="48" height="48" id="svg5057" version="1.1" inkscape:version="0.91 r13725" viewBox="0 0 48 48" sodipodi:docname="all_icons.tar">
  <defs id="defs5059"/>
  <sodipodi:namedview id="base" pagecolor="#ffffff" bordercolor="#666666" borderopacity="1.0" inkscape:pageopacity="0.0" inkscape:pageshadow="2" inkscape:zoom="5.3607533" inkscape:cx="17.083968" inkscape:cy="9.574371" inkscape:current-layer="layer36" showgrid="true" inkscape:grid-bbox="true" inkscape:document-units="px" inkscape:window-width="1680" inkscape:window-height="988" inkscape:window-x="-8" inkscape:window-y="-8" inkscape:window-maximized="1" showguides="true">
    <inkscape:grid type="xygrid" id="grid6922"/>
  </sodipodi:namedview>
  <metadata id="metadata5062">
    <rdf:RDF>
      <cc:Work rdf:about="">
        <dc:format>image/svg+xml</dc:format>
        <dc:type rdf:resource="http://purl.org/dc/dcmitype/StillImage"/>
        <dc:title/>
      </cc:Work>
    </rdf:RDF>
  </metadata>
  <g inkscape:groupmode="layer" id="layer61" inkscape:label="exclamation-triangle" style="display:inline">
    <path id="path5445-7" style="display:inline;fill:#000000;stroke:none" d="m 22.464808,16.7875 -0.4,0.3 q -0.55,0.6 -0.55,1.45 l 0,8.95 q 0,0.85 0.55,1.45 l 0.4,0.3 1,0.25 1.05,0 q 0.8,0 1.4,-0.55 0.6,-0.6 0.6,-1.45 l 0,-9 q 0,-0.8 -0.6,-1.4 -0.6,-0.6 -1.4,-0.6 l -1.05,0 q -0.55,0 -1,0.3 m 1.55,14.7 q -1.05,0 -1.8,0.75 -0.7,0.7 -0.7,1.75 0,1 0.7,1.75 0.75,0.75 1.8,0.75 1.05,0 1.75,-0.75 l 0,0.05 q 0.75,-0.75 0.75,-1.8 0,-1 -0.75,-1.75 l 0.05,0 q -0.7,-0.75 -1.8,-0.75 m -0.95,-22.75 q 0.95,-0.45 1.95,0 l 0.05,0 q 0.85,0.35 1.3,1.3 l 13.75,24.7 q 0.45,0.95 0.4,2 l 0,0.05 q -0.15,1.15 -0.9,1.85 l 0.05,0 q -0.8,0.85 -1.9,0.85 l -27.5,0 q -1.1500003,0 -1.9000003,-0.9 -0.7,-0.75 -0.85,-1.8 -0.15,-1.05 0.35,-2.05 l 0.05,0 13.7500003,-24.7 0,-0.05 q 0.5,-0.9 1.35,-1.25 l 0.05,0" inkscape:connector-curvature="0"/>
  </g>
  </svg>