<svg xmlns:dc="http://purl.org/dc/elements/1.1/" xmlns:cc="http://creativecommons.org/ns#" xmlns:rdf="http://www.w3.org/1999/02/22-rdf-syntax-ns#" xmlns:svg="http://www.w3.org/2000/svg" xmlns="http://www.w3.org/2000/svg" xmlns:sodipodi="http://sodipodi.sourceforge.net/DTD/sodipodi-0.dtd" xmlns:inkscape="http://www.inkscape.org/namespaces/inkscape" width="48" height="48" id="svg5057" version="1.1" inkscape:version="0.91 r13725" viewBox="0 0 48 48" sodipodi:docname="all_icons.tar">
  <defs id="defs5059"/>
  <sodipodi:namedview id="base" pagecolor="#ffffff" bordercolor="#666666" borderopacity="1.0" inkscape:pageopacity="0.0" inkscape:pageshadow="2" inkscape:zoom="5.3607533" inkscape:cx="17.083968" inkscape:cy="9.574371" inkscape:current-layer="layer36" showgrid="true" inkscape:grid-bbox="true" inkscape:document-units="px" inkscape:window-width="1680" inkscape:window-height="988" inkscape:window-x="-8" inkscape:window-y="-8" inkscape:window-maximized="1" showguides="true">
    <inkscape:grid type="xygrid" id="grid6922"/>
  </sodipodi:namedview>
  <metadata id="metadata5062">
    <rdf:RDF>
      <cc:Work rdf:about="">
        <dc:format>image/svg+xml</dc:format>
        <dc:type rdf:resource="http://purl.org/dc/dcmitype/StillImage"/>
        <dc:title/>
      </cc:Work>
    </rdf:RDF>
  </metadata>
  <g inkscape:groupmode="layer" id="layer2" inkscape:label="exclamation-circle" style="display:inline">
    <path style="fill:#000000;fill-opacity:1;fill-rule:evenodd;stroke:none" d="M 24,3 C 18.166667,3 13.199609,5.032943 9.0996094,9.0996094 5.0329426,13.232943 3,18.2 3,24 3,29.833333 5.0329427,34.782943 9.0996094,38.849609 13.19961,42.949609 18.166667,45 24,45 29.8,45 34.734115,42.949609 38.800781,38.849609 42.934115,34.782943 45,29.833333 45,24 45,18.2 42.934115,13.232943 38.800781,9.0996094 34.734115,5.032943 29.8,3 24,3 Z m -2,6 4,0 c 0.533333,0 1.000391,0.1996094 1.400391,0.5996094 C 27.800391,9.9996094 28,10.466667 28,11 l 0,15 c 0,0.566667 -0.199609,1.049219 -0.599609,1.449219 C 27.000391,27.815885 26.533333,28 26,28 l -4,0 C 21.433333,28 20.950781,27.815885 20.550781,27.449219 20.184115,27.049219 20,26.566667 20,26 L 20,11.050781 C 20,10.484115 20.184115,9.9996094 20.550781,9.5996094 20.950781,9.1996094 21.433333,9 22,9 Z m 2,22 c 1.133333,0 2.082943,0.399219 2.849609,1.199219 l -0.04883,0 C 27.600781,32.999219 28,33.933333 28,35 c 0,1.133333 -0.399219,2.100391 -1.199219,2.900391 l 0,-0.05078 C 26.034115,38.616276 25.1,39 24,39 22.866667,39 21.917057,38.616276 21.150391,37.849609 20.383724,37.049609 20,36.1 20,35 20,33.9 20.383724,32.965885 21.150391,32.199219 21.950391,31.399219 22.9,31 24,31 Z" id="path7523" inkscape:connector-curvature="0"/>
  </g>
  </svg>