<svg xmlns:dc="http://purl.org/dc/elements/1.1/" xmlns:cc="http://creativecommons.org/ns#" xmlns:rdf="http://www.w3.org/1999/02/22-rdf-syntax-ns#" xmlns:svg="http://www.w3.org/2000/svg" xmlns="http://www.w3.org/2000/svg" xmlns:sodipodi="http://sodipodi.sourceforge.net/DTD/sodipodi-0.dtd" xmlns:inkscape="http://www.inkscape.org/namespaces/inkscape" width="48" height="48" id="svg5057" version="1.1" inkscape:version="0.91 r13725" viewBox="0 0 48 48" sodipodi:docname="all_icons.tar">
  <defs id="defs5059"/>
  <sodipodi:namedview id="base" pagecolor="#ffffff" bordercolor="#666666" borderopacity="1.0" inkscape:pageopacity="0.0" inkscape:pageshadow="2" inkscape:zoom="5.3607533" inkscape:cx="17.083968" inkscape:cy="9.574371" inkscape:current-layer="layer36" showgrid="true" inkscape:grid-bbox="true" inkscape:document-units="px" inkscape:window-width="1680" inkscape:window-height="988" inkscape:window-x="-8" inkscape:window-y="-8" inkscape:window-maximized="1" showguides="true">
    <inkscape:grid type="xygrid" id="grid6922"/>
  </sodipodi:namedview>
  <metadata id="metadata5062">
    <rdf:RDF>
      <cc:Work rdf:about="">
        <dc:format>image/svg+xml</dc:format>
        <dc:type rdf:resource="http://purl.org/dc/dcmitype/StillImage"/>
        <dc:title/>
      </cc:Work>
    </rdf:RDF>
  </metadata>
  <g inkscape:groupmode="layer" id="layer59" inkscape:label="exclamation" style="display:inline">
    <path id="path5369" style="fill:#000000;stroke:none" d="m 20,35 q 0,-1.65 1.15,-2.8 1.2,-1.2 2.85,-1.2 1.7,0 2.85,1.2 l -0.05,0 q 1.2,1.2 1.2,2.8 0,1.7 -1.2,2.9 l 0,-0.05 Q 25.65,39 24,39 22.3,39 21.15,37.85 20,36.65 20,35 M 27.4,9.6 Q 28,10.2 28,11 l 0,15 q 0,0.85 -0.6,1.45 Q 26.8,28 26,28 l -4,0 Q 21.15,28 20.55,27.45 20,26.85 20,26 L 20,11.05 Q 20,10.2 20.55,9.6 21.15,9 22,9 l 4,0 q 0.8,0 1.4,0.6" inkscape:connector-curvature="0"/>
  </g>
  </svg>