<svg xmlns:dc="http://purl.org/dc/elements/1.1/" xmlns:cc="http://creativecommons.org/ns#" xmlns:rdf="http://www.w3.org/1999/02/22-rdf-syntax-ns#" xmlns:svg="http://www.w3.org/2000/svg" xmlns="http://www.w3.org/2000/svg" xmlns:sodipodi="http://sodipodi.sourceforge.net/DTD/sodipodi-0.dtd" xmlns:inkscape="http://www.inkscape.org/namespaces/inkscape" width="48" height="48" id="svg5057" version="1.1" inkscape:version="0.91 r13725" viewBox="0 0 48 48" sodipodi:docname="all_icons.tar">
  <defs id="defs5059"/>
  <sodipodi:namedview id="base" pagecolor="#ffffff" bordercolor="#666666" borderopacity="1.0" inkscape:pageopacity="0.0" inkscape:pageshadow="2" inkscape:zoom="5.3607533" inkscape:cx="17.083968" inkscape:cy="9.574371" inkscape:current-layer="layer36" showgrid="true" inkscape:grid-bbox="true" inkscape:document-units="px" inkscape:window-width="1680" inkscape:window-height="988" inkscape:window-x="-8" inkscape:window-y="-8" inkscape:window-maximized="1" showguides="true">
    <inkscape:grid type="xygrid" id="grid6922"/>
  </sodipodi:namedview>
  <metadata id="metadata5062">
    <rdf:RDF>
      <cc:Work rdf:about="">
        <dc:format>image/svg+xml</dc:format>
        <dc:type rdf:resource="http://purl.org/dc/dcmitype/StillImage"/>
        <dc:title/>
      </cc:Work>
    </rdf:RDF>
  </metadata>
  <g inkscape:groupmode="layer" id="layer62" inkscape:label="exit" style="display:inline">
    <path id="path5433" style="display:inline;fill:#000000;stroke:none" d="m 21.05,11.18125 q 0.6,-0.7 1.4,-0.85 l 14.05,-2.7 0,30 -14.05,2.7 q -0.8,0.15 -1.4,-0.3 -0.55,-0.5 -0.55,-1.35 l 0,-25.95 q 0,-0.85 0.55,-1.55 m -7.55,-3.45 4.95,0 0,4 -2.95,0 0,24 2.95,0 0,4 -4.95,0 q -0.85,0 -1.45,-0.55 -0.55,-0.6 -0.55,-1.45 l 0,-27.95 q 0,-0.85 0.55,-1.45 0.6,-0.6 1.45,-0.6 m 13.4,17.45 q 0.6,-0.6 0.6,-1.45 0,-0.8 -0.6,-1.4 l 0.05,0 q -0.6,-0.6 -1.45,-0.6 -0.8,0 -1.4,0.6 -0.6,0.6 -0.6,1.4 0,0.85 0.6,1.45 0.55,0.55 1.4,0.55 0.85,0 1.4,-0.55" inkscape:connector-curvature="0"/>
  </g>
  </svg>