<svg xmlns:dc="http://purl.org/dc/elements/1.1/" xmlns:cc="http://creativecommons.org/ns#" xmlns:rdf="http://www.w3.org/1999/02/22-rdf-syntax-ns#" xmlns:svg="http://www.w3.org/2000/svg" xmlns="http://www.w3.org/2000/svg" xmlns:sodipodi="http://sodipodi.sourceforge.net/DTD/sodipodi-0.dtd" xmlns:inkscape="http://www.inkscape.org/namespaces/inkscape" width="48" height="48" id="svg5057" version="1.1" inkscape:version="0.91 r13725" viewBox="0 0 48 48" sodipodi:docname="all_icons.tar">
  <defs id="defs5059"/>
  <sodipodi:namedview id="base" pagecolor="#ffffff" bordercolor="#666666" borderopacity="1.0" inkscape:pageopacity="0.0" inkscape:pageshadow="2" inkscape:zoom="5.3607533" inkscape:cx="17.083968" inkscape:cy="9.574371" inkscape:current-layer="layer36" showgrid="true" inkscape:grid-bbox="true" inkscape:document-units="px" inkscape:window-width="1680" inkscape:window-height="988" inkscape:window-x="-8" inkscape:window-y="-8" inkscape:window-maximized="1" showguides="true">
    <inkscape:grid type="xygrid" id="grid6922"/>
  </sodipodi:namedview>
  <metadata id="metadata5062">
    <rdf:RDF>
      <cc:Work rdf:about="">
        <dc:format>image/svg+xml</dc:format>
        <dc:type rdf:resource="http://purl.org/dc/dcmitype/StillImage"/>
        <dc:title/>
      </cc:Work>
    </rdf:RDF>
  </metadata>
  <g inkscape:groupmode="layer" id="layer86" inkscape:label="external" style="display:inline">
    <path id="path5107" style="fill:#000000;stroke:none" d="m 21.5,9.5 16,0 q 0.4,0 0.7,0.3 l 0.3,0.7 0,16 -0.3,0.7 -0.7,0.3 -0.7,-0.3 -3.3,-3.3 -7.3,7.3 -0.7,0.3 -0.7,-0.3 -8,-8 q -0.3,-0.3 -0.3,-0.7 0,-0.4 0.3,-0.7 l 7.3,-7.3 -3.3,-3.3 q -0.3,-0.3 -0.3,-0.7 0,-0.4 0.3,-0.7 0.3,-0.3 0.7,-0.3 m -4,9 -4,0 0,16 16,0 0,-4 4,0 0,6 q 0,0.85 -0.55,1.45 l -0.05,0 q -0.6,0.55 -1.4,0.55 l -20,0 q -0.85,0 -1.45,-0.55 Q 9.5,37.35 9.5,36.5 l 0,-19.95 q 0,-0.85 0.55,-1.45 0.6,-0.6 1.45,-0.6 l 6,0 0,4" inkscape:connector-curvature="0"/>
  </g>
  </svg>