<svg xmlns:dc="http://purl.org/dc/elements/1.1/" xmlns:cc="http://creativecommons.org/ns#" xmlns:rdf="http://www.w3.org/1999/02/22-rdf-syntax-ns#" xmlns:svg="http://www.w3.org/2000/svg" xmlns="http://www.w3.org/2000/svg" xmlns:sodipodi="http://sodipodi.sourceforge.net/DTD/sodipodi-0.dtd" xmlns:inkscape="http://www.inkscape.org/namespaces/inkscape" width="48" height="48" id="svg5057" version="1.1" inkscape:version="0.91 r13725" viewBox="0 0 48 48" sodipodi:docname="all_icons.tar">
  <defs id="defs5059"/>
  <sodipodi:namedview id="base" pagecolor="#ffffff" bordercolor="#666666" borderopacity="1.0" inkscape:pageopacity="0.0" inkscape:pageshadow="2" inkscape:zoom="5.3607533" inkscape:cx="17.083968" inkscape:cy="9.574371" inkscape:current-layer="layer36" showgrid="true" inkscape:grid-bbox="true" inkscape:document-units="px" inkscape:window-width="1680" inkscape:window-height="988" inkscape:window-x="-8" inkscape:window-y="-8" inkscape:window-maximized="1" showguides="true">
    <inkscape:grid type="xygrid" id="grid6922"/>
  </sodipodi:namedview>
  <metadata id="metadata5062">
    <rdf:RDF>
      <cc:Work rdf:about="">
        <dc:format>image/svg+xml</dc:format>
        <dc:type rdf:resource="http://purl.org/dc/dcmitype/StillImage"/>
        <dc:title/>
      </cc:Work>
    </rdf:RDF>
  </metadata>
  <g inkscape:groupmode="layer" id="layer152" inkscape:label="figure" style="display:inline">
    <path style="display:inline;fill:#000000;stroke:none" d="m 27.55,18.8 q 1.35,1.35 2.45,3.8 2.45,5.5 2.5,13.25 l 0,0.1 Q 32.5,38 30,39.5 27.55,41 24,41 20.45,41 17.95,39.5 15.5,38 15.5,35.95 l 0,-0.1 q 0.05,-7.75 2.45,-13.25 1.15,-2.45 2.5,-3.85 l -1,-0.8 q -1.9,-1.9 -1.9,-4.55 0,-2.65 1.9,-4.5 Q 21.3,7 24,7 q 2.7,0 4.6,1.9 1.9,1.85 1.9,4.5 0,2.65 -1.9,4.55 l -1.05,0.85" id="path6584" inkscape:connector-curvature="0"/>
  </g>
  </svg>