<svg xmlns:dc="http://purl.org/dc/elements/1.1/" xmlns:cc="http://creativecommons.org/ns#" xmlns:rdf="http://www.w3.org/1999/02/22-rdf-syntax-ns#" xmlns:svg="http://www.w3.org/2000/svg" xmlns="http://www.w3.org/2000/svg" xmlns:sodipodi="http://sodipodi.sourceforge.net/DTD/sodipodi-0.dtd" xmlns:inkscape="http://www.inkscape.org/namespaces/inkscape" width="48" height="48" id="svg5057" version="1.1" inkscape:version="0.91 r13725" viewBox="0 0 48 48" sodipodi:docname="all_icons.tar">
  <defs id="defs5059"/>
  <sodipodi:namedview id="base" pagecolor="#ffffff" bordercolor="#666666" borderopacity="1.0" inkscape:pageopacity="0.0" inkscape:pageshadow="2" inkscape:zoom="5.3607533" inkscape:cx="17.083968" inkscape:cy="9.574371" inkscape:current-layer="layer36" showgrid="true" inkscape:grid-bbox="true" inkscape:document-units="px" inkscape:window-width="1680" inkscape:window-height="988" inkscape:window-x="-8" inkscape:window-y="-8" inkscape:window-maximized="1" showguides="true">
    <inkscape:grid type="xygrid" id="grid6922"/>
  </sodipodi:namedview>
  <metadata id="metadata5062">
    <rdf:RDF>
      <cc:Work rdf:about="">
        <dc:format>image/svg+xml</dc:format>
        <dc:type rdf:resource="http://purl.org/dc/dcmitype/StillImage"/>
        <dc:title/>
      </cc:Work>
    </rdf:RDF>
  </metadata>
  <g inkscape:groupmode="layer" id="layer130" inkscape:label="fill" style="display:inline">
    <path id="path6434" style="display:inline;fill:#000000;stroke:none" d="m 9.4230769,42.574998 q -1.7,0 -2.85,-2.8 -1.15,-2.75 -1.15,-6.699997 0,-3.95 1.15,-6.75 1.15,-2.75 2.85,-2.75 1.6500001,0 2.8000001,2.75 1.2,2.8 1.2,6.75 0,3.949997 -1.2,6.699997 -1.15,2.8 -2.8000001,2.8 M 23.573077,6.0250015 q 0.6,-0.6 1.45,-0.6 0.85,0 1.45,0.55 l 15.55,15.5500005 q 0.6,0.599999 0.55,1.45 0,0.8 -0.6,1.4 l -12.7,12.699997 q -0.6,0.599999 -1.45,0.65 -0.75,-0.05 -1.35,-0.65 l -15.55,-15.499998 q -0.6,-0.599999 -0.65,-1.4 0,-0.85 0.6,-1.45 l 12.7,-12.6999995" inkscape:connector-curvature="0"/>
  </g>
  </svg>