<svg xmlns:dc="http://purl.org/dc/elements/1.1/" xmlns:cc="http://creativecommons.org/ns#" xmlns:rdf="http://www.w3.org/1999/02/22-rdf-syntax-ns#" xmlns:svg="http://www.w3.org/2000/svg" xmlns="http://www.w3.org/2000/svg" xmlns:sodipodi="http://sodipodi.sourceforge.net/DTD/sodipodi-0.dtd" xmlns:inkscape="http://www.inkscape.org/namespaces/inkscape" width="48" height="48" id="svg5057" version="1.1" inkscape:version="0.91 r13725" viewBox="0 0 48 48" sodipodi:docname="all_icons.tar">
  <defs id="defs5059"/>
  <sodipodi:namedview id="base" pagecolor="#ffffff" bordercolor="#666666" borderopacity="1.0" inkscape:pageopacity="0.0" inkscape:pageshadow="2" inkscape:zoom="5.3607533" inkscape:cx="17.083968" inkscape:cy="9.574371" inkscape:current-layer="layer36" showgrid="true" inkscape:grid-bbox="true" inkscape:document-units="px" inkscape:window-width="1680" inkscape:window-height="988" inkscape:window-x="-8" inkscape:window-y="-8" inkscape:window-maximized="1" showguides="true">
    <inkscape:grid type="xygrid" id="grid6922"/>
  </sodipodi:namedview>
  <metadata id="metadata5062">
    <rdf:RDF>
      <cc:Work rdf:about="">
        <dc:format>image/svg+xml</dc:format>
        <dc:type rdf:resource="http://purl.org/dc/dcmitype/StillImage"/>
        <dc:title/>
      </cc:Work>
    </rdf:RDF>
  </metadata>
  <g inkscape:groupmode="layer" id="layer158" inkscape:label="fist-circle" style="display:inline">
    <path d="m 11.55,23 7.85,8 1.95,-2 -7.85,-8 -1.95,2 M 3,24 Q 3,15.3 9.1,9.1 15.25,3 24,3 32.7,3 38.8,9.1 45,15.3 45,24 45,32.75 38.8,38.85 32.7,45 24,45 15.25,45 9.1,38.85 3,32.75 3,24 m 11.3,-3.85 7.85,8.05 2,-2 -7.9,-8 -1.95,1.95 m 16.5,-4.8 -3.1,0.8 -5.9,6 1.95,2.05 3.9,-4.05 2.25,2.3 -9.45,9.65 2.9,2.9 1.6,-1.6 3.9,0 5.9,-6.05 -1.95,-1.95 2,-2 -0.05,-4.05 -3.95,-4 m -9,-2.8 -2,2 3.95,4 1.95,-2 -3.9,-4 m -2.8,2.8 -1.95,2 3.95,4 L 22.95,19.4 19,15.35" style="display:inline;fill:#000000;stroke:none" id="path6877" inkscape:connector-curvature="0"/>
  </g>
  </svg>