<svg xmlns:dc="http://purl.org/dc/elements/1.1/" xmlns:cc="http://creativecommons.org/ns#" xmlns:rdf="http://www.w3.org/1999/02/22-rdf-syntax-ns#" xmlns:svg="http://www.w3.org/2000/svg" xmlns="http://www.w3.org/2000/svg" xmlns:sodipodi="http://sodipodi.sourceforge.net/DTD/sodipodi-0.dtd" xmlns:inkscape="http://www.inkscape.org/namespaces/inkscape" width="48" height="48" id="svg5057" version="1.1" inkscape:version="0.91 r13725" viewBox="0 0 48 48" sodipodi:docname="all_icons.tar">
  <defs id="defs5059"/>
  <sodipodi:namedview id="base" pagecolor="#ffffff" bordercolor="#666666" borderopacity="1.0" inkscape:pageopacity="0.0" inkscape:pageshadow="2" inkscape:zoom="5.3607533" inkscape:cx="17.083968" inkscape:cy="9.574371" inkscape:current-layer="layer36" showgrid="true" inkscape:grid-bbox="true" inkscape:document-units="px" inkscape:window-width="1680" inkscape:window-height="988" inkscape:window-x="-8" inkscape:window-y="-8" inkscape:window-maximized="1" showguides="true">
    <inkscape:grid type="xygrid" id="grid6922"/>
  </sodipodi:namedview>
  <metadata id="metadata5062">
    <rdf:RDF>
      <cc:Work rdf:about="">
        <dc:format>image/svg+xml</dc:format>
        <dc:type rdf:resource="http://purl.org/dc/dcmitype/StillImage"/>
        <dc:title/>
      </cc:Work>
    </rdf:RDF>
  </metadata>
  <g inkscape:groupmode="layer" id="layer157" inkscape:label="fist" style="display:inline">
    <path id="path6352" style="display:inline;fill:#000000;stroke:none" d="m 12.15,19.175 2.65,-2.65 10.5,10.7 -2.65,2.65 -10.5,-10.7 m 3.7,-3.75 2.6,-2.65 5.25,5.35 -2.6,2.65 -5.25,-5.35 m 3.15,18.2 -10.5,-10.7 2.6,-2.65 10.5,10.7 -2.6,2.65 m 15.2,-20.9 5.25,5.35 0.05,5.4 -2.65,2.65 2.6,2.65 -7.9,8.05 -5.2,0 -2.1,2.15 -3.85,-3.9 12.6,-12.85 -3,-3.05 -5.25,5.35 -2.6,-2.7 7.9,-8 4.15,-1.1 m -6.8,1.65 -2.65,2.65 -5.25,-5.35 2.65,-2.65 5.25,5.35" inkscape:connector-curvature="0"/>
  </g>
  </svg>