<svg xmlns:dc="http://purl.org/dc/elements/1.1/" xmlns:cc="http://creativecommons.org/ns#" xmlns:rdf="http://www.w3.org/1999/02/22-rdf-syntax-ns#" xmlns:svg="http://www.w3.org/2000/svg" xmlns="http://www.w3.org/2000/svg" xmlns:sodipodi="http://sodipodi.sourceforge.net/DTD/sodipodi-0.dtd" xmlns:inkscape="http://www.inkscape.org/namespaces/inkscape" width="48" height="48" id="svg5057" version="1.1" inkscape:version="0.91 r13725" viewBox="0 0 48 48" sodipodi:docname="all_icons.tar">
  <defs id="defs5059"/>
  <sodipodi:namedview id="base" pagecolor="#ffffff" bordercolor="#666666" borderopacity="1.0" inkscape:pageopacity="0.0" inkscape:pageshadow="2" inkscape:zoom="5.3607533" inkscape:cx="17.083968" inkscape:cy="9.574371" inkscape:current-layer="layer36" showgrid="true" inkscape:grid-bbox="true" inkscape:document-units="px" inkscape:window-width="1680" inkscape:window-height="988" inkscape:window-x="-8" inkscape:window-y="-8" inkscape:window-maximized="1" showguides="true">
    <inkscape:grid type="xygrid" id="grid6922"/>
  </sodipodi:namedview>
  <metadata id="metadata5062">
    <rdf:RDF>
      <cc:Work rdf:about="">
        <dc:format>image/svg+xml</dc:format>
        <dc:type rdf:resource="http://purl.org/dc/dcmitype/StillImage"/>
        <dc:title/>
      </cc:Work>
    </rdf:RDF>
  </metadata>
  <g inkscape:groupmode="layer" id="layer156" inkscape:label="flag" style="display:inline">
    <path id="path6636" style="display:inline;fill:#000000;stroke:none" d="m 12.6,6.9 q 0.4,0 0.7,0.3 l 0.3,0.7 0,32.2 -0.3,0.7 -0.7,0.3 -4.15,0 -0.7,-0.3 q -0.3,-0.3 -0.3,-0.7 l 0,-32.2 q 0,-0.4 0.3,-0.7 0.3,-0.3 0.7,-0.3 l 4.15,0 m 4.55,1.4 q 10.85,7.25 22.5,8.35 0.4,0.05 0.65,0.35 l 0.25,0.65 0,0.6 -0.2,0.65 Q 30.6,31 16.55,29.8 16.15,29.75 15.9,29.5 15.6,29.2 15.6,28.8 l 0,-19.7 q 0,-0.35 0.25,-0.65 0.25,-0.3 0.65,-0.35 0.35,-0.05 0.65,0.2" inkscape:connector-curvature="0"/>
  </g>
  </svg>