<svg xmlns:dc="http://purl.org/dc/elements/1.1/" xmlns:cc="http://creativecommons.org/ns#" xmlns:rdf="http://www.w3.org/1999/02/22-rdf-syntax-ns#" xmlns:svg="http://www.w3.org/2000/svg" xmlns="http://www.w3.org/2000/svg" xmlns:sodipodi="http://sodipodi.sourceforge.net/DTD/sodipodi-0.dtd" xmlns:inkscape="http://www.inkscape.org/namespaces/inkscape" width="48" height="48" id="svg5057" version="1.1" inkscape:version="0.91 r13725" viewBox="0 0 48 48" sodipodi:docname="all_icons.tar">
  <defs id="defs5059"/>
  <sodipodi:namedview id="base" pagecolor="#ffffff" bordercolor="#666666" borderopacity="1.0" inkscape:pageopacity="0.0" inkscape:pageshadow="2" inkscape:zoom="5.3607533" inkscape:cx="17.083968" inkscape:cy="9.574371" inkscape:current-layer="layer36" showgrid="true" inkscape:grid-bbox="true" inkscape:document-units="px" inkscape:window-width="1680" inkscape:window-height="988" inkscape:window-x="-8" inkscape:window-y="-8" inkscape:window-maximized="1" showguides="true">
    <inkscape:grid type="xygrid" id="grid6922"/>
  </sodipodi:namedview>
  <metadata id="metadata5062">
    <rdf:RDF>
      <cc:Work rdf:about="">
        <dc:format>image/svg+xml</dc:format>
        <dc:type rdf:resource="http://purl.org/dc/dcmitype/StillImage"/>
        <dc:title/>
      </cc:Work>
    </rdf:RDF>
  </metadata>
  <g inkscape:groupmode="layer" id="layer116" inkscape:label="gamepad" style="display:inline">
    <path id="path6456" style="display:inline;fill:#000000;stroke:none" d="m 42,14 q 0.8,0 1.4,0.6 0.6,0.6 0.6,1.4 l 0,16 q 0,0.85 -0.6,1.45 Q 42.8,34 42,34 L 6,34 Q 5.15,34 4.55,33.45 4,32.85 4,32 L 4,16.05 Q 4,15.2 4.55,14.6 5.15,14 6,14 l 36,0 m -27,4 -4,0 0,3.95 -4,0 0,4 4,0 0,4 4,0 0,-4 3.95,0 0,-4 -3.95,0 0,-3.95 m 25.4,7.4 Q 41,24.85 41,24 41,23.2 40.4,22.6 39.8,22 39,22 38.15,22 37.55,22.6 37,23.2 37,24 q 0,0.85 0.55,1.4 0.6,0.6 1.45,0.6 0.8,0 1.4,-0.6 m -7,0 Q 34,24.85 34,24 34,23.2 33.4,22.6 32.8,22 32,22 31.15,22 30.55,22.6 30,23.2 30,24 q 0,0.85 0.55,1.4 0.6,0.6 1.45,0.6 0.8,0 1.4,-0.6" inkscape:connector-curvature="0"/>
  </g>
  </svg>