<svg xmlns:dc="http://purl.org/dc/elements/1.1/" xmlns:cc="http://creativecommons.org/ns#" xmlns:rdf="http://www.w3.org/1999/02/22-rdf-syntax-ns#" xmlns:svg="http://www.w3.org/2000/svg" xmlns="http://www.w3.org/2000/svg" xmlns:sodipodi="http://sodipodi.sourceforge.net/DTD/sodipodi-0.dtd" xmlns:inkscape="http://www.inkscape.org/namespaces/inkscape" width="48" height="48" id="svg5057" version="1.1" inkscape:version="0.91 r13725" viewBox="0 0 48 48" sodipodi:docname="all_icons.tar">
  <defs id="defs5059"/>
  <sodipodi:namedview id="base" pagecolor="#ffffff" bordercolor="#666666" borderopacity="1.0" inkscape:pageopacity="0.0" inkscape:pageshadow="2" inkscape:zoom="5.3607533" inkscape:cx="17.083968" inkscape:cy="9.574371" inkscape:current-layer="layer36" showgrid="true" inkscape:grid-bbox="true" inkscape:document-units="px" inkscape:window-width="1680" inkscape:window-height="988" inkscape:window-x="-8" inkscape:window-y="-8" inkscape:window-maximized="1" showguides="true">
    <inkscape:grid type="xygrid" id="grid6922"/>
  </sodipodi:namedview>
  <metadata id="metadata5062">
    <rdf:RDF>
      <cc:Work rdf:about="">
        <dc:format>image/svg+xml</dc:format>
        <dc:type rdf:resource="http://purl.org/dc/dcmitype/StillImage"/>
        <dc:title/>
      </cc:Work>
    </rdf:RDF>
  </metadata>
  <g inkscape:groupmode="layer" id="layer81" inkscape:label="gamepad-alt" style="display:inline">
    <path id="path5135" style="display:inline;fill:#000000;stroke:none" d="m 22.55,11.1 0.45,-0.35 0,-0.25 1,0 q 0.8,0 1.4,0.6 0.6,0.6 0.6,1.4 l 0,5 16,0 q 0.8,0 1.4,0.6 0.6,0.6 0.6,1.4 l 0,16 q 0,0.85 -0.6,1.45 -0.6,0.55 -1.4,0.55 l -36,0 Q 5.15,37.5 4.55,36.95 4,36.35 4,35.5 L 4,19.55 Q 4,18.7 4.55,18.1 5.15,17.5 6,17.5 l 16,0 0,-4.95 Q 22,11.7 22.55,11.1 M 15,21.5 l -4,0 0,3.95 -4,0 0,4 4,0 0,4 4,0 0,-4 3.95,0 0,-4 -3.95,0 0,-3.95 m 24,4 q -0.85,0 -1.45,0.6 -0.55,0.6 -0.55,1.4 0,0.85 0.55,1.4 0.6,0.6 1.45,0.6 0.8,0 1.4,-0.6 Q 41,28.35 41,27.5 41,26.7 40.4,26.1 39.8,25.5 39,25.5 m -8.45,0.6 Q 30,26.7 30,27.5 q 0,0.85 0.55,1.4 0.6,0.6 1.45,0.6 0.8,0 1.4,-0.6 0.6,-0.55 0.6,-1.4 0,-0.8 -0.6,-1.4 -0.6,-0.6 -1.4,-0.6 -0.85,0 -1.45,0.6" inkscape:connector-curvature="0"/>
  </g>
  </svg>