<svg xmlns:dc="http://purl.org/dc/elements/1.1/" xmlns:cc="http://creativecommons.org/ns#" xmlns:rdf="http://www.w3.org/1999/02/22-rdf-syntax-ns#" xmlns:svg="http://www.w3.org/2000/svg" xmlns="http://www.w3.org/2000/svg" xmlns:sodipodi="http://sodipodi.sourceforge.net/DTD/sodipodi-0.dtd" xmlns:inkscape="http://www.inkscape.org/namespaces/inkscape" width="48" height="48" id="svg5057" version="1.1" inkscape:version="0.91 r13725" viewBox="0 0 48 48" sodipodi:docname="all_icons.tar">
  <defs id="defs5059"/>
  <sodipodi:namedview id="base" pagecolor="#ffffff" bordercolor="#666666" borderopacity="1.0" inkscape:pageopacity="0.0" inkscape:pageshadow="2" inkscape:zoom="5.3607533" inkscape:cx="17.083968" inkscape:cy="9.574371" inkscape:current-layer="layer36" showgrid="true" inkscape:grid-bbox="true" inkscape:document-units="px" inkscape:window-width="1680" inkscape:window-height="988" inkscape:window-x="-8" inkscape:window-y="-8" inkscape:window-maximized="1" showguides="true">
    <inkscape:grid type="xygrid" id="grid6922"/>
  </sodipodi:namedview>
  <metadata id="metadata5062">
    <rdf:RDF>
      <cc:Work rdf:about="">
        <dc:format>image/svg+xml</dc:format>
        <dc:type rdf:resource="http://purl.org/dc/dcmitype/StillImage"/>
        <dc:title/>
      </cc:Work>
    </rdf:RDF>
  </metadata>
  <g inkscape:groupmode="layer" id="layer16" inkscape:label="grid" style="display:inline">
    <path id="path5469" style="fill:#000000;stroke:none" d="m 16,34 0,4 q 0,0.85 -0.6,1.45 Q 14.8,40 14,40 l -4,0 Q 9.15,40 8.55,39.45 8,38.85 8,38 L 8,34.05 Q 8,33.2 8.55,32.6 9.15,32 10,32 l 4,0 q 0.8,0 1.4,0.6 Q 16,33.2 16,34 M 14,20 q 0.8,0 1.4,0.6 0.6,0.6 0.6,1.4 l 0,4 q 0,0.85 -0.6,1.45 Q 14.8,28 14,28 l -4,0 Q 9.15,28 8.55,27.45 8,26.85 8,26 L 8,22.05 Q 8,21.2 8.55,20.6 9.15,20 10,20 l 4,0 m 2,-10 0,4 q 0,0.85 -0.6,1.45 Q 14.8,16 14,16 l -4,0 Q 9.15,16 8.55,15.45 8,14.85 8,14 L 8,10.05 Q 8,9.2 8.55,8.6 9.15,8 10,8 l 4,0 Q 14.8,8 15.4,8.6 16,9.2 16,10 M 27.4,32.6 Q 28,33.2 28,34 l 0,4 q 0,0.85 -0.6,1.45 Q 26.8,40 26,40 l -4,0 Q 21.15,40 20.55,39.45 20,38.85 20,38 l 0,-3.95 Q 20,33.2 20.55,32.6 21.15,32 22,32 l 4,0 q 0.8,0 1.4,0.6 M 40,34 l 0,4 q 0,0.85 -0.6,1.45 Q 38.8,40 38,40 l -4,0 Q 33.15,40 32.55,39.45 32,38.85 32,38 l 0,-3.95 Q 32,33.2 32.55,32.6 33.15,32 34,32 l 4,0 q 0.8,0 1.4,0.6 Q 40,33.2 40,34 M 27.4,20.6 Q 28,21.2 28,22 l 0,4 q 0,0.85 -0.6,1.45 Q 26.8,28 26,28 l -4,0 Q 21.15,28 20.55,27.45 20,26.85 20,26 l 0,-3.95 Q 20,21.2 20.55,20.6 21.15,20 22,20 l 4,0 q 0.8,0 1.4,0.6 M 34,20 l 4,0 q 0.8,0 1.4,0.6 0.6,0.6 0.6,1.4 l 0,4 q 0,0.85 -0.6,1.45 Q 38.8,28 38,28 l -4,0 Q 33.15,28 32.55,27.45 32,26.85 32,26 l 0,-3.95 Q 32,21.2 32.55,20.6 33.15,20 34,20 m -6,-10 0,4 q 0,0.85 -0.6,1.45 Q 26.8,16 26,16 l -4,0 Q 21.15,16 20.55,15.45 20,14.85 20,14 l 0,-3.95 Q 20,9.2 20.55,8.6 21.15,8 22,8 l 4,0 Q 26.8,8 27.4,8.6 28,9.2 28,10 m 12,0 0,4 q 0,0.85 -0.6,1.45 Q 38.8,16 38,16 l -4,0 Q 33.15,16 32.55,15.45 32,14.85 32,14 l 0,-3.95 Q 32,9.2 32.55,8.6 33.15,8 34,8 l 4,0 Q 38.8,8 39.4,8.6 40,9.2 40,10" inkscape:connector-curvature="0"/>
  </g>
  </svg>