<svg xmlns:dc="http://purl.org/dc/elements/1.1/" xmlns:cc="http://creativecommons.org/ns#" xmlns:rdf="http://www.w3.org/1999/02/22-rdf-syntax-ns#" xmlns:svg="http://www.w3.org/2000/svg" xmlns="http://www.w3.org/2000/svg" xmlns:sodipodi="http://sodipodi.sourceforge.net/DTD/sodipodi-0.dtd" xmlns:inkscape="http://www.inkscape.org/namespaces/inkscape" width="48" height="48" id="svg5057" version="1.1" inkscape:version="0.91 r13725" viewBox="0 0 48 48" sodipodi:docname="all_icons.tar">
  <defs id="defs5059"/>
  <sodipodi:namedview id="base" pagecolor="#ffffff" bordercolor="#666666" borderopacity="1.0" inkscape:pageopacity="0.0" inkscape:pageshadow="2" inkscape:zoom="5.3607533" inkscape:cx="17.083968" inkscape:cy="9.574371" inkscape:current-layer="layer36" showgrid="true" inkscape:grid-bbox="true" inkscape:document-units="px" inkscape:window-width="1680" inkscape:window-height="988" inkscape:window-x="-8" inkscape:window-y="-8" inkscape:window-maximized="1" showguides="true">
    <inkscape:grid type="xygrid" id="grid6922"/>
  </sodipodi:namedview>
  <metadata id="metadata5062">
    <rdf:RDF>
      <cc:Work rdf:about="">
        <dc:format>image/svg+xml</dc:format>
        <dc:type rdf:resource="http://purl.org/dc/dcmitype/StillImage"/>
        <dc:title/>
      </cc:Work>
    </rdf:RDF>
  </metadata>
  <g inkscape:groupmode="layer" id="layer17" inkscape:label="grid-list" style="display:inline">
    <path transform="translate(-100.74636,43.171976)" id="path5495" style="fill:#000000;stroke:none" d="m 116.74636,-17.171976 q 0,0.85 -0.6,1.45 -0.6,0.55 -1.4,0.55 l -4,0 q -0.85,0 -1.45,-0.55 -0.55,-0.6 -0.55,-1.45 l 0,-3.95 q 0,-0.85 0.55,-1.45 0.6,-0.6 1.45,-0.6 l 4,0 q 0.8,0 1.4,0.6 0.6,0.6 0.6,1.4 l 0,4 m 4.55,13.45 q -0.55,-0.6 -0.55,-1.45 l 0,-3.95 q 0,-0.85 0.55,-1.45 0.6,-0.6 1.45,-0.6 l 16,0 q 0.8,0 1.4,0.6 0.6,0.6 0.6,1.4 l 0,4 q 0,0.85 -0.6,1.45 -0.6,0.55 -1.4,0.55 l -16,0 q -0.85,0 -1.45,-0.55 m -4.55,-1.45 q 0,0.85 -0.6,1.45 -0.6,0.55 -1.4,0.55 l -4,0 q -0.85,0 -1.45,-0.55 -0.55,-0.6 -0.55,-1.45 l 0,-3.95 q 0,-0.85 0.55,-1.45 0.6,-0.6 1.45,-0.6 l 4,0 q 0.8,0 1.4,0.6 0.6,0.6 0.6,1.4 l 0,4 m 0,-24 q 0,0.85 -0.6,1.45 -0.6,0.55 -1.4,0.55 l -4,0 q -0.85,0 -1.45,-0.55 -0.55,-0.6 -0.55,-1.45 l 0,-3.95 q 0,-0.85 0.55,-1.45 0.6,-0.6 1.45,-0.6 l 4,0 q 0.8,0 1.4,0.6 0.6,0.6 0.6,1.4 l 0,4 m 24,0 q 0,0.85 -0.6,1.45 -0.6,0.55 -1.4,0.55 l -16,0 q -0.85,0 -1.45,-0.55 -0.55,-0.6 -0.55,-1.45 l 0,-3.95 q 0,-0.85 0.55,-1.45 0.6,-0.6 1.45,-0.6 l 16,0 q 0.8,0 1.4,0.6 0.6,0.6 0.6,1.4 l 0,4 m -0.6,6.6 q 0.6,0.6 0.6,1.4 l 0,4 q 0,0.85 -0.6,1.45 -0.6,0.55 -1.4,0.55 l -16,0 q -0.85,0 -1.45,-0.55 -0.55,-0.6 -0.55,-1.45 l 0,-3.95 q 0,-0.85 0.55,-1.45 0.6,-0.6 1.45,-0.6 l 16,0 q 0.8,0 1.4,0.6" inkscape:connector-curvature="0"/>
  </g>
  </svg>