<svg xmlns:dc="http://purl.org/dc/elements/1.1/" xmlns:cc="http://creativecommons.org/ns#" xmlns:rdf="http://www.w3.org/1999/02/22-rdf-syntax-ns#" xmlns:svg="http://www.w3.org/2000/svg" xmlns="http://www.w3.org/2000/svg" xmlns:sodipodi="http://sodipodi.sourceforge.net/DTD/sodipodi-0.dtd" xmlns:inkscape="http://www.inkscape.org/namespaces/inkscape" width="48" height="48" id="svg5057" version="1.1" inkscape:version="0.91 r13725" viewBox="0 0 48 48" sodipodi:docname="all_icons.tar">
  <defs id="defs5059"/>
  <sodipodi:namedview id="base" pagecolor="#ffffff" bordercolor="#666666" borderopacity="1.0" inkscape:pageopacity="0.0" inkscape:pageshadow="2" inkscape:zoom="5.3607533" inkscape:cx="17.083968" inkscape:cy="9.574371" inkscape:current-layer="layer36" showgrid="true" inkscape:grid-bbox="true" inkscape:document-units="px" inkscape:window-width="1680" inkscape:window-height="988" inkscape:window-x="-8" inkscape:window-y="-8" inkscape:window-maximized="1" showguides="true">
    <inkscape:grid type="xygrid" id="grid6922"/>
  </sodipodi:namedview>
  <metadata id="metadata5062">
    <rdf:RDF>
      <cc:Work rdf:about="">
        <dc:format>image/svg+xml</dc:format>
        <dc:type rdf:resource="http://purl.org/dc/dcmitype/StillImage"/>
        <dc:title/>
      </cc:Work>
    </rdf:RDF>
  </metadata>
  <g inkscape:groupmode="layer" id="layer112" inkscape:label="info-circle-alt" style="display:inline">
    <path id="path7561" style="opacity:1;fill:#000000;fill-opacity:1;fill-rule:nonzero;stroke:none" d="m 24,8 c -4.4,0 -8.167448,1.5503906 -11.300781,4.650391 l 0,0.04883 -0.04883,0 C 9.5503906,15.832552 8,19.6 8,24 8,28.433333 9.5658854,32.216276 12.699219,35.349609 15.832552,38.449609 19.6,40 24,40 l 1,0 C 28.966667,39.766667 32.400781,38.216276 35.300781,35.349609 38.434115,32.216276 40,28.433333 40,24 40,19.6 38.434115,15.832552 35.300781,12.699219 32.400781,9.7992188 28.966667,8.2507812 25,8.0507812 L 24,8 Z m 0,5.099609 c 0.897693,0 1.655544,0.319725 2.275391,0.960938 l -0.03125,0 c 0.641213,0.641211 0.96289,1.389192 0.96289,2.244141 0,0.91907 -0.321677,1.688756 -0.96289,2.308593 l 0,-0.03125 C 25.624294,19.201869 24.876313,19.511719 24,19.511719 c -0.897707,0 -1.655564,-0.30985 -2.275391,-0.929688 -0.61984,-0.641212 -0.929687,-1.401021 -0.929687,-2.277343 0,-0.876322 0.309847,-1.624302 0.929687,-2.244141 0.6412,-0.641213 1.399064,-0.960938 2.275391,-0.960938 z m -5.128906,7.69336 6.412109,0 c 0.51296,0 0.960977,0.193398 1.345703,0.578125 0.384734,0.384727 0.578125,0.832733 0.578125,1.345703 l 0,8.335937 0.640625,0 c 0.512974,0 0.960983,0.193398 1.345703,0.578125 0.384727,0.384727 0.578125,0.832734 0.578125,1.345703 l 0,1.283204 -0.193359,0.449218 -0.449219,0.191407 -10.257812,0 c -0.170989,0 -0.320975,-0.06316 -0.449219,-0.191407 -0.128239,-0.128242 -0.193359,-0.278227 -0.193359,-0.449218 l 0,-1.25 c 0,-0.534342 0.181569,-0.984304 0.544922,-1.347657 l 0,-0.03125 c 0.384726,-0.384728 0.844564,-0.578125 1.378906,-0.578125 l 0.642578,0 0,-6.412109 -1.923828,0 c -0.170989,0 -0.320975,-0.06316 -0.449219,-0.191406 C 18.293636,24.320977 18.228516,24.17099 18.228516,24 l 0,-2.564453 c 0,-0.17099 0.06512,-0.320977 0.193359,-0.449219 0.128244,-0.128243 0.27823,-0.193359 0.449219,-0.193359 z" inkscape:connector-curvature="0"/>
  </g>
  </svg>