<svg xmlns:dc="http://purl.org/dc/elements/1.1/" xmlns:cc="http://creativecommons.org/ns#" xmlns:rdf="http://www.w3.org/1999/02/22-rdf-syntax-ns#" xmlns:svg="http://www.w3.org/2000/svg" xmlns="http://www.w3.org/2000/svg" xmlns:sodipodi="http://sodipodi.sourceforge.net/DTD/sodipodi-0.dtd" xmlns:inkscape="http://www.inkscape.org/namespaces/inkscape" width="48" height="48" id="svg5057" version="1.1" inkscape:version="0.91 r13725" viewBox="0 0 48 48" sodipodi:docname="all_icons.tar">
  <defs id="defs5059"/>
  <sodipodi:namedview id="base" pagecolor="#ffffff" bordercolor="#666666" borderopacity="1.0" inkscape:pageopacity="0.0" inkscape:pageshadow="2" inkscape:zoom="5.3607533" inkscape:cx="17.083968" inkscape:cy="9.574371" inkscape:current-layer="layer36" showgrid="true" inkscape:grid-bbox="true" inkscape:document-units="px" inkscape:window-width="1680" inkscape:window-height="988" inkscape:window-x="-8" inkscape:window-y="-8" inkscape:window-maximized="1" showguides="true">
    <inkscape:grid type="xygrid" id="grid6922"/>
  </sodipodi:namedview>
  <metadata id="metadata5062">
    <rdf:RDF>
      <cc:Work rdf:about="">
        <dc:format>image/svg+xml</dc:format>
        <dc:type rdf:resource="http://purl.org/dc/dcmitype/StillImage"/>
        <dc:title/>
      </cc:Work>
    </rdf:RDF>
  </metadata>
  <g inkscape:groupmode="layer" id="layer65" inkscape:label="info" style="display:inline">
    <path id="path5559" style="fill:#000000;stroke:none" d="m 26,19 q 1.2,0 2.1,0.9 0.9,0.9 0.9,2.1 l 0,13 1,0 q 1.2,0 2.1,0.9 0.9,0.9 0.9,2.1 l 0,2 -0.3,0.7 L 32,41 16,41 Q 15.6,41 15.3,40.7 15,40.4 15,40 l 0,-1.95 q 0,-1.25 0.85,-2.1 l 0,-0.05 Q 16.75,35 18,35 l 1,0 0,-10 -3,0 Q 15.6,25 15.3,24.7 15,24.4 15,24 l 0,-4 Q 15,19.6 15.3,19.3 15.6,19 16,19 l 10,0 M 20.45,15.55 Q 19,14.05 19,12 19,9.95 20.45,8.5 21.95,7 24,7 q 2.1,0 3.55,1.5 l -0.05,0 Q 29,10 29,12 q 0,2.15 -1.5,3.6 l 0,-0.05 Q 26.05,17 24,17 21.9,17 20.45,15.55" inkscape:connector-curvature="0"/>
  </g>
  </svg>