<svg xmlns:dc="http://purl.org/dc/elements/1.1/" xmlns:cc="http://creativecommons.org/ns#" xmlns:rdf="http://www.w3.org/1999/02/22-rdf-syntax-ns#" xmlns:svg="http://www.w3.org/2000/svg" xmlns="http://www.w3.org/2000/svg" xmlns:sodipodi="http://sodipodi.sourceforge.net/DTD/sodipodi-0.dtd" xmlns:inkscape="http://www.inkscape.org/namespaces/inkscape" width="48" height="48" id="svg5057" version="1.1" inkscape:version="0.91 r13725" viewBox="0 0 48 48" sodipodi:docname="all_icons.tar">
  <defs id="defs5059"/>
  <sodipodi:namedview id="base" pagecolor="#ffffff" bordercolor="#666666" borderopacity="1.0" inkscape:pageopacity="0.0" inkscape:pageshadow="2" inkscape:zoom="5.3607533" inkscape:cx="17.083968" inkscape:cy="9.574371" inkscape:current-layer="layer36" showgrid="true" inkscape:grid-bbox="true" inkscape:document-units="px" inkscape:window-width="1680" inkscape:window-height="988" inkscape:window-x="-8" inkscape:window-y="-8" inkscape:window-maximized="1" showguides="true">
    <inkscape:grid type="xygrid" id="grid6922"/>
  </sodipodi:namedview>
  <metadata id="metadata5062">
    <rdf:RDF>
      <cc:Work rdf:about="">
        <dc:format>image/svg+xml</dc:format>
        <dc:type rdf:resource="http://purl.org/dc/dcmitype/StillImage"/>
        <dc:title/>
      </cc:Work>
    </rdf:RDF>
  </metadata>
  <g inkscape:groupmode="layer" id="layer90" inkscape:label="joystick-right" style="display:inline">
    <path style="fill:#000000;stroke:none" d="m 24.05,7.6391304 q 2.75,-1.5 5.75,-0.7 3,0.8 4.55,3.4499996 1.6,2.75 0.8,5.7 -0.8,3 -3.55,4.55 -1.25,0.75 -2.6,0.95 l -2.35,8.9 9.35,0 q 1.2,0 2.1,0.9 0.9,0.9 0.9,2.1 l 0,6.85 -0.3,0.7 q -0.3,0.3 -0.7,0.3 l -28,0 -0.7,-0.3 q -0.3,-0.3 -0.3,-0.7 l 0,-6.8 q 0,-1.25 0.85,-2.1 l 0,-0.05 q 0.9,-0.9 2.15,-0.9 l 8.4,0 2.8,-10.45 q -1.1,-0.85 -1.9,-2.15 -1.45,-2.7 -0.65,-5.7 0.8,-2.9499996 3.4,-4.5499996" id="path5355" inkscape:connector-curvature="0"/>
  </g>
  </svg>