<svg xmlns:dc="http://purl.org/dc/elements/1.1/" xmlns:cc="http://creativecommons.org/ns#" xmlns:rdf="http://www.w3.org/1999/02/22-rdf-syntax-ns#" xmlns:svg="http://www.w3.org/2000/svg" xmlns="http://www.w3.org/2000/svg" xmlns:sodipodi="http://sodipodi.sourceforge.net/DTD/sodipodi-0.dtd" xmlns:inkscape="http://www.inkscape.org/namespaces/inkscape" width="48" height="48" id="svg5057" version="1.1" inkscape:version="0.91 r13725" viewBox="0 0 48 48" sodipodi:docname="all_icons.tar">
  <defs id="defs5059"/>
  <sodipodi:namedview id="base" pagecolor="#ffffff" bordercolor="#666666" borderopacity="1.0" inkscape:pageopacity="0.0" inkscape:pageshadow="2" inkscape:zoom="5.3607533" inkscape:cx="17.083968" inkscape:cy="9.574371" inkscape:current-layer="layer36" showgrid="true" inkscape:grid-bbox="true" inkscape:document-units="px" inkscape:window-width="1680" inkscape:window-height="988" inkscape:window-x="-8" inkscape:window-y="-8" inkscape:window-maximized="1" showguides="true">
    <inkscape:grid type="xygrid" id="grid6922"/>
  </sodipodi:namedview>
  <metadata id="metadata5062">
    <rdf:RDF>
      <cc:Work rdf:about="">
        <dc:format>image/svg+xml</dc:format>
        <dc:type rdf:resource="http://purl.org/dc/dcmitype/StillImage"/>
        <dc:title/>
      </cc:Work>
    </rdf:RDF>
  </metadata>
  <g inkscape:groupmode="layer" id="layer46" inkscape:label="joystick-alt" style="display:inline">
    <path id="path5455" style="fill:#000000;stroke:none" d="m 36,32 -4,0 0,4 4,0 0,-4 M 32,16 q 0,1.7 -1.2,2.85 Q 29.65,20 28,20 l 0,8 10,0 q 0.8,0 1.4,0.6 Q 40,29.2 40,30 L 40,40 8,40 8,30.05 Q 8,29.2 8.55,28.6 9.15,28 10,28 l 10,0 0,-8 Q 18.3,20 17.15,18.85 16,17.65 16,16 l 0,-4 Q 16,10.35 17.15,9.2 18.35,8 20,8 l 8,0 q 1.65,0 2.8,1.2 1.2,1.2 1.2,2.8 l 0,4" inkscape:connector-curvature="0"/>
  </g>
  </svg>