<svg xmlns:dc="http://purl.org/dc/elements/1.1/" xmlns:cc="http://creativecommons.org/ns#" xmlns:rdf="http://www.w3.org/1999/02/22-rdf-syntax-ns#" xmlns:svg="http://www.w3.org/2000/svg" xmlns="http://www.w3.org/2000/svg" xmlns:sodipodi="http://sodipodi.sourceforge.net/DTD/sodipodi-0.dtd" xmlns:inkscape="http://www.inkscape.org/namespaces/inkscape" width="48" height="48" id="svg5057" version="1.1" inkscape:version="0.91 r13725" viewBox="0 0 48 48" sodipodi:docname="all_icons.tar">
  <defs id="defs5059"/>
  <sodipodi:namedview id="base" pagecolor="#ffffff" bordercolor="#666666" borderopacity="1.0" inkscape:pageopacity="0.0" inkscape:pageshadow="2" inkscape:zoom="5.3607533" inkscape:cx="17.083968" inkscape:cy="9.574371" inkscape:current-layer="layer36" showgrid="true" inkscape:grid-bbox="true" inkscape:document-units="px" inkscape:window-width="1680" inkscape:window-height="988" inkscape:window-x="-8" inkscape:window-y="-8" inkscape:window-maximized="1" showguides="true">
    <inkscape:grid type="xygrid" id="grid6922"/>
  </sodipodi:namedview>
  <metadata id="metadata5062">
    <rdf:RDF>
      <cc:Work rdf:about="">
        <dc:format>image/svg+xml</dc:format>
        <dc:type rdf:resource="http://purl.org/dc/dcmitype/StillImage"/>
        <dc:title/>
      </cc:Work>
    </rdf:RDF>
  </metadata>
  <g inkscape:groupmode="layer" id="layer150" inkscape:label="key-small" style="display:inline">
    <path id="path6512" style="display:inline;fill:#000000;stroke:none" d="M 9,38.5 9,25.65 q 0,0.7 0.55,1.3 0.6,0.55 1.45,0.55 l 26,0 q 0.8,0 1.4,-0.55 0.6,-0.6 0.6,-1.3 l 0,12.85 q 0,0.85 -0.6,1.45 -0.6,0.55 -1.4,0.55 l -26,0 Q 10.15,40.5 9.55,39.95 9,39.35 9,38.5 M 38.4,8.1 Q 39,8.7 39,9.5 l 0,13.05 q 0,0.8 -0.6,1.4 -0.6,0.55 -1.4,0.55 l -26,0 Q 10.15,24.5 9.55,23.95 9,23.35 9,22.55 l 0,-13 Q 9,8.7 9.55,8.1 10.15,7.5 11,7.5 l 26,0 q 0.8,0 1.4,0.6" inkscape:connector-curvature="0"/>
  </g>
  </svg>