<svg xmlns:dc="http://purl.org/dc/elements/1.1/" xmlns:cc="http://creativecommons.org/ns#" xmlns:rdf="http://www.w3.org/1999/02/22-rdf-syntax-ns#" xmlns:svg="http://www.w3.org/2000/svg" xmlns="http://www.w3.org/2000/svg" xmlns:sodipodi="http://sodipodi.sourceforge.net/DTD/sodipodi-0.dtd" xmlns:inkscape="http://www.inkscape.org/namespaces/inkscape" width="48" height="48" id="svg5057" version="1.1" inkscape:version="0.91 r13725" viewBox="0 0 48 48" sodipodi:docname="all_icons.tar">
  <defs id="defs5059"/>
  <sodipodi:namedview id="base" pagecolor="#ffffff" bordercolor="#666666" borderopacity="1.0" inkscape:pageopacity="0.0" inkscape:pageshadow="2" inkscape:zoom="5.3607533" inkscape:cx="17.083968" inkscape:cy="9.574371" inkscape:current-layer="layer36" showgrid="true" inkscape:grid-bbox="true" inkscape:document-units="px" inkscape:window-width="1680" inkscape:window-height="988" inkscape:window-x="-8" inkscape:window-y="-8" inkscape:window-maximized="1" showguides="true">
    <inkscape:grid type="xygrid" id="grid6922"/>
  </sodipodi:namedview>
  <metadata id="metadata5062">
    <rdf:RDF>
      <cc:Work rdf:about="">
        <dc:format>image/svg+xml</dc:format>
        <dc:type rdf:resource="http://purl.org/dc/dcmitype/StillImage"/>
        <dc:title/>
      </cc:Work>
    </rdf:RDF>
  </metadata>
  <g inkscape:groupmode="layer" id="layer151" inkscape:label="key-large" style="display:inline">
    <path id="path6576" style="display:inline;fill:#000000;stroke:none" d="M 42.4,39.95 Q 41.8,40.5 41,40.5 l -34,0 Q 6.15,40.5 5.55,39.95 5,39.35 5,38.5 L 5,25.8 q 0,0.55 0.55,1.15 0.6,0.55 1.45,0.55 l 34,0 q 0.8,0 1.4,-0.55 0.6,-0.6 0.6,-1.15 l 0,12.7 q 0,0.85 -0.6,1.45 M 43,9.5 43,22.55 q 0,0.8 -0.6,1.4 -0.6,0.55 -1.4,0.55 l -34,0 Q 6.15,24.5 5.55,23.95 5,23.35 5,22.55 l 0,-13 Q 5,8.7 5.55,8.1 6.15,7.5 7,7.5 l 34,0 q 0.8,0 1.4,0.6 0.6,0.6 0.6,1.4" inkscape:connector-curvature="0"/>
  </g>
  </svg>