<svg xmlns:dc="http://purl.org/dc/elements/1.1/" xmlns:cc="http://creativecommons.org/ns#" xmlns:rdf="http://www.w3.org/1999/02/22-rdf-syntax-ns#" xmlns:svg="http://www.w3.org/2000/svg" xmlns="http://www.w3.org/2000/svg" xmlns:sodipodi="http://sodipodi.sourceforge.net/DTD/sodipodi-0.dtd" xmlns:inkscape="http://www.inkscape.org/namespaces/inkscape" width="48" height="48" id="svg5057" version="1.1" inkscape:version="0.91 r13725" viewBox="0 0 48 48" sodipodi:docname="all_icons.tar">
  <defs id="defs5059"/>
  <sodipodi:namedview id="base" pagecolor="#ffffff" bordercolor="#666666" borderopacity="1.0" inkscape:pageopacity="0.0" inkscape:pageshadow="2" inkscape:zoom="5.3607533" inkscape:cx="17.083968" inkscape:cy="9.574371" inkscape:current-layer="layer36" showgrid="true" inkscape:grid-bbox="true" inkscape:document-units="px" inkscape:window-width="1680" inkscape:window-height="988" inkscape:window-x="-8" inkscape:window-y="-8" inkscape:window-maximized="1" showguides="true">
    <inkscape:grid type="xygrid" id="grid6922"/>
  </sodipodi:namedview>
  <metadata id="metadata5062">
    <rdf:RDF>
      <cc:Work rdf:about="">
        <dc:format>image/svg+xml</dc:format>
        <dc:type rdf:resource="http://purl.org/dc/dcmitype/StillImage"/>
        <dc:title/>
      </cc:Work>
    </rdf:RDF>
  </metadata>
  <g inkscape:groupmode="layer" id="layer119" inkscape:label="key" style="display:inline">
    <path id="path6562" style="display:inline;fill:#000000;stroke:none" d="m 18.431944,27.243486 q -1.55,-1.4 -3.25,-1.8 -1.1,-0.2 -1.85,0.4 -0.55,0.7 -0.35,1.75 0.35,1.85 1.85,3.45 l 0.4,0.4 q 1.35,1.2 3,1.5 l 0.15,0.05 q 1,0.1 1.6,-0.45 0.5,-0.65 0.4,-1.6 l 0,-0.2 q -0.35,-1.6 -1.45,-3 l -0.35,-0.4 -0.15,-0.1 m 18.05,-15.3 q 0.05,0.95 -0.35,1.65 l 4.25,4.3 q 1.25,1.25 0,2.5 l -0.95,0.95 -0.45,0.25 -0.4,-0.2 -0.65,-0.65 -2.25,2.35 0.65,0.6 0.15,0.4 -0.2,0.45 -0.9,0.95 q -1.3,1.3 -2.55,0 l -4.25,-4.3 -4.05,4.2 q 1.25,2.05 1.7,4.4 l -0.1,0.05 q 0.8,4.3 -1.95,6.85 -2.6,2.85 -6.9,2.15 -3.4,-0.6 -6.2,-3.2 l -0.4,-0.4 q -2.9499996,-2.9 -3.5499996,-6.55 l 0,-0.05 q -0.25,-1.4 -0.05,-2.55 0.15,-2.7 2.05,-4.5 1.8499996,-1.9 4.4499996,-2.15 l 2.45,0.1 0.15,0 q 2.2,0.4 4.15,1.65 l 11.4,-11.5500001 q 0.65,-0.75 1.9,-0.6 1.1,0.15 1.9,1.0000001 l 0.45,0.4 q 0.5,0.65 0.5,1.5" inkscape:connector-curvature="0"/>
  </g>
  </svg>