<svg xmlns:dc="http://purl.org/dc/elements/1.1/" xmlns:cc="http://creativecommons.org/ns#" xmlns:rdf="http://www.w3.org/1999/02/22-rdf-syntax-ns#" xmlns:svg="http://www.w3.org/2000/svg" xmlns="http://www.w3.org/2000/svg" xmlns:sodipodi="http://sodipodi.sourceforge.net/DTD/sodipodi-0.dtd" xmlns:inkscape="http://www.inkscape.org/namespaces/inkscape" width="48" height="48" id="svg5057" version="1.1" inkscape:version="0.91 r13725" viewBox="0 0 48 48" sodipodi:docname="all_icons.tar">
  <defs id="defs5059"/>
  <sodipodi:namedview id="base" pagecolor="#ffffff" bordercolor="#666666" borderopacity="1.0" inkscape:pageopacity="0.0" inkscape:pageshadow="2" inkscape:zoom="5.3607533" inkscape:cx="17.083968" inkscape:cy="9.574371" inkscape:current-layer="layer36" showgrid="true" inkscape:grid-bbox="true" inkscape:document-units="px" inkscape:window-width="1680" inkscape:window-height="988" inkscape:window-x="-8" inkscape:window-y="-8" inkscape:window-maximized="1" showguides="true">
    <inkscape:grid type="xygrid" id="grid6922"/>
  </sodipodi:namedview>
  <metadata id="metadata5062">
    <rdf:RDF>
      <cc:Work rdf:about="">
        <dc:format>image/svg+xml</dc:format>
        <dc:type rdf:resource="http://purl.org/dc/dcmitype/StillImage"/>
        <dc:title/>
      </cc:Work>
    </rdf:RDF>
  </metadata>
  <g inkscape:groupmode="layer" id="layer41" inkscape:label="lock" style="display:inline">
    <path id="path5215" style="display:inline;fill:#000000;stroke:none" d="m 26,32 2,0 0,-4 -8,0 0,4 2,0 0,4 4,0 0,-4 m 14,-12 0,18 q 0,0.85 -0.6,1.45 Q 38.8,40 38,40 L 10,40 Q 9.15,40 8.55,39.45 8,38.85 8,38 l 0,-18 4,0 0,-8 Q 12,10.35 13.15,9.2 14.35,8 16,8 l 16,0 q 1.65,0 2.8,1.2 1.2,1.2 1.2,2.8 l 0,8 4,0 m -8,-8 -16,0 0,8 16,0 0,-8" inkscape:connector-curvature="0"/>
  </g>
  </svg>