<svg xmlns:dc="http://purl.org/dc/elements/1.1/" xmlns:cc="http://creativecommons.org/ns#" xmlns:rdf="http://www.w3.org/1999/02/22-rdf-syntax-ns#" xmlns:svg="http://www.w3.org/2000/svg" xmlns="http://www.w3.org/2000/svg" xmlns:sodipodi="http://sodipodi.sourceforge.net/DTD/sodipodi-0.dtd" xmlns:inkscape="http://www.inkscape.org/namespaces/inkscape" width="48" height="48" id="svg5057" version="1.1" inkscape:version="0.91 r13725" viewBox="0 0 48 48" sodipodi:docname="all_icons.tar">
  <defs id="defs5059"/>
  <sodipodi:namedview id="base" pagecolor="#ffffff" bordercolor="#666666" borderopacity="1.0" inkscape:pageopacity="0.0" inkscape:pageshadow="2" inkscape:zoom="5.3607533" inkscape:cx="17.083968" inkscape:cy="9.574371" inkscape:current-layer="layer36" showgrid="true" inkscape:grid-bbox="true" inkscape:document-units="px" inkscape:window-width="1680" inkscape:window-height="988" inkscape:window-x="-8" inkscape:window-y="-8" inkscape:window-maximized="1" showguides="true">
    <inkscape:grid type="xygrid" id="grid6922"/>
  </sodipodi:namedview>
  <metadata id="metadata5062">
    <rdf:RDF>
      <cc:Work rdf:about="">
        <dc:format>image/svg+xml</dc:format>
        <dc:type rdf:resource="http://purl.org/dc/dcmitype/StillImage"/>
        <dc:title/>
      </cc:Work>
    </rdf:RDF>
  </metadata>
  <g style="display:inline;opacity:1" inkscape:label="minus-circle" id="g7570" inkscape:groupmode="layer">
    <path id="path7594" style="display:inline;opacity:1;fill:#000000;fill-opacity:1;fill-rule:nonzero;stroke:none" d="m 24,8 c -4.4,0 -8.167448,1.5503903 -11.300781,4.650391 l 0,0.04883 -0.04883,0 C 9.5503926,15.83255 8,19.6 8,24 8,28.433333 9.5658848,32.216276 12.699219,35.349609 15.832552,38.449609 19.6,40 24,40 l 1,0 C 28.966667,39.766667 32.400781,38.216276 35.300781,35.349609 38.434115,32.216276 40,28.433333 40,24 40,19.6 38.434115,15.832552 35.300781,12.699219 32.400781,9.7992186 28.966667,8.2507811 25,8.0507812 L 24,8 Z m -11.375,12 22.75,0 c 0.433333,0 0.811719,0.199609 1.136719,0.599609 C 36.836719,20.999609 37,21.466667 37,22 l 0,4 c 0,0.566667 -0.163281,1.049219 -0.488281,1.449219 C 36.186719,27.815885 35.808333,28 35.375,28 l -22.75,0 C 12.164583,28 11.772266,27.815885 11.447266,27.449219 11.149349,27.049219 11,26.566667 11,26 l 0,-3.949219 c 0,-0.566666 0.149349,-1.051172 0.447266,-1.451172 C 11.772266,20.199609 12.164583,20 12.625,20 Z" inkscape:connector-curvature="0"/>
  </g>
  </svg>