<svg xmlns:dc="http://purl.org/dc/elements/1.1/" xmlns:cc="http://creativecommons.org/ns#" xmlns:rdf="http://www.w3.org/1999/02/22-rdf-syntax-ns#" xmlns:svg="http://www.w3.org/2000/svg" xmlns="http://www.w3.org/2000/svg" xmlns:sodipodi="http://sodipodi.sourceforge.net/DTD/sodipodi-0.dtd" xmlns:inkscape="http://www.inkscape.org/namespaces/inkscape" width="48" height="48" id="svg5057" version="1.1" inkscape:version="0.91 r13725" viewBox="0 0 48 48" sodipodi:docname="all_icons.tar">
  <defs id="defs5059"/>
  <sodipodi:namedview id="base" pagecolor="#ffffff" bordercolor="#666666" borderopacity="1.0" inkscape:pageopacity="0.0" inkscape:pageshadow="2" inkscape:zoom="5.3607533" inkscape:cx="17.083968" inkscape:cy="9.574371" inkscape:current-layer="layer36" showgrid="true" inkscape:grid-bbox="true" inkscape:document-units="px" inkscape:window-width="1680" inkscape:window-height="988" inkscape:window-x="-8" inkscape:window-y="-8" inkscape:window-maximized="1" showguides="true">
    <inkscape:grid type="xygrid" id="grid6922"/>
  </sodipodi:namedview>
  <metadata id="metadata5062">
    <rdf:RDF>
      <cc:Work rdf:about="">
        <dc:format>image/svg+xml</dc:format>
        <dc:type rdf:resource="http://purl.org/dc/dcmitype/StillImage"/>
        <dc:title/>
      </cc:Work>
    </rdf:RDF>
  </metadata>
  <g inkscape:groupmode="layer" id="layer115" inkscape:label="mouse-alt" style="display:inline">
    <path id="path6438" style="display:inline;fill:#000000;stroke:none" d="m 26.05,13.5 q -0.85,-0.95 -2.1,-0.95 -1.25,0 -2.15,0.95 -0.55,0.6 -0.7,1.35 l -0.15,0.9 0,7.45 q 0,1.35 0.85,2.3 0.9,1 2.15,1 1.25,0 2.1,-1 0.9,-0.95 0.9,-2.3 l 0,-7.45 -0.1,-0.9 Q 26.6,14.1 26.05,13.5 M 38,8.6 l 0,18.85 -0.05,0 q 0,5.8 -4.1,9.85 -4.05,4.1 -9.85,4.1 l -0.05,0 q -5.8,0 -9.9,-4.1 Q 10,33.25 10,27.45 L 10,8.65 Q 10,7.8 10.55,7.2 11.15,6.6 12,6.6 l 24,0 q 0.8,0 1.4,0.6 0.6,0.6 0.6,1.4 m -20.05,10.85 0,-3.7 Q 18,13.3 19.6,11.55 21.3,9.65 23.7,9.6 l -10.7,0 0,9.85 4.95,0 M 35,9.6 24.2,9.6 q 2.45,0.05 4.15,2 l -0.1,-0.15 q 1.7,1.8 1.7,4.3 l 0,3.7 5.05,0 0,-9.85" inkscape:connector-curvature="0"/>
  </g>
  </svg>