<svg xmlns:dc="http://purl.org/dc/elements/1.1/" xmlns:cc="http://creativecommons.org/ns#" xmlns:rdf="http://www.w3.org/1999/02/22-rdf-syntax-ns#" xmlns:svg="http://www.w3.org/2000/svg" xmlns="http://www.w3.org/2000/svg" xmlns:sodipodi="http://sodipodi.sourceforge.net/DTD/sodipodi-0.dtd" xmlns:inkscape="http://www.inkscape.org/namespaces/inkscape" width="48" height="48" id="svg5057" version="1.1" inkscape:version="0.91 r13725" viewBox="0 0 48 48" sodipodi:docname="all_icons.tar">
  <defs id="defs5059"/>
  <sodipodi:namedview id="base" pagecolor="#ffffff" bordercolor="#666666" borderopacity="1.0" inkscape:pageopacity="0.0" inkscape:pageshadow="2" inkscape:zoom="5.3607533" inkscape:cx="17.083968" inkscape:cy="9.574371" inkscape:current-layer="layer36" showgrid="true" inkscape:grid-bbox="true" inkscape:document-units="px" inkscape:window-width="1680" inkscape:window-height="988" inkscape:window-x="-8" inkscape:window-y="-8" inkscape:window-maximized="1" showguides="true">
    <inkscape:grid type="xygrid" id="grid6922"/>
  </sodipodi:namedview>
  <metadata id="metadata5062">
    <rdf:RDF>
      <cc:Work rdf:about="">
        <dc:format>image/svg+xml</dc:format>
        <dc:type rdf:resource="http://purl.org/dc/dcmitype/StillImage"/>
        <dc:title/>
      </cc:Work>
    </rdf:RDF>
  </metadata>
  <g inkscape:groupmode="layer" id="layer192" inkscape:label="move-lr2" style="display:inline">
    <path style="display:inline;fill:#000000;stroke:none" d="m 4.9,24.03 -0.05,-2 7.35,0 0,4 -3.15,0 0.15,0.95 q 0.75,4.45 4.15,7.8 4.4,4.4 10.7,4.4 6.3,0 10.75,-4.4 3.35,-3.35 4.15,-7.8 l 0.25,-2.95 -3,0 5,-6 5,6 -3,0 -0.2,2.95 q -0.85,6.1 -5.35,10.65 -5.6,5.55 -13.6,5.55 -8,0 -13.55,-5.55 Q 5.95,33.08 5.1,26.98 L 4.9,24.03" id="path6624" inkscape:connector-curvature="0"/>
  </g>
</svg>