<svg xmlns:dc="http://purl.org/dc/elements/1.1/" xmlns:cc="http://creativecommons.org/ns#" xmlns:rdf="http://www.w3.org/1999/02/22-rdf-syntax-ns#" xmlns:svg="http://www.w3.org/2000/svg" xmlns="http://www.w3.org/2000/svg" xmlns:sodipodi="http://sodipodi.sourceforge.net/DTD/sodipodi-0.dtd" xmlns:inkscape="http://www.inkscape.org/namespaces/inkscape" width="48" height="48" id="svg5057" version="1.1" inkscape:version="0.91 r13725" viewBox="0 0 48 48" sodipodi:docname="all_icons.tar">
  <defs id="defs5059"/>
  <sodipodi:namedview id="base" pagecolor="#ffffff" bordercolor="#666666" borderopacity="1.0" inkscape:pageopacity="0.0" inkscape:pageshadow="2" inkscape:zoom="5.3607533" inkscape:cx="17.083968" inkscape:cy="9.574371" inkscape:current-layer="layer36" showgrid="true" inkscape:grid-bbox="true" inkscape:document-units="px" inkscape:window-width="1680" inkscape:window-height="988" inkscape:window-x="-8" inkscape:window-y="-8" inkscape:window-maximized="1" showguides="true">
    <inkscape:grid type="xygrid" id="grid6922"/>
  </sodipodi:namedview>
  <metadata id="metadata5062">
    <rdf:RDF>
      <cc:Work rdf:about="">
        <dc:format>image/svg+xml</dc:format>
        <dc:type rdf:resource="http://purl.org/dc/dcmitype/StillImage"/>
        <dc:title/>
      </cc:Work>
    </rdf:RDF>
  </metadata>
  <g inkscape:groupmode="layer" id="layer187" inkscape:label="move-rl" style="display:inline">
    <path style="display:inline;fill:#000000;stroke:none" d="m 24,39.18 q 6.3,0 10.75,-4.4 3.35,-3.35 4.15,-7.8 l 0.15,-0.95 -3.2,0 0,-4 7.35,0 -0.05,2 -0.2,2.95 Q 42.1,33.08 37.6,37.63 32,43.18 24,43.18 16,43.18 10.45,37.63 5.9,33.08 5.05,26.98 l -0.2,-2.95 -3,0 5,-6 5,6 -3,0 q 0,1.55 0.25,2.95 0.85,4.45 4.2,7.8 4.4,4.4 10.7,4.4" id="path6474" inkscape:connector-curvature="0"/>
  </g>
  </svg>