<svg xmlns:dc="http://purl.org/dc/elements/1.1/" xmlns:cc="http://creativecommons.org/ns#" xmlns:rdf="http://www.w3.org/1999/02/22-rdf-syntax-ns#" xmlns:svg="http://www.w3.org/2000/svg" xmlns="http://www.w3.org/2000/svg" xmlns:sodipodi="http://sodipodi.sourceforge.net/DTD/sodipodi-0.dtd" xmlns:inkscape="http://www.inkscape.org/namespaces/inkscape" width="48" height="48" id="svg5057" version="1.1" inkscape:version="0.91 r13725" viewBox="0 0 48 48" sodipodi:docname="all_icons.tar">
  <defs id="defs5059"/>
  <sodipodi:namedview id="base" pagecolor="#ffffff" bordercolor="#666666" borderopacity="1.0" inkscape:pageopacity="0.0" inkscape:pageshadow="2" inkscape:zoom="5.3607533" inkscape:cx="17.083968" inkscape:cy="9.574371" inkscape:current-layer="layer36" showgrid="true" inkscape:grid-bbox="true" inkscape:document-units="px" inkscape:window-width="1680" inkscape:window-height="988" inkscape:window-x="-8" inkscape:window-y="-8" inkscape:window-maximized="1" showguides="true">
    <inkscape:grid type="xygrid" id="grid6922"/>
  </sodipodi:namedview>
  <metadata id="metadata5062">
    <rdf:RDF>
      <cc:Work rdf:about="">
        <dc:format>image/svg+xml</dc:format>
        <dc:type rdf:resource="http://purl.org/dc/dcmitype/StillImage"/>
        <dc:title/>
      </cc:Work>
    </rdf:RDF>
  </metadata>
  <g inkscape:groupmode="layer" id="layer77" inkscape:label="movie" style="display:inline">
    <path id="path5289" style="display:inline;fill:#000000;stroke:none" d="m 10.95,26 3.95,0 0,-5 -3.95,0 0,5 m 0,6 0,5 3.95,0 0,-5 -3.95,0 m 3.95,-16 0,-5 -3.95,0 0,5 3.95,0 m 15.05,21 0,-11 -12,0 0,11 12,0 m 3,-11 3.95,0 0,-5 -3.95,0 0,5 m 0,11 3.95,0 0,-5 -3.95,0 0,5 m -15,-26 0,12 12,0 0,-12 -12,0 M 40,10 40,38 q 0,0.85 -0.6,1.45 Q 38.8,40 38,40 L 10,40 Q 9.15,40 8.55,39.45 8,38.85 8,38 L 8,10.05 Q 8,9.2 8.55,8.6 9.15,8 10,8 L 38,8 Q 38.8,8 39.4,8.6 40,9.2 40,10 m -3.1,1 -3.95,0 0,5 3.95,0 0,-5" inkscape:connector-curvature="0"/>
  </g>
  </svg>