<svg xmlns:dc="http://purl.org/dc/elements/1.1/" xmlns:cc="http://creativecommons.org/ns#" xmlns:rdf="http://www.w3.org/1999/02/22-rdf-syntax-ns#" xmlns:svg="http://www.w3.org/2000/svg" xmlns="http://www.w3.org/2000/svg" xmlns:sodipodi="http://sodipodi.sourceforge.net/DTD/sodipodi-0.dtd" xmlns:inkscape="http://www.inkscape.org/namespaces/inkscape" width="48" height="48" id="svg5057" version="1.1" inkscape:version="0.91 r13725" viewBox="0 0 48 48" sodipodi:docname="all_icons.tar">
  <defs id="defs5059"/>
  <sodipodi:namedview id="base" pagecolor="#ffffff" bordercolor="#666666" borderopacity="1.0" inkscape:pageopacity="0.0" inkscape:pageshadow="2" inkscape:zoom="5.3607533" inkscape:cx="17.083968" inkscape:cy="9.574371" inkscape:current-layer="layer36" showgrid="true" inkscape:grid-bbox="true" inkscape:document-units="px" inkscape:window-width="1680" inkscape:window-height="988" inkscape:window-x="-8" inkscape:window-y="-8" inkscape:window-maximized="1" showguides="true">
    <inkscape:grid type="xygrid" id="grid6922"/>
  </sodipodi:namedview>
  <metadata id="metadata5062">
    <rdf:RDF>
      <cc:Work rdf:about="">
        <dc:format>image/svg+xml</dc:format>
        <dc:type rdf:resource="http://purl.org/dc/dcmitype/StillImage"/>
        <dc:title/>
      </cc:Work>
    </rdf:RDF>
  </metadata>
  <g inkscape:groupmode="layer" id="layer55" inkscape:label="music" style="display:inline">
    <path style="fill:#000000;stroke:none" d="m 37.4975,11.410537 0,15.1 0,0.35 q -0.3,2.75 -2,4.5 l -0.1,0 q -1.8,2 -4.25,2.2 l -0.05,0 q -2.55,0.25 -4.25,-1.55 -1.65,-1.6 -1.4,-4.3 0.25,-2.4 2,-4.2 1.7,-1.7 3.7,-2 l 1.35,0 0,-5 -10,0 0,17 q 0.1,1.9 -2.05,3.8 l -0.05,0.15 q -1.8,1.75 -4.15,2 l -0.05,0 q -2.6,0.25 -4.25,-1.45 -1.7,-1.65 -1.4,-4.2 0.2,-2.5 1.95,-4.35 l 0.1,-0.05 q 1.65,-1.6 3.6,-2 l 0.05,0 2.25,0.1 0,-16 q -0.1,-3.1000001 2.45,-3.0000001 l 13.55,0 q 3,0 3,2.9000001" id="path5221" inkscape:connector-curvature="0"/>
  </g>
  </svg>