<svg xmlns:dc="http://purl.org/dc/elements/1.1/" xmlns:cc="http://creativecommons.org/ns#" xmlns:rdf="http://www.w3.org/1999/02/22-rdf-syntax-ns#" xmlns:svg="http://www.w3.org/2000/svg" xmlns="http://www.w3.org/2000/svg" xmlns:sodipodi="http://sodipodi.sourceforge.net/DTD/sodipodi-0.dtd" xmlns:inkscape="http://www.inkscape.org/namespaces/inkscape" width="48" height="48" id="svg5057" version="1.1" inkscape:version="0.91 r13725" viewBox="0 0 48 48" sodipodi:docname="all_icons.tar">
  <defs id="defs5059"/>
  <sodipodi:namedview id="base" pagecolor="#ffffff" bordercolor="#666666" borderopacity="1.0" inkscape:pageopacity="0.0" inkscape:pageshadow="2" inkscape:zoom="5.3607533" inkscape:cx="17.083968" inkscape:cy="9.574371" inkscape:current-layer="layer36" showgrid="true" inkscape:grid-bbox="true" inkscape:document-units="px" inkscape:window-width="1680" inkscape:window-height="988" inkscape:window-x="-8" inkscape:window-y="-8" inkscape:window-maximized="1" showguides="true">
    <inkscape:grid type="xygrid" id="grid6922"/>
  </sodipodi:namedview>
  <metadata id="metadata5062">
    <rdf:RDF>
      <cc:Work rdf:about="">
        <dc:format>image/svg+xml</dc:format>
        <dc:type rdf:resource="http://purl.org/dc/dcmitype/StillImage"/>
        <dc:title/>
      </cc:Work>
    </rdf:RDF>
  </metadata>
  <g inkscape:groupmode="layer" id="layer56" inkscape:label="music-off" style="display:inline">
    <path id="path5207" style="fill:#000000;stroke:none" d="m 23.9725,28.159756 5.45,5.45 q -2.45,0.1 -4.05,-1.6 -1.5,-1.45 -1.4,-3.85 m -12.95,1.3 0.1,-0.05 q 1.65,-1.6 3.6,-2 l 0.05,0 2.25,0.1 0,-6.3 4,4 0,8.3 q 0.1,1.9 -2.05,3.8 l -0.05,0.15 q -1.8,1.75 -4.15,2 l -0.05,0 q -2.6,0.25 -4.25,-1.45 -1.7,-1.65 -1.4,-4.2 0.2,-2.5 1.95,-4.35 m 1.5,-18.4 q 0.6,-0.6 1.45,-0.6 0.85,0 1.4,0.6 l 23,23 q 0.6,0.55 0.6,1.4 0,0.85 -0.6,1.45 -0.55,0.55 -1.4,0.55 -0.85,0 -1.45,-0.55 l -23,-23 q -0.55,-0.6 -0.55,-1.45 0,-0.85 0.55,-1.4 m 4.7,-1.05 q 0.45,-1.5500004 2.25,-1.5000004 l 13.55,0 q 3,0 3,2.9000004 l 0,15.1 0,0.35 -0.3,1.65 -6.8,-6.8 0.75,-0.2 1.35,0 0,-5 -7.3,0 -6.5,-6.5" inkscape:connector-curvature="0"/>
  </g>
  </svg>