<svg xmlns:dc="http://purl.org/dc/elements/1.1/" xmlns:cc="http://creativecommons.org/ns#" xmlns:rdf="http://www.w3.org/1999/02/22-rdf-syntax-ns#" xmlns:svg="http://www.w3.org/2000/svg" xmlns="http://www.w3.org/2000/svg" xmlns:sodipodi="http://sodipodi.sourceforge.net/DTD/sodipodi-0.dtd" xmlns:inkscape="http://www.inkscape.org/namespaces/inkscape" width="48" height="48" id="svg5057" version="1.1" inkscape:version="0.91 r13725" viewBox="0 0 48 48" sodipodi:docname="all_icons.tar">
  <defs id="defs5059"/>
  <sodipodi:namedview id="base" pagecolor="#ffffff" bordercolor="#666666" borderopacity="1.0" inkscape:pageopacity="0.0" inkscape:pageshadow="2" inkscape:zoom="5.3607533" inkscape:cx="17.083968" inkscape:cy="9.574371" inkscape:current-layer="layer36" showgrid="true" inkscape:grid-bbox="true" inkscape:document-units="px" inkscape:window-width="1680" inkscape:window-height="988" inkscape:window-x="-8" inkscape:window-y="-8" inkscape:window-maximized="1" showguides="true">
    <inkscape:grid type="xygrid" id="grid6922"/>
  </sodipodi:namedview>
  <metadata id="metadata5062">
    <rdf:RDF>
      <cc:Work rdf:about="">
        <dc:format>image/svg+xml</dc:format>
        <dc:type rdf:resource="http://purl.org/dc/dcmitype/StillImage"/>
        <dc:title/>
      </cc:Work>
    </rdf:RDF>
  </metadata>
  <g inkscape:groupmode="layer" id="layer87" inkscape:label="network" style="display:inline">
    <path style="fill:#000000;stroke:none" d="m 33.85,6.025 q 2.95,0 5.05,2.05 2.1,2.1 2.1,5.15 0,2.95 -2.1,5.05 -2.1,2.1 -5.05,2.1 -3,0 -5.1,-2.1 l -0.55,-0.6 -7,4.85 0.15,1.45 -0.25,1.9 7.05,4.5 0.6,-0.7 q 2.1,-2.1 5.1,-2.1 2.95,0 5.05,2.1 2.1,2.1 2.1,5.1 0,3 -2.1,5.1 -2.1,2.1 -5.05,2.1 -3,0 -5.1,-2.1 -2.05,-2.1 -2.05,-5.1 l 0.1,-1.05 -7.5,-4.75 -0.1,0.1 q -2.1,2.1 -5.05,2.1 -3,0 -5.1,-2.1 -2.05,-2.1 -2.05,-5.1 0,-3 2.05,-5.1 2.1,-2.1 5.1,-2.1 2.95,0 5.05,2.1 l 0.4,0.4 7.2,-4.9 -0.1,-1.15 q 0,-3.05 2.05,-5.15 2.1,-2.05 5.1,-2.05" id="path5347" inkscape:connector-curvature="0"/>
  </g>
  </svg>