<svg xmlns:dc="http://purl.org/dc/elements/1.1/" xmlns:cc="http://creativecommons.org/ns#" xmlns:rdf="http://www.w3.org/1999/02/22-rdf-syntax-ns#" xmlns:svg="http://www.w3.org/2000/svg" xmlns="http://www.w3.org/2000/svg" xmlns:sodipodi="http://sodipodi.sourceforge.net/DTD/sodipodi-0.dtd" xmlns:inkscape="http://www.inkscape.org/namespaces/inkscape" width="48" height="48" id="svg5057" version="1.1" inkscape:version="0.91 r13725" viewBox="0 0 48 48" sodipodi:docname="all_icons.tar">
  <defs id="defs5059"/>
  <sodipodi:namedview id="base" pagecolor="#ffffff" bordercolor="#666666" borderopacity="1.0" inkscape:pageopacity="0.0" inkscape:pageshadow="2" inkscape:zoom="5.3607533" inkscape:cx="17.083968" inkscape:cy="9.574371" inkscape:current-layer="layer36" showgrid="true" inkscape:grid-bbox="true" inkscape:document-units="px" inkscape:window-width="1680" inkscape:window-height="988" inkscape:window-x="-8" inkscape:window-y="-8" inkscape:window-maximized="1" showguides="true">
    <inkscape:grid type="xygrid" id="grid6922"/>
  </sodipodi:namedview>
  <metadata id="metadata5062">
    <rdf:RDF>
      <cc:Work rdf:about="">
        <dc:format>image/svg+xml</dc:format>
        <dc:type rdf:resource="http://purl.org/dc/dcmitype/StillImage"/>
        <dc:title/>
      </cc:Work>
    </rdf:RDF>
  </metadata>
  <g inkscape:groupmode="layer" id="layer73" inkscape:label="off" style="display:inline">
    <path id="path5351" style="fill:#000000;stroke:none" d="m 26.65,7.5 0.3,0.7 0,17 -0.3,0.7 -0.7,0.3 -4,0 -0.7,-0.3 q -0.3,-0.3 -0.3,-0.7 l 0,-17 q 0,-0.4 0.3,-0.7 0.3,-0.3 0.7,-0.3 l 4,0 q 0.4,0 0.7,0.3 m 8.25,4.15 0.85,0.75 0,0.05 q 4.85,4.85 4.85,11.75 0,6.9 -4.85,11.7 L 35.7,35.95 Q 30.9,40.8 24,40.8 17.1,40.8 12.25,35.95 7.4,31.1 7.4,24.2 q 0,-6.75 4.65,-11.55 l 0.2,-0.25 0.8,-0.7 q 0.3,-0.25 0.75,-0.2 0.4,0 0.65,0.35 l 2.55,3.05 0.25,0.7 -0.35,0.7 -0.4,0.35 -0.15,0.15 q -2.95,3.1 -2.95,7.4 0,4.4 3.1,7.5 3.1,3.1 7.5,3.1 4.3,0 7.35,-2.95 l 0.15,-0.15 0.15,-0.15 q 2.95,-3.05 2.95,-7.35 0,-4.4 -3.1,-7.5 l -0.05,0 -0.45,-0.45 -0.35,-0.7 q 0,-0.4 0.25,-0.7 l 2.6,-3.05 q 0.25,-0.35 0.7,-0.35 l 0.7,0.2" inkscape:connector-curvature="0"/>
  </g>
  </svg>