<svg xmlns:dc="http://purl.org/dc/elements/1.1/" xmlns:cc="http://creativecommons.org/ns#" xmlns:rdf="http://www.w3.org/1999/02/22-rdf-syntax-ns#" xmlns:svg="http://www.w3.org/2000/svg" xmlns="http://www.w3.org/2000/svg" xmlns:sodipodi="http://sodipodi.sourceforge.net/DTD/sodipodi-0.dtd" xmlns:inkscape="http://www.inkscape.org/namespaces/inkscape" width="48" height="48" id="svg5057" version="1.1" inkscape:version="0.91 r13725" viewBox="0 0 48 48" sodipodi:docname="all_icons.tar">
  <defs id="defs5059"/>
  <sodipodi:namedview id="base" pagecolor="#ffffff" bordercolor="#666666" borderopacity="1.0" inkscape:pageopacity="0.0" inkscape:pageshadow="2" inkscape:zoom="5.3607533" inkscape:cx="17.083968" inkscape:cy="9.574371" inkscape:current-layer="layer36" showgrid="true" inkscape:grid-bbox="true" inkscape:document-units="px" inkscape:window-width="1680" inkscape:window-height="988" inkscape:window-x="-8" inkscape:window-y="-8" inkscape:window-maximized="1" showguides="true">
    <inkscape:grid type="xygrid" id="grid6922"/>
  </sodipodi:namedview>
  <metadata id="metadata5062">
    <rdf:RDF>
      <cc:Work rdf:about="">
        <dc:format>image/svg+xml</dc:format>
        <dc:type rdf:resource="http://purl.org/dc/dcmitype/StillImage"/>
        <dc:title/>
      </cc:Work>
    </rdf:RDF>
  </metadata>
  <g inkscape:groupmode="layer" id="layer20" inkscape:label="pause" style="display:inline">
    <path id="path5591" style="fill:#000000;stroke:none" d="M 21.4,8.6 Q 22,9.2 22,10 l 0,28 q 0,0.85 -0.6,1.45 Q 20.8,40 20,40 l -8,0 Q 11.15,40 10.55,39.45 10,38.85 10,38 L 10,10.05 Q 10,9.2 10.55,8.6 11.15,8 12,8 l 8,0 q 0.8,0 1.4,0.6 M 38,10 38,38 q 0,0.85 -0.6,1.45 Q 36.8,40 36,40 l -8,0 Q 27.15,40 26.55,39.45 26,38.85 26,38 L 26,10.05 Q 26,9.2 26.55,8.6 27.15,8 28,8 l 8,0 Q 36.8,8 37.4,8.6 38,9.2 38,10" inkscape:connector-curvature="0"/>
  </g>
  </svg>