<svg xmlns:dc="http://purl.org/dc/elements/1.1/" xmlns:cc="http://creativecommons.org/ns#" xmlns:rdf="http://www.w3.org/1999/02/22-rdf-syntax-ns#" xmlns:svg="http://www.w3.org/2000/svg" xmlns="http://www.w3.org/2000/svg" xmlns:sodipodi="http://sodipodi.sourceforge.net/DTD/sodipodi-0.dtd" xmlns:inkscape="http://www.inkscape.org/namespaces/inkscape" width="48" height="48" id="svg5057" version="1.1" inkscape:version="0.91 r13725" viewBox="0 0 48 48" sodipodi:docname="all_icons.tar">
  <defs id="defs5059"/>
  <sodipodi:namedview id="base" pagecolor="#ffffff" bordercolor="#666666" borderopacity="1.0" inkscape:pageopacity="0.0" inkscape:pageshadow="2" inkscape:zoom="5.3607533" inkscape:cx="17.083968" inkscape:cy="9.574371" inkscape:current-layer="layer36" showgrid="true" inkscape:grid-bbox="true" inkscape:document-units="px" inkscape:window-width="1680" inkscape:window-height="988" inkscape:window-x="-8" inkscape:window-y="-8" inkscape:window-maximized="1" showguides="true">
    <inkscape:grid type="xygrid" id="grid6922"/>
  </sodipodi:namedview>
  <metadata id="metadata5062">
    <rdf:RDF>
      <cc:Work rdf:about="">
        <dc:format>image/svg+xml</dc:format>
        <dc:type rdf:resource="http://purl.org/dc/dcmitype/StillImage"/>
        <dc:title/>
      </cc:Work>
    </rdf:RDF>
  </metadata>
  <g inkscape:groupmode="layer" id="layer85" inkscape:label="player-four" style="display:inline">
    <path id="path5091" style="display:inline;fill:#000000;stroke:none" d="m 26.7,17.575 q 0.15,0.65 0.75,1 l 1.2,0.15 1,-0.75 q 0.35,-0.6 0.2,-1.25 -0.15,-0.65 -0.8,-0.95 l -1.25,-0.2 q -0.65,0.15 -0.95,0.8 -0.3,0.55 -0.15,1.2 m 8.55,-10.15 q 0.6,0.3 0.75,0.95 l 3.4,12.5 -0.15,1.25 -1,0.75 -28.35,7.5 -1.2,-0.15 q -0.6,-0.3 -0.75,-0.95 l -3.4,-12.45 q -0.15,-0.7 0.15,-1.3 0.35,-0.55 1,-0.75 l 12.6,-3.35 -1.05,-3.9 q -0.2,-0.65 0.15,-1.2 l 0.25,-0.4 -0.05,-0.2 0.8,-0.2 1.25,0.2 q 0.55,0.35 0.75,1 l 1.05,3.9 12.6,-3.35 1.2,0.15 m 7.95,34.75 q -0.3,0.3 -0.7,0.3 l -2,0 q -0.4,0 -0.7,-0.3 -0.3,-0.3 -0.3,-0.7 l 0,-5 -5,0 q -0.4,0 -0.7,-0.3 -0.3,-0.3 -0.3,-0.7 l 0,-8 q 0,-0.4 0.3,-0.7 0.3,-0.3 0.7,-0.3 l 2,0 q 0.4,0 0.7,0.3 l 0.3,0.7 0,5 2,0 0,-5 q 0,-0.4 0.3,-0.7 0.3,-0.3 0.7,-0.3 l 2,0 q 0.4,0 0.7,0.3 l 0.3,0.7 0,14 -0.3,0.7 m -10.25,-25.1 1.25,0.15 1,-0.7 0.15,-1.25 q -0.15,-0.65 -0.75,-0.95 -0.65,-0.4 -1.25,-0.25 -0.7,0.2 -1,0.8 -0.3,0.6 -0.15,1.25 0.15,0.65 0.75,0.95 m -15.4,1.2 -3.1,0.85 -0.8,-3.1 -3.15,0.8 0.8,3.1 -3.15,0.85 0.85,3.1 3.15,-0.85 0.85,3.15 3.15,-0.8 -0.85,-3.15 3.1,-0.85 -0.85,-3.1" inkscape:connector-curvature="0"/>
  </g>
  </svg>