<svg xmlns:dc="http://purl.org/dc/elements/1.1/" xmlns:cc="http://creativecommons.org/ns#" xmlns:rdf="http://www.w3.org/1999/02/22-rdf-syntax-ns#" xmlns:svg="http://www.w3.org/2000/svg" xmlns="http://www.w3.org/2000/svg" xmlns:sodipodi="http://sodipodi.sourceforge.net/DTD/sodipodi-0.dtd" xmlns:inkscape="http://www.inkscape.org/namespaces/inkscape" width="48" height="48" id="svg5057" version="1.1" inkscape:version="0.91 r13725" viewBox="0 0 48 48" sodipodi:docname="all_icons.tar">
  <defs id="defs5059"/>
  <sodipodi:namedview id="base" pagecolor="#ffffff" bordercolor="#666666" borderopacity="1.0" inkscape:pageopacity="0.0" inkscape:pageshadow="2" inkscape:zoom="5.3607533" inkscape:cx="17.083968" inkscape:cy="9.574371" inkscape:current-layer="layer36" showgrid="true" inkscape:grid-bbox="true" inkscape:document-units="px" inkscape:window-width="1680" inkscape:window-height="988" inkscape:window-x="-8" inkscape:window-y="-8" inkscape:window-maximized="1" showguides="true">
    <inkscape:grid type="xygrid" id="grid6922"/>
  </sodipodi:namedview>
  <metadata id="metadata5062">
    <rdf:RDF>
      <cc:Work rdf:about="">
        <dc:format>image/svg+xml</dc:format>
        <dc:type rdf:resource="http://purl.org/dc/dcmitype/StillImage"/>
        <dc:title/>
      </cc:Work>
    </rdf:RDF>
  </metadata>
  <g inkscape:groupmode="layer" id="layer159" inkscape:label="plus-alt" style="display:inline;opacity:1">
    <path style="display:inline;fill:#000000;stroke:none" d="M 20.55,11.6 Q 21.15,11 22,11 l 4,0 q 0.8,0 1.4,0.6 0.6,0.6 0.6,1.4 l 0,7 7,0 q 0.8,0 1.4,0.6 0.6,0.6 0.6,1.4 l 0,4 q 0,0.85 -0.6,1.45 Q 35.8,28 35,28 l -7,0 0,7 q 0,0.85 -0.6,1.45 Q 26.8,37 26,37 l -4,0 Q 21.15,37 20.55,36.45 20,35.85 20,35 l 0,-7 -7,0 Q 12.15,28 11.55,27.45 11,26.85 11,26 l 0,-3.95 Q 11,21.2 11.55,20.6 12.15,20 13,20 l 7,0 0,-6.95 q 0,-0.85 0.55,-1.45" id="path6336" inkscape:connector-curvature="0"/>
  </g>
  </svg>