<svg xmlns:dc="http://purl.org/dc/elements/1.1/" xmlns:cc="http://creativecommons.org/ns#" xmlns:rdf="http://www.w3.org/1999/02/22-rdf-syntax-ns#" xmlns:svg="http://www.w3.org/2000/svg" xmlns="http://www.w3.org/2000/svg" xmlns:sodipodi="http://sodipodi.sourceforge.net/DTD/sodipodi-0.dtd" xmlns:inkscape="http://www.inkscape.org/namespaces/inkscape" width="48" height="48" id="svg5057" version="1.1" inkscape:version="0.91 r13725" viewBox="0 0 48 48" sodipodi:docname="all_icons.tar">
  <defs id="defs5059"/>
  <sodipodi:namedview id="base" pagecolor="#ffffff" bordercolor="#666666" borderopacity="1.0" inkscape:pageopacity="0.0" inkscape:pageshadow="2" inkscape:zoom="5.3607533" inkscape:cx="17.083968" inkscape:cy="9.574371" inkscape:current-layer="layer36" showgrid="true" inkscape:grid-bbox="true" inkscape:document-units="px" inkscape:window-width="1680" inkscape:window-height="988" inkscape:window-x="-8" inkscape:window-y="-8" inkscape:window-maximized="1" showguides="true">
    <inkscape:grid type="xygrid" id="grid6922"/>
  </sodipodi:namedview>
  <metadata id="metadata5062">
    <rdf:RDF>
      <cc:Work rdf:about="">
        <dc:format>image/svg+xml</dc:format>
        <dc:type rdf:resource="http://purl.org/dc/dcmitype/StillImage"/>
        <dc:title/>
      </cc:Work>
    </rdf:RDF>
  </metadata>
  <g style="display:inline;opacity:1" inkscape:label="plus-circle" id="g7566" inkscape:groupmode="layer">
    <path id="path7594-0" style="display:inline;opacity:1;fill:#000000;fill-opacity:1;fill-rule:nonzero;stroke:none" d="m 24,8 c -4.4,0 -8.167448,1.5503908 -11.300781,4.650391 l 0,0.04883 -0.04883,0 C 9.5503926,15.83255 8,19.6 8,24 8,28.433333 9.5658848,32.216276 12.699219,35.349609 15.832552,38.449609 19.6,40 24,40 l 1,0 C 28.966667,39.766667 32.400781,38.216276 35.300781,35.349609 38.434115,32.216276 40,28.433333 40,24 40,19.6 38.434115,15.832552 35.300781,12.699219 32.400781,9.7992187 28.966667,8.2507813 25,8.0507812 L 24,8 Z m -2,3 4,0 c 0.533333,0 1.000391,0.199609 1.400391,0.599609 C 27.800391,11.999609 28,12.466667 28,13 l 0,7 7,0 c 0.533333,0 1.000391,0.199609 1.400391,0.599609 C 36.800391,20.999609 37,21.466667 37,22 l 0,4 c 0,0.566667 -0.199609,1.049219 -0.599609,1.449219 C 36.000391,27.815885 35.533333,28 35,28 l -7,0 0,7 c 0,0.566667 -0.199609,1.049219 -0.599609,1.449219 C 27.000391,36.815885 26.533333,37 26,37 l -4,0 C 21.433333,37 20.950781,36.815885 20.550781,36.449219 20.184115,36.049219 20,35.566667 20,35 l 0,-7 -7,0 C 12.433333,28 11.950781,27.815885 11.550781,27.449219 11.184115,27.049219 11,26.566667 11,26 l 0,-3.949219 c 0,-0.566666 0.184115,-1.051172 0.550781,-1.451172 C 11.950781,20.199609 12.433333,20 13,20 l 7,0 0,-6.949219 c 0,-0.566666 0.184115,-1.051172 0.550781,-1.451172 C 20.950781,11.199609 21.433333,11 22,11 Z" inkscape:connector-curvature="0"/>
  </g>
  </svg>