<svg xmlns:dc="http://purl.org/dc/elements/1.1/" xmlns:cc="http://creativecommons.org/ns#" xmlns:rdf="http://www.w3.org/1999/02/22-rdf-syntax-ns#" xmlns:svg="http://www.w3.org/2000/svg" xmlns="http://www.w3.org/2000/svg" xmlns:sodipodi="http://sodipodi.sourceforge.net/DTD/sodipodi-0.dtd" xmlns:inkscape="http://www.inkscape.org/namespaces/inkscape" width="48" height="48" id="svg5057" version="1.1" inkscape:version="0.91 r13725" viewBox="0 0 48 48" sodipodi:docname="all_icons.tar">
  <defs id="defs5059"/>
  <sodipodi:namedview id="base" pagecolor="#ffffff" bordercolor="#666666" borderopacity="1.0" inkscape:pageopacity="0.0" inkscape:pageshadow="2" inkscape:zoom="5.3607533" inkscape:cx="17.083968" inkscape:cy="9.574371" inkscape:current-layer="layer36" showgrid="true" inkscape:grid-bbox="true" inkscape:document-units="px" inkscape:window-width="1680" inkscape:window-height="988" inkscape:window-x="-8" inkscape:window-y="-8" inkscape:window-maximized="1" showguides="true">
    <inkscape:grid type="xygrid" id="grid6922"/>
  </sodipodi:namedview>
  <metadata id="metadata5062">
    <rdf:RDF>
      <cc:Work rdf:about="">
        <dc:format>image/svg+xml</dc:format>
        <dc:type rdf:resource="http://purl.org/dc/dcmitype/StillImage"/>
        <dc:title/>
      </cc:Work>
    </rdf:RDF>
  </metadata>
  <g inkscape:groupmode="layer" id="layer44" inkscape:label="podium-alt" style="display:inline">
    <path id="path5373" style="fill:#000000;stroke:none" d="m 22,15 0,1.35 1.45,0 0,5.65 1.55,0 0,-7 -3,0 m -5.2,14.1 q 0,-1 -0.7,-1.6 -0.65,-0.5 -1.55,-0.5 -0.9,0 -1.45,0.4 -0.6,0.35 -1.1,1.1 l 1.25,0.75 q 0.6,-0.95 1.2,-0.95 l 0.6,0.2 0.25,0.6 -0.3,0.75 -0.85,0.95 -2,2.05 0,1.15 4.85,0 0,-1.4 -2.75,0 1.25,-1.25 1,-1.25 0.3,-1 M 36,31.7 q 0,-0.75 -0.45,-1.3 -0.45,-0.55 -1.3,-0.7 l 1.45,-1.6 0,-1.1 -4.3,0 0,1.35 2.2,0 -1.35,1.55 0,1.1 0.95,-0.15 q 0.6,0 0.95,0.25 0.35,0.25 0.35,0.7 l -0.3,0.65 -0.8,0.2 q -0.75,0 -1.75,-0.7 L 31,33.2 q 1.2,0.8 2.35,0.8 1.15,0 1.9,-0.6 Q 36,32.8 36,31.7 M 30.4,10.6 Q 31,11.2 31,12 l 0,11 8,0 q 0.8,0 1.4,0.6 0.6,0.6 0.6,1.4 l 0,11 q 0,0.85 -0.6,1.45 Q 39.8,38 39,38 L 9,38 Q 8.15,38 7.55,37.45 7,36.85 7,36 L 7,25.05 Q 7,24.2 7.55,23.6 8.15,23 9,23 l 7,0 0,-10.95 Q 16,11.2 16.55,10.6 17.15,10 18,10 l 11,0 q 0.8,0 1.4,0.6" inkscape:connector-curvature="0"/>
  </g>
  </svg>