<svg xmlns:dc="http://purl.org/dc/elements/1.1/" xmlns:cc="http://creativecommons.org/ns#" xmlns:rdf="http://www.w3.org/1999/02/22-rdf-syntax-ns#" xmlns:svg="http://www.w3.org/2000/svg" xmlns="http://www.w3.org/2000/svg" xmlns:sodipodi="http://sodipodi.sourceforge.net/DTD/sodipodi-0.dtd" xmlns:inkscape="http://www.inkscape.org/namespaces/inkscape" width="48" height="48" id="svg5057" version="1.1" inkscape:version="0.91 r13725" viewBox="0 0 48 48" sodipodi:docname="all_icons.tar">
  <defs id="defs5059"/>
  <sodipodi:namedview id="base" pagecolor="#ffffff" bordercolor="#666666" borderopacity="1.0" inkscape:pageopacity="0.0" inkscape:pageshadow="2" inkscape:zoom="5.3607533" inkscape:cx="17.083968" inkscape:cy="9.574371" inkscape:current-layer="layer36" showgrid="true" inkscape:grid-bbox="true" inkscape:document-units="px" inkscape:window-width="1680" inkscape:window-height="988" inkscape:window-x="-8" inkscape:window-y="-8" inkscape:window-maximized="1" showguides="true">
    <inkscape:grid type="xygrid" id="grid6922"/>
  </sodipodi:namedview>
  <metadata id="metadata5062">
    <rdf:RDF>
      <cc:Work rdf:about="">
        <dc:format>image/svg+xml</dc:format>
        <dc:type rdf:resource="http://purl.org/dc/dcmitype/StillImage"/>
        <dc:title/>
      </cc:Work>
    </rdf:RDF>
  </metadata>
  <g inkscape:groupmode="layer" id="layer154" inkscape:label="pointer" style="display:inline">
    <path style="display:inline;fill:#000000;stroke:none" d="m 33.200514,13.986489 6.8,11.8 q 1.25,2.2 -0.65,5.25 -1.95,3.2 -6,5.55 -4.05,2.3 -7.65,2.4 -3.7,0.2 -4.9,-1.95 l -0.95,-1.55 -7.95,-2.25 q -1.75,-0.35 -2.6500005,-1.9 -0.75,-1.25 -0.5,-2.7 l 0.1,-0.4 0.1,-0.15 q 0.3,-1.1 1.2000005,-1.95 l 0.65,-0.55 q 1.5,-0.8 3.2,-0.35 l -6.0000005,-10.5 q -0.65,-1.15 -0.45,-2.35 l 0.1,-0.6 q 0.4,-1.5 1.7,-2.1999996 l 0.05,-0.1 q 1.3500005,-0.7 2.8500005,-0.4 1.5,0.4 2.3,1.7999996 l 3.15,5.6 0.05,0 q 1.2,-1.1 2.9,-2.05 4.05,-2.3 7.75,-2.5 3.55,-0.05 4.8,2.05" id="path6570" inkscape:connector-curvature="0"/>
  </g>
  </svg>