<svg xmlns:dc="http://purl.org/dc/elements/1.1/" xmlns:cc="http://creativecommons.org/ns#" xmlns:rdf="http://www.w3.org/1999/02/22-rdf-syntax-ns#" xmlns:svg="http://www.w3.org/2000/svg" xmlns="http://www.w3.org/2000/svg" xmlns:sodipodi="http://sodipodi.sourceforge.net/DTD/sodipodi-0.dtd" xmlns:inkscape="http://www.inkscape.org/namespaces/inkscape" width="48" height="48" id="svg5057" version="1.1" inkscape:version="0.91 r13725" viewBox="0 0 48 48" sodipodi:docname="all_icons.tar">
  <defs id="defs5059"/>
  <sodipodi:namedview id="base" pagecolor="#ffffff" bordercolor="#666666" borderopacity="1.0" inkscape:pageopacity="0.0" inkscape:pageshadow="2" inkscape:zoom="5.3607533" inkscape:cx="17.083968" inkscape:cy="9.574371" inkscape:current-layer="layer36" showgrid="true" inkscape:grid-bbox="true" inkscape:document-units="px" inkscape:window-width="1680" inkscape:window-height="988" inkscape:window-x="-8" inkscape:window-y="-8" inkscape:window-maximized="1" showguides="true">
    <inkscape:grid type="xygrid" id="grid6922"/>
  </sodipodi:namedview>
  <metadata id="metadata5062">
    <rdf:RDF>
      <cc:Work rdf:about="">
        <dc:format>image/svg+xml</dc:format>
        <dc:type rdf:resource="http://purl.org/dc/dcmitype/StillImage"/>
        <dc:title/>
      </cc:Work>
    </rdf:RDF>
  </metadata>
  <g inkscape:groupmode="layer" id="layer193" inkscape:label="question-circle-alt" style="display:inline">
    <path id="path7543" style="display:inline;opacity:1;fill:#000000;fill-opacity:1;fill-rule:nonzero;stroke:none" d="m 24,8 c -4.4,0 -8.167448,1.5503906 -11.300781,4.650391 l 0,0.04883 -0.04883,0 C 9.5503906,15.832552 8,19.6 8,24 8,28.433333 9.5658854,32.216276 12.699219,35.349609 15.832552,38.449609 19.6,40 24,40 l 1,0 C 28.966667,39.766667 32.400781,38.216276 35.300781,35.349609 38.434115,32.216276 40,28.433333 40,24 40,19.6 38.434115,15.832552 35.300781,12.699219 32.400781,9.7992188 28.966667,8.2507812 25,8.0507812 L 24,8 Z m 0.191406,5.740234 c 1.816766,0 3.302854,0.491418 4.457032,1.47461 1.17556,1.04731 1.763671,2.480108 1.763671,4.296875 0,0.876324 -0.118405,1.517729 -0.353515,1.923828 l -0.351563,0.673828 0.03125,0 -0.576172,0.865234 -0.0332,0.03125 -0.511718,0.578125 0,0.03125 -1.1875,1.154297 -0.480469,0.544922 -0.191407,0 0,0.03125 0.191407,0 -0.126953,0.162109 -0.06445,0.544922 0,0.384766 0,0.0625 -0.224609,0.513672 -0.578125,0.193359 -3.910156,0 L 21.5,27.013672 C 21.350391,26.864051 21.263563,26.692363 21.242188,26.5 l 0,-1.794922 0.09766,0 c 0.0427,-0.384727 0.127568,-0.694577 0.255859,-0.929687 0.192367,-0.406101 0.620616,-0.960683 1.283203,-1.666016 l 1.730469,-1.732422 0.160156,-0.705078 -0.224609,-0.705078 c -0.106871,-0.149616 -0.256859,-0.214733 -0.449219,-0.193359 -0.192367,0 -0.362103,0.08682 -0.511719,0.257812 l 0,-0.0332 c -0.192366,0.299233 -0.310771,0.695905 -0.353515,1.1875 l -0.289063,0.511719 c -0.149615,0.128242 -0.331186,0.193359 -0.544922,0.193359 l -4.070312,0 -0.384766,-0.128906 -0.289062,-0.289063 -0.06445,-0.480468 c 0.170984,-1.966382 0.86568,-3.493924 2.083984,-4.583985 1.196929,-1.111433 2.702765,-1.667969 4.519531,-1.667969 z m 0.06445,14.748047 c 0.812197,0 1.506893,0.266439 2.083985,0.800781 0.577092,0.555718 0.865234,1.240534 0.865234,2.052735 0,0.812201 -0.288142,1.506894 -0.865234,2.083984 -0.577086,0.555717 -1.271782,0.833985 -2.083985,0.833985 -0.769452,0 -1.430605,-0.278268 -1.986328,-0.833985 -0.55571,-0.555717 -0.833984,-1.250409 -0.833984,-2.083984 0,-0.812201 0.278274,-1.497017 0.833984,-2.052735 0.555723,-0.534342 1.216876,-0.800781 1.986328,-0.800781 z" inkscape:connector-curvature="0"/>
  </g>
  </svg>