<svg xmlns:dc="http://purl.org/dc/elements/1.1/" xmlns:cc="http://creativecommons.org/ns#" xmlns:rdf="http://www.w3.org/1999/02/22-rdf-syntax-ns#" xmlns:svg="http://www.w3.org/2000/svg" xmlns="http://www.w3.org/2000/svg" xmlns:sodipodi="http://sodipodi.sourceforge.net/DTD/sodipodi-0.dtd" xmlns:inkscape="http://www.inkscape.org/namespaces/inkscape" width="48" height="48" id="svg5057" version="1.1" inkscape:version="0.91 r13725" viewBox="0 0 48 48" sodipodi:docname="all_icons.tar">
  <defs id="defs5059"/>
  <sodipodi:namedview id="base" pagecolor="#ffffff" bordercolor="#666666" borderopacity="1.0" inkscape:pageopacity="0.0" inkscape:pageshadow="2" inkscape:zoom="5.3607533" inkscape:cx="17.083968" inkscape:cy="9.574371" inkscape:current-layer="layer36" showgrid="true" inkscape:grid-bbox="true" inkscape:document-units="px" inkscape:window-width="1680" inkscape:window-height="988" inkscape:window-x="-8" inkscape:window-y="-8" inkscape:window-maximized="1" showguides="true">
    <inkscape:grid type="xygrid" id="grid6922"/>
  </sodipodi:namedview>
  <metadata id="metadata5062">
    <rdf:RDF>
      <cc:Work rdf:about="">
        <dc:format>image/svg+xml</dc:format>
        <dc:type rdf:resource="http://purl.org/dc/dcmitype/StillImage"/>
        <dc:title/>
      </cc:Work>
    </rdf:RDF>
  </metadata>
  <g inkscape:groupmode="layer" id="layer60" inkscape:label="question" style="display:inline">
    <path id="path5365" style="fill:#000000;stroke:none" d="m 24.4,31 q 1.9,0 3.25,1.25 1.35,1.3 1.35,3.2 0,1.9 -1.35,3.25 Q 26.3,40 24.4,40 22.6,40 21.3,38.7 20,37.4 20,35.45 20,33.55 21.3,32.25 22.6,31 24.4,31 M 22.35,18.85 q -0.35,0.3 -0.85,0.3 l -6.35,0 -0.6,-0.2 L 14.1,18.5 14,17.75 Q 14.4,13.15 17.25,10.6 20.05,8 24.3,8 28.55,8 31.25,10.3 34,12.75 34,17 q 0,2.05 -0.55,3 l -0.55,1.05 0.05,0 -0.9,1.35 -0.05,0.05 -0.8,0.9 0,0.05 -1.85,1.8 -0.75,0.85 -0.3,0 0,0.05 0.3,0 -0.2,0.25 -0.1,0.85 0,0.6 0,0.1 -0.35,0.8 -0.9,0.3 -6.1,0 -0.85,-0.3 q -0.35,-0.35 -0.4,-0.8 l 0,-2.8 0.15,0 q 0.1,-0.9 0.4,-1.45 0.45,-0.95 2,-2.6 l 2.7,-2.7 0.25,-1.1 -0.35,-1.1 q -0.25,-0.35 -0.7,-0.3 -0.45,0 -0.8,0.4 l 0,-0.05 q -0.45,0.7 -0.55,1.85 l -0.45,0.8" inkscape:connector-curvature="0"/>
  </g>
  </svg>