<svg xmlns:dc="http://purl.org/dc/elements/1.1/" xmlns:cc="http://creativecommons.org/ns#" xmlns:rdf="http://www.w3.org/1999/02/22-rdf-syntax-ns#" xmlns:svg="http://www.w3.org/2000/svg" xmlns="http://www.w3.org/2000/svg" xmlns:sodipodi="http://sodipodi.sourceforge.net/DTD/sodipodi-0.dtd" xmlns:inkscape="http://www.inkscape.org/namespaces/inkscape" width="48" height="48" id="svg5057" version="1.1" inkscape:version="0.91 r13725" viewBox="0 0 48 48" sodipodi:docname="all_icons.tar">
  <defs id="defs5059"/>
  <sodipodi:namedview id="base" pagecolor="#ffffff" bordercolor="#666666" borderopacity="1.0" inkscape:pageopacity="0.0" inkscape:pageshadow="2" inkscape:zoom="5.3607533" inkscape:cx="17.083968" inkscape:cy="9.574371" inkscape:current-layer="layer36" showgrid="true" inkscape:grid-bbox="true" inkscape:document-units="px" inkscape:window-width="1680" inkscape:window-height="988" inkscape:window-x="-8" inkscape:window-y="-8" inkscape:window-maximized="1" showguides="true">
    <inkscape:grid type="xygrid" id="grid6922"/>
  </sodipodi:namedview>
  <metadata id="metadata5062">
    <rdf:RDF>
      <cc:Work rdf:about="">
        <dc:format>image/svg+xml</dc:format>
        <dc:type rdf:resource="http://purl.org/dc/dcmitype/StillImage"/>
        <dc:title/>
      </cc:Work>
    </rdf:RDF>
  </metadata>
  <g inkscape:groupmode="layer" id="layer4" inkscape:label="question-circle" style="display:inline">
    <path id="path7533" style="fill:#000000;fill-rule:nonzero;stroke:none" d="M 24,3 C 18.166667,3 13.199609,5.0329427 9.0996094,9.0996094 5.0329427,13.232943 3,18.2 3,24 3,29.833333 5.0329427,34.782943 9.0996094,38.849609 13.199609,42.949609 18.166667,45 24,45 29.8,45 34.734115,42.949609 38.800781,38.849609 42.934115,34.782943 45,29.833333 45,24 45,18.2 42.934115,13.232943 38.800781,9.0996094 34.734115,5.0329427 29.8,3 24,3 Z m 0.300781,5 C 27.134115,8 29.45,8.7674479 31.25,10.300781 33.083333,11.934115 34,14.166667 34,17 c 0,1.366667 -0.184115,2.366667 -0.550781,3 l -0.548828,1.050781 0.04883,0 -0.898438,1.34961 -0.05078,0.04883 -0.800781,0.90039 0,0.05078 -1.84961,1.798828 -0.75,0.851562 -0.298828,0 0,0.04883 0.298828,0 -0.199218,0.25 -0.09961,0.84961 0,0.601562 0,0.09961 -0.351562,0.798828 L 27.050781,29 l -6.101562,0 -0.84961,-0.300781 c -0.233333,-0.233334 -0.367057,-0.498828 -0.40039,-0.798828 l 0,-2.800782 0.15039,0 c 0.06667,-0.6 0.200391,-1.082552 0.400391,-1.449218 0.3,-0.633334 0.966667,-1.49961 2,-2.59961 l 2.699219,-2.701172 0.25,-1.099609 -0.34961,-1.099609 c -0.166666,-0.233334 -0.399218,-0.334115 -0.699218,-0.300782 -0.3,0 -0.567448,0.133724 -0.800782,0.400391 l 0,-0.05078 c -0.3,0.466666 -0.482161,1.084896 -0.548828,1.851562 l -0.451172,0.798828 c -0.233333,0.2 -0.516276,0.300782 -0.849609,0.300782 l -6.349609,0 L 14.550781,18.94922 14.099609,18.5 14,17.75 c 0.266667,-3.066667 1.35,-5.450391 3.25,-7.150391 C 19.116667,8.866276 21.467448,8 24.300781,8 Z m -0.40039,23 c 1.266666,0 2.35,0.416667 3.25,1.25 0.9,0.866667 1.349609,1.932552 1.349609,3.199219 0,1.266666 -0.449609,2.35 -1.349609,3.25 -0.9,0.866666 -1.983334,1.300781 -3.25,1.300781 -1.2,0 -2.232943,-0.434115 -3.09961,-1.300781 -0.866666,-0.866667 -1.300781,-1.95 -1.300781,-3.25 0,-1.266667 0.434115,-2.332552 1.300781,-3.199219 0.866667,-0.833333 1.89961,-1.25 3.09961,-1.25 z" inkscape:connector-curvature="0"/>
  </g>
  </svg>