<svg xmlns:dc="http://purl.org/dc/elements/1.1/" xmlns:cc="http://creativecommons.org/ns#" xmlns:rdf="http://www.w3.org/1999/02/22-rdf-syntax-ns#" xmlns:svg="http://www.w3.org/2000/svg" xmlns="http://www.w3.org/2000/svg" xmlns:sodipodi="http://sodipodi.sourceforge.net/DTD/sodipodi-0.dtd" xmlns:inkscape="http://www.inkscape.org/namespaces/inkscape" width="48" height="48" id="svg5057" version="1.1" inkscape:version="0.91 r13725" viewBox="0 0 48 48" sodipodi:docname="all_icons.tar">
  <defs id="defs5059"/>
  <sodipodi:namedview id="base" pagecolor="#ffffff" bordercolor="#666666" borderopacity="1.0" inkscape:pageopacity="0.0" inkscape:pageshadow="2" inkscape:zoom="5.3607533" inkscape:cx="17.083968" inkscape:cy="9.574371" inkscape:current-layer="layer36" showgrid="true" inkscape:grid-bbox="true" inkscape:document-units="px" inkscape:window-width="1680" inkscape:window-height="988" inkscape:window-x="-8" inkscape:window-y="-8" inkscape:window-maximized="1" showguides="true">
    <inkscape:grid type="xygrid" id="grid6922"/>
  </sodipodi:namedview>
  <metadata id="metadata5062">
    <rdf:RDF>
      <cc:Work rdf:about="">
        <dc:format>image/svg+xml</dc:format>
        <dc:type rdf:resource="http://purl.org/dc/dcmitype/StillImage"/>
        <dc:title/>
      </cc:Work>
    </rdf:RDF>
  </metadata>
  <g inkscape:groupmode="layer" id="layer39" inkscape:label="reload" style="display:inline">
    <path style="fill:#000000;stroke:none" d="m 36.92573,16.150837 1.05,1.95 0.05,0.1 q 3.15,6.25 -0.55,12.75 -3.7,6.8 -11.05,7.05 -0.6,0.05 -1.1,-0.35 -0.45,-0.4 -0.5,-1.05 -0.55,-3.6 -0.45,-5.3 0.05,-0.6 0.4,-1.05 0.4,-0.45 1.05,-0.45 3.05,-0.25 4.6,-2.85 l -0.05,0.05 q 1.5,-2.5 0.4,-5 -1.45,-3.4 -4.9,-3.6 l -0.05,0 q -2.45,-0.05 -4.2,1.7 2.45,1.4 3.45,2.3 0.4,0.35 0.5,0.85 l -0.05,1 -0.7,0.75 -13.9,8.05 -1.1000001,0.15 q -0.55,-0.05 -0.95,-0.5 l -0.35,-1 0.05,-16.3 0.2,-0.85 0.6,-0.6 0.05,-0.05 0.7500001,-0.2 0.75,0.2 3.5,2 q 1.9,-2.55 4.25,-3.9 l 0,-0.05 q 4.75,-2.8500003 9.9,-1.55 4.95,1.2 8.2,5.6 l 0.15,0.15" id="path5225" inkscape:connector-curvature="0"/>
  </g>
  </svg>