<svg xmlns:dc="http://purl.org/dc/elements/1.1/" xmlns:cc="http://creativecommons.org/ns#" xmlns:rdf="http://www.w3.org/1999/02/22-rdf-syntax-ns#" xmlns:svg="http://www.w3.org/2000/svg" xmlns="http://www.w3.org/2000/svg" xmlns:sodipodi="http://sodipodi.sourceforge.net/DTD/sodipodi-0.dtd" xmlns:inkscape="http://www.inkscape.org/namespaces/inkscape" width="48" height="48" id="svg5057" version="1.1" inkscape:version="0.91 r13725" viewBox="0 0 48 48" sodipodi:docname="all_icons.tar">
  <defs id="defs5059"/>
  <sodipodi:namedview id="base" pagecolor="#ffffff" bordercolor="#666666" borderopacity="1.0" inkscape:pageopacity="0.0" inkscape:pageshadow="2" inkscape:zoom="5.3607533" inkscape:cx="17.083968" inkscape:cy="9.574371" inkscape:current-layer="layer36" showgrid="true" inkscape:grid-bbox="true" inkscape:document-units="px" inkscape:window-width="1680" inkscape:window-height="988" inkscape:window-x="-8" inkscape:window-y="-8" inkscape:window-maximized="1" showguides="true">
    <inkscape:grid type="xygrid" id="grid6922"/>
  </sodipodi:namedview>
  <metadata id="metadata5062">
    <rdf:RDF>
      <cc:Work rdf:about="">
        <dc:format>image/svg+xml</dc:format>
        <dc:type rdf:resource="http://purl.org/dc/dcmitype/StillImage"/>
        <dc:title/>
      </cc:Work>
    </rdf:RDF>
  </metadata>
  <g inkscape:groupmode="layer" id="layer128" inkscape:label="robot" style="display:inline">
    <path id="path6550" style="display:inline;fill:#000000;stroke:none" d="m 18,20 12,0 0,-12 -12,0 0,12 m 16,2 q 0,0.85 -0.6,1.45 Q 32.8,24 32,24 l -2.4,0 -0.25,0.25 q 2.5,1.05 4.55,3 4.1,3.95 4.1,9.6 0,3 -4.1,5.05 Q 29.85,44 24,44 18.2,44 14.1,41.9 10.05,39.85 10,36.85 q 0,-5.65 4.1,-9.6 2.05,-1.95 4.55,-3 L 18.4,24 16,24 Q 15.15,24 14.55,23.45 14,22.85 14,22 L 14,6.05 Q 14,5.2 14.55,4.6 15.15,4 16,4 L 32,4 Q 32.8,4 33.4,4.6 34,5.2 34,6 l 0,16" inkscape:connector-curvature="0"/>
  </g>
  </svg>