<svg xmlns:dc="http://purl.org/dc/elements/1.1/" xmlns:cc="http://creativecommons.org/ns#" xmlns:rdf="http://www.w3.org/1999/02/22-rdf-syntax-ns#" xmlns:svg="http://www.w3.org/2000/svg" xmlns="http://www.w3.org/2000/svg" xmlns:sodipodi="http://sodipodi.sourceforge.net/DTD/sodipodi-0.dtd" xmlns:inkscape="http://www.inkscape.org/namespaces/inkscape" width="48" height="48" id="svg5057" version="1.1" inkscape:version="0.91 r13725" viewBox="0 0 48 48" sodipodi:docname="all_icons.tar">
  <defs id="defs5059"/>
  <sodipodi:namedview id="base" pagecolor="#ffffff" bordercolor="#666666" borderopacity="1.0" inkscape:pageopacity="0.0" inkscape:pageshadow="2" inkscape:zoom="5.3607533" inkscape:cx="17.083968" inkscape:cy="9.574371" inkscape:current-layer="layer36" showgrid="true" inkscape:grid-bbox="true" inkscape:document-units="px" inkscape:window-width="1680" inkscape:window-height="988" inkscape:window-x="-8" inkscape:window-y="-8" inkscape:window-maximized="1" showguides="true">
    <inkscape:grid type="xygrid" id="grid6922"/>
  </sodipodi:namedview>
  <metadata id="metadata5062">
    <rdf:RDF>
      <cc:Work rdf:about="">
        <dc:format>image/svg+xml</dc:format>
        <dc:type rdf:resource="http://purl.org/dc/dcmitype/StillImage"/>
        <dc:title/>
      </cc:Work>
    </rdf:RDF>
  </metadata>
  <g inkscape:groupmode="layer" id="layer30" inkscape:label="search-plus" style="display:inline">
    <path id="path5413" style="fill:#000000;stroke:none" d="m 14.325,14.275 -0.05,0.05 q -2.25,2.3 -2.25,5.65 0,3.25 2.3,5.55 2.3,2.25 5.55,2.3 l 0.1,0 q 3.3,0 5.55,-2.3 l 0.05,0 q 2.3,-2.3 2.3,-5.55 l 0,-0.15 q -0.05,-3.25 -2.3,-5.5 l 0,-0.05 q -2.3,-2.25 -5.6,-2.25 -3.3,0 -5.65,2.25 m 20.1,25.8 -0.75,-0.05 q -1.8,-0.25 -3.25,-1.6 l -6.75,-6.85 0.4,0.45 -0.55,-0.55 -3.55,0.45 q -5,0 -8.55,-3.5 -3.45,-3.5 -3.45,-8.45 0,-5 3.45,-8.55 3.6,-3.5 8.55,-3.5 5.05,0 8.5,3.5 3.5,3.5 3.5,8.55 0,1.85 -0.45,3.5 l 1.3,1.35 0.3,0.3 0.35,0.35 4.9,4.9 q 1.6,1.7 1.65,3.95 l 0,0.25 q -0.05,2.25 -1.65,3.8 -1.35,1.4 -3.15,1.65 l -0.8,0.05 m -16.4,-24.05 4,0 0,2 2,0 0,4 -2,0 0,2 -4,0 0,-2 -2,0 0,-4 2,0 0,-2" inkscape:connector-curvature="0"/>
  </g>
  </svg>