<svg xmlns:dc="http://purl.org/dc/elements/1.1/" xmlns:cc="http://creativecommons.org/ns#" xmlns:rdf="http://www.w3.org/1999/02/22-rdf-syntax-ns#" xmlns:svg="http://www.w3.org/2000/svg" xmlns="http://www.w3.org/2000/svg" xmlns:sodipodi="http://sodipodi.sourceforge.net/DTD/sodipodi-0.dtd" xmlns:inkscape="http://www.inkscape.org/namespaces/inkscape" width="48" height="48" id="svg5057" version="1.1" inkscape:version="0.91 r13725" viewBox="0 0 48 48" sodipodi:docname="all_icons.tar">
  <defs id="defs5059"/>
  <sodipodi:namedview id="base" pagecolor="#ffffff" bordercolor="#666666" borderopacity="1.0" inkscape:pageopacity="0.0" inkscape:pageshadow="2" inkscape:zoom="5.3607533" inkscape:cx="17.083968" inkscape:cy="9.574371" inkscape:current-layer="layer36" showgrid="true" inkscape:grid-bbox="true" inkscape:document-units="px" inkscape:window-width="1680" inkscape:window-height="988" inkscape:window-x="-8" inkscape:window-y="-8" inkscape:window-maximized="1" showguides="true">
    <inkscape:grid type="xygrid" id="grid6922"/>
  </sodipodi:namedview>
  <metadata id="metadata5062">
    <rdf:RDF>
      <cc:Work rdf:about="">
        <dc:format>image/svg+xml</dc:format>
        <dc:type rdf:resource="http://purl.org/dc/dcmitype/StillImage"/>
        <dc:title/>
      </cc:Work>
    </rdf:RDF>
  </metadata>
  <g inkscape:groupmode="layer" id="layer93" inkscape:label="shopping-case" style="display:inline">
    <path id="path5299" style="fill:#000000;stroke:none" d="m 12.385417,39.175 q -0.55,-0.35 -0.6,-0.85 l -2.4500003,-13 q -0.15,-0.7 0.3,-1.25 0.5000003,-0.55 1.3500003,-0.55 l 26,0 q 0.8,0 1.3,0.55 0.5,0.55 0.4,1.2 l -2.45,13.05 -0.65,0.85 q -0.55,0.35 -1.2,0.35 l -20.8,0 -1.2,-0.35 m 17.7,-29.8 7,7 q 0.85,0.85 0.85,2.1 0,1.25 -0.85,2.15 -0.9,0.85 -2.15,0.85 -1.25,0 -2.1,-0.85 l -7,-7 q -0.9,-0.9 -0.9,-2.15 0,-1.25 0.9,-2.1 0.85,-0.9 2.1,-0.9 1.25,0 2.15,0.9 m -7.15,2.1 q 0,1.25 -0.85,2.15 l -7,7 q -0.9,0.85 -2.15,0.85 -1.25,0 -2.1,-0.85 -0.9000003,-0.9 -0.9000003,-2.15 0,-1.25 0.9000003,-2.1 l 7,-7 q 0.85,-0.9 2.1,-0.9 1.25,0 2.15,0.9 0.85,0.85 0.85,2.1" inkscape:connector-curvature="0"/>
  </g>
  </svg>