<svg xmlns:dc="http://purl.org/dc/elements/1.1/" xmlns:cc="http://creativecommons.org/ns#" xmlns:rdf="http://www.w3.org/1999/02/22-rdf-syntax-ns#" xmlns:svg="http://www.w3.org/2000/svg" xmlns="http://www.w3.org/2000/svg" xmlns:sodipodi="http://sodipodi.sourceforge.net/DTD/sodipodi-0.dtd" xmlns:inkscape="http://www.inkscape.org/namespaces/inkscape" width="48" height="48" id="svg5057" version="1.1" inkscape:version="0.91 r13725" viewBox="0 0 48 48" sodipodi:docname="all_icons.tar">
  <defs id="defs5059"/>
  <sodipodi:namedview id="base" pagecolor="#ffffff" bordercolor="#666666" borderopacity="1.0" inkscape:pageopacity="0.0" inkscape:pageshadow="2" inkscape:zoom="5.3607533" inkscape:cx="17.083968" inkscape:cy="9.574371" inkscape:current-layer="layer36" showgrid="true" inkscape:grid-bbox="true" inkscape:document-units="px" inkscape:window-width="1680" inkscape:window-height="988" inkscape:window-x="-8" inkscape:window-y="-8" inkscape:window-maximized="1" showguides="true">
    <inkscape:grid type="xygrid" id="grid6922"/>
  </sodipodi:namedview>
  <metadata id="metadata5062">
    <rdf:RDF>
      <cc:Work rdf:about="">
        <dc:format>image/svg+xml</dc:format>
        <dc:type rdf:resource="http://purl.org/dc/dcmitype/StillImage"/>
        <dc:title/>
      </cc:Work>
    </rdf:RDF>
  </metadata>
  <g inkscape:groupmode="layer" id="layer92" inkscape:label="shopping-cart" style="display:inline">
    <path id="path5305" style="fill:#000000;stroke:none" d="m 29.634615,35.025 q 0,-1.65 1.15,-2.85 1.2,-1.15 2.85,-1.15 1.65,0 2.8,1.15 1.2,1.2 1.2,2.85 0,1.65 -1.2,2.8 -1.15,1.2 -2.8,1.2 -1.65,0 -2.85,-1.2 -1.15,-1.15 -1.15,-2.8 m -14,0 q 0,-1.65 1.15,-2.85 1.2,-1.15 2.85,-1.15 1.65,0 2.8,1.15 1.2,1.2 1.2,2.85 0,1.65 -1.2,2.8 -1.15,1.2 -2.8,1.2 -1.65,0 -2.85,-1.2 -1.15,-1.15 -1.15,-2.8 m 23.75,-24.85 0.05,0.05 q 1.1,1.2 0.9,2.85 l 0,0.1 -2.5,13.25 -0.05,0.05 q -0.2,1.2 -1.5,2.05 l -0.15,0.05 -2,0.45 -15,0 q -1.25,0 -2.05,-0.5 l -0.05,0 q -1.35,-0.85 -1.55,-2.05 l 0,-0.05 -2.3,-12.45 -4.5499996,0 q -0.4,0 -0.7,-0.3 -0.3,-0.3 -0.3,-0.7 l 0,-2.9 0,-0.1 q 0,-0.4 0.3,-0.7 0.3,-0.3 0.7,-0.3 l 11.9499996,0 0.3,0.05 15.75,0 q 1.65,0 2.75,1.15" inkscape:connector-curvature="0"/>
  </g>
  </svg>