<svg xmlns:dc="http://purl.org/dc/elements/1.1/" xmlns:cc="http://creativecommons.org/ns#" xmlns:rdf="http://www.w3.org/1999/02/22-rdf-syntax-ns#" xmlns:svg="http://www.w3.org/2000/svg" xmlns="http://www.w3.org/2000/svg" xmlns:sodipodi="http://sodipodi.sourceforge.net/DTD/sodipodi-0.dtd" xmlns:inkscape="http://www.inkscape.org/namespaces/inkscape" width="48" height="48" id="svg5057" version="1.1" inkscape:version="0.91 r13725" viewBox="0 0 48 48" sodipodi:docname="all_icons.tar">
  <defs id="defs5059"/>
  <sodipodi:namedview id="base" pagecolor="#ffffff" bordercolor="#666666" borderopacity="1.0" inkscape:pageopacity="0.0" inkscape:pageshadow="2" inkscape:zoom="5.3607533" inkscape:cx="17.083968" inkscape:cy="9.574371" inkscape:current-layer="layer36" showgrid="true" inkscape:grid-bbox="true" inkscape:document-units="px" inkscape:window-width="1680" inkscape:window-height="988" inkscape:window-x="-8" inkscape:window-y="-8" inkscape:window-maximized="1" showguides="true">
    <inkscape:grid type="xygrid" id="grid6922"/>
  </sodipodi:namedview>
  <metadata id="metadata5062">
    <rdf:RDF>
      <cc:Work rdf:about="">
        <dc:format>image/svg+xml</dc:format>
        <dc:type rdf:resource="http://purl.org/dc/dcmitype/StillImage"/>
        <dc:title/>
      </cc:Work>
    </rdf:RDF>
  </metadata>
  <g inkscape:groupmode="layer" id="layer195" inkscape:label="sign-in" style="display:inline">
    <path id="path7108-7-4" style="display:inline;opacity:1;fill:#000000;stroke:none" d="m 32.499997,24 -0.3,0.7 -10,10 -0.7,0.3 -4,0 -0.700001,-0.3 -0.299999,-0.7 0,-5 L 9.5,29 Q 9.1,29 8.8,28.7 8.5,28.4 8.5,28 l 0,-8 Q 8.5,19.6 8.8,19.3 9.1,19 9.5,19 l 6.999997,0 0,-5 q 0,-0.4 0.299999,-0.7 0.3,-0.3 0.700001,-0.3 l 4,0 q 0.4,0 0.7,0.3 l 10,10 0.3,0.7 M 38.95,10.6 q 0.55,0.6 0.55,1.45 l 0,23.95 q 0,0.85 -0.55,1.45 Q 38.35,38 37.5,38 l -10,0 0,-4 8,0 0,-20 -8,0 0,-4 10,0 q 0.85,0 1.45,0.6" inkscape:connector-curvature="0"/>
  </g>
  </svg>