<svg xmlns:dc="http://purl.org/dc/elements/1.1/" xmlns:cc="http://creativecommons.org/ns#" xmlns:rdf="http://www.w3.org/1999/02/22-rdf-syntax-ns#" xmlns:svg="http://www.w3.org/2000/svg" xmlns="http://www.w3.org/2000/svg" xmlns:sodipodi="http://sodipodi.sourceforge.net/DTD/sodipodi-0.dtd" xmlns:inkscape="http://www.inkscape.org/namespaces/inkscape" width="48" height="48" id="svg5057" version="1.1" inkscape:version="0.91 r13725" viewBox="0 0 48 48" sodipodi:docname="all_icons.tar">
  <defs id="defs5059"/>
  <sodipodi:namedview id="base" pagecolor="#ffffff" bordercolor="#666666" borderopacity="1.0" inkscape:pageopacity="0.0" inkscape:pageshadow="2" inkscape:zoom="5.3607533" inkscape:cx="17.083968" inkscape:cy="9.574371" inkscape:current-layer="layer36" showgrid="true" inkscape:grid-bbox="true" inkscape:document-units="px" inkscape:window-width="1680" inkscape:window-height="988" inkscape:window-x="-8" inkscape:window-y="-8" inkscape:window-maximized="1" showguides="true">
    <inkscape:grid type="xygrid" id="grid6922"/>
  </sodipodi:namedview>
  <metadata id="metadata5062">
    <rdf:RDF>
      <cc:Work rdf:about="">
        <dc:format>image/svg+xml</dc:format>
        <dc:type rdf:resource="http://purl.org/dc/dcmitype/StillImage"/>
        <dc:title/>
      </cc:Work>
    </rdf:RDF>
  </metadata>
  <g inkscape:groupmode="layer" id="layer14" inkscape:label="sort-vertical" style="display:inline">
    <path id="path5423" style="fill:#000000;stroke:none" d="M 11,26 Q 11,25.6 11.3,25.3 11.6,25 12,25 l 24,0 q 0.4,0 0.7,0.3 l 0.3,0.7 -0.3,0.7 -12,12 -0.7,0.3 -0.7,-0.3 -12,-12 Q 11,26.4 11,26 M 36.7,21.3 37,22 36.7,22.7 36,23 12,23 11.3,22.7 Q 11,22.4 11,22 q 0,-0.4 0.3,-0.7 l 12,-12 Q 23.6,9 24,9 q 0.4,0 0.7,0.3 l 12,12" inkscape:connector-curvature="0"/>
  </g>
  </svg>