<svg xmlns:dc="http://purl.org/dc/elements/1.1/" xmlns:cc="http://creativecommons.org/ns#" xmlns:rdf="http://www.w3.org/1999/02/22-rdf-syntax-ns#" xmlns:svg="http://www.w3.org/2000/svg" xmlns="http://www.w3.org/2000/svg" xmlns:sodipodi="http://sodipodi.sourceforge.net/DTD/sodipodi-0.dtd" xmlns:inkscape="http://www.inkscape.org/namespaces/inkscape" width="48" height="48" id="svg5057" version="1.1" inkscape:version="0.91 r13725" viewBox="0 0 48 48" sodipodi:docname="all_icons.tar">
  <defs id="defs5059"/>
  <sodipodi:namedview id="base" pagecolor="#ffffff" bordercolor="#666666" borderopacity="1.0" inkscape:pageopacity="0.0" inkscape:pageshadow="2" inkscape:zoom="5.3607533" inkscape:cx="17.083968" inkscape:cy="9.574371" inkscape:current-layer="layer36" showgrid="true" inkscape:grid-bbox="true" inkscape:document-units="px" inkscape:window-width="1680" inkscape:window-height="988" inkscape:window-x="-8" inkscape:window-y="-8" inkscape:window-maximized="1" showguides="true">
    <inkscape:grid type="xygrid" id="grid6922"/>
  </sodipodi:namedview>
  <metadata id="metadata5062">
    <rdf:RDF>
      <cc:Work rdf:about="">
        <dc:format>image/svg+xml</dc:format>
        <dc:type rdf:resource="http://purl.org/dc/dcmitype/StillImage"/>
        <dc:title/>
      </cc:Work>
    </rdf:RDF>
  </metadata>
  <g inkscape:groupmode="layer" id="layer15" inkscape:label="sort-horizontal" style="display:inline">
    <path id="path5427" style="fill:#000000;stroke:none" d="m 22,11 q 0.4,0 0.7,0.3 L 23,12 23,36 22.7,36.7 22,37 q -0.4,0 -0.7,-0.3 l -12,-12 Q 9,24.4 9,24 9,23.6 9.3,23.3 l 12,-12 Q 21.6,11 22,11 m 17,13 -0.3,0.7 -12,12 L 26,37 Q 25.6,37 25.3,36.7 25,36.4 25,36 l 0,-24 q 0,-0.4 0.3,-0.7 0.3,-0.3 0.7,-0.3 0.4,0 0.7,0.3 l 12,12 0.3,0.7" inkscape:connector-curvature="0"/>
  </g>
  </svg>