<svg xmlns:dc="http://purl.org/dc/elements/1.1/" xmlns:cc="http://creativecommons.org/ns#" xmlns:rdf="http://www.w3.org/1999/02/22-rdf-syntax-ns#" xmlns:svg="http://www.w3.org/2000/svg" xmlns="http://www.w3.org/2000/svg" xmlns:sodipodi="http://sodipodi.sourceforge.net/DTD/sodipodi-0.dtd" xmlns:inkscape="http://www.inkscape.org/namespaces/inkscape" width="48" height="48" id="svg5057" version="1.1" inkscape:version="0.91 r13725" viewBox="0 0 48 48" sodipodi:docname="all_icons.tar">
  <defs id="defs5059"/>
  <sodipodi:namedview id="base" pagecolor="#ffffff" bordercolor="#666666" borderopacity="1.0" inkscape:pageopacity="0.0" inkscape:pageshadow="2" inkscape:zoom="5.3607533" inkscape:cx="17.083968" inkscape:cy="9.574371" inkscape:current-layer="layer36" showgrid="true" inkscape:grid-bbox="true" inkscape:document-units="px" inkscape:window-width="1680" inkscape:window-height="988" inkscape:window-x="-8" inkscape:window-y="-8" inkscape:window-maximized="1" showguides="true">
    <inkscape:grid type="xygrid" id="grid6922"/>
  </sodipodi:namedview>
  <metadata id="metadata5062">
    <rdf:RDF>
      <cc:Work rdf:about="">
        <dc:format>image/svg+xml</dc:format>
        <dc:type rdf:resource="http://purl.org/dc/dcmitype/StillImage"/>
        <dc:title/>
      </cc:Work>
    </rdf:RDF>
  </metadata>
  <g inkscape:groupmode="layer" id="layer71" inkscape:label="step-forward" style="display:inline">
    <path style="fill:#000000;stroke:none" d="M 37.4,8.6 Q 38,9.2 38,10 l 0,28 q 0,0.85 -0.6,1.45 Q 36.8,40 36,40 l -4,0 Q 31.15,40 30.55,39.45 30,38.85 30,38 L 30,24 14,40 12,40 Q 11.15,40 10.55,39.45 10,38.85 10,38 L 10,10.05 Q 10,9.2 10.55,8.6 11.15,8 12,8 l 2,0 16,16 0,-13.95 Q 30,9.2 30.55,8.6 31.15,8 32,8 l 4,0 q 0.8,0 1.4,0.6" id="path5113" inkscape:connector-curvature="0"/>
  </g>
  </svg>