<svg xmlns:dc="http://purl.org/dc/elements/1.1/" xmlns:cc="http://creativecommons.org/ns#" xmlns:rdf="http://www.w3.org/1999/02/22-rdf-syntax-ns#" xmlns:svg="http://www.w3.org/2000/svg" xmlns="http://www.w3.org/2000/svg" xmlns:sodipodi="http://sodipodi.sourceforge.net/DTD/sodipodi-0.dtd" xmlns:inkscape="http://www.inkscape.org/namespaces/inkscape" width="48" height="48" id="svg5057" version="1.1" inkscape:version="0.91 r13725" viewBox="0 0 48 48" sodipodi:docname="all_icons.tar">
  <defs id="defs5059"/>
  <sodipodi:namedview id="base" pagecolor="#ffffff" bordercolor="#666666" borderopacity="1.0" inkscape:pageopacity="0.0" inkscape:pageshadow="2" inkscape:zoom="5.3607533" inkscape:cx="17.083968" inkscape:cy="9.574371" inkscape:current-layer="layer36" showgrid="true" inkscape:grid-bbox="true" inkscape:document-units="px" inkscape:window-width="1680" inkscape:window-height="988" inkscape:window-x="-8" inkscape:window-y="-8" inkscape:window-maximized="1" showguides="true">
    <inkscape:grid type="xygrid" id="grid6922"/>
  </sodipodi:namedview>
  <metadata id="metadata5062">
    <rdf:RDF>
      <cc:Work rdf:about="">
        <dc:format>image/svg+xml</dc:format>
        <dc:type rdf:resource="http://purl.org/dc/dcmitype/StillImage"/>
        <dc:title/>
      </cc:Work>
    </rdf:RDF>
  </metadata>
  <g inkscape:groupmode="layer" id="layer174" inkscape:label="stick-move-lt" style="display:inline;opacity:1">
    <path style="display:inline;fill:#000000;stroke:none" d="m 21.5,4.939999 2.55,-0.15 0,-3 6,5 -6,5.000001 0,-3.000001 q -6.3,0 -10.7,4.450001 -3.75,3.65 -4.3,8.7 l 3,0 0,1.75 q 0.1,-4.85 3.5,-8.25 3.5,-3.5 8.5,-3.5 5,0 8.5,3.5 3.5,3.5 3.5,8.5 0,5 -3.5,8.5 -3.5,3.5 -8.5,3.5 -5,0 -8.5,-3.5 -3.4,-3.4 -3.5,-8.25 l 0,1.75 -7.2,0 0.05,-2 q 0,-8 5.6,-13.55 4.65,-4.700001 11,-5.450001" id="path6422" inkscape:connector-curvature="0"/>
  </g>
  </svg>