<svg xmlns:dc="http://purl.org/dc/elements/1.1/" xmlns:cc="http://creativecommons.org/ns#" xmlns:rdf="http://www.w3.org/1999/02/22-rdf-syntax-ns#" xmlns:svg="http://www.w3.org/2000/svg" xmlns="http://www.w3.org/2000/svg" xmlns:sodipodi="http://sodipodi.sourceforge.net/DTD/sodipodi-0.dtd" xmlns:inkscape="http://www.inkscape.org/namespaces/inkscape" width="48" height="48" id="svg5057" version="1.1" inkscape:version="0.91 r13725" viewBox="0 0 48 48" sodipodi:docname="all_icons.tar">
  <defs id="defs5059"/>
  <sodipodi:namedview id="base" pagecolor="#ffffff" bordercolor="#666666" borderopacity="1.0" inkscape:pageopacity="0.0" inkscape:pageshadow="2" inkscape:zoom="5.3607533" inkscape:cx="17.083968" inkscape:cy="9.574371" inkscape:current-layer="layer36" showgrid="true" inkscape:grid-bbox="true" inkscape:document-units="px" inkscape:window-width="1680" inkscape:window-height="988" inkscape:window-x="-8" inkscape:window-y="-8" inkscape:window-maximized="1" showguides="true">
    <inkscape:grid type="xygrid" id="grid6922"/>
  </sodipodi:namedview>
  <metadata id="metadata5062">
    <rdf:RDF>
      <cc:Work rdf:about="">
        <dc:format>image/svg+xml</dc:format>
        <dc:type rdf:resource="http://purl.org/dc/dcmitype/StillImage"/>
        <dc:title/>
      </cc:Work>
    </rdf:RDF>
  </metadata>
  <g inkscape:groupmode="layer" id="layer171" inkscape:label="stick-move-rb" style="display:inline;opacity:1">
    <path style="display:inline;fill:#000000;stroke:none" d="m 42.65,22.53 q 0.55,0.55 0.55,1.4 0,8 -5.55,13.6 -5.6,5.55 -13.6,5.55 l 0,3 -6,-5 6,-5 0,3 q 6.3,0 10.75,-4.4 3.7,-3.7 4.3,-8.75 l -3.2,0 q -0.55,3.7 -3.35,6.5 -3.5,3.5 -8.5,3.5 -5,0 -8.5,-3.5 -3.5,-3.5 -3.5,-8.5 0,-5 3.5,-8.5 3.5,-3.5 8.5,-3.5 5,0 8.5,3.5 2.8,2.8 3.35,6.5 l 5.3,0 q 0.85,0 1.45,0.6" id="path6330" inkscape:connector-curvature="0"/>
  </g>
  </svg>