<svg xmlns:dc="http://purl.org/dc/elements/1.1/" xmlns:cc="http://creativecommons.org/ns#" xmlns:rdf="http://www.w3.org/1999/02/22-rdf-syntax-ns#" xmlns:svg="http://www.w3.org/2000/svg" xmlns="http://www.w3.org/2000/svg" xmlns:sodipodi="http://sodipodi.sourceforge.net/DTD/sodipodi-0.dtd" xmlns:inkscape="http://www.inkscape.org/namespaces/inkscape" width="48" height="48" id="svg5057" version="1.1" inkscape:version="0.91 r13725" viewBox="0 0 48 48" sodipodi:docname="all_icons.tar">
  <defs id="defs5059"/>
  <sodipodi:namedview id="base" pagecolor="#ffffff" bordercolor="#666666" borderopacity="1.0" inkscape:pageopacity="0.0" inkscape:pageshadow="2" inkscape:zoom="5.3607533" inkscape:cx="17.083968" inkscape:cy="9.574371" inkscape:current-layer="layer36" showgrid="true" inkscape:grid-bbox="true" inkscape:document-units="px" inkscape:window-width="1680" inkscape:window-height="988" inkscape:window-x="-8" inkscape:window-y="-8" inkscape:window-maximized="1" showguides="true">
    <inkscape:grid type="xygrid" id="grid6922"/>
  </sodipodi:namedview>
  <metadata id="metadata5062">
    <rdf:RDF>
      <cc:Work rdf:about="">
        <dc:format>image/svg+xml</dc:format>
        <dc:type rdf:resource="http://purl.org/dc/dcmitype/StillImage"/>
        <dc:title/>
      </cc:Work>
    </rdf:RDF>
  </metadata>
  <g inkscape:groupmode="layer" id="layer140" inkscape:label="stick-tilt-right" style="display:inline">
    <path style="display:inline;fill:#000000;stroke:none" d="m 39.08028,18.065157 q 3.2,5.95 0.5,10.45 -2.45,4.55 -9.3,4.75 l 0.05,0.05 q -2.85,0.1 -5.8,-0.7 l -4.45,7.699997 q -0.85,1.45 -2.45,1.9 l -0.1,0 q -1.6,0.3 -2.95,-0.45 l -5.1999997,-3 q -1.4,-0.85 -1.85,-2.3 l -0.05,-0.2 q -0.35,-1.549997 0.45,-2.949997 l 4.4499997,-7.7 q -2.15,-2.15 -3.4999997,-4.7 -3.15,-5.95 -0.45,-10.4 2.4999997,-4.5999998 9.2499997,-4.7999998 6.05,-0.25 12.3,3.4 6.3,3.5999998 9.1,8.9499998" id="path6644" inkscape:connector-curvature="0"/>
  </g>
  </svg>