<svg xmlns:dc="http://purl.org/dc/elements/1.1/" xmlns:cc="http://creativecommons.org/ns#" xmlns:rdf="http://www.w3.org/1999/02/22-rdf-syntax-ns#" xmlns:svg="http://www.w3.org/2000/svg" xmlns="http://www.w3.org/2000/svg" xmlns:sodipodi="http://sodipodi.sourceforge.net/DTD/sodipodi-0.dtd" xmlns:inkscape="http://www.inkscape.org/namespaces/inkscape" width="48" height="48" id="svg5057" version="1.1" inkscape:version="0.91 r13725" viewBox="0 0 48 48" sodipodi:docname="all_icons.tar">
  <defs id="defs5059"/>
  <sodipodi:namedview id="base" pagecolor="#ffffff" bordercolor="#666666" borderopacity="1.0" inkscape:pageopacity="0.0" inkscape:pageshadow="2" inkscape:zoom="5.3607533" inkscape:cx="17.083968" inkscape:cy="9.574371" inkscape:current-layer="layer36" showgrid="true" inkscape:grid-bbox="true" inkscape:document-units="px" inkscape:window-width="1680" inkscape:window-height="988" inkscape:window-x="-8" inkscape:window-y="-8" inkscape:window-maximized="1" showguides="true">
    <inkscape:grid type="xygrid" id="grid6922"/>
  </sodipodi:namedview>
  <metadata id="metadata5062">
    <rdf:RDF>
      <cc:Work rdf:about="">
        <dc:format>image/svg+xml</dc:format>
        <dc:type rdf:resource="http://purl.org/dc/dcmitype/StillImage"/>
        <dc:title/>
      </cc:Work>
    </rdf:RDF>
  </metadata>
  <g inkscape:groupmode="layer" id="layer167" inkscape:label="stick-move-bt2" style="display:inline;opacity:1">
    <path style="display:inline;fill:#000000;stroke:none" d="m 4.85,23.98 q 0,-8 5.6,-13.550001 Q 16,4.8299995 24,4.8299995 L 24,1.8299996 30,6.8299995 24,11.83 24,8.8299995 q -6.3,0 -10.7,4.4500005 -4.45,4.4 -4.45,10.7 0,6.3 4.45,10.75 3.65,3.7 8.7,4.3 l 0,-3.2 q -3.7,-0.55 -6.5,-3.35 -3.5,-3.5 -3.5,-8.5 0,-5 3.5,-8.5 3.5,-3.5 8.5,-3.5 5,0 8.5,3.5 3.5,3.5 3.5,8.5 0,5 -3.5,8.5 -2.8,2.8 -6.5,3.35 l 0,7.35 -2,-0.05 q -8,0 -13.55,-5.55 -5.6,-5.6 -5.6,-13.6" id="path6362" inkscape:connector-curvature="0"/>
  </g>
  </svg>