<svg xmlns:dc="http://purl.org/dc/elements/1.1/" xmlns:cc="http://creativecommons.org/ns#" xmlns:rdf="http://www.w3.org/1999/02/22-rdf-syntax-ns#" xmlns:svg="http://www.w3.org/2000/svg" xmlns="http://www.w3.org/2000/svg" xmlns:sodipodi="http://sodipodi.sourceforge.net/DTD/sodipodi-0.dtd" xmlns:inkscape="http://www.inkscape.org/namespaces/inkscape" width="48" height="48" id="svg5057" version="1.1" inkscape:version="0.91 r13725" viewBox="0 0 48 48" sodipodi:docname="all_icons.tar">
  <defs id="defs5059"/>
  <sodipodi:namedview id="base" pagecolor="#ffffff" bordercolor="#666666" borderopacity="1.0" inkscape:pageopacity="0.0" inkscape:pageshadow="2" inkscape:zoom="5.3607533" inkscape:cx="17.083968" inkscape:cy="9.574371" inkscape:current-layer="layer36" showgrid="true" inkscape:grid-bbox="true" inkscape:document-units="px" inkscape:window-width="1680" inkscape:window-height="988" inkscape:window-x="-8" inkscape:window-y="-8" inkscape:window-maximized="1" showguides="true">
    <inkscape:grid type="xygrid" id="grid6922"/>
  </sodipodi:namedview>
  <metadata id="metadata5062">
    <rdf:RDF>
      <cc:Work rdf:about="">
        <dc:format>image/svg+xml</dc:format>
        <dc:type rdf:resource="http://purl.org/dc/dcmitype/StillImage"/>
        <dc:title/>
      </cc:Work>
    </rdf:RDF>
  </metadata>
  <g inkscape:groupmode="layer" id="layer141" inkscape:label="stick-tilt-left" style="display:inline">
    <path style="display:inline;fill:#000000;stroke:none" d="m 39.117869,20.857077 q -1.35,2.6 -3.5,4.7 l 4.45,7.7 q 0.85,1.45 0.45,3.099997 l -0.1,0.1 q -0.5,1.5 -1.85,2.25 l -5.2,3 q -1.4,0.85 -2.95,0.5 l -0.15,-0.1 q -1.55,-0.45 -2.35,-1.85 l -4.45,-7.699997 q -2.95,0.85 -5.8,0.7 -6.75,-0.25 -9.2500004,-4.8 -2.7,-4.5 0.45,-10.4 2.8500004,-5.35 9.1000004,-9.0000003 6.3,-3.6 12.3,-3.35 6.8,0.15 9.3,4.7500003 2.75,4.45 -0.5,10.45 l 0.05,-0.05" id="path6640" inkscape:connector-curvature="0"/>
  </g>
  </svg>