<svg xmlns:dc="http://purl.org/dc/elements/1.1/" xmlns:cc="http://creativecommons.org/ns#" xmlns:rdf="http://www.w3.org/1999/02/22-rdf-syntax-ns#" xmlns:svg="http://www.w3.org/2000/svg" xmlns="http://www.w3.org/2000/svg" xmlns:sodipodi="http://sodipodi.sourceforge.net/DTD/sodipodi-0.dtd" xmlns:inkscape="http://www.inkscape.org/namespaces/inkscape" width="48" height="48" id="svg5057" version="1.1" inkscape:version="0.91 r13725" viewBox="0 0 48 48" sodipodi:docname="all_icons.tar">
  <defs id="defs5059"/>
  <sodipodi:namedview id="base" pagecolor="#ffffff" bordercolor="#666666" borderopacity="1.0" inkscape:pageopacity="0.0" inkscape:pageshadow="2" inkscape:zoom="5.3607533" inkscape:cx="17.083968" inkscape:cy="9.574371" inkscape:current-layer="layer36" showgrid="true" inkscape:grid-bbox="true" inkscape:document-units="px" inkscape:window-width="1680" inkscape:window-height="988" inkscape:window-x="-8" inkscape:window-y="-8" inkscape:window-maximized="1" showguides="true">
    <inkscape:grid type="xygrid" id="grid6922"/>
  </sodipodi:namedview>
  <metadata id="metadata5062">
    <rdf:RDF>
      <cc:Work rdf:about="">
        <dc:format>image/svg+xml</dc:format>
        <dc:type rdf:resource="http://purl.org/dc/dcmitype/StillImage"/>
        <dc:title/>
      </cc:Work>
    </rdf:RDF>
  </metadata>
  <g inkscape:groupmode="layer" id="layer136" inkscape:label="stick-right-top" style="display:inline">
    <path id="path6556" style="display:inline;fill:#000000;stroke:none" d="m 21.15,20.650002 2.2,0 q 1.45,0 2,0.4 0.6,0.4 0.6,1.5 0,1.05 -0.55,1.55 -0.55,0.5 -2.1,0.5 l -2.15,0 0,-3.95 m 2.05,-2.55 -5,0 0,13.3 2.95,0 0,-4.25 2.05,0 2.95,4.25 3.65,0 -3.35,-4.75 q 2.5,-0.950001 2.5,-4.1 0,-2.35 -1.3,-3.4 -1.35,-1.05 -4.45,-1.05 m 12.1,17.199996 q -4.65,4.700001 -11.3,4.700001 -6.65,0 -11.35,-4.700001 Q 8,30.650002 8,24.000002 q 0,-6.65 4.65,-11.35 4.7,-4.6500005 11.35,-4.6500005 6.65,0 11.3,4.6500005 4.7,4.7 4.7,11.35 0,6.65 -4.7,11.299997" inkscape:connector-curvature="0"/>
  </g>
  </svg>