<svg xmlns:dc="http://purl.org/dc/elements/1.1/" xmlns:cc="http://creativecommons.org/ns#" xmlns:rdf="http://www.w3.org/1999/02/22-rdf-syntax-ns#" xmlns:svg="http://www.w3.org/2000/svg" xmlns="http://www.w3.org/2000/svg" xmlns:sodipodi="http://sodipodi.sourceforge.net/DTD/sodipodi-0.dtd" xmlns:inkscape="http://www.inkscape.org/namespaces/inkscape" width="48" height="48" id="svg5057" version="1.1" inkscape:version="0.91 r13725" viewBox="0 0 48 48" sodipodi:docname="all_icons.tar">
  <defs id="defs5059"/>
  <sodipodi:namedview id="base" pagecolor="#ffffff" bordercolor="#666666" borderopacity="1.0" inkscape:pageopacity="0.0" inkscape:pageshadow="2" inkscape:zoom="5.3607533" inkscape:cx="17.083968" inkscape:cy="9.574371" inkscape:current-layer="layer36" showgrid="true" inkscape:grid-bbox="true" inkscape:document-units="px" inkscape:window-width="1680" inkscape:window-height="988" inkscape:window-x="-8" inkscape:window-y="-8" inkscape:window-maximized="1" showguides="true">
    <inkscape:grid type="xygrid" id="grid6922"/>
  </sodipodi:namedview>
  <metadata id="metadata5062">
    <rdf:RDF>
      <cc:Work rdf:about="">
        <dc:format>image/svg+xml</dc:format>
        <dc:type rdf:resource="http://purl.org/dc/dcmitype/StillImage"/>
        <dc:title/>
      </cc:Work>
    </rdf:RDF>
  </metadata>
  <g inkscape:groupmode="layer" id="layer138" inkscape:label="stick-left-side" style="display:inline">
    <path id="path6606" style="display:inline;fill:#000000;stroke:none" d="m 20.848971,13.475002 0,9.099999 5.9,0 0,-1.799999 -3.85,0 0,-7.3 -2.05,0 m 21.15,4.55 q 0.15,5.2 -5.65,8.75 l 0.05,0 q -2.45,1.549999 -5.4,2.349999 l 0,8.849997 q 0,1.7 -1.15,2.900001 l -0.1,0.05 q -1.2,1.05 -2.75,1.05 l -6,0 q -1.65,0 -2.8,-1.05 l -0.1,-0.15 q -1.1,-1.15 -1.1,-2.8 l 0,-8.849997 q -2.95,-0.8 -5.4,-2.349999 -5.6999997,-3.55 -5.5999997,-8.75 -0.1,-5.25 5.5999997,-8.8000005 5.15,-3.2 12.4,-3.2 7.25,0 12.35,3.2 5.75,3.5500005 5.65,8.8000005" inkscape:connector-curvature="0"/>
  </g>
  </svg>