<svg xmlns:dc="http://purl.org/dc/elements/1.1/" xmlns:cc="http://creativecommons.org/ns#" xmlns:rdf="http://www.w3.org/1999/02/22-rdf-syntax-ns#" xmlns:svg="http://www.w3.org/2000/svg" xmlns="http://www.w3.org/2000/svg" xmlns:sodipodi="http://sodipodi.sourceforge.net/DTD/sodipodi-0.dtd" xmlns:inkscape="http://www.inkscape.org/namespaces/inkscape" width="48" height="48" id="svg5057" version="1.1" inkscape:version="0.91 r13725" viewBox="0 0 48 48" sodipodi:docname="all_icons.tar">
  <defs id="defs5059"/>
  <sodipodi:namedview id="base" pagecolor="#ffffff" bordercolor="#666666" borderopacity="1.0" inkscape:pageopacity="0.0" inkscape:pageshadow="2" inkscape:zoom="5.3607533" inkscape:cx="17.083968" inkscape:cy="9.574371" inkscape:current-layer="layer36" showgrid="true" inkscape:grid-bbox="true" inkscape:document-units="px" inkscape:window-width="1680" inkscape:window-height="988" inkscape:window-x="-8" inkscape:window-y="-8" inkscape:window-maximized="1" showguides="true">
    <inkscape:grid type="xygrid" id="grid6922"/>
  </sodipodi:namedview>
  <metadata id="metadata5062">
    <rdf:RDF>
      <cc:Work rdf:about="">
        <dc:format>image/svg+xml</dc:format>
        <dc:type rdf:resource="http://purl.org/dc/dcmitype/StillImage"/>
        <dc:title/>
      </cc:Work>
    </rdf:RDF>
  </metadata>
  <g inkscape:groupmode="layer" id="layer161" inkscape:label="stick-move-bl" style="display:inline;opacity:1">
    <path style="display:inline;fill:#000000;stroke:none" d="m 24,11.98 q 5,0 8.5,3.5 3.5,3.5 3.5,8.5 0,5 -3.5,8.5 -3.4,3.4 -8.25,3.5 l 1.75,0 0,7.2 -2,-0.05 q -8,0 -13.55,-5.55 -5.6,-5.6 -5.6,-13.6 l -3,0 5,-6 5,6 -3,0 q 0,6.3 4.45,10.75 3.65,3.7 8.7,4.3 l 0,-3.05 1.75,0 q -4.85,-0.1 -8.25,-3.5 -3.5,-3.5 -3.5,-8.5 0,-5 3.5,-8.5 3.5,-3.5 8.5,-3.5" id="path6376" inkscape:connector-curvature="0"/>
  </g>
  </svg>