<svg xmlns:dc="http://purl.org/dc/elements/1.1/" xmlns:cc="http://creativecommons.org/ns#" xmlns:rdf="http://www.w3.org/1999/02/22-rdf-syntax-ns#" xmlns:svg="http://www.w3.org/2000/svg" xmlns="http://www.w3.org/2000/svg" xmlns:sodipodi="http://sodipodi.sourceforge.net/DTD/sodipodi-0.dtd" xmlns:inkscape="http://www.inkscape.org/namespaces/inkscape" width="48" height="48" id="svg5057" version="1.1" inkscape:version="0.91 r13725" viewBox="0 0 48 48" sodipodi:docname="all_icons.tar">
  <defs id="defs5059"/>
  <sodipodi:namedview id="base" pagecolor="#ffffff" bordercolor="#666666" borderopacity="1.0" inkscape:pageopacity="0.0" inkscape:pageshadow="2" inkscape:zoom="5.3607533" inkscape:cx="17.083968" inkscape:cy="9.574371" inkscape:current-layer="layer36" showgrid="true" inkscape:grid-bbox="true" inkscape:document-units="px" inkscape:window-width="1680" inkscape:window-height="988" inkscape:window-x="-8" inkscape:window-y="-8" inkscape:window-maximized="1" showguides="true">
    <inkscape:grid type="xygrid" id="grid6922"/>
  </sodipodi:namedview>
  <metadata id="metadata5062">
    <rdf:RDF>
      <cc:Work rdf:about="">
        <dc:format>image/svg+xml</dc:format>
        <dc:type rdf:resource="http://purl.org/dc/dcmitype/StillImage"/>
        <dc:title/>
      </cc:Work>
    </rdf:RDF>
  </metadata>
  <g inkscape:groupmode="layer" id="layer163" inkscape:label="stick-move-bt" style="display:inline;opacity:1">
    <path style="display:inline;fill:#000000;stroke:none" d="m 37.35,10.130076 0,0.05 0.05,0 0.25,0.25 q 5.55,5.55 5.55,13.55 0,8 -5.55,13.6 -5.6,5.55 -13.6,5.55 l -2,0.05 0,-7.35 q -3.7,-0.55 -6.5,-3.35 -3.5,-3.5 -3.5,-8.5 0,-5 3.5,-8.5 3.5,-3.5 8.5,-3.5 5,0 8.5,3.5 3.5,3.5 3.5,8.5 0,5 -3.5,8.5 -2.8,2.8 -6.5,3.35 l 0,3.2 q 5.05,-0.6 8.75,-4.3 4.4,-4.45 4.4,-10.75 0,-6.3 -4.4,-10.7 l -0.25,-0.25 0.05,0 Q 30.2,8.8300764 24.05,8.8300764 l 0,2.9999996 -6,-4.9999997 6,-5 0,3 q 7.75,0 13.3,5.2999997" id="path6368" inkscape:connector-curvature="0"/>
  </g>
  </svg>