<svg xmlns:dc="http://purl.org/dc/elements/1.1/" xmlns:cc="http://creativecommons.org/ns#" xmlns:rdf="http://www.w3.org/1999/02/22-rdf-syntax-ns#" xmlns:svg="http://www.w3.org/2000/svg" xmlns="http://www.w3.org/2000/svg" xmlns:sodipodi="http://sodipodi.sourceforge.net/DTD/sodipodi-0.dtd" xmlns:inkscape="http://www.inkscape.org/namespaces/inkscape" width="48" height="48" id="svg5057" version="1.1" inkscape:version="0.91 r13725" viewBox="0 0 48 48" sodipodi:docname="all_icons.tar">
  <defs id="defs5059"/>
  <sodipodi:namedview id="base" pagecolor="#ffffff" bordercolor="#666666" borderopacity="1.0" inkscape:pageopacity="0.0" inkscape:pageshadow="2" inkscape:zoom="5.3607533" inkscape:cx="17.083968" inkscape:cy="9.574371" inkscape:current-layer="layer36" showgrid="true" inkscape:grid-bbox="true" inkscape:document-units="px" inkscape:window-width="1680" inkscape:window-height="988" inkscape:window-x="-8" inkscape:window-y="-8" inkscape:window-maximized="1" showguides="true">
    <inkscape:grid type="xygrid" id="grid6922"/>
  </sodipodi:namedview>
  <metadata id="metadata5062">
    <rdf:RDF>
      <cc:Work rdf:about="">
        <dc:format>image/svg+xml</dc:format>
        <dc:type rdf:resource="http://purl.org/dc/dcmitype/StillImage"/>
        <dc:title/>
      </cc:Work>
    </rdf:RDF>
  </metadata>
  <g inkscape:groupmode="layer" id="layer122" inkscape:label="top" style="display:inline">
    <path id="path6610" style="display:inline;fill:#000000;stroke:none" d="m 40,41 q 0,0.85 -0.6,1.45 Q 38.8,43 38,43 L 10,43 Q 9.15,43 8.55,42.45 8,41.85 8,41 L 8,37.05 Q 8,36.2 8.55,35.6 9.15,35 10,35 l 28,0 q 0.8,0 1.4,0.6 0.6,0.6 0.6,1.4 l 0,4 M 38,21 q 0,0.85 -0.6,1.45 Q 36.8,23 35.95,23 l -5.95,0 0,8 q 0,0.85 -0.6,1.45 Q 28.8,33 27.95,33 L 20,33 Q 19.15,33 18.55,32.45 18,31.85 18,31 l 0,-8 -6,0 Q 11.15,23 10.55,22.45 10,21.85 10,21 l 0,-2 14,-14 14,14 0,2" inkscape:connector-curvature="0"/>
  </g>
  </svg>