<svg xmlns:dc="http://purl.org/dc/elements/1.1/" xmlns:cc="http://creativecommons.org/ns#" xmlns:rdf="http://www.w3.org/1999/02/22-rdf-syntax-ns#" xmlns:svg="http://www.w3.org/2000/svg" xmlns="http://www.w3.org/2000/svg" xmlns:sodipodi="http://sodipodi.sourceforge.net/DTD/sodipodi-0.dtd" xmlns:inkscape="http://www.inkscape.org/namespaces/inkscape" width="48" height="48" id="svg5057" version="1.1" inkscape:version="0.91 r13725" viewBox="0 0 48 48" sodipodi:docname="all_icons.tar">
  <defs id="defs5059"/>
  <sodipodi:namedview id="base" pagecolor="#ffffff" bordercolor="#666666" borderopacity="1.0" inkscape:pageopacity="0.0" inkscape:pageshadow="2" inkscape:zoom="5.3607533" inkscape:cx="17.083968" inkscape:cy="9.574371" inkscape:current-layer="layer36" showgrid="true" inkscape:grid-bbox="true" inkscape:document-units="px" inkscape:window-width="1680" inkscape:window-height="988" inkscape:window-x="-8" inkscape:window-y="-8" inkscape:window-maximized="1" showguides="true">
    <inkscape:grid type="xygrid" id="grid6922"/>
  </sodipodi:namedview>
  <metadata id="metadata5062">
    <rdf:RDF>
      <cc:Work rdf:about="">
        <dc:format>image/svg+xml</dc:format>
        <dc:type rdf:resource="http://purl.org/dc/dcmitype/StillImage"/>
        <dc:title/>
      </cc:Work>
    </rdf:RDF>
  </metadata>
  <g inkscape:groupmode="layer" id="layer58" inkscape:label="trash-alt" style="display:inline">
    <path id="path5383" style="fill:#000000;stroke:none" d="m 12.786364,41.280769 0,-20.1 24,0 0,20.1 q 0,0.85 -0.6,1.45 -0.6,0.55 -1.4,0.55 l -20,0 q -0.85,0 -1.45,-0.55 -0.55,-0.6 -0.55,-1.45 m -1.35,-29.25 q 0.4,-0.8 1.2,-1 l 4.85,-1.2999998 -0.2,-0.9 q -0.25,-0.85 0.15,-1.55 0.4,-0.75 1.25,-0.95 l 5.8,-1.55 q 0.75,-0.2 1.5,0.25 0.7,0.35 0.9,1.15 l 0.25,0.95 4.85,-1.25 q 0.75,-0.25 1.55,0.2 0.7,0.4 0.9,1.2 l 1.5,5.6999998 -23.15,6.2 -1.5,-5.65 q -0.2,-0.85 0.15,-1.5" inkscape:connector-curvature="0"/>
  </g>
  </svg>