<svg xmlns:dc="http://purl.org/dc/elements/1.1/" xmlns:cc="http://creativecommons.org/ns#" xmlns:rdf="http://www.w3.org/1999/02/22-rdf-syntax-ns#" xmlns:svg="http://www.w3.org/2000/svg" xmlns="http://www.w3.org/2000/svg" xmlns:sodipodi="http://sodipodi.sourceforge.net/DTD/sodipodi-0.dtd" xmlns:inkscape="http://www.inkscape.org/namespaces/inkscape" width="48" height="48" id="svg5057" version="1.1" inkscape:version="0.91 r13725" viewBox="0 0 48 48" sodipodi:docname="all_icons.tar">
  <defs id="defs5059"/>
  <sodipodi:namedview id="base" pagecolor="#ffffff" bordercolor="#666666" borderopacity="1.0" inkscape:pageopacity="0.0" inkscape:pageshadow="2" inkscape:zoom="5.3607533" inkscape:cx="17.083968" inkscape:cy="9.574371" inkscape:current-layer="layer36" showgrid="true" inkscape:grid-bbox="true" inkscape:document-units="px" inkscape:window-width="1680" inkscape:window-height="988" inkscape:window-x="-8" inkscape:window-y="-8" inkscape:window-maximized="1" showguides="true">
    <inkscape:grid type="xygrid" id="grid6922"/>
  </sodipodi:namedview>
  <metadata id="metadata5062">
    <rdf:RDF>
      <cc:Work rdf:about="">
        <dc:format>image/svg+xml</dc:format>
        <dc:type rdf:resource="http://purl.org/dc/dcmitype/StillImage"/>
        <dc:title/>
      </cc:Work>
    </rdf:RDF>
  </metadata>
  <g inkscape:groupmode="layer" id="layer57" inkscape:label="trash" style="display:inline">
    <path id="path5385" style="fill:#000000;stroke:none" d="m 34,41.5 -20,0 q -0.85,0 -1.45,-0.55 Q 12,40.35 12,39.5 l 0,-20.1 24,0 0,20.1 q 0,0.85 -0.6,1.45 -0.6,0.55 -1.4,0.55 m -5,-32 5,0 q 0.8,0 1.4,0.6 0.6,0.6 0.6,1.4 l 0,5.9 -24,0 0,-5.85 Q 12,10.7 12.55,10.1 13.15,9.5 14,9.5 l 5,0 0,-0.95 Q 19,7.7 19.55,7.1 20.15,6.5 21,6.5 l 6,0 q 0.8,0 1.4,0.6 0.6,0.6 0.6,1.4 l 0,1" inkscape:connector-curvature="0"/>
  </g>
  </svg>