<svg xmlns:dc="http://purl.org/dc/elements/1.1/" xmlns:cc="http://creativecommons.org/ns#" xmlns:rdf="http://www.w3.org/1999/02/22-rdf-syntax-ns#" xmlns:svg="http://www.w3.org/2000/svg" xmlns="http://www.w3.org/2000/svg" xmlns:sodipodi="http://sodipodi.sourceforge.net/DTD/sodipodi-0.dtd" xmlns:inkscape="http://www.inkscape.org/namespaces/inkscape" width="48" height="48" id="svg5057" version="1.1" inkscape:version="0.91 r13725" viewBox="0 0 48 48" sodipodi:docname="all_icons.tar">
  <defs id="defs5059"/>
  <sodipodi:namedview id="base" pagecolor="#ffffff" bordercolor="#666666" borderopacity="1.0" inkscape:pageopacity="0.0" inkscape:pageshadow="2" inkscape:zoom="5.3607533" inkscape:cx="17.083968" inkscape:cy="9.574371" inkscape:current-layer="layer36" showgrid="true" inkscape:grid-bbox="true" inkscape:document-units="px" inkscape:window-width="1680" inkscape:window-height="988" inkscape:window-x="-8" inkscape:window-y="-8" inkscape:window-maximized="1" showguides="true">
    <inkscape:grid type="xygrid" id="grid6922"/>
  </sodipodi:namedview>
  <metadata id="metadata5062">
    <rdf:RDF>
      <cc:Work rdf:about="">
        <dc:format>image/svg+xml</dc:format>
        <dc:type rdf:resource="http://purl.org/dc/dcmitype/StillImage"/>
        <dc:title/>
      </cc:Work>
    </rdf:RDF>
  </metadata>
  <g inkscape:groupmode="layer" id="layer42" inkscape:label="unlock" style="display:inline">
    <path id="path5393" style="fill:#000000;stroke:none" d="m 28,35 0,-4 -8,0 0,4 2,0 0,4 4,0 0,-4 2,0 m 4,-19 0,-2.95 4,0 0,2.95 -4,0 m 4,-7 0,4 -4,0 0,-4 -16,0 0,14 24,0 0,18 q 0,0.85 -0.6,1.45 Q 38.8,43 38,43 L 10,43 Q 9.15,43 8.55,42.45 8,41.85 8,41 L 8,23 12,23 12,9 Q 12,7.35 13.15,6.2 14.35,5 16,5 L 32,5 Q 33.65,5 34.8,6.2 36,7.4 36,9" inkscape:connector-curvature="0"/>
  </g>
  </svg>