<svg xmlns:dc="http://purl.org/dc/elements/1.1/" xmlns:cc="http://creativecommons.org/ns#" xmlns:rdf="http://www.w3.org/1999/02/22-rdf-syntax-ns#" xmlns:svg="http://www.w3.org/2000/svg" xmlns="http://www.w3.org/2000/svg" xmlns:sodipodi="http://sodipodi.sourceforge.net/DTD/sodipodi-0.dtd" xmlns:inkscape="http://www.inkscape.org/namespaces/inkscape" width="48" height="48" id="svg5057" version="1.1" inkscape:version="0.91 r13725" viewBox="0 0 48 48" sodipodi:docname="all_icons.tar">
  <defs id="defs5059"/>
  <sodipodi:namedview id="base" pagecolor="#ffffff" bordercolor="#666666" borderopacity="1.0" inkscape:pageopacity="0.0" inkscape:pageshadow="2" inkscape:zoom="5.3607533" inkscape:cx="17.083968" inkscape:cy="9.574371" inkscape:current-layer="layer36" showgrid="true" inkscape:grid-bbox="true" inkscape:document-units="px" inkscape:window-width="1680" inkscape:window-height="988" inkscape:window-x="-8" inkscape:window-y="-8" inkscape:window-maximized="1" showguides="true">
    <inkscape:grid type="xygrid" id="grid6922"/>
  </sodipodi:namedview>
  <metadata id="metadata5062">
    <rdf:RDF>
      <cc:Work rdf:about="">
        <dc:format>image/svg+xml</dc:format>
        <dc:type rdf:resource="http://purl.org/dc/dcmitype/StillImage"/>
        <dc:title/>
      </cc:Work>
    </rdf:RDF>
  </metadata>
  <g inkscape:groupmode="layer" id="layer35" inkscape:label="users-alt" style="display:inline">
    <path id="path5579" style="fill:#000000;stroke:none" d="m 16.075,13 q -0.65,1.55 -0.65,3.4 0,1.35 0.4,2.6 l -0.15,0.15 0.25,0.15 0.25,0.65 q -1.1,0.75 -2.05,1.7 l 0,0.05 q -4.15,4.15 -4.15,10.05 l 0,0.2 q -2.15,-0.3 -3.85,-1.25 -2.55,-1.3 -2.6,-3.25 l 0,-0.05 q 0,-3.65 2.6,-6.25 1.25,-1.35 2.85,-2 -1.35,-1.4 -1.35,-3.3 0,-1.95 1.35,-3.35 1.4,-1.4 3.35,-1.4 1.95,0 3.35,1.4 l 0.4,0.5 m 13.35,8.2 q 1.55,0.85 2.85,2.15 3.45,3.5 3.45,8.4 l 0,0.05 0,0.3 q -0.2,2.4 -3.45,4.1 -3.4,1.8 -8.25,1.8 -4.85,0 -8.3,-1.8 -3.2,-1.7 -3.4,-4.1 l 0,-0.3 0,-0.05 q 0,-4.9 3.4,-8.4 1.35,-1.3 2.85,-2.15 l 0.95,-0.45 q -1.75,-1.8 -1.75,-4.35 0,-2.65 1.85,-4.5 1.8,-1.9 4.4,-1.9 2.6,0 4.45,1.9 1.8,1.85 1.8,4.5 0,2.55 -1.75,4.35 l 0.9,0.45 m 2.6,-8.2 0.4,-0.5 q 1.4,-1.4 3.3,-1.4 1.95,0 3.35,1.4 1.35,1.4 1.35,3.35 0,1.9 -1.35,3.3 1.55,0.65 2.85,2 2.55,2.6 2.55,6.25 l 0,0.05 q 0,1.95 -2.55,3.25 -1.7,0.95 -3.85,1.25 l 0,-0.15 0,-0.05 q 0,-5.9 -4.15,-10.05 l 0,-0.05 -2.05,-1.7 0.3,-0.7 0.2,-0.1 -0.15,-0.1 q 0.4,-1.3 0.4,-2.65 0,-1.85 -0.6,-3.4" inkscape:connector-curvature="0"/>
  </g>
  </svg>