<svg xmlns:dc="http://purl.org/dc/elements/1.1/" xmlns:cc="http://creativecommons.org/ns#" xmlns:rdf="http://www.w3.org/1999/02/22-rdf-syntax-ns#" xmlns:svg="http://www.w3.org/2000/svg" xmlns="http://www.w3.org/2000/svg" xmlns:sodipodi="http://sodipodi.sourceforge.net/DTD/sodipodi-0.dtd" xmlns:inkscape="http://www.inkscape.org/namespaces/inkscape" width="48" height="48" id="svg5057" version="1.1" inkscape:version="0.91 r13725" viewBox="0 0 48 48" sodipodi:docname="all_icons.tar">
  <defs id="defs5059"/>
  <sodipodi:namedview id="base" pagecolor="#ffffff" bordercolor="#666666" borderopacity="1.0" inkscape:pageopacity="0.0" inkscape:pageshadow="2" inkscape:zoom="5.3607533" inkscape:cx="17.083968" inkscape:cy="9.574371" inkscape:current-layer="layer36" showgrid="true" inkscape:grid-bbox="true" inkscape:document-units="px" inkscape:window-width="1680" inkscape:window-height="988" inkscape:window-x="-8" inkscape:window-y="-8" inkscape:window-maximized="1" showguides="true">
    <inkscape:grid type="xygrid" id="grid6922"/>
  </sodipodi:namedview>
  <metadata id="metadata5062">
    <rdf:RDF>
      <cc:Work rdf:about="">
        <dc:format>image/svg+xml</dc:format>
        <dc:type rdf:resource="http://purl.org/dc/dcmitype/StillImage"/>
        <dc:title/>
      </cc:Work>
    </rdf:RDF>
  </metadata>
  <g inkscape:groupmode="layer" id="layer34" inkscape:label="users" style="display:inline">
    <path id="path5581" style="fill:#000000;stroke:none" d="m 20.45,21.2 q 1.8,0.75 3.3,2.25 L 24,23.7 q 2.7,2.9 2.7,6.95 0,2.15 -2.7,3.65 l -0.25,0.15 Q 20.8,36 16.6,36 12.4,36 9.45,34.45 6.55,32.9 6.5,30.65 q 0,-4.25 2.95,-7.2 1.5,-1.5 3.25,-2.25 -1.5,-1.55 -1.5,-3.75 0,-2.3 1.6,-3.85 1.55,-1.6 3.8,-1.6 2.25,0 3.85,1.6 1.55,1.55 1.55,3.85 0,2.2 -1.55,3.75 M 26,17.45 q 0,-2.3 1.6,-3.85 1.6,-1.6 3.8,-1.6 2.25,0 3.85,1.6 1.55,1.55 1.55,3.85 0,2.2 -1.55,3.75 1.8,0.75 3.3,2.25 2.95,2.95 2.95,7.2 0,2.25 -2.95,3.8 Q 35.6,36 31.4,36 l -5.15,-0.7 q 2.65,-1.95 2.45,-4.65 0,-4.8 -3.2,-8.3 0.95,-0.7 2.05,-1.15 Q 26,19.65 26,17.45" inkscape:connector-curvature="0"/>
  </g>
  </svg>