<svg xmlns:dc="http://purl.org/dc/elements/1.1/" xmlns:cc="http://creativecommons.org/ns#" xmlns:rdf="http://www.w3.org/1999/02/22-rdf-syntax-ns#" xmlns:svg="http://www.w3.org/2000/svg" xmlns="http://www.w3.org/2000/svg" xmlns:sodipodi="http://sodipodi.sourceforge.net/DTD/sodipodi-0.dtd" xmlns:inkscape="http://www.inkscape.org/namespaces/inkscape" width="48" height="48" id="svg5057" version="1.1" inkscape:version="0.91 r13725" viewBox="0 0 48 48" sodipodi:docname="all_icons.tar">
  <defs id="defs5059"/>
  <sodipodi:namedview id="base" pagecolor="#ffffff" bordercolor="#666666" borderopacity="1.0" inkscape:pageopacity="0.0" inkscape:pageshadow="2" inkscape:zoom="5.3607533" inkscape:cx="17.083968" inkscape:cy="9.574371" inkscape:current-layer="layer36" showgrid="true" inkscape:grid-bbox="true" inkscape:document-units="px" inkscape:window-width="1680" inkscape:window-height="988" inkscape:window-x="-8" inkscape:window-y="-8" inkscape:window-maximized="1" showguides="true">
    <inkscape:grid type="xygrid" id="grid6922"/>
  </sodipodi:namedview>
  <metadata id="metadata5062">
    <rdf:RDF>
      <cc:Work rdf:about="">
        <dc:format>image/svg+xml</dc:format>
        <dc:type rdf:resource="http://purl.org/dc/dcmitype/StillImage"/>
        <dc:title/>
      </cc:Work>
    </rdf:RDF>
  </metadata>
  <g inkscape:groupmode="layer" id="layer67" inkscape:label="volume-on" style="display:inline">
    <path id="path5147" style="fill:#000000;stroke:none" d="m 26.025,8 q 0.8,0 1.4,0.6 0.6,0.6 0.6,1.4 l 0,28 q 0,0.85 -0.6,1.45 -0.6,0.55 -1.4,0.55 l -2,0 -12,-12 -4,0 0,-8 4,0 12,-12 2,0 m 6.8,10.05 2.3,-3.3 1.5,1.3 0.05,0.05 q 3.3,3.35 3.3,8.05 0,4.75 -3.3,8.05 l -0.1,0.1 -1.45,1.25 -2.3,-3.3 0.9,-0.75 0.05,-0.05 q 2.2,-2.2 2.2,-5.3 0,-3.05 -2.2,-5.25 l -0.05,-0.1 -0.9,-0.75" inkscape:connector-curvature="0"/>
  </g>
  </svg>