<svg xmlns:dc="http://purl.org/dc/elements/1.1/" xmlns:cc="http://creativecommons.org/ns#" xmlns:rdf="http://www.w3.org/1999/02/22-rdf-syntax-ns#" xmlns:svg="http://www.w3.org/2000/svg" xmlns="http://www.w3.org/2000/svg" xmlns:sodipodi="http://sodipodi.sourceforge.net/DTD/sodipodi-0.dtd" xmlns:inkscape="http://www.inkscape.org/namespaces/inkscape" width="48" height="48" id="svg5057" version="1.1" inkscape:version="0.91 r13725" viewBox="0 0 48 48" sodipodi:docname="all_icons.tar">
  <defs id="defs5059"/>
  <sodipodi:namedview id="base" pagecolor="#ffffff" bordercolor="#666666" borderopacity="1.0" inkscape:pageopacity="0.0" inkscape:pageshadow="2" inkscape:zoom="5.3607533" inkscape:cx="17.083968" inkscape:cy="9.574371" inkscape:current-layer="layer36" showgrid="true" inkscape:grid-bbox="true" inkscape:document-units="px" inkscape:window-width="1680" inkscape:window-height="988" inkscape:window-x="-8" inkscape:window-y="-8" inkscape:window-maximized="1" showguides="true">
    <inkscape:grid type="xygrid" id="grid6922"/>
  </sodipodi:namedview>
  <metadata id="metadata5062">
    <rdf:RDF>
      <cc:Work rdf:about="">
        <dc:format>image/svg+xml</dc:format>
        <dc:type rdf:resource="http://purl.org/dc/dcmitype/StillImage"/>
        <dc:title/>
      </cc:Work>
    </rdf:RDF>
  </metadata>
  <g inkscape:groupmode="layer" id="layer48" inkscape:label="wrench" style="display:inline">
    <path id="path5437" style="fill:#000000;stroke:none" d="m 35.150312,32 q -1.6,-1.35 -3.25,0 l 0,0.05 -0.45,0.85 -0.05,0.1 -0.1,0.6 q 0,0.85 0.6,1.6 0.75,0.6 1.65,0.6 0.95,0 1.6,-0.6 0.75,-0.75 0.75,-1.6 l -0.1,-0.65 -0.6,-0.9 -0.05,-0.05 m -9.15,-20.95 q 2.75,2.5 3.2,6.15 l 0,0.1 0,0.05 0,1.45 -0.1,1.15 8.950001,8.85 q 1.7,1.5 1.899999,3.7 l 0.05,0.9 q 0,2.8 -1.9,4.65 l -0.05,0.05 q -1.75,1.8 -4.700001,1.8 -2.65,0 -4.65,-1.8 l 0,-0.05 -5.95,-5.9 -0.15,-0.4 -2.95,-2.8 -2.65,-0.15 0.1,0.05 q -3.5,-0.55 -5.95,-2.9 l 0,-0.05 q -3.5499995,-3.7 -3.0999995,-8.2 0.05,-1.45 0.6,-2.9 0.1,-0.3 0.35,-0.45 l 0.5,-0.1 0.4,0.25 5.6999995,5.7 1.1,0.6 1,-0.55 0,-0.05 2.4,-2.5 q 0.75,-0.7 0.4,-1.5 l -0.45,-0.7 -5.7,-5.45 -0.2,-0.4 q -0.1,-0.3 0.05,-0.5 0.1,-0.25 0.35,-0.35 0.65,-0.35 1.25,-0.55 l 0.05,0 4.75,-0.15 q 3.1,0.55 5.45,2.95 l -0.05,0" inkscape:connector-curvature="0"/>
  </g>
  </svg>